%TF.GenerationSoftware,KiCad,Pcbnew,(5.1.6)-1*%
%TF.CreationDate,2020-10-28T22:27:10+01:00*%
%TF.ProjectId,Basic_Clock,42617369-635f-4436-9c6f-636b2e6b6963,rev?*%
%TF.SameCoordinates,Original*%
%TF.FileFunction,Soldermask,Bot*%
%TF.FilePolarity,Negative*%
%FSLAX46Y46*%
G04 Gerber Fmt 4.6, Leading zero omitted, Abs format (unit mm)*
G04 Created by KiCad (PCBNEW (5.1.6)-1) date 2020-10-28 22:27:10*
%MOMM*%
%LPD*%
G01*
G04 APERTURE LIST*
%ADD10C,1.320000*%
%ADD11R,1.320000X1.320000*%
%ADD12O,1.700000X1.700000*%
%ADD13C,1.700000*%
%ADD14C,2.200000*%
%ADD15R,2.200000X2.200000*%
%ADD16C,2.300000*%
%ADD17O,1.800000X1.800000*%
%ADD18R,1.800000X1.800000*%
%ADD19C,2.100000*%
%ADD20C,1.600000*%
%ADD21O,2.100000X2.005000*%
%ADD22R,2.100000X2.005000*%
%ADD23C,1.900000*%
%ADD24R,1.900000X1.900000*%
%ADD25R,1.700000X1.700000*%
%ADD26R,2.100000X2.100000*%
%ADD27O,2.100000X2.100000*%
%ADD28C,3.300000*%
G04 APERTURE END LIST*
D10*
%TO.C,U3*%
X114460000Y-124460000D03*
X114460000Y-127000000D03*
X114460000Y-129540000D03*
X114460000Y-132080000D03*
X106520000Y-132080000D03*
X106520000Y-129540000D03*
X106520000Y-127000000D03*
D11*
X106520000Y-124460000D03*
%TD*%
D12*
%TO.C,R8*%
X120650000Y-134620000D03*
D13*
X120650000Y-121920000D03*
%TD*%
D14*
%TO.C,J3*%
X129540000Y-130810000D03*
D15*
X129540000Y-125730000D03*
%TD*%
D16*
%TO.C,H7*%
X129540000Y-119380000D03*
%TD*%
%TO.C,H6*%
X99060000Y-129540000D03*
%TD*%
%TO.C,H5*%
X99060000Y-109220000D03*
%TD*%
D17*
%TO.C,J_UART1*%
X91440000Y-139700000D03*
D18*
X93980000Y-139700000D03*
%TD*%
D17*
%TO.C,J_POWER1*%
X73660000Y-157480000D03*
D18*
X73660000Y-160020000D03*
%TD*%
D17*
%TO.C,J_I2C1*%
X114300000Y-137160000D03*
D18*
X114300000Y-139700000D03*
%TD*%
D13*
%TO.C,C5*%
X62230000Y-124540000D03*
X62230000Y-129540000D03*
%TD*%
D19*
%TO.C,SW4*%
X62230000Y-143360000D03*
X66730000Y-143360000D03*
X62230000Y-149860000D03*
X66730000Y-149860000D03*
%TD*%
D17*
%TO.C,J2*%
X88900000Y-118110000D03*
X88900000Y-120650000D03*
X88900000Y-123190000D03*
D18*
X88900000Y-125730000D03*
%TD*%
D17*
%TO.C,J1*%
X116840000Y-148590000D03*
X116840000Y-151130000D03*
X116840000Y-153670000D03*
D18*
X116840000Y-156210000D03*
%TD*%
D20*
%TO.C,Y1*%
X92710000Y-162360000D03*
X92710000Y-157480000D03*
%TD*%
D21*
%TO.C,U1*%
X44450000Y-137160000D03*
X44450000Y-139700000D03*
D22*
X44450000Y-142240000D03*
%TD*%
D19*
%TO.C,SW3*%
X72390000Y-140820000D03*
X76890000Y-140820000D03*
X72390000Y-147320000D03*
X76890000Y-147320000D03*
%TD*%
%TO.C,SW2*%
X82550000Y-134470000D03*
X87050000Y-134470000D03*
X82550000Y-140970000D03*
X87050000Y-140970000D03*
%TD*%
D23*
%TO.C,D1*%
X72390000Y-168910000D03*
D24*
X74930000Y-168910000D03*
%TD*%
D13*
%TO.C,C1*%
X87550000Y-157480000D03*
X82550000Y-157480000D03*
%TD*%
%TO.C,C2*%
X82550000Y-162560000D03*
X87550000Y-162560000D03*
%TD*%
%TO.C,C3*%
X53340000Y-114300000D03*
X58340000Y-114300000D03*
%TD*%
D25*
%TO.C,C4*%
X62230000Y-137160000D03*
D13*
X62230000Y-135160000D03*
%TD*%
%TO.C,C6*%
X110490000Y-156210000D03*
X110490000Y-151210000D03*
%TD*%
%TO.C,C7*%
X82630000Y-152400000D03*
X87630000Y-152400000D03*
%TD*%
D25*
%TO.C,U2*%
X97790000Y-137160000D03*
D12*
X105410000Y-170180000D03*
X97790000Y-139700000D03*
X105410000Y-167640000D03*
X97790000Y-142240000D03*
X105410000Y-165100000D03*
X97790000Y-144780000D03*
X105410000Y-162560000D03*
X97790000Y-147320000D03*
X105410000Y-160020000D03*
X97790000Y-149860000D03*
X105410000Y-157480000D03*
X97790000Y-152400000D03*
X105410000Y-154940000D03*
X97790000Y-154940000D03*
X105410000Y-152400000D03*
X97790000Y-157480000D03*
X105410000Y-149860000D03*
X97790000Y-160020000D03*
X105410000Y-147320000D03*
X97790000Y-162560000D03*
X105410000Y-144780000D03*
X97790000Y-165100000D03*
X105410000Y-142240000D03*
X97790000Y-167640000D03*
X105410000Y-139700000D03*
X97790000Y-170180000D03*
X105410000Y-137160000D03*
%TD*%
D26*
%TO.C,D2*%
X53340000Y-109220000D03*
D27*
X63500000Y-109220000D03*
%TD*%
D28*
%TO.C,H1*%
X40640000Y-107950000D03*
%TD*%
%TO.C,H2*%
X129540000Y-170180000D03*
%TD*%
%TO.C,H3*%
X40640000Y-170180000D03*
%TD*%
%TO.C,H4*%
X129540000Y-107950000D03*
%TD*%
D13*
%TO.C,R1*%
X66040000Y-156210000D03*
D12*
X53340000Y-156210000D03*
%TD*%
%TO.C,R2*%
X66040000Y-162560000D03*
D13*
X53340000Y-162560000D03*
%TD*%
%TO.C,R3*%
X53340000Y-168910000D03*
D12*
X66040000Y-168910000D03*
%TD*%
%TO.C,R4*%
X81280000Y-121920000D03*
D13*
X81280000Y-109220000D03*
%TD*%
%TO.C,R5*%
X76200000Y-109220000D03*
D12*
X76200000Y-121920000D03*
%TD*%
%TO.C,R6*%
X68580000Y-121920000D03*
D13*
X68580000Y-109220000D03*
%TD*%
D15*
%TO.C,J4*%
X41910000Y-120650000D03*
D14*
X41910000Y-115570000D03*
%TD*%
D13*
%TO.C,R7*%
X120650000Y-107950000D03*
D12*
X107950000Y-107950000D03*
%TD*%
M02*
