%TF.GenerationSoftware,KiCad,Pcbnew,(5.1.6)-1*%
%TF.CreationDate,2020-09-16T20:36:39+02:00*%
%TF.ProjectId,Basic_Clock,42617369-635f-4436-9c6f-636b2e6b6963,rev?*%
%TF.SameCoordinates,Original*%
%TF.FileFunction,Copper,L2,Bot*%
%TF.FilePolarity,Positive*%
%FSLAX46Y46*%
G04 Gerber Fmt 4.6, Leading zero omitted, Abs format (unit mm)*
G04 Created by KiCad (PCBNEW (5.1.6)-1) date 2020-09-16 20:36:39*
%MOMM*%
%LPD*%
G01*
G04 APERTURE LIST*
%TA.AperFunction,ComponentPad*%
%ADD10C,1.600000*%
%TD*%
%TA.AperFunction,ComponentPad*%
%ADD11C,1.998980*%
%TD*%
%TA.AperFunction,ComponentPad*%
%ADD12C,2.000000*%
%TD*%
%TA.AperFunction,ComponentPad*%
%ADD13O,2.400000X2.400000*%
%TD*%
%TA.AperFunction,ComponentPad*%
%ADD14C,2.400000*%
%TD*%
%TA.AperFunction,ComponentPad*%
%ADD15O,1.700000X1.700000*%
%TD*%
%TA.AperFunction,ComponentPad*%
%ADD16R,1.700000X1.700000*%
%TD*%
%TA.AperFunction,ComponentPad*%
%ADD17C,1.500000*%
%TD*%
%TA.AperFunction,ComponentPad*%
%ADD18O,2.000000X1.905000*%
%TD*%
%TA.AperFunction,ComponentPad*%
%ADD19R,2.000000X1.905000*%
%TD*%
%TA.AperFunction,ComponentPad*%
%ADD20O,2.000000X2.000000*%
%TD*%
%TA.AperFunction,ComponentPad*%
%ADD21R,2.000000X2.000000*%
%TD*%
%TA.AperFunction,ComponentPad*%
%ADD22C,1.800000*%
%TD*%
%TA.AperFunction,ComponentPad*%
%ADD23R,1.800000X1.800000*%
%TD*%
%TA.AperFunction,ComponentPad*%
%ADD24R,1.600000X1.600000*%
%TD*%
%TA.AperFunction,ComponentPad*%
%ADD25O,1.600000X1.600000*%
%TD*%
%TA.AperFunction,ViaPad*%
%ADD26C,0.800000*%
%TD*%
%TA.AperFunction,Conductor*%
%ADD27C,0.250000*%
%TD*%
%TA.AperFunction,Conductor*%
%ADD28C,0.254000*%
%TD*%
G04 APERTURE END LIST*
D10*
%TO.P,C5,2*%
%TO.N,Net-(C5-Pad2)*%
X59690000Y-114380000D03*
%TO.P,C5,1*%
%TO.N,+5V*%
X59690000Y-119380000D03*
%TD*%
D11*
%TO.P,J-VCC1,1*%
%TO.N,+28V*%
X46990000Y-107950000D03*
%TD*%
%TO.P,J-GND1,1*%
%TO.N,GND*%
X52070000Y-107950000D03*
%TD*%
D12*
%TO.P,SW4,1*%
%TO.N,GND*%
X62230000Y-144630000D03*
%TO.P,SW4,2*%
%TO.N,/PIN4*%
X66730000Y-144630000D03*
%TO.P,SW4,1*%
%TO.N,GND*%
X62230000Y-151130000D03*
%TO.P,SW4,2*%
%TO.N,/PIN4*%
X66730000Y-151130000D03*
%TD*%
D13*
%TO.P,R7,2*%
%TO.N,Net-(R7-Pad2)*%
X104140000Y-106680000D03*
D14*
%TO.P,R7,1*%
%TO.N,+5V*%
X88900000Y-106680000D03*
%TD*%
D15*
%TO.P,J3,4*%
%TO.N,GND*%
X129540000Y-127000000D03*
%TO.P,J3,3*%
%TO.N,Net-(J3-Pad3)*%
X129540000Y-124460000D03*
%TO.P,J3,2*%
%TO.N,Net-(J3-Pad2)*%
X129540000Y-121920000D03*
D16*
%TO.P,J3,1*%
%TO.N,+5V*%
X129540000Y-119380000D03*
%TD*%
D15*
%TO.P,J2,4*%
%TO.N,/RXD*%
X87630000Y-119380000D03*
%TO.P,J2,3*%
%TO.N,/RE*%
X87630000Y-121920000D03*
%TO.P,J2,2*%
%TO.N,/DE*%
X87630000Y-124460000D03*
D16*
%TO.P,J2,1*%
%TO.N,/TXD*%
X87630000Y-127000000D03*
%TD*%
D15*
%TO.P,J1,4*%
%TO.N,/SDA*%
X114300000Y-139700000D03*
%TO.P,J1,3*%
%TO.N,/SCL*%
X114300000Y-137160000D03*
%TO.P,J1,2*%
%TO.N,GND*%
X114300000Y-134620000D03*
D16*
%TO.P,J1,1*%
%TO.N,+5V*%
X114300000Y-132080000D03*
%TD*%
D17*
%TO.P,Y1,2*%
%TO.N,Net-(C2-Pad2)*%
X86360000Y-166170000D03*
%TO.P,Y1,1*%
%TO.N,Net-(C1-Pad2)*%
X86360000Y-161290000D03*
%TD*%
D18*
%TO.P,U1,3*%
%TO.N,+28V*%
X46990000Y-116840000D03*
%TO.P,U1,2*%
%TO.N,+5V*%
X46990000Y-119380000D03*
D19*
%TO.P,U1,1*%
%TO.N,Net-(R1-Pad2)*%
X46990000Y-121920000D03*
%TD*%
D12*
%TO.P,SW3,1*%
%TO.N,GND*%
X72390000Y-139550000D03*
%TO.P,SW3,2*%
%TO.N,/PIN3*%
X76890000Y-139550000D03*
%TO.P,SW3,1*%
%TO.N,GND*%
X72390000Y-146050000D03*
%TO.P,SW3,2*%
%TO.N,/PIN3*%
X76890000Y-146050000D03*
%TD*%
%TO.P,SW2,1*%
%TO.N,GND*%
X82550000Y-134470000D03*
%TO.P,SW2,2*%
%TO.N,/PIN2*%
X87050000Y-134470000D03*
%TO.P,SW2,1*%
%TO.N,GND*%
X82550000Y-140970000D03*
%TO.P,SW2,2*%
%TO.N,/PIN2*%
X87050000Y-140970000D03*
%TD*%
%TO.P,SW1,1*%
%TO.N,Net-(R7-Pad2)*%
X114150000Y-111760000D03*
%TO.P,SW1,2*%
%TO.N,GND*%
X114150000Y-107260000D03*
%TO.P,SW1,1*%
%TO.N,Net-(R7-Pad2)*%
X120650000Y-111760000D03*
%TO.P,SW1,2*%
%TO.N,GND*%
X120650000Y-107260000D03*
%TD*%
D13*
%TO.P,R6,2*%
%TO.N,/PIN4*%
X66040000Y-121920000D03*
D14*
%TO.P,R6,1*%
%TO.N,+5V*%
X66040000Y-106680000D03*
%TD*%
D13*
%TO.P,R5,2*%
%TO.N,/PIN3*%
X73660000Y-121920000D03*
D14*
%TO.P,R5,1*%
%TO.N,+5V*%
X73660000Y-106680000D03*
%TD*%
D13*
%TO.P,R4,2*%
%TO.N,/PIN2*%
X81280000Y-121920000D03*
D14*
%TO.P,R4,1*%
%TO.N,+5V*%
X81280000Y-106680000D03*
%TD*%
D13*
%TO.P,R3,2*%
%TO.N,Net-(D1-Pad2)*%
X55880000Y-161290000D03*
D14*
%TO.P,R3,1*%
%TO.N,+5V*%
X55880000Y-146050000D03*
%TD*%
D13*
%TO.P,R2,2*%
%TO.N,GND*%
X59690000Y-138430000D03*
D14*
%TO.P,R2,1*%
%TO.N,Net-(R1-Pad2)*%
X44450000Y-138430000D03*
%TD*%
D13*
%TO.P,R1,2*%
%TO.N,Net-(R1-Pad2)*%
X44450000Y-130810000D03*
D14*
%TO.P,R1,1*%
%TO.N,+5V*%
X59690000Y-130810000D03*
%TD*%
D20*
%TO.P,D2,2*%
%TO.N,+5V*%
X40640000Y-123190000D03*
D21*
%TO.P,D2,1*%
%TO.N,+28V*%
X40640000Y-118110000D03*
%TD*%
D22*
%TO.P,D1,2*%
%TO.N,Net-(D1-Pad2)*%
X57150000Y-167640000D03*
D23*
%TO.P,D1,1*%
%TO.N,GND*%
X54610000Y-167640000D03*
%TD*%
D10*
%TO.P,C1,2*%
%TO.N,Net-(C1-Pad2)*%
X79930000Y-161290000D03*
%TO.P,C1,1*%
%TO.N,GND*%
X74930000Y-161290000D03*
%TD*%
%TO.P,C2,1*%
%TO.N,GND*%
X74930000Y-166370000D03*
%TO.P,C2,2*%
%TO.N,Net-(C2-Pad2)*%
X79930000Y-166370000D03*
%TD*%
%TO.P,C3,1*%
%TO.N,+28V*%
X40640000Y-113030000D03*
%TO.P,C3,2*%
%TO.N,GND*%
X40640000Y-108030000D03*
%TD*%
D24*
%TO.P,C4,1*%
%TO.N,+5V*%
X53340000Y-119380000D03*
D10*
%TO.P,C4,2*%
%TO.N,GND*%
X53340000Y-117380000D03*
%TD*%
%TO.P,C6,1*%
%TO.N,+5V*%
X110490000Y-156210000D03*
%TO.P,C6,2*%
%TO.N,GND*%
X110490000Y-151210000D03*
%TD*%
%TO.P,C7,2*%
%TO.N,GND*%
X92710000Y-158670000D03*
%TO.P,C7,1*%
%TO.N,+5V*%
X92710000Y-153670000D03*
%TD*%
D24*
%TO.P,U2,1*%
%TO.N,Net-(R7-Pad2)*%
X97790000Y-137160000D03*
D25*
%TO.P,U2,15*%
%TO.N,GND*%
X105410000Y-170180000D03*
%TO.P,U2,2*%
%TO.N,/RXD*%
X97790000Y-139700000D03*
%TO.P,U2,16*%
%TO.N,GND*%
X105410000Y-167640000D03*
%TO.P,U2,3*%
%TO.N,/TXD*%
X97790000Y-142240000D03*
%TO.P,U2,17*%
%TO.N,GND*%
X105410000Y-165100000D03*
%TO.P,U2,4*%
%TO.N,/PIN2*%
X97790000Y-144780000D03*
%TO.P,U2,18*%
%TO.N,GND*%
X105410000Y-162560000D03*
%TO.P,U2,5*%
%TO.N,/PIN3*%
X97790000Y-147320000D03*
%TO.P,U2,19*%
%TO.N,GND*%
X105410000Y-160020000D03*
%TO.P,U2,6*%
%TO.N,/PIN4*%
X97790000Y-149860000D03*
%TO.P,U2,20*%
%TO.N,+5V*%
X105410000Y-157480000D03*
%TO.P,U2,7*%
X97790000Y-152400000D03*
%TO.P,U2,21*%
%TO.N,Net-(U2-Pad21)*%
X105410000Y-154940000D03*
%TO.P,U2,8*%
%TO.N,GND*%
X97790000Y-154940000D03*
%TO.P,U2,22*%
X105410000Y-152400000D03*
%TO.P,U2,9*%
%TO.N,Net-(C1-Pad2)*%
X97790000Y-157480000D03*
%TO.P,U2,23*%
%TO.N,GND*%
X105410000Y-149860000D03*
%TO.P,U2,10*%
%TO.N,Net-(C2-Pad2)*%
X97790000Y-160020000D03*
%TO.P,U2,24*%
%TO.N,GND*%
X105410000Y-147320000D03*
%TO.P,U2,11*%
X97790000Y-162560000D03*
%TO.P,U2,25*%
%TO.N,/RE*%
X105410000Y-144780000D03*
%TO.P,U2,12*%
%TO.N,GND*%
X97790000Y-165100000D03*
%TO.P,U2,26*%
%TO.N,/DE*%
X105410000Y-142240000D03*
%TO.P,U2,13*%
%TO.N,GND*%
X97790000Y-167640000D03*
%TO.P,U2,27*%
%TO.N,/SDA*%
X105410000Y-139700000D03*
%TO.P,U2,14*%
%TO.N,GND*%
X97790000Y-170180000D03*
%TO.P,U2,28*%
%TO.N,/SCL*%
X105410000Y-137160000D03*
%TD*%
D26*
%TO.N,GND*%
X105410000Y-167640000D03*
X105410000Y-170180000D03*
%TO.N,+5V*%
X97790000Y-152400000D03*
X105410000Y-157480000D03*
%TO.N,/DE*%
X87630000Y-124460000D03*
%TD*%
D27*
%TO.N,/PIN2*%
X97584999Y-144574999D02*
X97790000Y-144780000D01*
%TO.N,/RE*%
X87630000Y-121920000D02*
X92710000Y-121920000D01*
X106535001Y-135745001D02*
X106535001Y-143654999D01*
X106535001Y-143654999D02*
X105410000Y-144780000D01*
X92710000Y-121920000D02*
X106535001Y-135745001D01*
%TO.N,/DE*%
X87630000Y-124714998D02*
X87630000Y-124460000D01*
X87630000Y-124460000D02*
X105410000Y-142240000D01*
%TD*%
D28*
%TO.N,GND*%
G36*
X133960001Y-174600000D02*
G01*
X37490000Y-174600000D01*
X37490000Y-170529039D01*
X96398096Y-170529039D01*
X96438754Y-170663087D01*
X96558963Y-170917420D01*
X96726481Y-171143414D01*
X96934869Y-171332385D01*
X97176119Y-171477070D01*
X97440960Y-171571909D01*
X97663000Y-171450624D01*
X97663000Y-170307000D01*
X97917000Y-170307000D01*
X97917000Y-171450624D01*
X98139040Y-171571909D01*
X98403881Y-171477070D01*
X98645131Y-171332385D01*
X98853519Y-171143414D01*
X99021037Y-170917420D01*
X99141246Y-170663087D01*
X99181904Y-170529039D01*
X104018096Y-170529039D01*
X104058754Y-170663087D01*
X104178963Y-170917420D01*
X104346481Y-171143414D01*
X104554869Y-171332385D01*
X104796119Y-171477070D01*
X105060960Y-171571909D01*
X105283000Y-171450624D01*
X105283000Y-170307000D01*
X105537000Y-170307000D01*
X105537000Y-171450624D01*
X105759040Y-171571909D01*
X106023881Y-171477070D01*
X106265131Y-171332385D01*
X106473519Y-171143414D01*
X106641037Y-170917420D01*
X106761246Y-170663087D01*
X106801904Y-170529039D01*
X106679915Y-170307000D01*
X105537000Y-170307000D01*
X105283000Y-170307000D01*
X104140085Y-170307000D01*
X104018096Y-170529039D01*
X99181904Y-170529039D01*
X99059915Y-170307000D01*
X97917000Y-170307000D01*
X97663000Y-170307000D01*
X96520085Y-170307000D01*
X96398096Y-170529039D01*
X37490000Y-170529039D01*
X37490000Y-168540000D01*
X53071928Y-168540000D01*
X53084188Y-168664482D01*
X53120498Y-168784180D01*
X53179463Y-168894494D01*
X53258815Y-168991185D01*
X53355506Y-169070537D01*
X53465820Y-169129502D01*
X53585518Y-169165812D01*
X53710000Y-169178072D01*
X54324250Y-169175000D01*
X54483000Y-169016250D01*
X54483000Y-167767000D01*
X53233750Y-167767000D01*
X53075000Y-167925750D01*
X53071928Y-168540000D01*
X37490000Y-168540000D01*
X37490000Y-166740000D01*
X53071928Y-166740000D01*
X53075000Y-167354250D01*
X53233750Y-167513000D01*
X54483000Y-167513000D01*
X54483000Y-166263750D01*
X54737000Y-166263750D01*
X54737000Y-167513000D01*
X54757000Y-167513000D01*
X54757000Y-167767000D01*
X54737000Y-167767000D01*
X54737000Y-169016250D01*
X54895750Y-169175000D01*
X55510000Y-169178072D01*
X55634482Y-169165812D01*
X55754180Y-169129502D01*
X55864494Y-169070537D01*
X55961185Y-168991185D01*
X56040537Y-168894494D01*
X56099502Y-168784180D01*
X56105056Y-168765873D01*
X56171495Y-168832312D01*
X56422905Y-169000299D01*
X56702257Y-169116011D01*
X56998816Y-169175000D01*
X57301184Y-169175000D01*
X57597743Y-169116011D01*
X57877095Y-169000299D01*
X58128505Y-168832312D01*
X58342312Y-168618505D01*
X58510299Y-168367095D01*
X58626011Y-168087743D01*
X58645644Y-167989039D01*
X96398096Y-167989039D01*
X96438754Y-168123087D01*
X96558963Y-168377420D01*
X96726481Y-168603414D01*
X96934869Y-168792385D01*
X97130982Y-168910000D01*
X96934869Y-169027615D01*
X96726481Y-169216586D01*
X96558963Y-169442580D01*
X96438754Y-169696913D01*
X96398096Y-169830961D01*
X96520085Y-170053000D01*
X97663000Y-170053000D01*
X97663000Y-167767000D01*
X97917000Y-167767000D01*
X97917000Y-170053000D01*
X99059915Y-170053000D01*
X99181904Y-169830961D01*
X99141246Y-169696913D01*
X99021037Y-169442580D01*
X98853519Y-169216586D01*
X98645131Y-169027615D01*
X98449018Y-168910000D01*
X98645131Y-168792385D01*
X98853519Y-168603414D01*
X99021037Y-168377420D01*
X99141246Y-168123087D01*
X99181904Y-167989039D01*
X104018096Y-167989039D01*
X104058754Y-168123087D01*
X104178963Y-168377420D01*
X104346481Y-168603414D01*
X104554869Y-168792385D01*
X104750982Y-168910000D01*
X104554869Y-169027615D01*
X104346481Y-169216586D01*
X104178963Y-169442580D01*
X104058754Y-169696913D01*
X104018096Y-169830961D01*
X104140085Y-170053000D01*
X105283000Y-170053000D01*
X105283000Y-167767000D01*
X105537000Y-167767000D01*
X105537000Y-170053000D01*
X106679915Y-170053000D01*
X106801904Y-169830961D01*
X106761246Y-169696913D01*
X106641037Y-169442580D01*
X106473519Y-169216586D01*
X106265131Y-169027615D01*
X106069018Y-168910000D01*
X106265131Y-168792385D01*
X106473519Y-168603414D01*
X106641037Y-168377420D01*
X106761246Y-168123087D01*
X106801904Y-167989039D01*
X106679915Y-167767000D01*
X105537000Y-167767000D01*
X105283000Y-167767000D01*
X104140085Y-167767000D01*
X104018096Y-167989039D01*
X99181904Y-167989039D01*
X99059915Y-167767000D01*
X97917000Y-167767000D01*
X97663000Y-167767000D01*
X96520085Y-167767000D01*
X96398096Y-167989039D01*
X58645644Y-167989039D01*
X58685000Y-167791184D01*
X58685000Y-167488816D01*
X58659915Y-167362702D01*
X74116903Y-167362702D01*
X74188486Y-167606671D01*
X74443996Y-167727571D01*
X74718184Y-167796300D01*
X75000512Y-167810217D01*
X75280130Y-167768787D01*
X75546292Y-167673603D01*
X75671514Y-167606671D01*
X75743097Y-167362702D01*
X74930000Y-166549605D01*
X74116903Y-167362702D01*
X58659915Y-167362702D01*
X58626011Y-167192257D01*
X58510299Y-166912905D01*
X58342312Y-166661495D01*
X58128505Y-166447688D01*
X58117766Y-166440512D01*
X73489783Y-166440512D01*
X73531213Y-166720130D01*
X73626397Y-166986292D01*
X73693329Y-167111514D01*
X73937298Y-167183097D01*
X74750395Y-166370000D01*
X75109605Y-166370000D01*
X75922702Y-167183097D01*
X76166671Y-167111514D01*
X76287571Y-166856004D01*
X76356300Y-166581816D01*
X76370217Y-166299488D01*
X76359724Y-166228665D01*
X78495000Y-166228665D01*
X78495000Y-166511335D01*
X78550147Y-166788574D01*
X78658320Y-167049727D01*
X78815363Y-167284759D01*
X79015241Y-167484637D01*
X79250273Y-167641680D01*
X79511426Y-167749853D01*
X79788665Y-167805000D01*
X80071335Y-167805000D01*
X80348574Y-167749853D01*
X80609727Y-167641680D01*
X80844759Y-167484637D01*
X81044637Y-167284759D01*
X81201680Y-167049727D01*
X81309853Y-166788574D01*
X81365000Y-166511335D01*
X81365000Y-166228665D01*
X81326197Y-166033589D01*
X84975000Y-166033589D01*
X84975000Y-166306411D01*
X85028225Y-166573989D01*
X85132629Y-166826043D01*
X85284201Y-167052886D01*
X85477114Y-167245799D01*
X85703957Y-167397371D01*
X85956011Y-167501775D01*
X86223589Y-167555000D01*
X86496411Y-167555000D01*
X86763989Y-167501775D01*
X87016043Y-167397371D01*
X87242886Y-167245799D01*
X87435799Y-167052886D01*
X87587371Y-166826043D01*
X87691775Y-166573989D01*
X87745000Y-166306411D01*
X87745000Y-166033589D01*
X87691775Y-165766011D01*
X87587371Y-165513957D01*
X87543995Y-165449039D01*
X96398096Y-165449039D01*
X96438754Y-165583087D01*
X96558963Y-165837420D01*
X96726481Y-166063414D01*
X96934869Y-166252385D01*
X97130982Y-166370000D01*
X96934869Y-166487615D01*
X96726481Y-166676586D01*
X96558963Y-166902580D01*
X96438754Y-167156913D01*
X96398096Y-167290961D01*
X96520085Y-167513000D01*
X97663000Y-167513000D01*
X97663000Y-165227000D01*
X97917000Y-165227000D01*
X97917000Y-167513000D01*
X99059915Y-167513000D01*
X99181904Y-167290961D01*
X99141246Y-167156913D01*
X99021037Y-166902580D01*
X98853519Y-166676586D01*
X98645131Y-166487615D01*
X98449018Y-166370000D01*
X98645131Y-166252385D01*
X98853519Y-166063414D01*
X99021037Y-165837420D01*
X99141246Y-165583087D01*
X99181904Y-165449039D01*
X104018096Y-165449039D01*
X104058754Y-165583087D01*
X104178963Y-165837420D01*
X104346481Y-166063414D01*
X104554869Y-166252385D01*
X104750982Y-166370000D01*
X104554869Y-166487615D01*
X104346481Y-166676586D01*
X104178963Y-166902580D01*
X104058754Y-167156913D01*
X104018096Y-167290961D01*
X104140085Y-167513000D01*
X105283000Y-167513000D01*
X105283000Y-165227000D01*
X105537000Y-165227000D01*
X105537000Y-167513000D01*
X106679915Y-167513000D01*
X106801904Y-167290961D01*
X106761246Y-167156913D01*
X106641037Y-166902580D01*
X106473519Y-166676586D01*
X106265131Y-166487615D01*
X106069018Y-166370000D01*
X106265131Y-166252385D01*
X106473519Y-166063414D01*
X106641037Y-165837420D01*
X106761246Y-165583087D01*
X106801904Y-165449039D01*
X106679915Y-165227000D01*
X105537000Y-165227000D01*
X105283000Y-165227000D01*
X104140085Y-165227000D01*
X104018096Y-165449039D01*
X99181904Y-165449039D01*
X99059915Y-165227000D01*
X97917000Y-165227000D01*
X97663000Y-165227000D01*
X96520085Y-165227000D01*
X96398096Y-165449039D01*
X87543995Y-165449039D01*
X87435799Y-165287114D01*
X87242886Y-165094201D01*
X87016043Y-164942629D01*
X86763989Y-164838225D01*
X86496411Y-164785000D01*
X86223589Y-164785000D01*
X85956011Y-164838225D01*
X85703957Y-164942629D01*
X85477114Y-165094201D01*
X85284201Y-165287114D01*
X85132629Y-165513957D01*
X85028225Y-165766011D01*
X84975000Y-166033589D01*
X81326197Y-166033589D01*
X81309853Y-165951426D01*
X81201680Y-165690273D01*
X81044637Y-165455241D01*
X80844759Y-165255363D01*
X80609727Y-165098320D01*
X80348574Y-164990147D01*
X80071335Y-164935000D01*
X79788665Y-164935000D01*
X79511426Y-164990147D01*
X79250273Y-165098320D01*
X79015241Y-165255363D01*
X78815363Y-165455241D01*
X78658320Y-165690273D01*
X78550147Y-165951426D01*
X78495000Y-166228665D01*
X76359724Y-166228665D01*
X76328787Y-166019870D01*
X76233603Y-165753708D01*
X76166671Y-165628486D01*
X75922702Y-165556903D01*
X75109605Y-166370000D01*
X74750395Y-166370000D01*
X73937298Y-165556903D01*
X73693329Y-165628486D01*
X73572429Y-165883996D01*
X73503700Y-166158184D01*
X73489783Y-166440512D01*
X58117766Y-166440512D01*
X57877095Y-166279701D01*
X57597743Y-166163989D01*
X57301184Y-166105000D01*
X56998816Y-166105000D01*
X56702257Y-166163989D01*
X56422905Y-166279701D01*
X56171495Y-166447688D01*
X56105056Y-166514127D01*
X56099502Y-166495820D01*
X56040537Y-166385506D01*
X55961185Y-166288815D01*
X55864494Y-166209463D01*
X55754180Y-166150498D01*
X55634482Y-166114188D01*
X55510000Y-166101928D01*
X54895750Y-166105000D01*
X54737000Y-166263750D01*
X54483000Y-166263750D01*
X54324250Y-166105000D01*
X53710000Y-166101928D01*
X53585518Y-166114188D01*
X53465820Y-166150498D01*
X53355506Y-166209463D01*
X53258815Y-166288815D01*
X53179463Y-166385506D01*
X53120498Y-166495820D01*
X53084188Y-166615518D01*
X53071928Y-166740000D01*
X37490000Y-166740000D01*
X37490000Y-165377298D01*
X74116903Y-165377298D01*
X74930000Y-166190395D01*
X75743097Y-165377298D01*
X75671514Y-165133329D01*
X75416004Y-165012429D01*
X75141816Y-164943700D01*
X74859488Y-164929783D01*
X74579870Y-164971213D01*
X74313708Y-165066397D01*
X74188486Y-165133329D01*
X74116903Y-165377298D01*
X37490000Y-165377298D01*
X37490000Y-161109268D01*
X54045000Y-161109268D01*
X54045000Y-161470732D01*
X54115518Y-161825250D01*
X54253844Y-162159199D01*
X54454662Y-162459744D01*
X54710256Y-162715338D01*
X55010801Y-162916156D01*
X55344750Y-163054482D01*
X55699268Y-163125000D01*
X56060732Y-163125000D01*
X56415250Y-163054482D01*
X56749199Y-162916156D01*
X56759850Y-162909039D01*
X96398096Y-162909039D01*
X96438754Y-163043087D01*
X96558963Y-163297420D01*
X96726481Y-163523414D01*
X96934869Y-163712385D01*
X97130982Y-163830000D01*
X96934869Y-163947615D01*
X96726481Y-164136586D01*
X96558963Y-164362580D01*
X96438754Y-164616913D01*
X96398096Y-164750961D01*
X96520085Y-164973000D01*
X97663000Y-164973000D01*
X97663000Y-162687000D01*
X97917000Y-162687000D01*
X97917000Y-164973000D01*
X99059915Y-164973000D01*
X99181904Y-164750961D01*
X99141246Y-164616913D01*
X99021037Y-164362580D01*
X98853519Y-164136586D01*
X98645131Y-163947615D01*
X98449018Y-163830000D01*
X98645131Y-163712385D01*
X98853519Y-163523414D01*
X99021037Y-163297420D01*
X99141246Y-163043087D01*
X99181904Y-162909039D01*
X104018096Y-162909039D01*
X104058754Y-163043087D01*
X104178963Y-163297420D01*
X104346481Y-163523414D01*
X104554869Y-163712385D01*
X104750982Y-163830000D01*
X104554869Y-163947615D01*
X104346481Y-164136586D01*
X104178963Y-164362580D01*
X104058754Y-164616913D01*
X104018096Y-164750961D01*
X104140085Y-164973000D01*
X105283000Y-164973000D01*
X105283000Y-162687000D01*
X105537000Y-162687000D01*
X105537000Y-164973000D01*
X106679915Y-164973000D01*
X106801904Y-164750961D01*
X106761246Y-164616913D01*
X106641037Y-164362580D01*
X106473519Y-164136586D01*
X106265131Y-163947615D01*
X106069018Y-163830000D01*
X106265131Y-163712385D01*
X106473519Y-163523414D01*
X106641037Y-163297420D01*
X106761246Y-163043087D01*
X106801904Y-162909039D01*
X106679915Y-162687000D01*
X105537000Y-162687000D01*
X105283000Y-162687000D01*
X104140085Y-162687000D01*
X104018096Y-162909039D01*
X99181904Y-162909039D01*
X99059915Y-162687000D01*
X97917000Y-162687000D01*
X97663000Y-162687000D01*
X96520085Y-162687000D01*
X96398096Y-162909039D01*
X56759850Y-162909039D01*
X57049744Y-162715338D01*
X57305338Y-162459744D01*
X57423633Y-162282702D01*
X74116903Y-162282702D01*
X74188486Y-162526671D01*
X74443996Y-162647571D01*
X74718184Y-162716300D01*
X75000512Y-162730217D01*
X75280130Y-162688787D01*
X75546292Y-162593603D01*
X75671514Y-162526671D01*
X75743097Y-162282702D01*
X74930000Y-161469605D01*
X74116903Y-162282702D01*
X57423633Y-162282702D01*
X57506156Y-162159199D01*
X57644482Y-161825250D01*
X57715000Y-161470732D01*
X57715000Y-161360512D01*
X73489783Y-161360512D01*
X73531213Y-161640130D01*
X73626397Y-161906292D01*
X73693329Y-162031514D01*
X73937298Y-162103097D01*
X74750395Y-161290000D01*
X75109605Y-161290000D01*
X75922702Y-162103097D01*
X76166671Y-162031514D01*
X76287571Y-161776004D01*
X76356300Y-161501816D01*
X76370217Y-161219488D01*
X76359724Y-161148665D01*
X78495000Y-161148665D01*
X78495000Y-161431335D01*
X78550147Y-161708574D01*
X78658320Y-161969727D01*
X78815363Y-162204759D01*
X79015241Y-162404637D01*
X79250273Y-162561680D01*
X79511426Y-162669853D01*
X79788665Y-162725000D01*
X80071335Y-162725000D01*
X80348574Y-162669853D01*
X80609727Y-162561680D01*
X80844759Y-162404637D01*
X81044637Y-162204759D01*
X81201680Y-161969727D01*
X81309853Y-161708574D01*
X81365000Y-161431335D01*
X81365000Y-161153589D01*
X84975000Y-161153589D01*
X84975000Y-161426411D01*
X85028225Y-161693989D01*
X85132629Y-161946043D01*
X85284201Y-162172886D01*
X85477114Y-162365799D01*
X85703957Y-162517371D01*
X85956011Y-162621775D01*
X86223589Y-162675000D01*
X86496411Y-162675000D01*
X86763989Y-162621775D01*
X87016043Y-162517371D01*
X87242886Y-162365799D01*
X87435799Y-162172886D01*
X87587371Y-161946043D01*
X87691775Y-161693989D01*
X87745000Y-161426411D01*
X87745000Y-161153589D01*
X87691775Y-160886011D01*
X87587371Y-160633957D01*
X87435799Y-160407114D01*
X87242886Y-160214201D01*
X87016043Y-160062629D01*
X86763989Y-159958225D01*
X86496411Y-159905000D01*
X86223589Y-159905000D01*
X85956011Y-159958225D01*
X85703957Y-160062629D01*
X85477114Y-160214201D01*
X85284201Y-160407114D01*
X85132629Y-160633957D01*
X85028225Y-160886011D01*
X84975000Y-161153589D01*
X81365000Y-161153589D01*
X81365000Y-161148665D01*
X81309853Y-160871426D01*
X81201680Y-160610273D01*
X81044637Y-160375241D01*
X80844759Y-160175363D01*
X80609727Y-160018320D01*
X80348574Y-159910147D01*
X80071335Y-159855000D01*
X79788665Y-159855000D01*
X79511426Y-159910147D01*
X79250273Y-160018320D01*
X79015241Y-160175363D01*
X78815363Y-160375241D01*
X78658320Y-160610273D01*
X78550147Y-160871426D01*
X78495000Y-161148665D01*
X76359724Y-161148665D01*
X76328787Y-160939870D01*
X76233603Y-160673708D01*
X76166671Y-160548486D01*
X75922702Y-160476903D01*
X75109605Y-161290000D01*
X74750395Y-161290000D01*
X73937298Y-160476903D01*
X73693329Y-160548486D01*
X73572429Y-160803996D01*
X73503700Y-161078184D01*
X73489783Y-161360512D01*
X57715000Y-161360512D01*
X57715000Y-161109268D01*
X57644482Y-160754750D01*
X57506156Y-160420801D01*
X57423634Y-160297298D01*
X74116903Y-160297298D01*
X74930000Y-161110395D01*
X75743097Y-160297298D01*
X75671514Y-160053329D01*
X75416004Y-159932429D01*
X75141816Y-159863700D01*
X74859488Y-159849783D01*
X74579870Y-159891213D01*
X74313708Y-159986397D01*
X74188486Y-160053329D01*
X74116903Y-160297298D01*
X57423634Y-160297298D01*
X57305338Y-160120256D01*
X57049744Y-159864662D01*
X56749199Y-159663844D01*
X56746442Y-159662702D01*
X91896903Y-159662702D01*
X91968486Y-159906671D01*
X92223996Y-160027571D01*
X92498184Y-160096300D01*
X92780512Y-160110217D01*
X93060130Y-160068787D01*
X93326292Y-159973603D01*
X93451514Y-159906671D01*
X93523097Y-159662702D01*
X92710000Y-158849605D01*
X91896903Y-159662702D01*
X56746442Y-159662702D01*
X56415250Y-159525518D01*
X56060732Y-159455000D01*
X55699268Y-159455000D01*
X55344750Y-159525518D01*
X55010801Y-159663844D01*
X54710256Y-159864662D01*
X54454662Y-160120256D01*
X54253844Y-160420801D01*
X54115518Y-160754750D01*
X54045000Y-161109268D01*
X37490000Y-161109268D01*
X37490000Y-158740512D01*
X91269783Y-158740512D01*
X91311213Y-159020130D01*
X91406397Y-159286292D01*
X91473329Y-159411514D01*
X91717298Y-159483097D01*
X92530395Y-158670000D01*
X92889605Y-158670000D01*
X93702702Y-159483097D01*
X93946671Y-159411514D01*
X94067571Y-159156004D01*
X94136300Y-158881816D01*
X94150217Y-158599488D01*
X94108787Y-158319870D01*
X94013603Y-158053708D01*
X93946671Y-157928486D01*
X93702702Y-157856903D01*
X92889605Y-158670000D01*
X92530395Y-158670000D01*
X91717298Y-157856903D01*
X91473329Y-157928486D01*
X91352429Y-158183996D01*
X91283700Y-158458184D01*
X91269783Y-158740512D01*
X37490000Y-158740512D01*
X37490000Y-157677298D01*
X91896903Y-157677298D01*
X92710000Y-158490395D01*
X93523097Y-157677298D01*
X93451514Y-157433329D01*
X93251452Y-157338665D01*
X96355000Y-157338665D01*
X96355000Y-157621335D01*
X96410147Y-157898574D01*
X96518320Y-158159727D01*
X96675363Y-158394759D01*
X96875241Y-158594637D01*
X97107759Y-158750000D01*
X96875241Y-158905363D01*
X96675363Y-159105241D01*
X96518320Y-159340273D01*
X96410147Y-159601426D01*
X96355000Y-159878665D01*
X96355000Y-160161335D01*
X96410147Y-160438574D01*
X96518320Y-160699727D01*
X96675363Y-160934759D01*
X96875241Y-161134637D01*
X97110273Y-161291680D01*
X97120865Y-161296067D01*
X96934869Y-161407615D01*
X96726481Y-161596586D01*
X96558963Y-161822580D01*
X96438754Y-162076913D01*
X96398096Y-162210961D01*
X96520085Y-162433000D01*
X97663000Y-162433000D01*
X97663000Y-162413000D01*
X97917000Y-162413000D01*
X97917000Y-162433000D01*
X99059915Y-162433000D01*
X99181904Y-162210961D01*
X99141246Y-162076913D01*
X99021037Y-161822580D01*
X98853519Y-161596586D01*
X98645131Y-161407615D01*
X98459135Y-161296067D01*
X98469727Y-161291680D01*
X98704759Y-161134637D01*
X98904637Y-160934759D01*
X99061680Y-160699727D01*
X99169853Y-160438574D01*
X99183684Y-160369039D01*
X104018096Y-160369039D01*
X104058754Y-160503087D01*
X104178963Y-160757420D01*
X104346481Y-160983414D01*
X104554869Y-161172385D01*
X104750982Y-161290000D01*
X104554869Y-161407615D01*
X104346481Y-161596586D01*
X104178963Y-161822580D01*
X104058754Y-162076913D01*
X104018096Y-162210961D01*
X104140085Y-162433000D01*
X105283000Y-162433000D01*
X105283000Y-160147000D01*
X105537000Y-160147000D01*
X105537000Y-162433000D01*
X106679915Y-162433000D01*
X106801904Y-162210961D01*
X106761246Y-162076913D01*
X106641037Y-161822580D01*
X106473519Y-161596586D01*
X106265131Y-161407615D01*
X106069018Y-161290000D01*
X106265131Y-161172385D01*
X106473519Y-160983414D01*
X106641037Y-160757420D01*
X106761246Y-160503087D01*
X106801904Y-160369039D01*
X106679915Y-160147000D01*
X105537000Y-160147000D01*
X105283000Y-160147000D01*
X104140085Y-160147000D01*
X104018096Y-160369039D01*
X99183684Y-160369039D01*
X99225000Y-160161335D01*
X99225000Y-159878665D01*
X99169853Y-159601426D01*
X99061680Y-159340273D01*
X98904637Y-159105241D01*
X98704759Y-158905363D01*
X98472241Y-158750000D01*
X98704759Y-158594637D01*
X98904637Y-158394759D01*
X99061680Y-158159727D01*
X99169853Y-157898574D01*
X99225000Y-157621335D01*
X99225000Y-157338665D01*
X99169853Y-157061426D01*
X99061680Y-156800273D01*
X98904637Y-156565241D01*
X98704759Y-156365363D01*
X98469727Y-156208320D01*
X98459135Y-156203933D01*
X98645131Y-156092385D01*
X98853519Y-155903414D01*
X99021037Y-155677420D01*
X99141246Y-155423087D01*
X99181904Y-155289039D01*
X99059915Y-155067000D01*
X97917000Y-155067000D01*
X97917000Y-155087000D01*
X97663000Y-155087000D01*
X97663000Y-155067000D01*
X96520085Y-155067000D01*
X96398096Y-155289039D01*
X96438754Y-155423087D01*
X96558963Y-155677420D01*
X96726481Y-155903414D01*
X96934869Y-156092385D01*
X97120865Y-156203933D01*
X97110273Y-156208320D01*
X96875241Y-156365363D01*
X96675363Y-156565241D01*
X96518320Y-156800273D01*
X96410147Y-157061426D01*
X96355000Y-157338665D01*
X93251452Y-157338665D01*
X93196004Y-157312429D01*
X92921816Y-157243700D01*
X92639488Y-157229783D01*
X92359870Y-157271213D01*
X92093708Y-157366397D01*
X91968486Y-157433329D01*
X91896903Y-157677298D01*
X37490000Y-157677298D01*
X37490000Y-153528665D01*
X91275000Y-153528665D01*
X91275000Y-153811335D01*
X91330147Y-154088574D01*
X91438320Y-154349727D01*
X91595363Y-154584759D01*
X91795241Y-154784637D01*
X92030273Y-154941680D01*
X92291426Y-155049853D01*
X92568665Y-155105000D01*
X92851335Y-155105000D01*
X93128574Y-155049853D01*
X93389727Y-154941680D01*
X93624759Y-154784637D01*
X93824637Y-154584759D01*
X93981680Y-154349727D01*
X94089853Y-154088574D01*
X94145000Y-153811335D01*
X94145000Y-153528665D01*
X94089853Y-153251426D01*
X93981680Y-152990273D01*
X93824637Y-152755241D01*
X93624759Y-152555363D01*
X93389727Y-152398320D01*
X93128574Y-152290147D01*
X92851335Y-152235000D01*
X92568665Y-152235000D01*
X92291426Y-152290147D01*
X92030273Y-152398320D01*
X91795241Y-152555363D01*
X91595363Y-152755241D01*
X91438320Y-152990273D01*
X91330147Y-153251426D01*
X91275000Y-153528665D01*
X37490000Y-153528665D01*
X37490000Y-152265413D01*
X61274192Y-152265413D01*
X61369956Y-152529814D01*
X61659571Y-152670704D01*
X61971108Y-152752384D01*
X62292595Y-152771718D01*
X62611675Y-152727961D01*
X62916088Y-152622795D01*
X63090044Y-152529814D01*
X63185808Y-152265413D01*
X62230000Y-151309605D01*
X61274192Y-152265413D01*
X37490000Y-152265413D01*
X37490000Y-151192595D01*
X60588282Y-151192595D01*
X60632039Y-151511675D01*
X60737205Y-151816088D01*
X60830186Y-151990044D01*
X61094587Y-152085808D01*
X62050395Y-151130000D01*
X62409605Y-151130000D01*
X63365413Y-152085808D01*
X63629814Y-151990044D01*
X63770704Y-151700429D01*
X63852384Y-151388892D01*
X63871718Y-151067405D01*
X63858219Y-150968967D01*
X65095000Y-150968967D01*
X65095000Y-151291033D01*
X65157832Y-151606912D01*
X65281082Y-151904463D01*
X65460013Y-152172252D01*
X65687748Y-152399987D01*
X65955537Y-152578918D01*
X66253088Y-152702168D01*
X66568967Y-152765000D01*
X66891033Y-152765000D01*
X67206912Y-152702168D01*
X67504463Y-152578918D01*
X67772252Y-152399987D01*
X67999987Y-152172252D01*
X68178918Y-151904463D01*
X68302168Y-151606912D01*
X68365000Y-151291033D01*
X68365000Y-150968967D01*
X68302168Y-150653088D01*
X68178918Y-150355537D01*
X67999987Y-150087748D01*
X67772252Y-149860013D01*
X67504463Y-149681082D01*
X67206912Y-149557832D01*
X66891033Y-149495000D01*
X66568967Y-149495000D01*
X66253088Y-149557832D01*
X65955537Y-149681082D01*
X65687748Y-149860013D01*
X65460013Y-150087748D01*
X65281082Y-150355537D01*
X65157832Y-150653088D01*
X65095000Y-150968967D01*
X63858219Y-150968967D01*
X63827961Y-150748325D01*
X63722795Y-150443912D01*
X63629814Y-150269956D01*
X63365413Y-150174192D01*
X62409605Y-151130000D01*
X62050395Y-151130000D01*
X61094587Y-150174192D01*
X60830186Y-150269956D01*
X60689296Y-150559571D01*
X60607616Y-150871108D01*
X60588282Y-151192595D01*
X37490000Y-151192595D01*
X37490000Y-149994587D01*
X61274192Y-149994587D01*
X62230000Y-150950395D01*
X63185808Y-149994587D01*
X63090044Y-149730186D01*
X62800429Y-149589296D01*
X62488892Y-149507616D01*
X62167405Y-149488282D01*
X61848325Y-149532039D01*
X61543912Y-149637205D01*
X61369956Y-149730186D01*
X61274192Y-149994587D01*
X37490000Y-149994587D01*
X37490000Y-145869268D01*
X54045000Y-145869268D01*
X54045000Y-146230732D01*
X54115518Y-146585250D01*
X54253844Y-146919199D01*
X54454662Y-147219744D01*
X54710256Y-147475338D01*
X55010801Y-147676156D01*
X55344750Y-147814482D01*
X55699268Y-147885000D01*
X56060732Y-147885000D01*
X56415250Y-147814482D01*
X56749199Y-147676156D01*
X57049744Y-147475338D01*
X57305338Y-147219744D01*
X57328277Y-147185413D01*
X71434192Y-147185413D01*
X71529956Y-147449814D01*
X71819571Y-147590704D01*
X72131108Y-147672384D01*
X72452595Y-147691718D01*
X72771675Y-147647961D01*
X73076088Y-147542795D01*
X73250044Y-147449814D01*
X73345808Y-147185413D01*
X72390000Y-146229605D01*
X71434192Y-147185413D01*
X57328277Y-147185413D01*
X57506156Y-146919199D01*
X57644482Y-146585250D01*
X57715000Y-146230732D01*
X57715000Y-145869268D01*
X57694342Y-145765413D01*
X61274192Y-145765413D01*
X61369956Y-146029814D01*
X61659571Y-146170704D01*
X61971108Y-146252384D01*
X62292595Y-146271718D01*
X62611675Y-146227961D01*
X62916088Y-146122795D01*
X63090044Y-146029814D01*
X63185808Y-145765413D01*
X62230000Y-144809605D01*
X61274192Y-145765413D01*
X57694342Y-145765413D01*
X57644482Y-145514750D01*
X57506156Y-145180801D01*
X57305338Y-144880256D01*
X57117677Y-144692595D01*
X60588282Y-144692595D01*
X60632039Y-145011675D01*
X60737205Y-145316088D01*
X60830186Y-145490044D01*
X61094587Y-145585808D01*
X62050395Y-144630000D01*
X62409605Y-144630000D01*
X63365413Y-145585808D01*
X63629814Y-145490044D01*
X63770704Y-145200429D01*
X63852384Y-144888892D01*
X63871718Y-144567405D01*
X63858219Y-144468967D01*
X65095000Y-144468967D01*
X65095000Y-144791033D01*
X65157832Y-145106912D01*
X65281082Y-145404463D01*
X65460013Y-145672252D01*
X65687748Y-145899987D01*
X65955537Y-146078918D01*
X66253088Y-146202168D01*
X66568967Y-146265000D01*
X66891033Y-146265000D01*
X67206912Y-146202168D01*
X67423159Y-146112595D01*
X70748282Y-146112595D01*
X70792039Y-146431675D01*
X70897205Y-146736088D01*
X70990186Y-146910044D01*
X71254587Y-147005808D01*
X72210395Y-146050000D01*
X72569605Y-146050000D01*
X73525413Y-147005808D01*
X73789814Y-146910044D01*
X73930704Y-146620429D01*
X74012384Y-146308892D01*
X74031718Y-145987405D01*
X74018219Y-145888967D01*
X75255000Y-145888967D01*
X75255000Y-146211033D01*
X75317832Y-146526912D01*
X75441082Y-146824463D01*
X75620013Y-147092252D01*
X75847748Y-147319987D01*
X76115537Y-147498918D01*
X76413088Y-147622168D01*
X76728967Y-147685000D01*
X77051033Y-147685000D01*
X77366912Y-147622168D01*
X77664463Y-147498918D01*
X77932252Y-147319987D01*
X78159987Y-147092252D01*
X78338918Y-146824463D01*
X78462168Y-146526912D01*
X78525000Y-146211033D01*
X78525000Y-145888967D01*
X78462168Y-145573088D01*
X78338918Y-145275537D01*
X78159987Y-145007748D01*
X77932252Y-144780013D01*
X77664463Y-144601082D01*
X77366912Y-144477832D01*
X77051033Y-144415000D01*
X76728967Y-144415000D01*
X76413088Y-144477832D01*
X76115537Y-144601082D01*
X75847748Y-144780013D01*
X75620013Y-145007748D01*
X75441082Y-145275537D01*
X75317832Y-145573088D01*
X75255000Y-145888967D01*
X74018219Y-145888967D01*
X73987961Y-145668325D01*
X73882795Y-145363912D01*
X73789814Y-145189956D01*
X73525413Y-145094192D01*
X72569605Y-146050000D01*
X72210395Y-146050000D01*
X71254587Y-145094192D01*
X70990186Y-145189956D01*
X70849296Y-145479571D01*
X70767616Y-145791108D01*
X70748282Y-146112595D01*
X67423159Y-146112595D01*
X67504463Y-146078918D01*
X67772252Y-145899987D01*
X67999987Y-145672252D01*
X68178918Y-145404463D01*
X68302168Y-145106912D01*
X68340423Y-144914587D01*
X71434192Y-144914587D01*
X72390000Y-145870395D01*
X73345808Y-144914587D01*
X73250044Y-144650186D01*
X72960429Y-144509296D01*
X72648892Y-144427616D01*
X72327405Y-144408282D01*
X72008325Y-144452039D01*
X71703912Y-144557205D01*
X71529956Y-144650186D01*
X71434192Y-144914587D01*
X68340423Y-144914587D01*
X68365000Y-144791033D01*
X68365000Y-144468967D01*
X68302168Y-144153088D01*
X68178918Y-143855537D01*
X67999987Y-143587748D01*
X67772252Y-143360013D01*
X67504463Y-143181082D01*
X67206912Y-143057832D01*
X66891033Y-142995000D01*
X66568967Y-142995000D01*
X66253088Y-143057832D01*
X65955537Y-143181082D01*
X65687748Y-143360013D01*
X65460013Y-143587748D01*
X65281082Y-143855537D01*
X65157832Y-144153088D01*
X65095000Y-144468967D01*
X63858219Y-144468967D01*
X63827961Y-144248325D01*
X63722795Y-143943912D01*
X63629814Y-143769956D01*
X63365413Y-143674192D01*
X62409605Y-144630000D01*
X62050395Y-144630000D01*
X61094587Y-143674192D01*
X60830186Y-143769956D01*
X60689296Y-144059571D01*
X60607616Y-144371108D01*
X60588282Y-144692595D01*
X57117677Y-144692595D01*
X57049744Y-144624662D01*
X56749199Y-144423844D01*
X56415250Y-144285518D01*
X56060732Y-144215000D01*
X55699268Y-144215000D01*
X55344750Y-144285518D01*
X55010801Y-144423844D01*
X54710256Y-144624662D01*
X54454662Y-144880256D01*
X54253844Y-145180801D01*
X54115518Y-145514750D01*
X54045000Y-145869268D01*
X37490000Y-145869268D01*
X37490000Y-143494587D01*
X61274192Y-143494587D01*
X62230000Y-144450395D01*
X63185808Y-143494587D01*
X63090044Y-143230186D01*
X62800429Y-143089296D01*
X62488892Y-143007616D01*
X62167405Y-142988282D01*
X61848325Y-143032039D01*
X61543912Y-143137205D01*
X61369956Y-143230186D01*
X61274192Y-143494587D01*
X37490000Y-143494587D01*
X37490000Y-142105413D01*
X81594192Y-142105413D01*
X81689956Y-142369814D01*
X81979571Y-142510704D01*
X82291108Y-142592384D01*
X82612595Y-142611718D01*
X82931675Y-142567961D01*
X83236088Y-142462795D01*
X83410044Y-142369814D01*
X83505808Y-142105413D01*
X82550000Y-141149605D01*
X81594192Y-142105413D01*
X37490000Y-142105413D01*
X37490000Y-140685413D01*
X71434192Y-140685413D01*
X71529956Y-140949814D01*
X71819571Y-141090704D01*
X72131108Y-141172384D01*
X72452595Y-141191718D01*
X72771675Y-141147961D01*
X73076088Y-141042795D01*
X73250044Y-140949814D01*
X73345808Y-140685413D01*
X72390000Y-139729605D01*
X71434192Y-140685413D01*
X37490000Y-140685413D01*
X37490000Y-138249268D01*
X42615000Y-138249268D01*
X42615000Y-138610732D01*
X42685518Y-138965250D01*
X42823844Y-139299199D01*
X43024662Y-139599744D01*
X43280256Y-139855338D01*
X43580801Y-140056156D01*
X43914750Y-140194482D01*
X44269268Y-140265000D01*
X44630732Y-140265000D01*
X44985250Y-140194482D01*
X45319199Y-140056156D01*
X45619744Y-139855338D01*
X45875338Y-139599744D01*
X46076156Y-139299199D01*
X46214482Y-138965250D01*
X46239036Y-138841805D01*
X57901805Y-138841805D01*
X57974379Y-139081066D01*
X58134361Y-139403257D01*
X58354125Y-139688046D01*
X58625226Y-139924489D01*
X58937246Y-140103500D01*
X59278194Y-140218199D01*
X59563000Y-140101854D01*
X59563000Y-138557000D01*
X59817000Y-138557000D01*
X59817000Y-140101854D01*
X60101806Y-140218199D01*
X60442754Y-140103500D01*
X60754774Y-139924489D01*
X61025875Y-139688046D01*
X61084098Y-139612595D01*
X70748282Y-139612595D01*
X70792039Y-139931675D01*
X70897205Y-140236088D01*
X70990186Y-140410044D01*
X71254587Y-140505808D01*
X72210395Y-139550000D01*
X72569605Y-139550000D01*
X73525413Y-140505808D01*
X73789814Y-140410044D01*
X73930704Y-140120429D01*
X74012384Y-139808892D01*
X74031718Y-139487405D01*
X74018219Y-139388967D01*
X75255000Y-139388967D01*
X75255000Y-139711033D01*
X75317832Y-140026912D01*
X75441082Y-140324463D01*
X75620013Y-140592252D01*
X75847748Y-140819987D01*
X76115537Y-140998918D01*
X76413088Y-141122168D01*
X76728967Y-141185000D01*
X77051033Y-141185000D01*
X77366912Y-141122168D01*
X77583159Y-141032595D01*
X80908282Y-141032595D01*
X80952039Y-141351675D01*
X81057205Y-141656088D01*
X81150186Y-141830044D01*
X81414587Y-141925808D01*
X82370395Y-140970000D01*
X82729605Y-140970000D01*
X83685413Y-141925808D01*
X83949814Y-141830044D01*
X84090704Y-141540429D01*
X84172384Y-141228892D01*
X84191718Y-140907405D01*
X84178219Y-140808967D01*
X85415000Y-140808967D01*
X85415000Y-141131033D01*
X85477832Y-141446912D01*
X85601082Y-141744463D01*
X85780013Y-142012252D01*
X86007748Y-142239987D01*
X86275537Y-142418918D01*
X86573088Y-142542168D01*
X86888967Y-142605000D01*
X87211033Y-142605000D01*
X87526912Y-142542168D01*
X87824463Y-142418918D01*
X88092252Y-142239987D01*
X88319987Y-142012252D01*
X88498918Y-141744463D01*
X88622168Y-141446912D01*
X88685000Y-141131033D01*
X88685000Y-140808967D01*
X88622168Y-140493088D01*
X88498918Y-140195537D01*
X88319987Y-139927748D01*
X88092252Y-139700013D01*
X87824463Y-139521082D01*
X87526912Y-139397832D01*
X87211033Y-139335000D01*
X86888967Y-139335000D01*
X86573088Y-139397832D01*
X86275537Y-139521082D01*
X86007748Y-139700013D01*
X85780013Y-139927748D01*
X85601082Y-140195537D01*
X85477832Y-140493088D01*
X85415000Y-140808967D01*
X84178219Y-140808967D01*
X84147961Y-140588325D01*
X84042795Y-140283912D01*
X83949814Y-140109956D01*
X83685413Y-140014192D01*
X82729605Y-140970000D01*
X82370395Y-140970000D01*
X81414587Y-140014192D01*
X81150186Y-140109956D01*
X81009296Y-140399571D01*
X80927616Y-140711108D01*
X80908282Y-141032595D01*
X77583159Y-141032595D01*
X77664463Y-140998918D01*
X77932252Y-140819987D01*
X78159987Y-140592252D01*
X78338918Y-140324463D01*
X78462168Y-140026912D01*
X78500423Y-139834587D01*
X81594192Y-139834587D01*
X82550000Y-140790395D01*
X83505808Y-139834587D01*
X83410044Y-139570186D01*
X83120429Y-139429296D01*
X82808892Y-139347616D01*
X82487405Y-139328282D01*
X82168325Y-139372039D01*
X81863912Y-139477205D01*
X81689956Y-139570186D01*
X81594192Y-139834587D01*
X78500423Y-139834587D01*
X78525000Y-139711033D01*
X78525000Y-139388967D01*
X78462168Y-139073088D01*
X78338918Y-138775537D01*
X78159987Y-138507748D01*
X77932252Y-138280013D01*
X77664463Y-138101082D01*
X77366912Y-137977832D01*
X77051033Y-137915000D01*
X76728967Y-137915000D01*
X76413088Y-137977832D01*
X76115537Y-138101082D01*
X75847748Y-138280013D01*
X75620013Y-138507748D01*
X75441082Y-138775537D01*
X75317832Y-139073088D01*
X75255000Y-139388967D01*
X74018219Y-139388967D01*
X73987961Y-139168325D01*
X73882795Y-138863912D01*
X73789814Y-138689956D01*
X73525413Y-138594192D01*
X72569605Y-139550000D01*
X72210395Y-139550000D01*
X71254587Y-138594192D01*
X70990186Y-138689956D01*
X70849296Y-138979571D01*
X70767616Y-139291108D01*
X70748282Y-139612595D01*
X61084098Y-139612595D01*
X61245639Y-139403257D01*
X61405621Y-139081066D01*
X61478195Y-138841805D01*
X61361432Y-138557000D01*
X59817000Y-138557000D01*
X59563000Y-138557000D01*
X58018568Y-138557000D01*
X57901805Y-138841805D01*
X46239036Y-138841805D01*
X46285000Y-138610732D01*
X46285000Y-138414587D01*
X71434192Y-138414587D01*
X72390000Y-139370395D01*
X73345808Y-138414587D01*
X73250044Y-138150186D01*
X72960429Y-138009296D01*
X72648892Y-137927616D01*
X72327405Y-137908282D01*
X72008325Y-137952039D01*
X71703912Y-138057205D01*
X71529956Y-138150186D01*
X71434192Y-138414587D01*
X46285000Y-138414587D01*
X46285000Y-138249268D01*
X46239037Y-138018195D01*
X57901805Y-138018195D01*
X58018568Y-138303000D01*
X59563000Y-138303000D01*
X59563000Y-136758146D01*
X59817000Y-136758146D01*
X59817000Y-138303000D01*
X61361432Y-138303000D01*
X61478195Y-138018195D01*
X61405621Y-137778934D01*
X61245639Y-137456743D01*
X61025875Y-137171954D01*
X60754774Y-136935511D01*
X60442754Y-136756500D01*
X60101806Y-136641801D01*
X59817000Y-136758146D01*
X59563000Y-136758146D01*
X59278194Y-136641801D01*
X58937246Y-136756500D01*
X58625226Y-136935511D01*
X58354125Y-137171954D01*
X58134361Y-137456743D01*
X57974379Y-137778934D01*
X57901805Y-138018195D01*
X46239037Y-138018195D01*
X46214482Y-137894750D01*
X46076156Y-137560801D01*
X45875338Y-137260256D01*
X45619744Y-137004662D01*
X45319199Y-136803844D01*
X44985250Y-136665518D01*
X44630732Y-136595000D01*
X44269268Y-136595000D01*
X43914750Y-136665518D01*
X43580801Y-136803844D01*
X43280256Y-137004662D01*
X43024662Y-137260256D01*
X42823844Y-137560801D01*
X42685518Y-137894750D01*
X42615000Y-138249268D01*
X37490000Y-138249268D01*
X37490000Y-135605413D01*
X81594192Y-135605413D01*
X81689956Y-135869814D01*
X81979571Y-136010704D01*
X82291108Y-136092384D01*
X82612595Y-136111718D01*
X82931675Y-136067961D01*
X83236088Y-135962795D01*
X83410044Y-135869814D01*
X83505808Y-135605413D01*
X82550000Y-134649605D01*
X81594192Y-135605413D01*
X37490000Y-135605413D01*
X37490000Y-134532595D01*
X80908282Y-134532595D01*
X80952039Y-134851675D01*
X81057205Y-135156088D01*
X81150186Y-135330044D01*
X81414587Y-135425808D01*
X82370395Y-134470000D01*
X82729605Y-134470000D01*
X83685413Y-135425808D01*
X83949814Y-135330044D01*
X84090704Y-135040429D01*
X84172384Y-134728892D01*
X84191718Y-134407405D01*
X84178219Y-134308967D01*
X85415000Y-134308967D01*
X85415000Y-134631033D01*
X85477832Y-134946912D01*
X85601082Y-135244463D01*
X85780013Y-135512252D01*
X86007748Y-135739987D01*
X86275537Y-135918918D01*
X86573088Y-136042168D01*
X86888967Y-136105000D01*
X87211033Y-136105000D01*
X87526912Y-136042168D01*
X87824463Y-135918918D01*
X88092252Y-135739987D01*
X88319987Y-135512252D01*
X88498918Y-135244463D01*
X88622168Y-134946912D01*
X88685000Y-134631033D01*
X88685000Y-134308967D01*
X88622168Y-133993088D01*
X88498918Y-133695537D01*
X88319987Y-133427748D01*
X88092252Y-133200013D01*
X87824463Y-133021082D01*
X87526912Y-132897832D01*
X87211033Y-132835000D01*
X86888967Y-132835000D01*
X86573088Y-132897832D01*
X86275537Y-133021082D01*
X86007748Y-133200013D01*
X85780013Y-133427748D01*
X85601082Y-133695537D01*
X85477832Y-133993088D01*
X85415000Y-134308967D01*
X84178219Y-134308967D01*
X84147961Y-134088325D01*
X84042795Y-133783912D01*
X83949814Y-133609956D01*
X83685413Y-133514192D01*
X82729605Y-134470000D01*
X82370395Y-134470000D01*
X81414587Y-133514192D01*
X81150186Y-133609956D01*
X81009296Y-133899571D01*
X80927616Y-134211108D01*
X80908282Y-134532595D01*
X37490000Y-134532595D01*
X37490000Y-133334587D01*
X81594192Y-133334587D01*
X82550000Y-134290395D01*
X83505808Y-133334587D01*
X83410044Y-133070186D01*
X83120429Y-132929296D01*
X82808892Y-132847616D01*
X82487405Y-132828282D01*
X82168325Y-132872039D01*
X81863912Y-132977205D01*
X81689956Y-133070186D01*
X81594192Y-133334587D01*
X37490000Y-133334587D01*
X37490000Y-130629268D01*
X42615000Y-130629268D01*
X42615000Y-130990732D01*
X42685518Y-131345250D01*
X42823844Y-131679199D01*
X43024662Y-131979744D01*
X43280256Y-132235338D01*
X43580801Y-132436156D01*
X43914750Y-132574482D01*
X44269268Y-132645000D01*
X44630732Y-132645000D01*
X44985250Y-132574482D01*
X45319199Y-132436156D01*
X45619744Y-132235338D01*
X45875338Y-131979744D01*
X46076156Y-131679199D01*
X46214482Y-131345250D01*
X46285000Y-130990732D01*
X46285000Y-130629268D01*
X57855000Y-130629268D01*
X57855000Y-130990732D01*
X57925518Y-131345250D01*
X58063844Y-131679199D01*
X58264662Y-131979744D01*
X58520256Y-132235338D01*
X58820801Y-132436156D01*
X59154750Y-132574482D01*
X59509268Y-132645000D01*
X59870732Y-132645000D01*
X60225250Y-132574482D01*
X60559199Y-132436156D01*
X60859744Y-132235338D01*
X61115338Y-131979744D01*
X61316156Y-131679199D01*
X61454482Y-131345250D01*
X61525000Y-130990732D01*
X61525000Y-130629268D01*
X61454482Y-130274750D01*
X61316156Y-129940801D01*
X61115338Y-129640256D01*
X60859744Y-129384662D01*
X60559199Y-129183844D01*
X60225250Y-129045518D01*
X59870732Y-128975000D01*
X59509268Y-128975000D01*
X59154750Y-129045518D01*
X58820801Y-129183844D01*
X58520256Y-129384662D01*
X58264662Y-129640256D01*
X58063844Y-129940801D01*
X57925518Y-130274750D01*
X57855000Y-130629268D01*
X46285000Y-130629268D01*
X46214482Y-130274750D01*
X46076156Y-129940801D01*
X45875338Y-129640256D01*
X45619744Y-129384662D01*
X45319199Y-129183844D01*
X44985250Y-129045518D01*
X44630732Y-128975000D01*
X44269268Y-128975000D01*
X43914750Y-129045518D01*
X43580801Y-129183844D01*
X43280256Y-129384662D01*
X43024662Y-129640256D01*
X42823844Y-129940801D01*
X42685518Y-130274750D01*
X42615000Y-130629268D01*
X37490000Y-130629268D01*
X37490000Y-126150000D01*
X86141928Y-126150000D01*
X86141928Y-127850000D01*
X86154188Y-127974482D01*
X86190498Y-128094180D01*
X86249463Y-128204494D01*
X86328815Y-128301185D01*
X86425506Y-128380537D01*
X86535820Y-128439502D01*
X86655518Y-128475812D01*
X86780000Y-128488072D01*
X88480000Y-128488072D01*
X88604482Y-128475812D01*
X88724180Y-128439502D01*
X88834494Y-128380537D01*
X88931185Y-128301185D01*
X89010537Y-128204494D01*
X89069502Y-128094180D01*
X89105812Y-127974482D01*
X89118072Y-127850000D01*
X89118072Y-127022873D01*
X97817126Y-135721928D01*
X96990000Y-135721928D01*
X96865518Y-135734188D01*
X96745820Y-135770498D01*
X96635506Y-135829463D01*
X96538815Y-135908815D01*
X96459463Y-136005506D01*
X96400498Y-136115820D01*
X96364188Y-136235518D01*
X96351928Y-136360000D01*
X96351928Y-137960000D01*
X96364188Y-138084482D01*
X96400498Y-138204180D01*
X96459463Y-138314494D01*
X96538815Y-138411185D01*
X96635506Y-138490537D01*
X96745820Y-138549502D01*
X96865518Y-138585812D01*
X96873961Y-138586643D01*
X96675363Y-138785241D01*
X96518320Y-139020273D01*
X96410147Y-139281426D01*
X96355000Y-139558665D01*
X96355000Y-139841335D01*
X96410147Y-140118574D01*
X96518320Y-140379727D01*
X96675363Y-140614759D01*
X96875241Y-140814637D01*
X97107759Y-140970000D01*
X96875241Y-141125363D01*
X96675363Y-141325241D01*
X96518320Y-141560273D01*
X96410147Y-141821426D01*
X96355000Y-142098665D01*
X96355000Y-142381335D01*
X96410147Y-142658574D01*
X96518320Y-142919727D01*
X96675363Y-143154759D01*
X96875241Y-143354637D01*
X97107759Y-143510000D01*
X96875241Y-143665363D01*
X96675363Y-143865241D01*
X96518320Y-144100273D01*
X96410147Y-144361426D01*
X96355000Y-144638665D01*
X96355000Y-144921335D01*
X96410147Y-145198574D01*
X96518320Y-145459727D01*
X96675363Y-145694759D01*
X96875241Y-145894637D01*
X97107759Y-146050000D01*
X96875241Y-146205363D01*
X96675363Y-146405241D01*
X96518320Y-146640273D01*
X96410147Y-146901426D01*
X96355000Y-147178665D01*
X96355000Y-147461335D01*
X96410147Y-147738574D01*
X96518320Y-147999727D01*
X96675363Y-148234759D01*
X96875241Y-148434637D01*
X97107759Y-148590000D01*
X96875241Y-148745363D01*
X96675363Y-148945241D01*
X96518320Y-149180273D01*
X96410147Y-149441426D01*
X96355000Y-149718665D01*
X96355000Y-150001335D01*
X96410147Y-150278574D01*
X96518320Y-150539727D01*
X96675363Y-150774759D01*
X96875241Y-150974637D01*
X97107759Y-151130000D01*
X96875241Y-151285363D01*
X96675363Y-151485241D01*
X96518320Y-151720273D01*
X96410147Y-151981426D01*
X96355000Y-152258665D01*
X96355000Y-152541335D01*
X96410147Y-152818574D01*
X96518320Y-153079727D01*
X96675363Y-153314759D01*
X96875241Y-153514637D01*
X97110273Y-153671680D01*
X97120865Y-153676067D01*
X96934869Y-153787615D01*
X96726481Y-153976586D01*
X96558963Y-154202580D01*
X96438754Y-154456913D01*
X96398096Y-154590961D01*
X96520085Y-154813000D01*
X97663000Y-154813000D01*
X97663000Y-154793000D01*
X97917000Y-154793000D01*
X97917000Y-154813000D01*
X99059915Y-154813000D01*
X99067790Y-154798665D01*
X103975000Y-154798665D01*
X103975000Y-155081335D01*
X104030147Y-155358574D01*
X104138320Y-155619727D01*
X104295363Y-155854759D01*
X104495241Y-156054637D01*
X104727759Y-156210000D01*
X104495241Y-156365363D01*
X104295363Y-156565241D01*
X104138320Y-156800273D01*
X104030147Y-157061426D01*
X103975000Y-157338665D01*
X103975000Y-157621335D01*
X104030147Y-157898574D01*
X104138320Y-158159727D01*
X104295363Y-158394759D01*
X104495241Y-158594637D01*
X104730273Y-158751680D01*
X104740865Y-158756067D01*
X104554869Y-158867615D01*
X104346481Y-159056586D01*
X104178963Y-159282580D01*
X104058754Y-159536913D01*
X104018096Y-159670961D01*
X104140085Y-159893000D01*
X105283000Y-159893000D01*
X105283000Y-159873000D01*
X105537000Y-159873000D01*
X105537000Y-159893000D01*
X106679915Y-159893000D01*
X106801904Y-159670961D01*
X106761246Y-159536913D01*
X106641037Y-159282580D01*
X106473519Y-159056586D01*
X106265131Y-158867615D01*
X106079135Y-158756067D01*
X106089727Y-158751680D01*
X106324759Y-158594637D01*
X106524637Y-158394759D01*
X106681680Y-158159727D01*
X106789853Y-157898574D01*
X106845000Y-157621335D01*
X106845000Y-157338665D01*
X106789853Y-157061426D01*
X106681680Y-156800273D01*
X106524637Y-156565241D01*
X106324759Y-156365363D01*
X106092241Y-156210000D01*
X106303764Y-156068665D01*
X109055000Y-156068665D01*
X109055000Y-156351335D01*
X109110147Y-156628574D01*
X109218320Y-156889727D01*
X109375363Y-157124759D01*
X109575241Y-157324637D01*
X109810273Y-157481680D01*
X110071426Y-157589853D01*
X110348665Y-157645000D01*
X110631335Y-157645000D01*
X110908574Y-157589853D01*
X111169727Y-157481680D01*
X111404759Y-157324637D01*
X111604637Y-157124759D01*
X111761680Y-156889727D01*
X111869853Y-156628574D01*
X111925000Y-156351335D01*
X111925000Y-156068665D01*
X111869853Y-155791426D01*
X111761680Y-155530273D01*
X111604637Y-155295241D01*
X111404759Y-155095363D01*
X111169727Y-154938320D01*
X110908574Y-154830147D01*
X110631335Y-154775000D01*
X110348665Y-154775000D01*
X110071426Y-154830147D01*
X109810273Y-154938320D01*
X109575241Y-155095363D01*
X109375363Y-155295241D01*
X109218320Y-155530273D01*
X109110147Y-155791426D01*
X109055000Y-156068665D01*
X106303764Y-156068665D01*
X106324759Y-156054637D01*
X106524637Y-155854759D01*
X106681680Y-155619727D01*
X106789853Y-155358574D01*
X106845000Y-155081335D01*
X106845000Y-154798665D01*
X106789853Y-154521426D01*
X106681680Y-154260273D01*
X106524637Y-154025241D01*
X106324759Y-153825363D01*
X106089727Y-153668320D01*
X106079135Y-153663933D01*
X106265131Y-153552385D01*
X106473519Y-153363414D01*
X106641037Y-153137420D01*
X106761246Y-152883087D01*
X106801904Y-152749039D01*
X106679915Y-152527000D01*
X105537000Y-152527000D01*
X105537000Y-152547000D01*
X105283000Y-152547000D01*
X105283000Y-152527000D01*
X104140085Y-152527000D01*
X104018096Y-152749039D01*
X104058754Y-152883087D01*
X104178963Y-153137420D01*
X104346481Y-153363414D01*
X104554869Y-153552385D01*
X104740865Y-153663933D01*
X104730273Y-153668320D01*
X104495241Y-153825363D01*
X104295363Y-154025241D01*
X104138320Y-154260273D01*
X104030147Y-154521426D01*
X103975000Y-154798665D01*
X99067790Y-154798665D01*
X99181904Y-154590961D01*
X99141246Y-154456913D01*
X99021037Y-154202580D01*
X98853519Y-153976586D01*
X98645131Y-153787615D01*
X98459135Y-153676067D01*
X98469727Y-153671680D01*
X98704759Y-153514637D01*
X98904637Y-153314759D01*
X99061680Y-153079727D01*
X99169853Y-152818574D01*
X99225000Y-152541335D01*
X99225000Y-152258665D01*
X99169853Y-151981426D01*
X99061680Y-151720273D01*
X98904637Y-151485241D01*
X98704759Y-151285363D01*
X98472241Y-151130000D01*
X98704759Y-150974637D01*
X98904637Y-150774759D01*
X99061680Y-150539727D01*
X99169853Y-150278574D01*
X99183684Y-150209039D01*
X104018096Y-150209039D01*
X104058754Y-150343087D01*
X104178963Y-150597420D01*
X104346481Y-150823414D01*
X104554869Y-151012385D01*
X104750982Y-151130000D01*
X104554869Y-151247615D01*
X104346481Y-151436586D01*
X104178963Y-151662580D01*
X104058754Y-151916913D01*
X104018096Y-152050961D01*
X104140085Y-152273000D01*
X105283000Y-152273000D01*
X105283000Y-149987000D01*
X105537000Y-149987000D01*
X105537000Y-152273000D01*
X106679915Y-152273000D01*
X106718536Y-152202702D01*
X109676903Y-152202702D01*
X109748486Y-152446671D01*
X110003996Y-152567571D01*
X110278184Y-152636300D01*
X110560512Y-152650217D01*
X110840130Y-152608787D01*
X111106292Y-152513603D01*
X111231514Y-152446671D01*
X111303097Y-152202702D01*
X110490000Y-151389605D01*
X109676903Y-152202702D01*
X106718536Y-152202702D01*
X106801904Y-152050961D01*
X106761246Y-151916913D01*
X106641037Y-151662580D01*
X106473519Y-151436586D01*
X106301409Y-151280512D01*
X109049783Y-151280512D01*
X109091213Y-151560130D01*
X109186397Y-151826292D01*
X109253329Y-151951514D01*
X109497298Y-152023097D01*
X110310395Y-151210000D01*
X110669605Y-151210000D01*
X111482702Y-152023097D01*
X111726671Y-151951514D01*
X111847571Y-151696004D01*
X111916300Y-151421816D01*
X111930217Y-151139488D01*
X111888787Y-150859870D01*
X111793603Y-150593708D01*
X111726671Y-150468486D01*
X111482702Y-150396903D01*
X110669605Y-151210000D01*
X110310395Y-151210000D01*
X109497298Y-150396903D01*
X109253329Y-150468486D01*
X109132429Y-150723996D01*
X109063700Y-150998184D01*
X109049783Y-151280512D01*
X106301409Y-151280512D01*
X106265131Y-151247615D01*
X106069018Y-151130000D01*
X106265131Y-151012385D01*
X106473519Y-150823414D01*
X106641037Y-150597420D01*
X106761246Y-150343087D01*
X106799398Y-150217298D01*
X109676903Y-150217298D01*
X110490000Y-151030395D01*
X111303097Y-150217298D01*
X111231514Y-149973329D01*
X110976004Y-149852429D01*
X110701816Y-149783700D01*
X110419488Y-149769783D01*
X110139870Y-149811213D01*
X109873708Y-149906397D01*
X109748486Y-149973329D01*
X109676903Y-150217298D01*
X106799398Y-150217298D01*
X106801904Y-150209039D01*
X106679915Y-149987000D01*
X105537000Y-149987000D01*
X105283000Y-149987000D01*
X104140085Y-149987000D01*
X104018096Y-150209039D01*
X99183684Y-150209039D01*
X99225000Y-150001335D01*
X99225000Y-149718665D01*
X99169853Y-149441426D01*
X99061680Y-149180273D01*
X98904637Y-148945241D01*
X98704759Y-148745363D01*
X98472241Y-148590000D01*
X98704759Y-148434637D01*
X98904637Y-148234759D01*
X99061680Y-147999727D01*
X99169853Y-147738574D01*
X99183684Y-147669039D01*
X104018096Y-147669039D01*
X104058754Y-147803087D01*
X104178963Y-148057420D01*
X104346481Y-148283414D01*
X104554869Y-148472385D01*
X104750982Y-148590000D01*
X104554869Y-148707615D01*
X104346481Y-148896586D01*
X104178963Y-149122580D01*
X104058754Y-149376913D01*
X104018096Y-149510961D01*
X104140085Y-149733000D01*
X105283000Y-149733000D01*
X105283000Y-147447000D01*
X105537000Y-147447000D01*
X105537000Y-149733000D01*
X106679915Y-149733000D01*
X106801904Y-149510961D01*
X106761246Y-149376913D01*
X106641037Y-149122580D01*
X106473519Y-148896586D01*
X106265131Y-148707615D01*
X106069018Y-148590000D01*
X106265131Y-148472385D01*
X106473519Y-148283414D01*
X106641037Y-148057420D01*
X106761246Y-147803087D01*
X106801904Y-147669039D01*
X106679915Y-147447000D01*
X105537000Y-147447000D01*
X105283000Y-147447000D01*
X104140085Y-147447000D01*
X104018096Y-147669039D01*
X99183684Y-147669039D01*
X99225000Y-147461335D01*
X99225000Y-147178665D01*
X99169853Y-146901426D01*
X99061680Y-146640273D01*
X98904637Y-146405241D01*
X98704759Y-146205363D01*
X98472241Y-146050000D01*
X98704759Y-145894637D01*
X98904637Y-145694759D01*
X99061680Y-145459727D01*
X99169853Y-145198574D01*
X99225000Y-144921335D01*
X99225000Y-144638665D01*
X99169853Y-144361426D01*
X99061680Y-144100273D01*
X98904637Y-143865241D01*
X98704759Y-143665363D01*
X98472241Y-143510000D01*
X98704759Y-143354637D01*
X98904637Y-143154759D01*
X99061680Y-142919727D01*
X99169853Y-142658574D01*
X99225000Y-142381335D01*
X99225000Y-142098665D01*
X99169853Y-141821426D01*
X99061680Y-141560273D01*
X98904637Y-141325241D01*
X98704759Y-141125363D01*
X98472241Y-140970000D01*
X98704759Y-140814637D01*
X98904637Y-140614759D01*
X99061680Y-140379727D01*
X99169853Y-140118574D01*
X99225000Y-139841335D01*
X99225000Y-139558665D01*
X99169853Y-139281426D01*
X99061680Y-139020273D01*
X98904637Y-138785241D01*
X98706039Y-138586643D01*
X98714482Y-138585812D01*
X98834180Y-138549502D01*
X98944494Y-138490537D01*
X99041185Y-138411185D01*
X99120537Y-138314494D01*
X99179502Y-138204180D01*
X99215812Y-138084482D01*
X99228072Y-137960000D01*
X99228072Y-137132874D01*
X104011312Y-141916114D01*
X103975000Y-142098665D01*
X103975000Y-142381335D01*
X104030147Y-142658574D01*
X104138320Y-142919727D01*
X104295363Y-143154759D01*
X104495241Y-143354637D01*
X104727759Y-143510000D01*
X104495241Y-143665363D01*
X104295363Y-143865241D01*
X104138320Y-144100273D01*
X104030147Y-144361426D01*
X103975000Y-144638665D01*
X103975000Y-144921335D01*
X104030147Y-145198574D01*
X104138320Y-145459727D01*
X104295363Y-145694759D01*
X104495241Y-145894637D01*
X104730273Y-146051680D01*
X104740865Y-146056067D01*
X104554869Y-146167615D01*
X104346481Y-146356586D01*
X104178963Y-146582580D01*
X104058754Y-146836913D01*
X104018096Y-146970961D01*
X104140085Y-147193000D01*
X105283000Y-147193000D01*
X105283000Y-147173000D01*
X105537000Y-147173000D01*
X105537000Y-147193000D01*
X106679915Y-147193000D01*
X106801904Y-146970961D01*
X106761246Y-146836913D01*
X106641037Y-146582580D01*
X106473519Y-146356586D01*
X106265131Y-146167615D01*
X106079135Y-146056067D01*
X106089727Y-146051680D01*
X106324759Y-145894637D01*
X106524637Y-145694759D01*
X106681680Y-145459727D01*
X106789853Y-145198574D01*
X106845000Y-144921335D01*
X106845000Y-144638665D01*
X106808688Y-144456114D01*
X107046004Y-144218798D01*
X107075002Y-144195000D01*
X107169975Y-144079275D01*
X107240547Y-143947246D01*
X107284004Y-143803985D01*
X107295001Y-143692332D01*
X107295001Y-143692324D01*
X107298677Y-143654999D01*
X107295001Y-143617674D01*
X107295001Y-137013740D01*
X112815000Y-137013740D01*
X112815000Y-137306260D01*
X112872068Y-137593158D01*
X112984010Y-137863411D01*
X113146525Y-138106632D01*
X113353368Y-138313475D01*
X113527760Y-138430000D01*
X113353368Y-138546525D01*
X113146525Y-138753368D01*
X112984010Y-138996589D01*
X112872068Y-139266842D01*
X112815000Y-139553740D01*
X112815000Y-139846260D01*
X112872068Y-140133158D01*
X112984010Y-140403411D01*
X113146525Y-140646632D01*
X113353368Y-140853475D01*
X113596589Y-141015990D01*
X113866842Y-141127932D01*
X114153740Y-141185000D01*
X114446260Y-141185000D01*
X114733158Y-141127932D01*
X115003411Y-141015990D01*
X115246632Y-140853475D01*
X115453475Y-140646632D01*
X115615990Y-140403411D01*
X115727932Y-140133158D01*
X115785000Y-139846260D01*
X115785000Y-139553740D01*
X115727932Y-139266842D01*
X115615990Y-138996589D01*
X115453475Y-138753368D01*
X115246632Y-138546525D01*
X115072240Y-138430000D01*
X115246632Y-138313475D01*
X115453475Y-138106632D01*
X115615990Y-137863411D01*
X115727932Y-137593158D01*
X115785000Y-137306260D01*
X115785000Y-137013740D01*
X115727932Y-136726842D01*
X115615990Y-136456589D01*
X115453475Y-136213368D01*
X115246632Y-136006525D01*
X115064466Y-135884805D01*
X115181355Y-135815178D01*
X115397588Y-135620269D01*
X115571641Y-135386920D01*
X115696825Y-135124099D01*
X115741476Y-134976890D01*
X115620155Y-134747000D01*
X114427000Y-134747000D01*
X114427000Y-134767000D01*
X114173000Y-134767000D01*
X114173000Y-134747000D01*
X112979845Y-134747000D01*
X112858524Y-134976890D01*
X112903175Y-135124099D01*
X113028359Y-135386920D01*
X113202412Y-135620269D01*
X113418645Y-135815178D01*
X113535534Y-135884805D01*
X113353368Y-136006525D01*
X113146525Y-136213368D01*
X112984010Y-136456589D01*
X112872068Y-136726842D01*
X112815000Y-137013740D01*
X107295001Y-137013740D01*
X107295001Y-135782324D01*
X107298677Y-135745001D01*
X107295001Y-135707678D01*
X107295001Y-135707668D01*
X107284004Y-135596015D01*
X107240547Y-135452754D01*
X107226144Y-135425808D01*
X107169975Y-135320724D01*
X107098800Y-135233998D01*
X107075002Y-135205000D01*
X107046005Y-135181203D01*
X103094802Y-131230000D01*
X112811928Y-131230000D01*
X112811928Y-132930000D01*
X112824188Y-133054482D01*
X112860498Y-133174180D01*
X112919463Y-133284494D01*
X112998815Y-133381185D01*
X113095506Y-133460537D01*
X113205820Y-133519502D01*
X113286466Y-133543966D01*
X113202412Y-133619731D01*
X113028359Y-133853080D01*
X112903175Y-134115901D01*
X112858524Y-134263110D01*
X112979845Y-134493000D01*
X114173000Y-134493000D01*
X114173000Y-134473000D01*
X114427000Y-134473000D01*
X114427000Y-134493000D01*
X115620155Y-134493000D01*
X115741476Y-134263110D01*
X115696825Y-134115901D01*
X115571641Y-133853080D01*
X115397588Y-133619731D01*
X115313534Y-133543966D01*
X115394180Y-133519502D01*
X115504494Y-133460537D01*
X115601185Y-133381185D01*
X115680537Y-133284494D01*
X115739502Y-133174180D01*
X115775812Y-133054482D01*
X115788072Y-132930000D01*
X115788072Y-131230000D01*
X115775812Y-131105518D01*
X115739502Y-130985820D01*
X115680537Y-130875506D01*
X115601185Y-130778815D01*
X115504494Y-130699463D01*
X115394180Y-130640498D01*
X115274482Y-130604188D01*
X115150000Y-130591928D01*
X113450000Y-130591928D01*
X113325518Y-130604188D01*
X113205820Y-130640498D01*
X113095506Y-130699463D01*
X112998815Y-130778815D01*
X112919463Y-130875506D01*
X112860498Y-130985820D01*
X112824188Y-131105518D01*
X112811928Y-131230000D01*
X103094802Y-131230000D01*
X99221692Y-127356890D01*
X128098524Y-127356890D01*
X128143175Y-127504099D01*
X128268359Y-127766920D01*
X128442412Y-128000269D01*
X128658645Y-128195178D01*
X128908748Y-128344157D01*
X129183109Y-128441481D01*
X129413000Y-128320814D01*
X129413000Y-127127000D01*
X129667000Y-127127000D01*
X129667000Y-128320814D01*
X129896891Y-128441481D01*
X130171252Y-128344157D01*
X130421355Y-128195178D01*
X130637588Y-128000269D01*
X130811641Y-127766920D01*
X130936825Y-127504099D01*
X130981476Y-127356890D01*
X130860155Y-127127000D01*
X129667000Y-127127000D01*
X129413000Y-127127000D01*
X128219845Y-127127000D01*
X128098524Y-127356890D01*
X99221692Y-127356890D01*
X93273804Y-121409003D01*
X93250001Y-121379999D01*
X93134276Y-121285026D01*
X93002247Y-121214454D01*
X92858986Y-121170997D01*
X92747333Y-121160000D01*
X92747322Y-121160000D01*
X92710000Y-121156324D01*
X92672678Y-121160000D01*
X88908178Y-121160000D01*
X88783475Y-120973368D01*
X88576632Y-120766525D01*
X88402240Y-120650000D01*
X88576632Y-120533475D01*
X88783475Y-120326632D01*
X88945990Y-120083411D01*
X89057932Y-119813158D01*
X89115000Y-119526260D01*
X89115000Y-119233740D01*
X89057932Y-118946842D01*
X88945990Y-118676589D01*
X88848043Y-118530000D01*
X128051928Y-118530000D01*
X128051928Y-120230000D01*
X128064188Y-120354482D01*
X128100498Y-120474180D01*
X128159463Y-120584494D01*
X128238815Y-120681185D01*
X128335506Y-120760537D01*
X128445820Y-120819502D01*
X128518380Y-120841513D01*
X128386525Y-120973368D01*
X128224010Y-121216589D01*
X128112068Y-121486842D01*
X128055000Y-121773740D01*
X128055000Y-122066260D01*
X128112068Y-122353158D01*
X128224010Y-122623411D01*
X128386525Y-122866632D01*
X128593368Y-123073475D01*
X128767760Y-123190000D01*
X128593368Y-123306525D01*
X128386525Y-123513368D01*
X128224010Y-123756589D01*
X128112068Y-124026842D01*
X128055000Y-124313740D01*
X128055000Y-124606260D01*
X128112068Y-124893158D01*
X128224010Y-125163411D01*
X128386525Y-125406632D01*
X128593368Y-125613475D01*
X128775534Y-125735195D01*
X128658645Y-125804822D01*
X128442412Y-125999731D01*
X128268359Y-126233080D01*
X128143175Y-126495901D01*
X128098524Y-126643110D01*
X128219845Y-126873000D01*
X129413000Y-126873000D01*
X129413000Y-126853000D01*
X129667000Y-126853000D01*
X129667000Y-126873000D01*
X130860155Y-126873000D01*
X130981476Y-126643110D01*
X130936825Y-126495901D01*
X130811641Y-126233080D01*
X130637588Y-125999731D01*
X130421355Y-125804822D01*
X130304466Y-125735195D01*
X130486632Y-125613475D01*
X130693475Y-125406632D01*
X130855990Y-125163411D01*
X130967932Y-124893158D01*
X131025000Y-124606260D01*
X131025000Y-124313740D01*
X130967932Y-124026842D01*
X130855990Y-123756589D01*
X130693475Y-123513368D01*
X130486632Y-123306525D01*
X130312240Y-123190000D01*
X130486632Y-123073475D01*
X130693475Y-122866632D01*
X130855990Y-122623411D01*
X130967932Y-122353158D01*
X131025000Y-122066260D01*
X131025000Y-121773740D01*
X130967932Y-121486842D01*
X130855990Y-121216589D01*
X130693475Y-120973368D01*
X130561620Y-120841513D01*
X130634180Y-120819502D01*
X130744494Y-120760537D01*
X130841185Y-120681185D01*
X130920537Y-120584494D01*
X130979502Y-120474180D01*
X131015812Y-120354482D01*
X131028072Y-120230000D01*
X131028072Y-118530000D01*
X131015812Y-118405518D01*
X130979502Y-118285820D01*
X130920537Y-118175506D01*
X130841185Y-118078815D01*
X130744494Y-117999463D01*
X130634180Y-117940498D01*
X130514482Y-117904188D01*
X130390000Y-117891928D01*
X128690000Y-117891928D01*
X128565518Y-117904188D01*
X128445820Y-117940498D01*
X128335506Y-117999463D01*
X128238815Y-118078815D01*
X128159463Y-118175506D01*
X128100498Y-118285820D01*
X128064188Y-118405518D01*
X128051928Y-118530000D01*
X88848043Y-118530000D01*
X88783475Y-118433368D01*
X88576632Y-118226525D01*
X88333411Y-118064010D01*
X88063158Y-117952068D01*
X87776260Y-117895000D01*
X87483740Y-117895000D01*
X87196842Y-117952068D01*
X86926589Y-118064010D01*
X86683368Y-118226525D01*
X86476525Y-118433368D01*
X86314010Y-118676589D01*
X86202068Y-118946842D01*
X86145000Y-119233740D01*
X86145000Y-119526260D01*
X86202068Y-119813158D01*
X86314010Y-120083411D01*
X86476525Y-120326632D01*
X86683368Y-120533475D01*
X86857760Y-120650000D01*
X86683368Y-120766525D01*
X86476525Y-120973368D01*
X86314010Y-121216589D01*
X86202068Y-121486842D01*
X86145000Y-121773740D01*
X86145000Y-122066260D01*
X86202068Y-122353158D01*
X86314010Y-122623411D01*
X86476525Y-122866632D01*
X86683368Y-123073475D01*
X86857760Y-123190000D01*
X86683368Y-123306525D01*
X86476525Y-123513368D01*
X86314010Y-123756589D01*
X86202068Y-124026842D01*
X86145000Y-124313740D01*
X86145000Y-124606260D01*
X86202068Y-124893158D01*
X86314010Y-125163411D01*
X86476525Y-125406632D01*
X86608380Y-125538487D01*
X86535820Y-125560498D01*
X86425506Y-125619463D01*
X86328815Y-125698815D01*
X86249463Y-125795506D01*
X86190498Y-125905820D01*
X86154188Y-126025518D01*
X86141928Y-126150000D01*
X37490000Y-126150000D01*
X37490000Y-123028967D01*
X39005000Y-123028967D01*
X39005000Y-123351033D01*
X39067832Y-123666912D01*
X39191082Y-123964463D01*
X39370013Y-124232252D01*
X39597748Y-124459987D01*
X39865537Y-124638918D01*
X40163088Y-124762168D01*
X40478967Y-124825000D01*
X40801033Y-124825000D01*
X41116912Y-124762168D01*
X41414463Y-124638918D01*
X41682252Y-124459987D01*
X41909987Y-124232252D01*
X42088918Y-123964463D01*
X42212168Y-123666912D01*
X42275000Y-123351033D01*
X42275000Y-123028967D01*
X42212168Y-122713088D01*
X42088918Y-122415537D01*
X41909987Y-122147748D01*
X41682252Y-121920013D01*
X41414463Y-121741082D01*
X41116912Y-121617832D01*
X40801033Y-121555000D01*
X40478967Y-121555000D01*
X40163088Y-121617832D01*
X39865537Y-121741082D01*
X39597748Y-121920013D01*
X39370013Y-122147748D01*
X39191082Y-122415537D01*
X39067832Y-122713088D01*
X39005000Y-123028967D01*
X37490000Y-123028967D01*
X37490000Y-117110000D01*
X39001928Y-117110000D01*
X39001928Y-119110000D01*
X39014188Y-119234482D01*
X39050498Y-119354180D01*
X39109463Y-119464494D01*
X39188815Y-119561185D01*
X39285506Y-119640537D01*
X39395820Y-119699502D01*
X39515518Y-119735812D01*
X39640000Y-119748072D01*
X41640000Y-119748072D01*
X41764482Y-119735812D01*
X41884180Y-119699502D01*
X41994494Y-119640537D01*
X42091185Y-119561185D01*
X42170537Y-119464494D01*
X42229502Y-119354180D01*
X42265812Y-119234482D01*
X42278072Y-119110000D01*
X42278072Y-117110000D01*
X42265812Y-116985518D01*
X42229502Y-116865820D01*
X42215701Y-116840000D01*
X45347319Y-116840000D01*
X45377970Y-117151204D01*
X45468745Y-117450449D01*
X45616155Y-117726235D01*
X45814537Y-117967963D01*
X45987609Y-118110000D01*
X45814537Y-118252037D01*
X45616155Y-118493765D01*
X45468745Y-118769551D01*
X45377970Y-119068796D01*
X45347319Y-119380000D01*
X45377970Y-119691204D01*
X45468745Y-119990449D01*
X45616155Y-120266235D01*
X45719446Y-120392095D01*
X45635506Y-120436963D01*
X45538815Y-120516315D01*
X45459463Y-120613006D01*
X45400498Y-120723320D01*
X45364188Y-120843018D01*
X45351928Y-120967500D01*
X45351928Y-122872500D01*
X45364188Y-122996982D01*
X45400498Y-123116680D01*
X45459463Y-123226994D01*
X45538815Y-123323685D01*
X45635506Y-123403037D01*
X45745820Y-123462002D01*
X45865518Y-123498312D01*
X45990000Y-123510572D01*
X47990000Y-123510572D01*
X48114482Y-123498312D01*
X48234180Y-123462002D01*
X48344494Y-123403037D01*
X48441185Y-123323685D01*
X48520537Y-123226994D01*
X48579502Y-123116680D01*
X48615812Y-122996982D01*
X48628072Y-122872500D01*
X48628072Y-121739268D01*
X64205000Y-121739268D01*
X64205000Y-122100732D01*
X64275518Y-122455250D01*
X64413844Y-122789199D01*
X64614662Y-123089744D01*
X64870256Y-123345338D01*
X65170801Y-123546156D01*
X65504750Y-123684482D01*
X65859268Y-123755000D01*
X66220732Y-123755000D01*
X66575250Y-123684482D01*
X66909199Y-123546156D01*
X67209744Y-123345338D01*
X67465338Y-123089744D01*
X67666156Y-122789199D01*
X67804482Y-122455250D01*
X67875000Y-122100732D01*
X67875000Y-121739268D01*
X71825000Y-121739268D01*
X71825000Y-122100732D01*
X71895518Y-122455250D01*
X72033844Y-122789199D01*
X72234662Y-123089744D01*
X72490256Y-123345338D01*
X72790801Y-123546156D01*
X73124750Y-123684482D01*
X73479268Y-123755000D01*
X73840732Y-123755000D01*
X74195250Y-123684482D01*
X74529199Y-123546156D01*
X74829744Y-123345338D01*
X75085338Y-123089744D01*
X75286156Y-122789199D01*
X75424482Y-122455250D01*
X75495000Y-122100732D01*
X75495000Y-121739268D01*
X79445000Y-121739268D01*
X79445000Y-122100732D01*
X79515518Y-122455250D01*
X79653844Y-122789199D01*
X79854662Y-123089744D01*
X80110256Y-123345338D01*
X80410801Y-123546156D01*
X80744750Y-123684482D01*
X81099268Y-123755000D01*
X81460732Y-123755000D01*
X81815250Y-123684482D01*
X82149199Y-123546156D01*
X82449744Y-123345338D01*
X82705338Y-123089744D01*
X82906156Y-122789199D01*
X83044482Y-122455250D01*
X83115000Y-122100732D01*
X83115000Y-121739268D01*
X83044482Y-121384750D01*
X82906156Y-121050801D01*
X82705338Y-120750256D01*
X82449744Y-120494662D01*
X82149199Y-120293844D01*
X81815250Y-120155518D01*
X81460732Y-120085000D01*
X81099268Y-120085000D01*
X80744750Y-120155518D01*
X80410801Y-120293844D01*
X80110256Y-120494662D01*
X79854662Y-120750256D01*
X79653844Y-121050801D01*
X79515518Y-121384750D01*
X79445000Y-121739268D01*
X75495000Y-121739268D01*
X75424482Y-121384750D01*
X75286156Y-121050801D01*
X75085338Y-120750256D01*
X74829744Y-120494662D01*
X74529199Y-120293844D01*
X74195250Y-120155518D01*
X73840732Y-120085000D01*
X73479268Y-120085000D01*
X73124750Y-120155518D01*
X72790801Y-120293844D01*
X72490256Y-120494662D01*
X72234662Y-120750256D01*
X72033844Y-121050801D01*
X71895518Y-121384750D01*
X71825000Y-121739268D01*
X67875000Y-121739268D01*
X67804482Y-121384750D01*
X67666156Y-121050801D01*
X67465338Y-120750256D01*
X67209744Y-120494662D01*
X66909199Y-120293844D01*
X66575250Y-120155518D01*
X66220732Y-120085000D01*
X65859268Y-120085000D01*
X65504750Y-120155518D01*
X65170801Y-120293844D01*
X64870256Y-120494662D01*
X64614662Y-120750256D01*
X64413844Y-121050801D01*
X64275518Y-121384750D01*
X64205000Y-121739268D01*
X48628072Y-121739268D01*
X48628072Y-120967500D01*
X48615812Y-120843018D01*
X48579502Y-120723320D01*
X48520537Y-120613006D01*
X48441185Y-120516315D01*
X48344494Y-120436963D01*
X48260554Y-120392095D01*
X48363845Y-120266235D01*
X48511255Y-119990449D01*
X48602030Y-119691204D01*
X48632681Y-119380000D01*
X48602030Y-119068796D01*
X48511255Y-118769551D01*
X48363845Y-118493765D01*
X48165463Y-118252037D01*
X47992391Y-118110000D01*
X48165463Y-117967963D01*
X48363845Y-117726235D01*
X48511221Y-117450512D01*
X51899783Y-117450512D01*
X51941213Y-117730130D01*
X52036397Y-117996292D01*
X52101616Y-118118309D01*
X52088815Y-118128815D01*
X52009463Y-118225506D01*
X51950498Y-118335820D01*
X51914188Y-118455518D01*
X51901928Y-118580000D01*
X51901928Y-120180000D01*
X51914188Y-120304482D01*
X51950498Y-120424180D01*
X52009463Y-120534494D01*
X52088815Y-120631185D01*
X52185506Y-120710537D01*
X52295820Y-120769502D01*
X52415518Y-120805812D01*
X52540000Y-120818072D01*
X54140000Y-120818072D01*
X54264482Y-120805812D01*
X54384180Y-120769502D01*
X54494494Y-120710537D01*
X54591185Y-120631185D01*
X54670537Y-120534494D01*
X54729502Y-120424180D01*
X54765812Y-120304482D01*
X54778072Y-120180000D01*
X54778072Y-119238665D01*
X58255000Y-119238665D01*
X58255000Y-119521335D01*
X58310147Y-119798574D01*
X58418320Y-120059727D01*
X58575363Y-120294759D01*
X58775241Y-120494637D01*
X59010273Y-120651680D01*
X59271426Y-120759853D01*
X59548665Y-120815000D01*
X59831335Y-120815000D01*
X60108574Y-120759853D01*
X60369727Y-120651680D01*
X60604759Y-120494637D01*
X60804637Y-120294759D01*
X60961680Y-120059727D01*
X61069853Y-119798574D01*
X61125000Y-119521335D01*
X61125000Y-119238665D01*
X61069853Y-118961426D01*
X60961680Y-118700273D01*
X60804637Y-118465241D01*
X60604759Y-118265363D01*
X60369727Y-118108320D01*
X60108574Y-118000147D01*
X59831335Y-117945000D01*
X59548665Y-117945000D01*
X59271426Y-118000147D01*
X59010273Y-118108320D01*
X58775241Y-118265363D01*
X58575363Y-118465241D01*
X58418320Y-118700273D01*
X58310147Y-118961426D01*
X58255000Y-119238665D01*
X54778072Y-119238665D01*
X54778072Y-118580000D01*
X54765812Y-118455518D01*
X54729502Y-118335820D01*
X54670537Y-118225506D01*
X54591185Y-118128815D01*
X54578242Y-118118193D01*
X54697571Y-117866004D01*
X54766300Y-117591816D01*
X54780217Y-117309488D01*
X54738787Y-117029870D01*
X54643603Y-116763708D01*
X54576671Y-116638486D01*
X54332702Y-116566903D01*
X53519605Y-117380000D01*
X53533748Y-117394143D01*
X53354143Y-117573748D01*
X53340000Y-117559605D01*
X53325858Y-117573748D01*
X53146253Y-117394143D01*
X53160395Y-117380000D01*
X52347298Y-116566903D01*
X52103329Y-116638486D01*
X51982429Y-116893996D01*
X51913700Y-117168184D01*
X51899783Y-117450512D01*
X48511221Y-117450512D01*
X48511255Y-117450449D01*
X48602030Y-117151204D01*
X48632681Y-116840000D01*
X48602030Y-116528796D01*
X48559108Y-116387298D01*
X52526903Y-116387298D01*
X53340000Y-117200395D01*
X54153097Y-116387298D01*
X54081514Y-116143329D01*
X53826004Y-116022429D01*
X53551816Y-115953700D01*
X53269488Y-115939783D01*
X52989870Y-115981213D01*
X52723708Y-116076397D01*
X52598486Y-116143329D01*
X52526903Y-116387298D01*
X48559108Y-116387298D01*
X48511255Y-116229551D01*
X48363845Y-115953765D01*
X48165463Y-115712037D01*
X47923735Y-115513655D01*
X47647949Y-115366245D01*
X47348704Y-115275470D01*
X47115486Y-115252500D01*
X46864514Y-115252500D01*
X46631296Y-115275470D01*
X46332051Y-115366245D01*
X46056265Y-115513655D01*
X45814537Y-115712037D01*
X45616155Y-115953765D01*
X45468745Y-116229551D01*
X45377970Y-116528796D01*
X45347319Y-116840000D01*
X42215701Y-116840000D01*
X42170537Y-116755506D01*
X42091185Y-116658815D01*
X41994494Y-116579463D01*
X41884180Y-116520498D01*
X41764482Y-116484188D01*
X41640000Y-116471928D01*
X39640000Y-116471928D01*
X39515518Y-116484188D01*
X39395820Y-116520498D01*
X39285506Y-116579463D01*
X39188815Y-116658815D01*
X39109463Y-116755506D01*
X39050498Y-116865820D01*
X39014188Y-116985518D01*
X39001928Y-117110000D01*
X37490000Y-117110000D01*
X37490000Y-112888665D01*
X39205000Y-112888665D01*
X39205000Y-113171335D01*
X39260147Y-113448574D01*
X39368320Y-113709727D01*
X39525363Y-113944759D01*
X39725241Y-114144637D01*
X39960273Y-114301680D01*
X40221426Y-114409853D01*
X40498665Y-114465000D01*
X40781335Y-114465000D01*
X41058574Y-114409853D01*
X41319727Y-114301680D01*
X41414035Y-114238665D01*
X58255000Y-114238665D01*
X58255000Y-114521335D01*
X58310147Y-114798574D01*
X58418320Y-115059727D01*
X58575363Y-115294759D01*
X58775241Y-115494637D01*
X59010273Y-115651680D01*
X59271426Y-115759853D01*
X59548665Y-115815000D01*
X59831335Y-115815000D01*
X60108574Y-115759853D01*
X60369727Y-115651680D01*
X60604759Y-115494637D01*
X60804637Y-115294759D01*
X60961680Y-115059727D01*
X61069853Y-114798574D01*
X61125000Y-114521335D01*
X61125000Y-114238665D01*
X61069853Y-113961426D01*
X60961680Y-113700273D01*
X60804637Y-113465241D01*
X60604759Y-113265363D01*
X60369727Y-113108320D01*
X60108574Y-113000147D01*
X59831335Y-112945000D01*
X59548665Y-112945000D01*
X59271426Y-113000147D01*
X59010273Y-113108320D01*
X58775241Y-113265363D01*
X58575363Y-113465241D01*
X58418320Y-113700273D01*
X58310147Y-113961426D01*
X58255000Y-114238665D01*
X41414035Y-114238665D01*
X41554759Y-114144637D01*
X41754637Y-113944759D01*
X41911680Y-113709727D01*
X42019853Y-113448574D01*
X42075000Y-113171335D01*
X42075000Y-112888665D01*
X42019853Y-112611426D01*
X41911680Y-112350273D01*
X41754637Y-112115241D01*
X41554759Y-111915363D01*
X41319727Y-111758320D01*
X41058574Y-111650147D01*
X40801279Y-111598967D01*
X112515000Y-111598967D01*
X112515000Y-111921033D01*
X112577832Y-112236912D01*
X112701082Y-112534463D01*
X112880013Y-112802252D01*
X113107748Y-113029987D01*
X113375537Y-113208918D01*
X113673088Y-113332168D01*
X113988967Y-113395000D01*
X114311033Y-113395000D01*
X114626912Y-113332168D01*
X114924463Y-113208918D01*
X115192252Y-113029987D01*
X115419987Y-112802252D01*
X115598918Y-112534463D01*
X115722168Y-112236912D01*
X115785000Y-111921033D01*
X115785000Y-111598967D01*
X119015000Y-111598967D01*
X119015000Y-111921033D01*
X119077832Y-112236912D01*
X119201082Y-112534463D01*
X119380013Y-112802252D01*
X119607748Y-113029987D01*
X119875537Y-113208918D01*
X120173088Y-113332168D01*
X120488967Y-113395000D01*
X120811033Y-113395000D01*
X121126912Y-113332168D01*
X121424463Y-113208918D01*
X121692252Y-113029987D01*
X121919987Y-112802252D01*
X122098918Y-112534463D01*
X122222168Y-112236912D01*
X122285000Y-111921033D01*
X122285000Y-111598967D01*
X122222168Y-111283088D01*
X122098918Y-110985537D01*
X121919987Y-110717748D01*
X121692252Y-110490013D01*
X121424463Y-110311082D01*
X121126912Y-110187832D01*
X120811033Y-110125000D01*
X120488967Y-110125000D01*
X120173088Y-110187832D01*
X119875537Y-110311082D01*
X119607748Y-110490013D01*
X119380013Y-110717748D01*
X119201082Y-110985537D01*
X119077832Y-111283088D01*
X119015000Y-111598967D01*
X115785000Y-111598967D01*
X115722168Y-111283088D01*
X115598918Y-110985537D01*
X115419987Y-110717748D01*
X115192252Y-110490013D01*
X114924463Y-110311082D01*
X114626912Y-110187832D01*
X114311033Y-110125000D01*
X113988967Y-110125000D01*
X113673088Y-110187832D01*
X113375537Y-110311082D01*
X113107748Y-110490013D01*
X112880013Y-110717748D01*
X112701082Y-110985537D01*
X112577832Y-111283088D01*
X112515000Y-111598967D01*
X40801279Y-111598967D01*
X40781335Y-111595000D01*
X40498665Y-111595000D01*
X40221426Y-111650147D01*
X39960273Y-111758320D01*
X39725241Y-111915363D01*
X39525363Y-112115241D01*
X39368320Y-112350273D01*
X39260147Y-112611426D01*
X39205000Y-112888665D01*
X37490000Y-112888665D01*
X37490000Y-109022702D01*
X39826903Y-109022702D01*
X39898486Y-109266671D01*
X40153996Y-109387571D01*
X40428184Y-109456300D01*
X40710512Y-109470217D01*
X40990130Y-109428787D01*
X41256292Y-109333603D01*
X41381514Y-109266671D01*
X41453097Y-109022702D01*
X40640000Y-108209605D01*
X39826903Y-109022702D01*
X37490000Y-109022702D01*
X37490000Y-108100512D01*
X39199783Y-108100512D01*
X39241213Y-108380130D01*
X39336397Y-108646292D01*
X39403329Y-108771514D01*
X39647298Y-108843097D01*
X40460395Y-108030000D01*
X40819605Y-108030000D01*
X41632702Y-108843097D01*
X41876671Y-108771514D01*
X41997571Y-108516004D01*
X42066300Y-108241816D01*
X42080217Y-107959488D01*
X42054959Y-107789017D01*
X45355510Y-107789017D01*
X45355510Y-108110983D01*
X45418322Y-108426763D01*
X45541533Y-108724222D01*
X45720408Y-108991927D01*
X45948073Y-109219592D01*
X46215778Y-109398467D01*
X46513237Y-109521678D01*
X46829017Y-109584490D01*
X47150983Y-109584490D01*
X47466763Y-109521678D01*
X47764222Y-109398467D01*
X48031927Y-109219592D01*
X48166469Y-109085050D01*
X51114555Y-109085050D01*
X51210258Y-109349399D01*
X51499787Y-109490238D01*
X51811229Y-109571885D01*
X52132615Y-109591205D01*
X52451595Y-109547454D01*
X52755911Y-109442314D01*
X52929742Y-109349399D01*
X53025445Y-109085050D01*
X52070000Y-108129605D01*
X51114555Y-109085050D01*
X48166469Y-109085050D01*
X48259592Y-108991927D01*
X48438467Y-108724222D01*
X48561678Y-108426763D01*
X48624490Y-108110983D01*
X48624490Y-108012615D01*
X50428795Y-108012615D01*
X50472546Y-108331595D01*
X50577686Y-108635911D01*
X50670601Y-108809742D01*
X50934950Y-108905445D01*
X51890395Y-107950000D01*
X52249605Y-107950000D01*
X53205050Y-108905445D01*
X53469399Y-108809742D01*
X53610238Y-108520213D01*
X53691885Y-108208771D01*
X53711205Y-107887385D01*
X53667454Y-107568405D01*
X53562314Y-107264089D01*
X53469399Y-107090258D01*
X53205050Y-106994555D01*
X52249605Y-107950000D01*
X51890395Y-107950000D01*
X50934950Y-106994555D01*
X50670601Y-107090258D01*
X50529762Y-107379787D01*
X50448115Y-107691229D01*
X50428795Y-108012615D01*
X48624490Y-108012615D01*
X48624490Y-107789017D01*
X48561678Y-107473237D01*
X48438467Y-107175778D01*
X48259592Y-106908073D01*
X48166469Y-106814950D01*
X51114555Y-106814950D01*
X52070000Y-107770395D01*
X53025445Y-106814950D01*
X52929742Y-106550601D01*
X52824215Y-106499268D01*
X64205000Y-106499268D01*
X64205000Y-106860732D01*
X64275518Y-107215250D01*
X64413844Y-107549199D01*
X64614662Y-107849744D01*
X64870256Y-108105338D01*
X65170801Y-108306156D01*
X65504750Y-108444482D01*
X65859268Y-108515000D01*
X66220732Y-108515000D01*
X66575250Y-108444482D01*
X66909199Y-108306156D01*
X67209744Y-108105338D01*
X67465338Y-107849744D01*
X67666156Y-107549199D01*
X67804482Y-107215250D01*
X67875000Y-106860732D01*
X67875000Y-106499268D01*
X71825000Y-106499268D01*
X71825000Y-106860732D01*
X71895518Y-107215250D01*
X72033844Y-107549199D01*
X72234662Y-107849744D01*
X72490256Y-108105338D01*
X72790801Y-108306156D01*
X73124750Y-108444482D01*
X73479268Y-108515000D01*
X73840732Y-108515000D01*
X74195250Y-108444482D01*
X74529199Y-108306156D01*
X74829744Y-108105338D01*
X75085338Y-107849744D01*
X75286156Y-107549199D01*
X75424482Y-107215250D01*
X75495000Y-106860732D01*
X75495000Y-106499268D01*
X79445000Y-106499268D01*
X79445000Y-106860732D01*
X79515518Y-107215250D01*
X79653844Y-107549199D01*
X79854662Y-107849744D01*
X80110256Y-108105338D01*
X80410801Y-108306156D01*
X80744750Y-108444482D01*
X81099268Y-108515000D01*
X81460732Y-108515000D01*
X81815250Y-108444482D01*
X82149199Y-108306156D01*
X82449744Y-108105338D01*
X82705338Y-107849744D01*
X82906156Y-107549199D01*
X83044482Y-107215250D01*
X83115000Y-106860732D01*
X83115000Y-106499268D01*
X87065000Y-106499268D01*
X87065000Y-106860732D01*
X87135518Y-107215250D01*
X87273844Y-107549199D01*
X87474662Y-107849744D01*
X87730256Y-108105338D01*
X88030801Y-108306156D01*
X88364750Y-108444482D01*
X88719268Y-108515000D01*
X89080732Y-108515000D01*
X89435250Y-108444482D01*
X89769199Y-108306156D01*
X90069744Y-108105338D01*
X90325338Y-107849744D01*
X90526156Y-107549199D01*
X90664482Y-107215250D01*
X90735000Y-106860732D01*
X90735000Y-106499268D01*
X102305000Y-106499268D01*
X102305000Y-106860732D01*
X102375518Y-107215250D01*
X102513844Y-107549199D01*
X102714662Y-107849744D01*
X102970256Y-108105338D01*
X103270801Y-108306156D01*
X103604750Y-108444482D01*
X103959268Y-108515000D01*
X104320732Y-108515000D01*
X104675250Y-108444482D01*
X104793713Y-108395413D01*
X113194192Y-108395413D01*
X113289956Y-108659814D01*
X113579571Y-108800704D01*
X113891108Y-108882384D01*
X114212595Y-108901718D01*
X114531675Y-108857961D01*
X114836088Y-108752795D01*
X115010044Y-108659814D01*
X115105808Y-108395413D01*
X119694192Y-108395413D01*
X119789956Y-108659814D01*
X120079571Y-108800704D01*
X120391108Y-108882384D01*
X120712595Y-108901718D01*
X121031675Y-108857961D01*
X121336088Y-108752795D01*
X121510044Y-108659814D01*
X121605808Y-108395413D01*
X120650000Y-107439605D01*
X119694192Y-108395413D01*
X115105808Y-108395413D01*
X114150000Y-107439605D01*
X113194192Y-108395413D01*
X104793713Y-108395413D01*
X105009199Y-108306156D01*
X105309744Y-108105338D01*
X105565338Y-107849744D01*
X105766156Y-107549199D01*
X105860018Y-107322595D01*
X112508282Y-107322595D01*
X112552039Y-107641675D01*
X112657205Y-107946088D01*
X112750186Y-108120044D01*
X113014587Y-108215808D01*
X113970395Y-107260000D01*
X114329605Y-107260000D01*
X115285413Y-108215808D01*
X115549814Y-108120044D01*
X115690704Y-107830429D01*
X115772384Y-107518892D01*
X115784189Y-107322595D01*
X119008282Y-107322595D01*
X119052039Y-107641675D01*
X119157205Y-107946088D01*
X119250186Y-108120044D01*
X119514587Y-108215808D01*
X120470395Y-107260000D01*
X120829605Y-107260000D01*
X121785413Y-108215808D01*
X122049814Y-108120044D01*
X122190704Y-107830429D01*
X122272384Y-107518892D01*
X122291718Y-107197405D01*
X122247961Y-106878325D01*
X122142795Y-106573912D01*
X122049814Y-106399956D01*
X121785413Y-106304192D01*
X120829605Y-107260000D01*
X120470395Y-107260000D01*
X119514587Y-106304192D01*
X119250186Y-106399956D01*
X119109296Y-106689571D01*
X119027616Y-107001108D01*
X119008282Y-107322595D01*
X115784189Y-107322595D01*
X115791718Y-107197405D01*
X115747961Y-106878325D01*
X115642795Y-106573912D01*
X115549814Y-106399956D01*
X115285413Y-106304192D01*
X114329605Y-107260000D01*
X113970395Y-107260000D01*
X113014587Y-106304192D01*
X112750186Y-106399956D01*
X112609296Y-106689571D01*
X112527616Y-107001108D01*
X112508282Y-107322595D01*
X105860018Y-107322595D01*
X105904482Y-107215250D01*
X105975000Y-106860732D01*
X105975000Y-106499268D01*
X105904482Y-106144750D01*
X105896131Y-106124587D01*
X113194192Y-106124587D01*
X114150000Y-107080395D01*
X115105808Y-106124587D01*
X119694192Y-106124587D01*
X120650000Y-107080395D01*
X121605808Y-106124587D01*
X121510044Y-105860186D01*
X121220429Y-105719296D01*
X120908892Y-105637616D01*
X120587405Y-105618282D01*
X120268325Y-105662039D01*
X119963912Y-105767205D01*
X119789956Y-105860186D01*
X119694192Y-106124587D01*
X115105808Y-106124587D01*
X115010044Y-105860186D01*
X114720429Y-105719296D01*
X114408892Y-105637616D01*
X114087405Y-105618282D01*
X113768325Y-105662039D01*
X113463912Y-105767205D01*
X113289956Y-105860186D01*
X113194192Y-106124587D01*
X105896131Y-106124587D01*
X105766156Y-105810801D01*
X105565338Y-105510256D01*
X105309744Y-105254662D01*
X105009199Y-105053844D01*
X104675250Y-104915518D01*
X104320732Y-104845000D01*
X103959268Y-104845000D01*
X103604750Y-104915518D01*
X103270801Y-105053844D01*
X102970256Y-105254662D01*
X102714662Y-105510256D01*
X102513844Y-105810801D01*
X102375518Y-106144750D01*
X102305000Y-106499268D01*
X90735000Y-106499268D01*
X90664482Y-106144750D01*
X90526156Y-105810801D01*
X90325338Y-105510256D01*
X90069744Y-105254662D01*
X89769199Y-105053844D01*
X89435250Y-104915518D01*
X89080732Y-104845000D01*
X88719268Y-104845000D01*
X88364750Y-104915518D01*
X88030801Y-105053844D01*
X87730256Y-105254662D01*
X87474662Y-105510256D01*
X87273844Y-105810801D01*
X87135518Y-106144750D01*
X87065000Y-106499268D01*
X83115000Y-106499268D01*
X83044482Y-106144750D01*
X82906156Y-105810801D01*
X82705338Y-105510256D01*
X82449744Y-105254662D01*
X82149199Y-105053844D01*
X81815250Y-104915518D01*
X81460732Y-104845000D01*
X81099268Y-104845000D01*
X80744750Y-104915518D01*
X80410801Y-105053844D01*
X80110256Y-105254662D01*
X79854662Y-105510256D01*
X79653844Y-105810801D01*
X79515518Y-106144750D01*
X79445000Y-106499268D01*
X75495000Y-106499268D01*
X75424482Y-106144750D01*
X75286156Y-105810801D01*
X75085338Y-105510256D01*
X74829744Y-105254662D01*
X74529199Y-105053844D01*
X74195250Y-104915518D01*
X73840732Y-104845000D01*
X73479268Y-104845000D01*
X73124750Y-104915518D01*
X72790801Y-105053844D01*
X72490256Y-105254662D01*
X72234662Y-105510256D01*
X72033844Y-105810801D01*
X71895518Y-106144750D01*
X71825000Y-106499268D01*
X67875000Y-106499268D01*
X67804482Y-106144750D01*
X67666156Y-105810801D01*
X67465338Y-105510256D01*
X67209744Y-105254662D01*
X66909199Y-105053844D01*
X66575250Y-104915518D01*
X66220732Y-104845000D01*
X65859268Y-104845000D01*
X65504750Y-104915518D01*
X65170801Y-105053844D01*
X64870256Y-105254662D01*
X64614662Y-105510256D01*
X64413844Y-105810801D01*
X64275518Y-106144750D01*
X64205000Y-106499268D01*
X52824215Y-106499268D01*
X52640213Y-106409762D01*
X52328771Y-106328115D01*
X52007385Y-106308795D01*
X51688405Y-106352546D01*
X51384089Y-106457686D01*
X51210258Y-106550601D01*
X51114555Y-106814950D01*
X48166469Y-106814950D01*
X48031927Y-106680408D01*
X47764222Y-106501533D01*
X47466763Y-106378322D01*
X47150983Y-106315510D01*
X46829017Y-106315510D01*
X46513237Y-106378322D01*
X46215778Y-106501533D01*
X45948073Y-106680408D01*
X45720408Y-106908073D01*
X45541533Y-107175778D01*
X45418322Y-107473237D01*
X45355510Y-107789017D01*
X42054959Y-107789017D01*
X42038787Y-107679870D01*
X41943603Y-107413708D01*
X41876671Y-107288486D01*
X41632702Y-107216903D01*
X40819605Y-108030000D01*
X40460395Y-108030000D01*
X39647298Y-107216903D01*
X39403329Y-107288486D01*
X39282429Y-107543996D01*
X39213700Y-107818184D01*
X39199783Y-108100512D01*
X37490000Y-108100512D01*
X37490000Y-107037298D01*
X39826903Y-107037298D01*
X40640000Y-107850395D01*
X41453097Y-107037298D01*
X41381514Y-106793329D01*
X41126004Y-106672429D01*
X40851816Y-106603700D01*
X40569488Y-106589783D01*
X40289870Y-106631213D01*
X40023708Y-106726397D01*
X39898486Y-106793329D01*
X39826903Y-107037298D01*
X37490000Y-107037298D01*
X37490000Y-104800000D01*
X133960000Y-104800000D01*
X133960001Y-174600000D01*
G37*
X133960001Y-174600000D02*
X37490000Y-174600000D01*
X37490000Y-170529039D01*
X96398096Y-170529039D01*
X96438754Y-170663087D01*
X96558963Y-170917420D01*
X96726481Y-171143414D01*
X96934869Y-171332385D01*
X97176119Y-171477070D01*
X97440960Y-171571909D01*
X97663000Y-171450624D01*
X97663000Y-170307000D01*
X97917000Y-170307000D01*
X97917000Y-171450624D01*
X98139040Y-171571909D01*
X98403881Y-171477070D01*
X98645131Y-171332385D01*
X98853519Y-171143414D01*
X99021037Y-170917420D01*
X99141246Y-170663087D01*
X99181904Y-170529039D01*
X104018096Y-170529039D01*
X104058754Y-170663087D01*
X104178963Y-170917420D01*
X104346481Y-171143414D01*
X104554869Y-171332385D01*
X104796119Y-171477070D01*
X105060960Y-171571909D01*
X105283000Y-171450624D01*
X105283000Y-170307000D01*
X105537000Y-170307000D01*
X105537000Y-171450624D01*
X105759040Y-171571909D01*
X106023881Y-171477070D01*
X106265131Y-171332385D01*
X106473519Y-171143414D01*
X106641037Y-170917420D01*
X106761246Y-170663087D01*
X106801904Y-170529039D01*
X106679915Y-170307000D01*
X105537000Y-170307000D01*
X105283000Y-170307000D01*
X104140085Y-170307000D01*
X104018096Y-170529039D01*
X99181904Y-170529039D01*
X99059915Y-170307000D01*
X97917000Y-170307000D01*
X97663000Y-170307000D01*
X96520085Y-170307000D01*
X96398096Y-170529039D01*
X37490000Y-170529039D01*
X37490000Y-168540000D01*
X53071928Y-168540000D01*
X53084188Y-168664482D01*
X53120498Y-168784180D01*
X53179463Y-168894494D01*
X53258815Y-168991185D01*
X53355506Y-169070537D01*
X53465820Y-169129502D01*
X53585518Y-169165812D01*
X53710000Y-169178072D01*
X54324250Y-169175000D01*
X54483000Y-169016250D01*
X54483000Y-167767000D01*
X53233750Y-167767000D01*
X53075000Y-167925750D01*
X53071928Y-168540000D01*
X37490000Y-168540000D01*
X37490000Y-166740000D01*
X53071928Y-166740000D01*
X53075000Y-167354250D01*
X53233750Y-167513000D01*
X54483000Y-167513000D01*
X54483000Y-166263750D01*
X54737000Y-166263750D01*
X54737000Y-167513000D01*
X54757000Y-167513000D01*
X54757000Y-167767000D01*
X54737000Y-167767000D01*
X54737000Y-169016250D01*
X54895750Y-169175000D01*
X55510000Y-169178072D01*
X55634482Y-169165812D01*
X55754180Y-169129502D01*
X55864494Y-169070537D01*
X55961185Y-168991185D01*
X56040537Y-168894494D01*
X56099502Y-168784180D01*
X56105056Y-168765873D01*
X56171495Y-168832312D01*
X56422905Y-169000299D01*
X56702257Y-169116011D01*
X56998816Y-169175000D01*
X57301184Y-169175000D01*
X57597743Y-169116011D01*
X57877095Y-169000299D01*
X58128505Y-168832312D01*
X58342312Y-168618505D01*
X58510299Y-168367095D01*
X58626011Y-168087743D01*
X58645644Y-167989039D01*
X96398096Y-167989039D01*
X96438754Y-168123087D01*
X96558963Y-168377420D01*
X96726481Y-168603414D01*
X96934869Y-168792385D01*
X97130982Y-168910000D01*
X96934869Y-169027615D01*
X96726481Y-169216586D01*
X96558963Y-169442580D01*
X96438754Y-169696913D01*
X96398096Y-169830961D01*
X96520085Y-170053000D01*
X97663000Y-170053000D01*
X97663000Y-167767000D01*
X97917000Y-167767000D01*
X97917000Y-170053000D01*
X99059915Y-170053000D01*
X99181904Y-169830961D01*
X99141246Y-169696913D01*
X99021037Y-169442580D01*
X98853519Y-169216586D01*
X98645131Y-169027615D01*
X98449018Y-168910000D01*
X98645131Y-168792385D01*
X98853519Y-168603414D01*
X99021037Y-168377420D01*
X99141246Y-168123087D01*
X99181904Y-167989039D01*
X104018096Y-167989039D01*
X104058754Y-168123087D01*
X104178963Y-168377420D01*
X104346481Y-168603414D01*
X104554869Y-168792385D01*
X104750982Y-168910000D01*
X104554869Y-169027615D01*
X104346481Y-169216586D01*
X104178963Y-169442580D01*
X104058754Y-169696913D01*
X104018096Y-169830961D01*
X104140085Y-170053000D01*
X105283000Y-170053000D01*
X105283000Y-167767000D01*
X105537000Y-167767000D01*
X105537000Y-170053000D01*
X106679915Y-170053000D01*
X106801904Y-169830961D01*
X106761246Y-169696913D01*
X106641037Y-169442580D01*
X106473519Y-169216586D01*
X106265131Y-169027615D01*
X106069018Y-168910000D01*
X106265131Y-168792385D01*
X106473519Y-168603414D01*
X106641037Y-168377420D01*
X106761246Y-168123087D01*
X106801904Y-167989039D01*
X106679915Y-167767000D01*
X105537000Y-167767000D01*
X105283000Y-167767000D01*
X104140085Y-167767000D01*
X104018096Y-167989039D01*
X99181904Y-167989039D01*
X99059915Y-167767000D01*
X97917000Y-167767000D01*
X97663000Y-167767000D01*
X96520085Y-167767000D01*
X96398096Y-167989039D01*
X58645644Y-167989039D01*
X58685000Y-167791184D01*
X58685000Y-167488816D01*
X58659915Y-167362702D01*
X74116903Y-167362702D01*
X74188486Y-167606671D01*
X74443996Y-167727571D01*
X74718184Y-167796300D01*
X75000512Y-167810217D01*
X75280130Y-167768787D01*
X75546292Y-167673603D01*
X75671514Y-167606671D01*
X75743097Y-167362702D01*
X74930000Y-166549605D01*
X74116903Y-167362702D01*
X58659915Y-167362702D01*
X58626011Y-167192257D01*
X58510299Y-166912905D01*
X58342312Y-166661495D01*
X58128505Y-166447688D01*
X58117766Y-166440512D01*
X73489783Y-166440512D01*
X73531213Y-166720130D01*
X73626397Y-166986292D01*
X73693329Y-167111514D01*
X73937298Y-167183097D01*
X74750395Y-166370000D01*
X75109605Y-166370000D01*
X75922702Y-167183097D01*
X76166671Y-167111514D01*
X76287571Y-166856004D01*
X76356300Y-166581816D01*
X76370217Y-166299488D01*
X76359724Y-166228665D01*
X78495000Y-166228665D01*
X78495000Y-166511335D01*
X78550147Y-166788574D01*
X78658320Y-167049727D01*
X78815363Y-167284759D01*
X79015241Y-167484637D01*
X79250273Y-167641680D01*
X79511426Y-167749853D01*
X79788665Y-167805000D01*
X80071335Y-167805000D01*
X80348574Y-167749853D01*
X80609727Y-167641680D01*
X80844759Y-167484637D01*
X81044637Y-167284759D01*
X81201680Y-167049727D01*
X81309853Y-166788574D01*
X81365000Y-166511335D01*
X81365000Y-166228665D01*
X81326197Y-166033589D01*
X84975000Y-166033589D01*
X84975000Y-166306411D01*
X85028225Y-166573989D01*
X85132629Y-166826043D01*
X85284201Y-167052886D01*
X85477114Y-167245799D01*
X85703957Y-167397371D01*
X85956011Y-167501775D01*
X86223589Y-167555000D01*
X86496411Y-167555000D01*
X86763989Y-167501775D01*
X87016043Y-167397371D01*
X87242886Y-167245799D01*
X87435799Y-167052886D01*
X87587371Y-166826043D01*
X87691775Y-166573989D01*
X87745000Y-166306411D01*
X87745000Y-166033589D01*
X87691775Y-165766011D01*
X87587371Y-165513957D01*
X87543995Y-165449039D01*
X96398096Y-165449039D01*
X96438754Y-165583087D01*
X96558963Y-165837420D01*
X96726481Y-166063414D01*
X96934869Y-166252385D01*
X97130982Y-166370000D01*
X96934869Y-166487615D01*
X96726481Y-166676586D01*
X96558963Y-166902580D01*
X96438754Y-167156913D01*
X96398096Y-167290961D01*
X96520085Y-167513000D01*
X97663000Y-167513000D01*
X97663000Y-165227000D01*
X97917000Y-165227000D01*
X97917000Y-167513000D01*
X99059915Y-167513000D01*
X99181904Y-167290961D01*
X99141246Y-167156913D01*
X99021037Y-166902580D01*
X98853519Y-166676586D01*
X98645131Y-166487615D01*
X98449018Y-166370000D01*
X98645131Y-166252385D01*
X98853519Y-166063414D01*
X99021037Y-165837420D01*
X99141246Y-165583087D01*
X99181904Y-165449039D01*
X104018096Y-165449039D01*
X104058754Y-165583087D01*
X104178963Y-165837420D01*
X104346481Y-166063414D01*
X104554869Y-166252385D01*
X104750982Y-166370000D01*
X104554869Y-166487615D01*
X104346481Y-166676586D01*
X104178963Y-166902580D01*
X104058754Y-167156913D01*
X104018096Y-167290961D01*
X104140085Y-167513000D01*
X105283000Y-167513000D01*
X105283000Y-165227000D01*
X105537000Y-165227000D01*
X105537000Y-167513000D01*
X106679915Y-167513000D01*
X106801904Y-167290961D01*
X106761246Y-167156913D01*
X106641037Y-166902580D01*
X106473519Y-166676586D01*
X106265131Y-166487615D01*
X106069018Y-166370000D01*
X106265131Y-166252385D01*
X106473519Y-166063414D01*
X106641037Y-165837420D01*
X106761246Y-165583087D01*
X106801904Y-165449039D01*
X106679915Y-165227000D01*
X105537000Y-165227000D01*
X105283000Y-165227000D01*
X104140085Y-165227000D01*
X104018096Y-165449039D01*
X99181904Y-165449039D01*
X99059915Y-165227000D01*
X97917000Y-165227000D01*
X97663000Y-165227000D01*
X96520085Y-165227000D01*
X96398096Y-165449039D01*
X87543995Y-165449039D01*
X87435799Y-165287114D01*
X87242886Y-165094201D01*
X87016043Y-164942629D01*
X86763989Y-164838225D01*
X86496411Y-164785000D01*
X86223589Y-164785000D01*
X85956011Y-164838225D01*
X85703957Y-164942629D01*
X85477114Y-165094201D01*
X85284201Y-165287114D01*
X85132629Y-165513957D01*
X85028225Y-165766011D01*
X84975000Y-166033589D01*
X81326197Y-166033589D01*
X81309853Y-165951426D01*
X81201680Y-165690273D01*
X81044637Y-165455241D01*
X80844759Y-165255363D01*
X80609727Y-165098320D01*
X80348574Y-164990147D01*
X80071335Y-164935000D01*
X79788665Y-164935000D01*
X79511426Y-164990147D01*
X79250273Y-165098320D01*
X79015241Y-165255363D01*
X78815363Y-165455241D01*
X78658320Y-165690273D01*
X78550147Y-165951426D01*
X78495000Y-166228665D01*
X76359724Y-166228665D01*
X76328787Y-166019870D01*
X76233603Y-165753708D01*
X76166671Y-165628486D01*
X75922702Y-165556903D01*
X75109605Y-166370000D01*
X74750395Y-166370000D01*
X73937298Y-165556903D01*
X73693329Y-165628486D01*
X73572429Y-165883996D01*
X73503700Y-166158184D01*
X73489783Y-166440512D01*
X58117766Y-166440512D01*
X57877095Y-166279701D01*
X57597743Y-166163989D01*
X57301184Y-166105000D01*
X56998816Y-166105000D01*
X56702257Y-166163989D01*
X56422905Y-166279701D01*
X56171495Y-166447688D01*
X56105056Y-166514127D01*
X56099502Y-166495820D01*
X56040537Y-166385506D01*
X55961185Y-166288815D01*
X55864494Y-166209463D01*
X55754180Y-166150498D01*
X55634482Y-166114188D01*
X55510000Y-166101928D01*
X54895750Y-166105000D01*
X54737000Y-166263750D01*
X54483000Y-166263750D01*
X54324250Y-166105000D01*
X53710000Y-166101928D01*
X53585518Y-166114188D01*
X53465820Y-166150498D01*
X53355506Y-166209463D01*
X53258815Y-166288815D01*
X53179463Y-166385506D01*
X53120498Y-166495820D01*
X53084188Y-166615518D01*
X53071928Y-166740000D01*
X37490000Y-166740000D01*
X37490000Y-165377298D01*
X74116903Y-165377298D01*
X74930000Y-166190395D01*
X75743097Y-165377298D01*
X75671514Y-165133329D01*
X75416004Y-165012429D01*
X75141816Y-164943700D01*
X74859488Y-164929783D01*
X74579870Y-164971213D01*
X74313708Y-165066397D01*
X74188486Y-165133329D01*
X74116903Y-165377298D01*
X37490000Y-165377298D01*
X37490000Y-161109268D01*
X54045000Y-161109268D01*
X54045000Y-161470732D01*
X54115518Y-161825250D01*
X54253844Y-162159199D01*
X54454662Y-162459744D01*
X54710256Y-162715338D01*
X55010801Y-162916156D01*
X55344750Y-163054482D01*
X55699268Y-163125000D01*
X56060732Y-163125000D01*
X56415250Y-163054482D01*
X56749199Y-162916156D01*
X56759850Y-162909039D01*
X96398096Y-162909039D01*
X96438754Y-163043087D01*
X96558963Y-163297420D01*
X96726481Y-163523414D01*
X96934869Y-163712385D01*
X97130982Y-163830000D01*
X96934869Y-163947615D01*
X96726481Y-164136586D01*
X96558963Y-164362580D01*
X96438754Y-164616913D01*
X96398096Y-164750961D01*
X96520085Y-164973000D01*
X97663000Y-164973000D01*
X97663000Y-162687000D01*
X97917000Y-162687000D01*
X97917000Y-164973000D01*
X99059915Y-164973000D01*
X99181904Y-164750961D01*
X99141246Y-164616913D01*
X99021037Y-164362580D01*
X98853519Y-164136586D01*
X98645131Y-163947615D01*
X98449018Y-163830000D01*
X98645131Y-163712385D01*
X98853519Y-163523414D01*
X99021037Y-163297420D01*
X99141246Y-163043087D01*
X99181904Y-162909039D01*
X104018096Y-162909039D01*
X104058754Y-163043087D01*
X104178963Y-163297420D01*
X104346481Y-163523414D01*
X104554869Y-163712385D01*
X104750982Y-163830000D01*
X104554869Y-163947615D01*
X104346481Y-164136586D01*
X104178963Y-164362580D01*
X104058754Y-164616913D01*
X104018096Y-164750961D01*
X104140085Y-164973000D01*
X105283000Y-164973000D01*
X105283000Y-162687000D01*
X105537000Y-162687000D01*
X105537000Y-164973000D01*
X106679915Y-164973000D01*
X106801904Y-164750961D01*
X106761246Y-164616913D01*
X106641037Y-164362580D01*
X106473519Y-164136586D01*
X106265131Y-163947615D01*
X106069018Y-163830000D01*
X106265131Y-163712385D01*
X106473519Y-163523414D01*
X106641037Y-163297420D01*
X106761246Y-163043087D01*
X106801904Y-162909039D01*
X106679915Y-162687000D01*
X105537000Y-162687000D01*
X105283000Y-162687000D01*
X104140085Y-162687000D01*
X104018096Y-162909039D01*
X99181904Y-162909039D01*
X99059915Y-162687000D01*
X97917000Y-162687000D01*
X97663000Y-162687000D01*
X96520085Y-162687000D01*
X96398096Y-162909039D01*
X56759850Y-162909039D01*
X57049744Y-162715338D01*
X57305338Y-162459744D01*
X57423633Y-162282702D01*
X74116903Y-162282702D01*
X74188486Y-162526671D01*
X74443996Y-162647571D01*
X74718184Y-162716300D01*
X75000512Y-162730217D01*
X75280130Y-162688787D01*
X75546292Y-162593603D01*
X75671514Y-162526671D01*
X75743097Y-162282702D01*
X74930000Y-161469605D01*
X74116903Y-162282702D01*
X57423633Y-162282702D01*
X57506156Y-162159199D01*
X57644482Y-161825250D01*
X57715000Y-161470732D01*
X57715000Y-161360512D01*
X73489783Y-161360512D01*
X73531213Y-161640130D01*
X73626397Y-161906292D01*
X73693329Y-162031514D01*
X73937298Y-162103097D01*
X74750395Y-161290000D01*
X75109605Y-161290000D01*
X75922702Y-162103097D01*
X76166671Y-162031514D01*
X76287571Y-161776004D01*
X76356300Y-161501816D01*
X76370217Y-161219488D01*
X76359724Y-161148665D01*
X78495000Y-161148665D01*
X78495000Y-161431335D01*
X78550147Y-161708574D01*
X78658320Y-161969727D01*
X78815363Y-162204759D01*
X79015241Y-162404637D01*
X79250273Y-162561680D01*
X79511426Y-162669853D01*
X79788665Y-162725000D01*
X80071335Y-162725000D01*
X80348574Y-162669853D01*
X80609727Y-162561680D01*
X80844759Y-162404637D01*
X81044637Y-162204759D01*
X81201680Y-161969727D01*
X81309853Y-161708574D01*
X81365000Y-161431335D01*
X81365000Y-161153589D01*
X84975000Y-161153589D01*
X84975000Y-161426411D01*
X85028225Y-161693989D01*
X85132629Y-161946043D01*
X85284201Y-162172886D01*
X85477114Y-162365799D01*
X85703957Y-162517371D01*
X85956011Y-162621775D01*
X86223589Y-162675000D01*
X86496411Y-162675000D01*
X86763989Y-162621775D01*
X87016043Y-162517371D01*
X87242886Y-162365799D01*
X87435799Y-162172886D01*
X87587371Y-161946043D01*
X87691775Y-161693989D01*
X87745000Y-161426411D01*
X87745000Y-161153589D01*
X87691775Y-160886011D01*
X87587371Y-160633957D01*
X87435799Y-160407114D01*
X87242886Y-160214201D01*
X87016043Y-160062629D01*
X86763989Y-159958225D01*
X86496411Y-159905000D01*
X86223589Y-159905000D01*
X85956011Y-159958225D01*
X85703957Y-160062629D01*
X85477114Y-160214201D01*
X85284201Y-160407114D01*
X85132629Y-160633957D01*
X85028225Y-160886011D01*
X84975000Y-161153589D01*
X81365000Y-161153589D01*
X81365000Y-161148665D01*
X81309853Y-160871426D01*
X81201680Y-160610273D01*
X81044637Y-160375241D01*
X80844759Y-160175363D01*
X80609727Y-160018320D01*
X80348574Y-159910147D01*
X80071335Y-159855000D01*
X79788665Y-159855000D01*
X79511426Y-159910147D01*
X79250273Y-160018320D01*
X79015241Y-160175363D01*
X78815363Y-160375241D01*
X78658320Y-160610273D01*
X78550147Y-160871426D01*
X78495000Y-161148665D01*
X76359724Y-161148665D01*
X76328787Y-160939870D01*
X76233603Y-160673708D01*
X76166671Y-160548486D01*
X75922702Y-160476903D01*
X75109605Y-161290000D01*
X74750395Y-161290000D01*
X73937298Y-160476903D01*
X73693329Y-160548486D01*
X73572429Y-160803996D01*
X73503700Y-161078184D01*
X73489783Y-161360512D01*
X57715000Y-161360512D01*
X57715000Y-161109268D01*
X57644482Y-160754750D01*
X57506156Y-160420801D01*
X57423634Y-160297298D01*
X74116903Y-160297298D01*
X74930000Y-161110395D01*
X75743097Y-160297298D01*
X75671514Y-160053329D01*
X75416004Y-159932429D01*
X75141816Y-159863700D01*
X74859488Y-159849783D01*
X74579870Y-159891213D01*
X74313708Y-159986397D01*
X74188486Y-160053329D01*
X74116903Y-160297298D01*
X57423634Y-160297298D01*
X57305338Y-160120256D01*
X57049744Y-159864662D01*
X56749199Y-159663844D01*
X56746442Y-159662702D01*
X91896903Y-159662702D01*
X91968486Y-159906671D01*
X92223996Y-160027571D01*
X92498184Y-160096300D01*
X92780512Y-160110217D01*
X93060130Y-160068787D01*
X93326292Y-159973603D01*
X93451514Y-159906671D01*
X93523097Y-159662702D01*
X92710000Y-158849605D01*
X91896903Y-159662702D01*
X56746442Y-159662702D01*
X56415250Y-159525518D01*
X56060732Y-159455000D01*
X55699268Y-159455000D01*
X55344750Y-159525518D01*
X55010801Y-159663844D01*
X54710256Y-159864662D01*
X54454662Y-160120256D01*
X54253844Y-160420801D01*
X54115518Y-160754750D01*
X54045000Y-161109268D01*
X37490000Y-161109268D01*
X37490000Y-158740512D01*
X91269783Y-158740512D01*
X91311213Y-159020130D01*
X91406397Y-159286292D01*
X91473329Y-159411514D01*
X91717298Y-159483097D01*
X92530395Y-158670000D01*
X92889605Y-158670000D01*
X93702702Y-159483097D01*
X93946671Y-159411514D01*
X94067571Y-159156004D01*
X94136300Y-158881816D01*
X94150217Y-158599488D01*
X94108787Y-158319870D01*
X94013603Y-158053708D01*
X93946671Y-157928486D01*
X93702702Y-157856903D01*
X92889605Y-158670000D01*
X92530395Y-158670000D01*
X91717298Y-157856903D01*
X91473329Y-157928486D01*
X91352429Y-158183996D01*
X91283700Y-158458184D01*
X91269783Y-158740512D01*
X37490000Y-158740512D01*
X37490000Y-157677298D01*
X91896903Y-157677298D01*
X92710000Y-158490395D01*
X93523097Y-157677298D01*
X93451514Y-157433329D01*
X93251452Y-157338665D01*
X96355000Y-157338665D01*
X96355000Y-157621335D01*
X96410147Y-157898574D01*
X96518320Y-158159727D01*
X96675363Y-158394759D01*
X96875241Y-158594637D01*
X97107759Y-158750000D01*
X96875241Y-158905363D01*
X96675363Y-159105241D01*
X96518320Y-159340273D01*
X96410147Y-159601426D01*
X96355000Y-159878665D01*
X96355000Y-160161335D01*
X96410147Y-160438574D01*
X96518320Y-160699727D01*
X96675363Y-160934759D01*
X96875241Y-161134637D01*
X97110273Y-161291680D01*
X97120865Y-161296067D01*
X96934869Y-161407615D01*
X96726481Y-161596586D01*
X96558963Y-161822580D01*
X96438754Y-162076913D01*
X96398096Y-162210961D01*
X96520085Y-162433000D01*
X97663000Y-162433000D01*
X97663000Y-162413000D01*
X97917000Y-162413000D01*
X97917000Y-162433000D01*
X99059915Y-162433000D01*
X99181904Y-162210961D01*
X99141246Y-162076913D01*
X99021037Y-161822580D01*
X98853519Y-161596586D01*
X98645131Y-161407615D01*
X98459135Y-161296067D01*
X98469727Y-161291680D01*
X98704759Y-161134637D01*
X98904637Y-160934759D01*
X99061680Y-160699727D01*
X99169853Y-160438574D01*
X99183684Y-160369039D01*
X104018096Y-160369039D01*
X104058754Y-160503087D01*
X104178963Y-160757420D01*
X104346481Y-160983414D01*
X104554869Y-161172385D01*
X104750982Y-161290000D01*
X104554869Y-161407615D01*
X104346481Y-161596586D01*
X104178963Y-161822580D01*
X104058754Y-162076913D01*
X104018096Y-162210961D01*
X104140085Y-162433000D01*
X105283000Y-162433000D01*
X105283000Y-160147000D01*
X105537000Y-160147000D01*
X105537000Y-162433000D01*
X106679915Y-162433000D01*
X106801904Y-162210961D01*
X106761246Y-162076913D01*
X106641037Y-161822580D01*
X106473519Y-161596586D01*
X106265131Y-161407615D01*
X106069018Y-161290000D01*
X106265131Y-161172385D01*
X106473519Y-160983414D01*
X106641037Y-160757420D01*
X106761246Y-160503087D01*
X106801904Y-160369039D01*
X106679915Y-160147000D01*
X105537000Y-160147000D01*
X105283000Y-160147000D01*
X104140085Y-160147000D01*
X104018096Y-160369039D01*
X99183684Y-160369039D01*
X99225000Y-160161335D01*
X99225000Y-159878665D01*
X99169853Y-159601426D01*
X99061680Y-159340273D01*
X98904637Y-159105241D01*
X98704759Y-158905363D01*
X98472241Y-158750000D01*
X98704759Y-158594637D01*
X98904637Y-158394759D01*
X99061680Y-158159727D01*
X99169853Y-157898574D01*
X99225000Y-157621335D01*
X99225000Y-157338665D01*
X99169853Y-157061426D01*
X99061680Y-156800273D01*
X98904637Y-156565241D01*
X98704759Y-156365363D01*
X98469727Y-156208320D01*
X98459135Y-156203933D01*
X98645131Y-156092385D01*
X98853519Y-155903414D01*
X99021037Y-155677420D01*
X99141246Y-155423087D01*
X99181904Y-155289039D01*
X99059915Y-155067000D01*
X97917000Y-155067000D01*
X97917000Y-155087000D01*
X97663000Y-155087000D01*
X97663000Y-155067000D01*
X96520085Y-155067000D01*
X96398096Y-155289039D01*
X96438754Y-155423087D01*
X96558963Y-155677420D01*
X96726481Y-155903414D01*
X96934869Y-156092385D01*
X97120865Y-156203933D01*
X97110273Y-156208320D01*
X96875241Y-156365363D01*
X96675363Y-156565241D01*
X96518320Y-156800273D01*
X96410147Y-157061426D01*
X96355000Y-157338665D01*
X93251452Y-157338665D01*
X93196004Y-157312429D01*
X92921816Y-157243700D01*
X92639488Y-157229783D01*
X92359870Y-157271213D01*
X92093708Y-157366397D01*
X91968486Y-157433329D01*
X91896903Y-157677298D01*
X37490000Y-157677298D01*
X37490000Y-153528665D01*
X91275000Y-153528665D01*
X91275000Y-153811335D01*
X91330147Y-154088574D01*
X91438320Y-154349727D01*
X91595363Y-154584759D01*
X91795241Y-154784637D01*
X92030273Y-154941680D01*
X92291426Y-155049853D01*
X92568665Y-155105000D01*
X92851335Y-155105000D01*
X93128574Y-155049853D01*
X93389727Y-154941680D01*
X93624759Y-154784637D01*
X93824637Y-154584759D01*
X93981680Y-154349727D01*
X94089853Y-154088574D01*
X94145000Y-153811335D01*
X94145000Y-153528665D01*
X94089853Y-153251426D01*
X93981680Y-152990273D01*
X93824637Y-152755241D01*
X93624759Y-152555363D01*
X93389727Y-152398320D01*
X93128574Y-152290147D01*
X92851335Y-152235000D01*
X92568665Y-152235000D01*
X92291426Y-152290147D01*
X92030273Y-152398320D01*
X91795241Y-152555363D01*
X91595363Y-152755241D01*
X91438320Y-152990273D01*
X91330147Y-153251426D01*
X91275000Y-153528665D01*
X37490000Y-153528665D01*
X37490000Y-152265413D01*
X61274192Y-152265413D01*
X61369956Y-152529814D01*
X61659571Y-152670704D01*
X61971108Y-152752384D01*
X62292595Y-152771718D01*
X62611675Y-152727961D01*
X62916088Y-152622795D01*
X63090044Y-152529814D01*
X63185808Y-152265413D01*
X62230000Y-151309605D01*
X61274192Y-152265413D01*
X37490000Y-152265413D01*
X37490000Y-151192595D01*
X60588282Y-151192595D01*
X60632039Y-151511675D01*
X60737205Y-151816088D01*
X60830186Y-151990044D01*
X61094587Y-152085808D01*
X62050395Y-151130000D01*
X62409605Y-151130000D01*
X63365413Y-152085808D01*
X63629814Y-151990044D01*
X63770704Y-151700429D01*
X63852384Y-151388892D01*
X63871718Y-151067405D01*
X63858219Y-150968967D01*
X65095000Y-150968967D01*
X65095000Y-151291033D01*
X65157832Y-151606912D01*
X65281082Y-151904463D01*
X65460013Y-152172252D01*
X65687748Y-152399987D01*
X65955537Y-152578918D01*
X66253088Y-152702168D01*
X66568967Y-152765000D01*
X66891033Y-152765000D01*
X67206912Y-152702168D01*
X67504463Y-152578918D01*
X67772252Y-152399987D01*
X67999987Y-152172252D01*
X68178918Y-151904463D01*
X68302168Y-151606912D01*
X68365000Y-151291033D01*
X68365000Y-150968967D01*
X68302168Y-150653088D01*
X68178918Y-150355537D01*
X67999987Y-150087748D01*
X67772252Y-149860013D01*
X67504463Y-149681082D01*
X67206912Y-149557832D01*
X66891033Y-149495000D01*
X66568967Y-149495000D01*
X66253088Y-149557832D01*
X65955537Y-149681082D01*
X65687748Y-149860013D01*
X65460013Y-150087748D01*
X65281082Y-150355537D01*
X65157832Y-150653088D01*
X65095000Y-150968967D01*
X63858219Y-150968967D01*
X63827961Y-150748325D01*
X63722795Y-150443912D01*
X63629814Y-150269956D01*
X63365413Y-150174192D01*
X62409605Y-151130000D01*
X62050395Y-151130000D01*
X61094587Y-150174192D01*
X60830186Y-150269956D01*
X60689296Y-150559571D01*
X60607616Y-150871108D01*
X60588282Y-151192595D01*
X37490000Y-151192595D01*
X37490000Y-149994587D01*
X61274192Y-149994587D01*
X62230000Y-150950395D01*
X63185808Y-149994587D01*
X63090044Y-149730186D01*
X62800429Y-149589296D01*
X62488892Y-149507616D01*
X62167405Y-149488282D01*
X61848325Y-149532039D01*
X61543912Y-149637205D01*
X61369956Y-149730186D01*
X61274192Y-149994587D01*
X37490000Y-149994587D01*
X37490000Y-145869268D01*
X54045000Y-145869268D01*
X54045000Y-146230732D01*
X54115518Y-146585250D01*
X54253844Y-146919199D01*
X54454662Y-147219744D01*
X54710256Y-147475338D01*
X55010801Y-147676156D01*
X55344750Y-147814482D01*
X55699268Y-147885000D01*
X56060732Y-147885000D01*
X56415250Y-147814482D01*
X56749199Y-147676156D01*
X57049744Y-147475338D01*
X57305338Y-147219744D01*
X57328277Y-147185413D01*
X71434192Y-147185413D01*
X71529956Y-147449814D01*
X71819571Y-147590704D01*
X72131108Y-147672384D01*
X72452595Y-147691718D01*
X72771675Y-147647961D01*
X73076088Y-147542795D01*
X73250044Y-147449814D01*
X73345808Y-147185413D01*
X72390000Y-146229605D01*
X71434192Y-147185413D01*
X57328277Y-147185413D01*
X57506156Y-146919199D01*
X57644482Y-146585250D01*
X57715000Y-146230732D01*
X57715000Y-145869268D01*
X57694342Y-145765413D01*
X61274192Y-145765413D01*
X61369956Y-146029814D01*
X61659571Y-146170704D01*
X61971108Y-146252384D01*
X62292595Y-146271718D01*
X62611675Y-146227961D01*
X62916088Y-146122795D01*
X63090044Y-146029814D01*
X63185808Y-145765413D01*
X62230000Y-144809605D01*
X61274192Y-145765413D01*
X57694342Y-145765413D01*
X57644482Y-145514750D01*
X57506156Y-145180801D01*
X57305338Y-144880256D01*
X57117677Y-144692595D01*
X60588282Y-144692595D01*
X60632039Y-145011675D01*
X60737205Y-145316088D01*
X60830186Y-145490044D01*
X61094587Y-145585808D01*
X62050395Y-144630000D01*
X62409605Y-144630000D01*
X63365413Y-145585808D01*
X63629814Y-145490044D01*
X63770704Y-145200429D01*
X63852384Y-144888892D01*
X63871718Y-144567405D01*
X63858219Y-144468967D01*
X65095000Y-144468967D01*
X65095000Y-144791033D01*
X65157832Y-145106912D01*
X65281082Y-145404463D01*
X65460013Y-145672252D01*
X65687748Y-145899987D01*
X65955537Y-146078918D01*
X66253088Y-146202168D01*
X66568967Y-146265000D01*
X66891033Y-146265000D01*
X67206912Y-146202168D01*
X67423159Y-146112595D01*
X70748282Y-146112595D01*
X70792039Y-146431675D01*
X70897205Y-146736088D01*
X70990186Y-146910044D01*
X71254587Y-147005808D01*
X72210395Y-146050000D01*
X72569605Y-146050000D01*
X73525413Y-147005808D01*
X73789814Y-146910044D01*
X73930704Y-146620429D01*
X74012384Y-146308892D01*
X74031718Y-145987405D01*
X74018219Y-145888967D01*
X75255000Y-145888967D01*
X75255000Y-146211033D01*
X75317832Y-146526912D01*
X75441082Y-146824463D01*
X75620013Y-147092252D01*
X75847748Y-147319987D01*
X76115537Y-147498918D01*
X76413088Y-147622168D01*
X76728967Y-147685000D01*
X77051033Y-147685000D01*
X77366912Y-147622168D01*
X77664463Y-147498918D01*
X77932252Y-147319987D01*
X78159987Y-147092252D01*
X78338918Y-146824463D01*
X78462168Y-146526912D01*
X78525000Y-146211033D01*
X78525000Y-145888967D01*
X78462168Y-145573088D01*
X78338918Y-145275537D01*
X78159987Y-145007748D01*
X77932252Y-144780013D01*
X77664463Y-144601082D01*
X77366912Y-144477832D01*
X77051033Y-144415000D01*
X76728967Y-144415000D01*
X76413088Y-144477832D01*
X76115537Y-144601082D01*
X75847748Y-144780013D01*
X75620013Y-145007748D01*
X75441082Y-145275537D01*
X75317832Y-145573088D01*
X75255000Y-145888967D01*
X74018219Y-145888967D01*
X73987961Y-145668325D01*
X73882795Y-145363912D01*
X73789814Y-145189956D01*
X73525413Y-145094192D01*
X72569605Y-146050000D01*
X72210395Y-146050000D01*
X71254587Y-145094192D01*
X70990186Y-145189956D01*
X70849296Y-145479571D01*
X70767616Y-145791108D01*
X70748282Y-146112595D01*
X67423159Y-146112595D01*
X67504463Y-146078918D01*
X67772252Y-145899987D01*
X67999987Y-145672252D01*
X68178918Y-145404463D01*
X68302168Y-145106912D01*
X68340423Y-144914587D01*
X71434192Y-144914587D01*
X72390000Y-145870395D01*
X73345808Y-144914587D01*
X73250044Y-144650186D01*
X72960429Y-144509296D01*
X72648892Y-144427616D01*
X72327405Y-144408282D01*
X72008325Y-144452039D01*
X71703912Y-144557205D01*
X71529956Y-144650186D01*
X71434192Y-144914587D01*
X68340423Y-144914587D01*
X68365000Y-144791033D01*
X68365000Y-144468967D01*
X68302168Y-144153088D01*
X68178918Y-143855537D01*
X67999987Y-143587748D01*
X67772252Y-143360013D01*
X67504463Y-143181082D01*
X67206912Y-143057832D01*
X66891033Y-142995000D01*
X66568967Y-142995000D01*
X66253088Y-143057832D01*
X65955537Y-143181082D01*
X65687748Y-143360013D01*
X65460013Y-143587748D01*
X65281082Y-143855537D01*
X65157832Y-144153088D01*
X65095000Y-144468967D01*
X63858219Y-144468967D01*
X63827961Y-144248325D01*
X63722795Y-143943912D01*
X63629814Y-143769956D01*
X63365413Y-143674192D01*
X62409605Y-144630000D01*
X62050395Y-144630000D01*
X61094587Y-143674192D01*
X60830186Y-143769956D01*
X60689296Y-144059571D01*
X60607616Y-144371108D01*
X60588282Y-144692595D01*
X57117677Y-144692595D01*
X57049744Y-144624662D01*
X56749199Y-144423844D01*
X56415250Y-144285518D01*
X56060732Y-144215000D01*
X55699268Y-144215000D01*
X55344750Y-144285518D01*
X55010801Y-144423844D01*
X54710256Y-144624662D01*
X54454662Y-144880256D01*
X54253844Y-145180801D01*
X54115518Y-145514750D01*
X54045000Y-145869268D01*
X37490000Y-145869268D01*
X37490000Y-143494587D01*
X61274192Y-143494587D01*
X62230000Y-144450395D01*
X63185808Y-143494587D01*
X63090044Y-143230186D01*
X62800429Y-143089296D01*
X62488892Y-143007616D01*
X62167405Y-142988282D01*
X61848325Y-143032039D01*
X61543912Y-143137205D01*
X61369956Y-143230186D01*
X61274192Y-143494587D01*
X37490000Y-143494587D01*
X37490000Y-142105413D01*
X81594192Y-142105413D01*
X81689956Y-142369814D01*
X81979571Y-142510704D01*
X82291108Y-142592384D01*
X82612595Y-142611718D01*
X82931675Y-142567961D01*
X83236088Y-142462795D01*
X83410044Y-142369814D01*
X83505808Y-142105413D01*
X82550000Y-141149605D01*
X81594192Y-142105413D01*
X37490000Y-142105413D01*
X37490000Y-140685413D01*
X71434192Y-140685413D01*
X71529956Y-140949814D01*
X71819571Y-141090704D01*
X72131108Y-141172384D01*
X72452595Y-141191718D01*
X72771675Y-141147961D01*
X73076088Y-141042795D01*
X73250044Y-140949814D01*
X73345808Y-140685413D01*
X72390000Y-139729605D01*
X71434192Y-140685413D01*
X37490000Y-140685413D01*
X37490000Y-138249268D01*
X42615000Y-138249268D01*
X42615000Y-138610732D01*
X42685518Y-138965250D01*
X42823844Y-139299199D01*
X43024662Y-139599744D01*
X43280256Y-139855338D01*
X43580801Y-140056156D01*
X43914750Y-140194482D01*
X44269268Y-140265000D01*
X44630732Y-140265000D01*
X44985250Y-140194482D01*
X45319199Y-140056156D01*
X45619744Y-139855338D01*
X45875338Y-139599744D01*
X46076156Y-139299199D01*
X46214482Y-138965250D01*
X46239036Y-138841805D01*
X57901805Y-138841805D01*
X57974379Y-139081066D01*
X58134361Y-139403257D01*
X58354125Y-139688046D01*
X58625226Y-139924489D01*
X58937246Y-140103500D01*
X59278194Y-140218199D01*
X59563000Y-140101854D01*
X59563000Y-138557000D01*
X59817000Y-138557000D01*
X59817000Y-140101854D01*
X60101806Y-140218199D01*
X60442754Y-140103500D01*
X60754774Y-139924489D01*
X61025875Y-139688046D01*
X61084098Y-139612595D01*
X70748282Y-139612595D01*
X70792039Y-139931675D01*
X70897205Y-140236088D01*
X70990186Y-140410044D01*
X71254587Y-140505808D01*
X72210395Y-139550000D01*
X72569605Y-139550000D01*
X73525413Y-140505808D01*
X73789814Y-140410044D01*
X73930704Y-140120429D01*
X74012384Y-139808892D01*
X74031718Y-139487405D01*
X74018219Y-139388967D01*
X75255000Y-139388967D01*
X75255000Y-139711033D01*
X75317832Y-140026912D01*
X75441082Y-140324463D01*
X75620013Y-140592252D01*
X75847748Y-140819987D01*
X76115537Y-140998918D01*
X76413088Y-141122168D01*
X76728967Y-141185000D01*
X77051033Y-141185000D01*
X77366912Y-141122168D01*
X77583159Y-141032595D01*
X80908282Y-141032595D01*
X80952039Y-141351675D01*
X81057205Y-141656088D01*
X81150186Y-141830044D01*
X81414587Y-141925808D01*
X82370395Y-140970000D01*
X82729605Y-140970000D01*
X83685413Y-141925808D01*
X83949814Y-141830044D01*
X84090704Y-141540429D01*
X84172384Y-141228892D01*
X84191718Y-140907405D01*
X84178219Y-140808967D01*
X85415000Y-140808967D01*
X85415000Y-141131033D01*
X85477832Y-141446912D01*
X85601082Y-141744463D01*
X85780013Y-142012252D01*
X86007748Y-142239987D01*
X86275537Y-142418918D01*
X86573088Y-142542168D01*
X86888967Y-142605000D01*
X87211033Y-142605000D01*
X87526912Y-142542168D01*
X87824463Y-142418918D01*
X88092252Y-142239987D01*
X88319987Y-142012252D01*
X88498918Y-141744463D01*
X88622168Y-141446912D01*
X88685000Y-141131033D01*
X88685000Y-140808967D01*
X88622168Y-140493088D01*
X88498918Y-140195537D01*
X88319987Y-139927748D01*
X88092252Y-139700013D01*
X87824463Y-139521082D01*
X87526912Y-139397832D01*
X87211033Y-139335000D01*
X86888967Y-139335000D01*
X86573088Y-139397832D01*
X86275537Y-139521082D01*
X86007748Y-139700013D01*
X85780013Y-139927748D01*
X85601082Y-140195537D01*
X85477832Y-140493088D01*
X85415000Y-140808967D01*
X84178219Y-140808967D01*
X84147961Y-140588325D01*
X84042795Y-140283912D01*
X83949814Y-140109956D01*
X83685413Y-140014192D01*
X82729605Y-140970000D01*
X82370395Y-140970000D01*
X81414587Y-140014192D01*
X81150186Y-140109956D01*
X81009296Y-140399571D01*
X80927616Y-140711108D01*
X80908282Y-141032595D01*
X77583159Y-141032595D01*
X77664463Y-140998918D01*
X77932252Y-140819987D01*
X78159987Y-140592252D01*
X78338918Y-140324463D01*
X78462168Y-140026912D01*
X78500423Y-139834587D01*
X81594192Y-139834587D01*
X82550000Y-140790395D01*
X83505808Y-139834587D01*
X83410044Y-139570186D01*
X83120429Y-139429296D01*
X82808892Y-139347616D01*
X82487405Y-139328282D01*
X82168325Y-139372039D01*
X81863912Y-139477205D01*
X81689956Y-139570186D01*
X81594192Y-139834587D01*
X78500423Y-139834587D01*
X78525000Y-139711033D01*
X78525000Y-139388967D01*
X78462168Y-139073088D01*
X78338918Y-138775537D01*
X78159987Y-138507748D01*
X77932252Y-138280013D01*
X77664463Y-138101082D01*
X77366912Y-137977832D01*
X77051033Y-137915000D01*
X76728967Y-137915000D01*
X76413088Y-137977832D01*
X76115537Y-138101082D01*
X75847748Y-138280013D01*
X75620013Y-138507748D01*
X75441082Y-138775537D01*
X75317832Y-139073088D01*
X75255000Y-139388967D01*
X74018219Y-139388967D01*
X73987961Y-139168325D01*
X73882795Y-138863912D01*
X73789814Y-138689956D01*
X73525413Y-138594192D01*
X72569605Y-139550000D01*
X72210395Y-139550000D01*
X71254587Y-138594192D01*
X70990186Y-138689956D01*
X70849296Y-138979571D01*
X70767616Y-139291108D01*
X70748282Y-139612595D01*
X61084098Y-139612595D01*
X61245639Y-139403257D01*
X61405621Y-139081066D01*
X61478195Y-138841805D01*
X61361432Y-138557000D01*
X59817000Y-138557000D01*
X59563000Y-138557000D01*
X58018568Y-138557000D01*
X57901805Y-138841805D01*
X46239036Y-138841805D01*
X46285000Y-138610732D01*
X46285000Y-138414587D01*
X71434192Y-138414587D01*
X72390000Y-139370395D01*
X73345808Y-138414587D01*
X73250044Y-138150186D01*
X72960429Y-138009296D01*
X72648892Y-137927616D01*
X72327405Y-137908282D01*
X72008325Y-137952039D01*
X71703912Y-138057205D01*
X71529956Y-138150186D01*
X71434192Y-138414587D01*
X46285000Y-138414587D01*
X46285000Y-138249268D01*
X46239037Y-138018195D01*
X57901805Y-138018195D01*
X58018568Y-138303000D01*
X59563000Y-138303000D01*
X59563000Y-136758146D01*
X59817000Y-136758146D01*
X59817000Y-138303000D01*
X61361432Y-138303000D01*
X61478195Y-138018195D01*
X61405621Y-137778934D01*
X61245639Y-137456743D01*
X61025875Y-137171954D01*
X60754774Y-136935511D01*
X60442754Y-136756500D01*
X60101806Y-136641801D01*
X59817000Y-136758146D01*
X59563000Y-136758146D01*
X59278194Y-136641801D01*
X58937246Y-136756500D01*
X58625226Y-136935511D01*
X58354125Y-137171954D01*
X58134361Y-137456743D01*
X57974379Y-137778934D01*
X57901805Y-138018195D01*
X46239037Y-138018195D01*
X46214482Y-137894750D01*
X46076156Y-137560801D01*
X45875338Y-137260256D01*
X45619744Y-137004662D01*
X45319199Y-136803844D01*
X44985250Y-136665518D01*
X44630732Y-136595000D01*
X44269268Y-136595000D01*
X43914750Y-136665518D01*
X43580801Y-136803844D01*
X43280256Y-137004662D01*
X43024662Y-137260256D01*
X42823844Y-137560801D01*
X42685518Y-137894750D01*
X42615000Y-138249268D01*
X37490000Y-138249268D01*
X37490000Y-135605413D01*
X81594192Y-135605413D01*
X81689956Y-135869814D01*
X81979571Y-136010704D01*
X82291108Y-136092384D01*
X82612595Y-136111718D01*
X82931675Y-136067961D01*
X83236088Y-135962795D01*
X83410044Y-135869814D01*
X83505808Y-135605413D01*
X82550000Y-134649605D01*
X81594192Y-135605413D01*
X37490000Y-135605413D01*
X37490000Y-134532595D01*
X80908282Y-134532595D01*
X80952039Y-134851675D01*
X81057205Y-135156088D01*
X81150186Y-135330044D01*
X81414587Y-135425808D01*
X82370395Y-134470000D01*
X82729605Y-134470000D01*
X83685413Y-135425808D01*
X83949814Y-135330044D01*
X84090704Y-135040429D01*
X84172384Y-134728892D01*
X84191718Y-134407405D01*
X84178219Y-134308967D01*
X85415000Y-134308967D01*
X85415000Y-134631033D01*
X85477832Y-134946912D01*
X85601082Y-135244463D01*
X85780013Y-135512252D01*
X86007748Y-135739987D01*
X86275537Y-135918918D01*
X86573088Y-136042168D01*
X86888967Y-136105000D01*
X87211033Y-136105000D01*
X87526912Y-136042168D01*
X87824463Y-135918918D01*
X88092252Y-135739987D01*
X88319987Y-135512252D01*
X88498918Y-135244463D01*
X88622168Y-134946912D01*
X88685000Y-134631033D01*
X88685000Y-134308967D01*
X88622168Y-133993088D01*
X88498918Y-133695537D01*
X88319987Y-133427748D01*
X88092252Y-133200013D01*
X87824463Y-133021082D01*
X87526912Y-132897832D01*
X87211033Y-132835000D01*
X86888967Y-132835000D01*
X86573088Y-132897832D01*
X86275537Y-133021082D01*
X86007748Y-133200013D01*
X85780013Y-133427748D01*
X85601082Y-133695537D01*
X85477832Y-133993088D01*
X85415000Y-134308967D01*
X84178219Y-134308967D01*
X84147961Y-134088325D01*
X84042795Y-133783912D01*
X83949814Y-133609956D01*
X83685413Y-133514192D01*
X82729605Y-134470000D01*
X82370395Y-134470000D01*
X81414587Y-133514192D01*
X81150186Y-133609956D01*
X81009296Y-133899571D01*
X80927616Y-134211108D01*
X80908282Y-134532595D01*
X37490000Y-134532595D01*
X37490000Y-133334587D01*
X81594192Y-133334587D01*
X82550000Y-134290395D01*
X83505808Y-133334587D01*
X83410044Y-133070186D01*
X83120429Y-132929296D01*
X82808892Y-132847616D01*
X82487405Y-132828282D01*
X82168325Y-132872039D01*
X81863912Y-132977205D01*
X81689956Y-133070186D01*
X81594192Y-133334587D01*
X37490000Y-133334587D01*
X37490000Y-130629268D01*
X42615000Y-130629268D01*
X42615000Y-130990732D01*
X42685518Y-131345250D01*
X42823844Y-131679199D01*
X43024662Y-131979744D01*
X43280256Y-132235338D01*
X43580801Y-132436156D01*
X43914750Y-132574482D01*
X44269268Y-132645000D01*
X44630732Y-132645000D01*
X44985250Y-132574482D01*
X45319199Y-132436156D01*
X45619744Y-132235338D01*
X45875338Y-131979744D01*
X46076156Y-131679199D01*
X46214482Y-131345250D01*
X46285000Y-130990732D01*
X46285000Y-130629268D01*
X57855000Y-130629268D01*
X57855000Y-130990732D01*
X57925518Y-131345250D01*
X58063844Y-131679199D01*
X58264662Y-131979744D01*
X58520256Y-132235338D01*
X58820801Y-132436156D01*
X59154750Y-132574482D01*
X59509268Y-132645000D01*
X59870732Y-132645000D01*
X60225250Y-132574482D01*
X60559199Y-132436156D01*
X60859744Y-132235338D01*
X61115338Y-131979744D01*
X61316156Y-131679199D01*
X61454482Y-131345250D01*
X61525000Y-130990732D01*
X61525000Y-130629268D01*
X61454482Y-130274750D01*
X61316156Y-129940801D01*
X61115338Y-129640256D01*
X60859744Y-129384662D01*
X60559199Y-129183844D01*
X60225250Y-129045518D01*
X59870732Y-128975000D01*
X59509268Y-128975000D01*
X59154750Y-129045518D01*
X58820801Y-129183844D01*
X58520256Y-129384662D01*
X58264662Y-129640256D01*
X58063844Y-129940801D01*
X57925518Y-130274750D01*
X57855000Y-130629268D01*
X46285000Y-130629268D01*
X46214482Y-130274750D01*
X46076156Y-129940801D01*
X45875338Y-129640256D01*
X45619744Y-129384662D01*
X45319199Y-129183844D01*
X44985250Y-129045518D01*
X44630732Y-128975000D01*
X44269268Y-128975000D01*
X43914750Y-129045518D01*
X43580801Y-129183844D01*
X43280256Y-129384662D01*
X43024662Y-129640256D01*
X42823844Y-129940801D01*
X42685518Y-130274750D01*
X42615000Y-130629268D01*
X37490000Y-130629268D01*
X37490000Y-126150000D01*
X86141928Y-126150000D01*
X86141928Y-127850000D01*
X86154188Y-127974482D01*
X86190498Y-128094180D01*
X86249463Y-128204494D01*
X86328815Y-128301185D01*
X86425506Y-128380537D01*
X86535820Y-128439502D01*
X86655518Y-128475812D01*
X86780000Y-128488072D01*
X88480000Y-128488072D01*
X88604482Y-128475812D01*
X88724180Y-128439502D01*
X88834494Y-128380537D01*
X88931185Y-128301185D01*
X89010537Y-128204494D01*
X89069502Y-128094180D01*
X89105812Y-127974482D01*
X89118072Y-127850000D01*
X89118072Y-127022873D01*
X97817126Y-135721928D01*
X96990000Y-135721928D01*
X96865518Y-135734188D01*
X96745820Y-135770498D01*
X96635506Y-135829463D01*
X96538815Y-135908815D01*
X96459463Y-136005506D01*
X96400498Y-136115820D01*
X96364188Y-136235518D01*
X96351928Y-136360000D01*
X96351928Y-137960000D01*
X96364188Y-138084482D01*
X96400498Y-138204180D01*
X96459463Y-138314494D01*
X96538815Y-138411185D01*
X96635506Y-138490537D01*
X96745820Y-138549502D01*
X96865518Y-138585812D01*
X96873961Y-138586643D01*
X96675363Y-138785241D01*
X96518320Y-139020273D01*
X96410147Y-139281426D01*
X96355000Y-139558665D01*
X96355000Y-139841335D01*
X96410147Y-140118574D01*
X96518320Y-140379727D01*
X96675363Y-140614759D01*
X96875241Y-140814637D01*
X97107759Y-140970000D01*
X96875241Y-141125363D01*
X96675363Y-141325241D01*
X96518320Y-141560273D01*
X96410147Y-141821426D01*
X96355000Y-142098665D01*
X96355000Y-142381335D01*
X96410147Y-142658574D01*
X96518320Y-142919727D01*
X96675363Y-143154759D01*
X96875241Y-143354637D01*
X97107759Y-143510000D01*
X96875241Y-143665363D01*
X96675363Y-143865241D01*
X96518320Y-144100273D01*
X96410147Y-144361426D01*
X96355000Y-144638665D01*
X96355000Y-144921335D01*
X96410147Y-145198574D01*
X96518320Y-145459727D01*
X96675363Y-145694759D01*
X96875241Y-145894637D01*
X97107759Y-146050000D01*
X96875241Y-146205363D01*
X96675363Y-146405241D01*
X96518320Y-146640273D01*
X96410147Y-146901426D01*
X96355000Y-147178665D01*
X96355000Y-147461335D01*
X96410147Y-147738574D01*
X96518320Y-147999727D01*
X96675363Y-148234759D01*
X96875241Y-148434637D01*
X97107759Y-148590000D01*
X96875241Y-148745363D01*
X96675363Y-148945241D01*
X96518320Y-149180273D01*
X96410147Y-149441426D01*
X96355000Y-149718665D01*
X96355000Y-150001335D01*
X96410147Y-150278574D01*
X96518320Y-150539727D01*
X96675363Y-150774759D01*
X96875241Y-150974637D01*
X97107759Y-151130000D01*
X96875241Y-151285363D01*
X96675363Y-151485241D01*
X96518320Y-151720273D01*
X96410147Y-151981426D01*
X96355000Y-152258665D01*
X96355000Y-152541335D01*
X96410147Y-152818574D01*
X96518320Y-153079727D01*
X96675363Y-153314759D01*
X96875241Y-153514637D01*
X97110273Y-153671680D01*
X97120865Y-153676067D01*
X96934869Y-153787615D01*
X96726481Y-153976586D01*
X96558963Y-154202580D01*
X96438754Y-154456913D01*
X96398096Y-154590961D01*
X96520085Y-154813000D01*
X97663000Y-154813000D01*
X97663000Y-154793000D01*
X97917000Y-154793000D01*
X97917000Y-154813000D01*
X99059915Y-154813000D01*
X99067790Y-154798665D01*
X103975000Y-154798665D01*
X103975000Y-155081335D01*
X104030147Y-155358574D01*
X104138320Y-155619727D01*
X104295363Y-155854759D01*
X104495241Y-156054637D01*
X104727759Y-156210000D01*
X104495241Y-156365363D01*
X104295363Y-156565241D01*
X104138320Y-156800273D01*
X104030147Y-157061426D01*
X103975000Y-157338665D01*
X103975000Y-157621335D01*
X104030147Y-157898574D01*
X104138320Y-158159727D01*
X104295363Y-158394759D01*
X104495241Y-158594637D01*
X104730273Y-158751680D01*
X104740865Y-158756067D01*
X104554869Y-158867615D01*
X104346481Y-159056586D01*
X104178963Y-159282580D01*
X104058754Y-159536913D01*
X104018096Y-159670961D01*
X104140085Y-159893000D01*
X105283000Y-159893000D01*
X105283000Y-159873000D01*
X105537000Y-159873000D01*
X105537000Y-159893000D01*
X106679915Y-159893000D01*
X106801904Y-159670961D01*
X106761246Y-159536913D01*
X106641037Y-159282580D01*
X106473519Y-159056586D01*
X106265131Y-158867615D01*
X106079135Y-158756067D01*
X106089727Y-158751680D01*
X106324759Y-158594637D01*
X106524637Y-158394759D01*
X106681680Y-158159727D01*
X106789853Y-157898574D01*
X106845000Y-157621335D01*
X106845000Y-157338665D01*
X106789853Y-157061426D01*
X106681680Y-156800273D01*
X106524637Y-156565241D01*
X106324759Y-156365363D01*
X106092241Y-156210000D01*
X106303764Y-156068665D01*
X109055000Y-156068665D01*
X109055000Y-156351335D01*
X109110147Y-156628574D01*
X109218320Y-156889727D01*
X109375363Y-157124759D01*
X109575241Y-157324637D01*
X109810273Y-157481680D01*
X110071426Y-157589853D01*
X110348665Y-157645000D01*
X110631335Y-157645000D01*
X110908574Y-157589853D01*
X111169727Y-157481680D01*
X111404759Y-157324637D01*
X111604637Y-157124759D01*
X111761680Y-156889727D01*
X111869853Y-156628574D01*
X111925000Y-156351335D01*
X111925000Y-156068665D01*
X111869853Y-155791426D01*
X111761680Y-155530273D01*
X111604637Y-155295241D01*
X111404759Y-155095363D01*
X111169727Y-154938320D01*
X110908574Y-154830147D01*
X110631335Y-154775000D01*
X110348665Y-154775000D01*
X110071426Y-154830147D01*
X109810273Y-154938320D01*
X109575241Y-155095363D01*
X109375363Y-155295241D01*
X109218320Y-155530273D01*
X109110147Y-155791426D01*
X109055000Y-156068665D01*
X106303764Y-156068665D01*
X106324759Y-156054637D01*
X106524637Y-155854759D01*
X106681680Y-155619727D01*
X106789853Y-155358574D01*
X106845000Y-155081335D01*
X106845000Y-154798665D01*
X106789853Y-154521426D01*
X106681680Y-154260273D01*
X106524637Y-154025241D01*
X106324759Y-153825363D01*
X106089727Y-153668320D01*
X106079135Y-153663933D01*
X106265131Y-153552385D01*
X106473519Y-153363414D01*
X106641037Y-153137420D01*
X106761246Y-152883087D01*
X106801904Y-152749039D01*
X106679915Y-152527000D01*
X105537000Y-152527000D01*
X105537000Y-152547000D01*
X105283000Y-152547000D01*
X105283000Y-152527000D01*
X104140085Y-152527000D01*
X104018096Y-152749039D01*
X104058754Y-152883087D01*
X104178963Y-153137420D01*
X104346481Y-153363414D01*
X104554869Y-153552385D01*
X104740865Y-153663933D01*
X104730273Y-153668320D01*
X104495241Y-153825363D01*
X104295363Y-154025241D01*
X104138320Y-154260273D01*
X104030147Y-154521426D01*
X103975000Y-154798665D01*
X99067790Y-154798665D01*
X99181904Y-154590961D01*
X99141246Y-154456913D01*
X99021037Y-154202580D01*
X98853519Y-153976586D01*
X98645131Y-153787615D01*
X98459135Y-153676067D01*
X98469727Y-153671680D01*
X98704759Y-153514637D01*
X98904637Y-153314759D01*
X99061680Y-153079727D01*
X99169853Y-152818574D01*
X99225000Y-152541335D01*
X99225000Y-152258665D01*
X99169853Y-151981426D01*
X99061680Y-151720273D01*
X98904637Y-151485241D01*
X98704759Y-151285363D01*
X98472241Y-151130000D01*
X98704759Y-150974637D01*
X98904637Y-150774759D01*
X99061680Y-150539727D01*
X99169853Y-150278574D01*
X99183684Y-150209039D01*
X104018096Y-150209039D01*
X104058754Y-150343087D01*
X104178963Y-150597420D01*
X104346481Y-150823414D01*
X104554869Y-151012385D01*
X104750982Y-151130000D01*
X104554869Y-151247615D01*
X104346481Y-151436586D01*
X104178963Y-151662580D01*
X104058754Y-151916913D01*
X104018096Y-152050961D01*
X104140085Y-152273000D01*
X105283000Y-152273000D01*
X105283000Y-149987000D01*
X105537000Y-149987000D01*
X105537000Y-152273000D01*
X106679915Y-152273000D01*
X106718536Y-152202702D01*
X109676903Y-152202702D01*
X109748486Y-152446671D01*
X110003996Y-152567571D01*
X110278184Y-152636300D01*
X110560512Y-152650217D01*
X110840130Y-152608787D01*
X111106292Y-152513603D01*
X111231514Y-152446671D01*
X111303097Y-152202702D01*
X110490000Y-151389605D01*
X109676903Y-152202702D01*
X106718536Y-152202702D01*
X106801904Y-152050961D01*
X106761246Y-151916913D01*
X106641037Y-151662580D01*
X106473519Y-151436586D01*
X106301409Y-151280512D01*
X109049783Y-151280512D01*
X109091213Y-151560130D01*
X109186397Y-151826292D01*
X109253329Y-151951514D01*
X109497298Y-152023097D01*
X110310395Y-151210000D01*
X110669605Y-151210000D01*
X111482702Y-152023097D01*
X111726671Y-151951514D01*
X111847571Y-151696004D01*
X111916300Y-151421816D01*
X111930217Y-151139488D01*
X111888787Y-150859870D01*
X111793603Y-150593708D01*
X111726671Y-150468486D01*
X111482702Y-150396903D01*
X110669605Y-151210000D01*
X110310395Y-151210000D01*
X109497298Y-150396903D01*
X109253329Y-150468486D01*
X109132429Y-150723996D01*
X109063700Y-150998184D01*
X109049783Y-151280512D01*
X106301409Y-151280512D01*
X106265131Y-151247615D01*
X106069018Y-151130000D01*
X106265131Y-151012385D01*
X106473519Y-150823414D01*
X106641037Y-150597420D01*
X106761246Y-150343087D01*
X106799398Y-150217298D01*
X109676903Y-150217298D01*
X110490000Y-151030395D01*
X111303097Y-150217298D01*
X111231514Y-149973329D01*
X110976004Y-149852429D01*
X110701816Y-149783700D01*
X110419488Y-149769783D01*
X110139870Y-149811213D01*
X109873708Y-149906397D01*
X109748486Y-149973329D01*
X109676903Y-150217298D01*
X106799398Y-150217298D01*
X106801904Y-150209039D01*
X106679915Y-149987000D01*
X105537000Y-149987000D01*
X105283000Y-149987000D01*
X104140085Y-149987000D01*
X104018096Y-150209039D01*
X99183684Y-150209039D01*
X99225000Y-150001335D01*
X99225000Y-149718665D01*
X99169853Y-149441426D01*
X99061680Y-149180273D01*
X98904637Y-148945241D01*
X98704759Y-148745363D01*
X98472241Y-148590000D01*
X98704759Y-148434637D01*
X98904637Y-148234759D01*
X99061680Y-147999727D01*
X99169853Y-147738574D01*
X99183684Y-147669039D01*
X104018096Y-147669039D01*
X104058754Y-147803087D01*
X104178963Y-148057420D01*
X104346481Y-148283414D01*
X104554869Y-148472385D01*
X104750982Y-148590000D01*
X104554869Y-148707615D01*
X104346481Y-148896586D01*
X104178963Y-149122580D01*
X104058754Y-149376913D01*
X104018096Y-149510961D01*
X104140085Y-149733000D01*
X105283000Y-149733000D01*
X105283000Y-147447000D01*
X105537000Y-147447000D01*
X105537000Y-149733000D01*
X106679915Y-149733000D01*
X106801904Y-149510961D01*
X106761246Y-149376913D01*
X106641037Y-149122580D01*
X106473519Y-148896586D01*
X106265131Y-148707615D01*
X106069018Y-148590000D01*
X106265131Y-148472385D01*
X106473519Y-148283414D01*
X106641037Y-148057420D01*
X106761246Y-147803087D01*
X106801904Y-147669039D01*
X106679915Y-147447000D01*
X105537000Y-147447000D01*
X105283000Y-147447000D01*
X104140085Y-147447000D01*
X104018096Y-147669039D01*
X99183684Y-147669039D01*
X99225000Y-147461335D01*
X99225000Y-147178665D01*
X99169853Y-146901426D01*
X99061680Y-146640273D01*
X98904637Y-146405241D01*
X98704759Y-146205363D01*
X98472241Y-146050000D01*
X98704759Y-145894637D01*
X98904637Y-145694759D01*
X99061680Y-145459727D01*
X99169853Y-145198574D01*
X99225000Y-144921335D01*
X99225000Y-144638665D01*
X99169853Y-144361426D01*
X99061680Y-144100273D01*
X98904637Y-143865241D01*
X98704759Y-143665363D01*
X98472241Y-143510000D01*
X98704759Y-143354637D01*
X98904637Y-143154759D01*
X99061680Y-142919727D01*
X99169853Y-142658574D01*
X99225000Y-142381335D01*
X99225000Y-142098665D01*
X99169853Y-141821426D01*
X99061680Y-141560273D01*
X98904637Y-141325241D01*
X98704759Y-141125363D01*
X98472241Y-140970000D01*
X98704759Y-140814637D01*
X98904637Y-140614759D01*
X99061680Y-140379727D01*
X99169853Y-140118574D01*
X99225000Y-139841335D01*
X99225000Y-139558665D01*
X99169853Y-139281426D01*
X99061680Y-139020273D01*
X98904637Y-138785241D01*
X98706039Y-138586643D01*
X98714482Y-138585812D01*
X98834180Y-138549502D01*
X98944494Y-138490537D01*
X99041185Y-138411185D01*
X99120537Y-138314494D01*
X99179502Y-138204180D01*
X99215812Y-138084482D01*
X99228072Y-137960000D01*
X99228072Y-137132874D01*
X104011312Y-141916114D01*
X103975000Y-142098665D01*
X103975000Y-142381335D01*
X104030147Y-142658574D01*
X104138320Y-142919727D01*
X104295363Y-143154759D01*
X104495241Y-143354637D01*
X104727759Y-143510000D01*
X104495241Y-143665363D01*
X104295363Y-143865241D01*
X104138320Y-144100273D01*
X104030147Y-144361426D01*
X103975000Y-144638665D01*
X103975000Y-144921335D01*
X104030147Y-145198574D01*
X104138320Y-145459727D01*
X104295363Y-145694759D01*
X104495241Y-145894637D01*
X104730273Y-146051680D01*
X104740865Y-146056067D01*
X104554869Y-146167615D01*
X104346481Y-146356586D01*
X104178963Y-146582580D01*
X104058754Y-146836913D01*
X104018096Y-146970961D01*
X104140085Y-147193000D01*
X105283000Y-147193000D01*
X105283000Y-147173000D01*
X105537000Y-147173000D01*
X105537000Y-147193000D01*
X106679915Y-147193000D01*
X106801904Y-146970961D01*
X106761246Y-146836913D01*
X106641037Y-146582580D01*
X106473519Y-146356586D01*
X106265131Y-146167615D01*
X106079135Y-146056067D01*
X106089727Y-146051680D01*
X106324759Y-145894637D01*
X106524637Y-145694759D01*
X106681680Y-145459727D01*
X106789853Y-145198574D01*
X106845000Y-144921335D01*
X106845000Y-144638665D01*
X106808688Y-144456114D01*
X107046004Y-144218798D01*
X107075002Y-144195000D01*
X107169975Y-144079275D01*
X107240547Y-143947246D01*
X107284004Y-143803985D01*
X107295001Y-143692332D01*
X107295001Y-143692324D01*
X107298677Y-143654999D01*
X107295001Y-143617674D01*
X107295001Y-137013740D01*
X112815000Y-137013740D01*
X112815000Y-137306260D01*
X112872068Y-137593158D01*
X112984010Y-137863411D01*
X113146525Y-138106632D01*
X113353368Y-138313475D01*
X113527760Y-138430000D01*
X113353368Y-138546525D01*
X113146525Y-138753368D01*
X112984010Y-138996589D01*
X112872068Y-139266842D01*
X112815000Y-139553740D01*
X112815000Y-139846260D01*
X112872068Y-140133158D01*
X112984010Y-140403411D01*
X113146525Y-140646632D01*
X113353368Y-140853475D01*
X113596589Y-141015990D01*
X113866842Y-141127932D01*
X114153740Y-141185000D01*
X114446260Y-141185000D01*
X114733158Y-141127932D01*
X115003411Y-141015990D01*
X115246632Y-140853475D01*
X115453475Y-140646632D01*
X115615990Y-140403411D01*
X115727932Y-140133158D01*
X115785000Y-139846260D01*
X115785000Y-139553740D01*
X115727932Y-139266842D01*
X115615990Y-138996589D01*
X115453475Y-138753368D01*
X115246632Y-138546525D01*
X115072240Y-138430000D01*
X115246632Y-138313475D01*
X115453475Y-138106632D01*
X115615990Y-137863411D01*
X115727932Y-137593158D01*
X115785000Y-137306260D01*
X115785000Y-137013740D01*
X115727932Y-136726842D01*
X115615990Y-136456589D01*
X115453475Y-136213368D01*
X115246632Y-136006525D01*
X115064466Y-135884805D01*
X115181355Y-135815178D01*
X115397588Y-135620269D01*
X115571641Y-135386920D01*
X115696825Y-135124099D01*
X115741476Y-134976890D01*
X115620155Y-134747000D01*
X114427000Y-134747000D01*
X114427000Y-134767000D01*
X114173000Y-134767000D01*
X114173000Y-134747000D01*
X112979845Y-134747000D01*
X112858524Y-134976890D01*
X112903175Y-135124099D01*
X113028359Y-135386920D01*
X113202412Y-135620269D01*
X113418645Y-135815178D01*
X113535534Y-135884805D01*
X113353368Y-136006525D01*
X113146525Y-136213368D01*
X112984010Y-136456589D01*
X112872068Y-136726842D01*
X112815000Y-137013740D01*
X107295001Y-137013740D01*
X107295001Y-135782324D01*
X107298677Y-135745001D01*
X107295001Y-135707678D01*
X107295001Y-135707668D01*
X107284004Y-135596015D01*
X107240547Y-135452754D01*
X107226144Y-135425808D01*
X107169975Y-135320724D01*
X107098800Y-135233998D01*
X107075002Y-135205000D01*
X107046005Y-135181203D01*
X103094802Y-131230000D01*
X112811928Y-131230000D01*
X112811928Y-132930000D01*
X112824188Y-133054482D01*
X112860498Y-133174180D01*
X112919463Y-133284494D01*
X112998815Y-133381185D01*
X113095506Y-133460537D01*
X113205820Y-133519502D01*
X113286466Y-133543966D01*
X113202412Y-133619731D01*
X113028359Y-133853080D01*
X112903175Y-134115901D01*
X112858524Y-134263110D01*
X112979845Y-134493000D01*
X114173000Y-134493000D01*
X114173000Y-134473000D01*
X114427000Y-134473000D01*
X114427000Y-134493000D01*
X115620155Y-134493000D01*
X115741476Y-134263110D01*
X115696825Y-134115901D01*
X115571641Y-133853080D01*
X115397588Y-133619731D01*
X115313534Y-133543966D01*
X115394180Y-133519502D01*
X115504494Y-133460537D01*
X115601185Y-133381185D01*
X115680537Y-133284494D01*
X115739502Y-133174180D01*
X115775812Y-133054482D01*
X115788072Y-132930000D01*
X115788072Y-131230000D01*
X115775812Y-131105518D01*
X115739502Y-130985820D01*
X115680537Y-130875506D01*
X115601185Y-130778815D01*
X115504494Y-130699463D01*
X115394180Y-130640498D01*
X115274482Y-130604188D01*
X115150000Y-130591928D01*
X113450000Y-130591928D01*
X113325518Y-130604188D01*
X113205820Y-130640498D01*
X113095506Y-130699463D01*
X112998815Y-130778815D01*
X112919463Y-130875506D01*
X112860498Y-130985820D01*
X112824188Y-131105518D01*
X112811928Y-131230000D01*
X103094802Y-131230000D01*
X99221692Y-127356890D01*
X128098524Y-127356890D01*
X128143175Y-127504099D01*
X128268359Y-127766920D01*
X128442412Y-128000269D01*
X128658645Y-128195178D01*
X128908748Y-128344157D01*
X129183109Y-128441481D01*
X129413000Y-128320814D01*
X129413000Y-127127000D01*
X129667000Y-127127000D01*
X129667000Y-128320814D01*
X129896891Y-128441481D01*
X130171252Y-128344157D01*
X130421355Y-128195178D01*
X130637588Y-128000269D01*
X130811641Y-127766920D01*
X130936825Y-127504099D01*
X130981476Y-127356890D01*
X130860155Y-127127000D01*
X129667000Y-127127000D01*
X129413000Y-127127000D01*
X128219845Y-127127000D01*
X128098524Y-127356890D01*
X99221692Y-127356890D01*
X93273804Y-121409003D01*
X93250001Y-121379999D01*
X93134276Y-121285026D01*
X93002247Y-121214454D01*
X92858986Y-121170997D01*
X92747333Y-121160000D01*
X92747322Y-121160000D01*
X92710000Y-121156324D01*
X92672678Y-121160000D01*
X88908178Y-121160000D01*
X88783475Y-120973368D01*
X88576632Y-120766525D01*
X88402240Y-120650000D01*
X88576632Y-120533475D01*
X88783475Y-120326632D01*
X88945990Y-120083411D01*
X89057932Y-119813158D01*
X89115000Y-119526260D01*
X89115000Y-119233740D01*
X89057932Y-118946842D01*
X88945990Y-118676589D01*
X88848043Y-118530000D01*
X128051928Y-118530000D01*
X128051928Y-120230000D01*
X128064188Y-120354482D01*
X128100498Y-120474180D01*
X128159463Y-120584494D01*
X128238815Y-120681185D01*
X128335506Y-120760537D01*
X128445820Y-120819502D01*
X128518380Y-120841513D01*
X128386525Y-120973368D01*
X128224010Y-121216589D01*
X128112068Y-121486842D01*
X128055000Y-121773740D01*
X128055000Y-122066260D01*
X128112068Y-122353158D01*
X128224010Y-122623411D01*
X128386525Y-122866632D01*
X128593368Y-123073475D01*
X128767760Y-123190000D01*
X128593368Y-123306525D01*
X128386525Y-123513368D01*
X128224010Y-123756589D01*
X128112068Y-124026842D01*
X128055000Y-124313740D01*
X128055000Y-124606260D01*
X128112068Y-124893158D01*
X128224010Y-125163411D01*
X128386525Y-125406632D01*
X128593368Y-125613475D01*
X128775534Y-125735195D01*
X128658645Y-125804822D01*
X128442412Y-125999731D01*
X128268359Y-126233080D01*
X128143175Y-126495901D01*
X128098524Y-126643110D01*
X128219845Y-126873000D01*
X129413000Y-126873000D01*
X129413000Y-126853000D01*
X129667000Y-126853000D01*
X129667000Y-126873000D01*
X130860155Y-126873000D01*
X130981476Y-126643110D01*
X130936825Y-126495901D01*
X130811641Y-126233080D01*
X130637588Y-125999731D01*
X130421355Y-125804822D01*
X130304466Y-125735195D01*
X130486632Y-125613475D01*
X130693475Y-125406632D01*
X130855990Y-125163411D01*
X130967932Y-124893158D01*
X131025000Y-124606260D01*
X131025000Y-124313740D01*
X130967932Y-124026842D01*
X130855990Y-123756589D01*
X130693475Y-123513368D01*
X130486632Y-123306525D01*
X130312240Y-123190000D01*
X130486632Y-123073475D01*
X130693475Y-122866632D01*
X130855990Y-122623411D01*
X130967932Y-122353158D01*
X131025000Y-122066260D01*
X131025000Y-121773740D01*
X130967932Y-121486842D01*
X130855990Y-121216589D01*
X130693475Y-120973368D01*
X130561620Y-120841513D01*
X130634180Y-120819502D01*
X130744494Y-120760537D01*
X130841185Y-120681185D01*
X130920537Y-120584494D01*
X130979502Y-120474180D01*
X131015812Y-120354482D01*
X131028072Y-120230000D01*
X131028072Y-118530000D01*
X131015812Y-118405518D01*
X130979502Y-118285820D01*
X130920537Y-118175506D01*
X130841185Y-118078815D01*
X130744494Y-117999463D01*
X130634180Y-117940498D01*
X130514482Y-117904188D01*
X130390000Y-117891928D01*
X128690000Y-117891928D01*
X128565518Y-117904188D01*
X128445820Y-117940498D01*
X128335506Y-117999463D01*
X128238815Y-118078815D01*
X128159463Y-118175506D01*
X128100498Y-118285820D01*
X128064188Y-118405518D01*
X128051928Y-118530000D01*
X88848043Y-118530000D01*
X88783475Y-118433368D01*
X88576632Y-118226525D01*
X88333411Y-118064010D01*
X88063158Y-117952068D01*
X87776260Y-117895000D01*
X87483740Y-117895000D01*
X87196842Y-117952068D01*
X86926589Y-118064010D01*
X86683368Y-118226525D01*
X86476525Y-118433368D01*
X86314010Y-118676589D01*
X86202068Y-118946842D01*
X86145000Y-119233740D01*
X86145000Y-119526260D01*
X86202068Y-119813158D01*
X86314010Y-120083411D01*
X86476525Y-120326632D01*
X86683368Y-120533475D01*
X86857760Y-120650000D01*
X86683368Y-120766525D01*
X86476525Y-120973368D01*
X86314010Y-121216589D01*
X86202068Y-121486842D01*
X86145000Y-121773740D01*
X86145000Y-122066260D01*
X86202068Y-122353158D01*
X86314010Y-122623411D01*
X86476525Y-122866632D01*
X86683368Y-123073475D01*
X86857760Y-123190000D01*
X86683368Y-123306525D01*
X86476525Y-123513368D01*
X86314010Y-123756589D01*
X86202068Y-124026842D01*
X86145000Y-124313740D01*
X86145000Y-124606260D01*
X86202068Y-124893158D01*
X86314010Y-125163411D01*
X86476525Y-125406632D01*
X86608380Y-125538487D01*
X86535820Y-125560498D01*
X86425506Y-125619463D01*
X86328815Y-125698815D01*
X86249463Y-125795506D01*
X86190498Y-125905820D01*
X86154188Y-126025518D01*
X86141928Y-126150000D01*
X37490000Y-126150000D01*
X37490000Y-123028967D01*
X39005000Y-123028967D01*
X39005000Y-123351033D01*
X39067832Y-123666912D01*
X39191082Y-123964463D01*
X39370013Y-124232252D01*
X39597748Y-124459987D01*
X39865537Y-124638918D01*
X40163088Y-124762168D01*
X40478967Y-124825000D01*
X40801033Y-124825000D01*
X41116912Y-124762168D01*
X41414463Y-124638918D01*
X41682252Y-124459987D01*
X41909987Y-124232252D01*
X42088918Y-123964463D01*
X42212168Y-123666912D01*
X42275000Y-123351033D01*
X42275000Y-123028967D01*
X42212168Y-122713088D01*
X42088918Y-122415537D01*
X41909987Y-122147748D01*
X41682252Y-121920013D01*
X41414463Y-121741082D01*
X41116912Y-121617832D01*
X40801033Y-121555000D01*
X40478967Y-121555000D01*
X40163088Y-121617832D01*
X39865537Y-121741082D01*
X39597748Y-121920013D01*
X39370013Y-122147748D01*
X39191082Y-122415537D01*
X39067832Y-122713088D01*
X39005000Y-123028967D01*
X37490000Y-123028967D01*
X37490000Y-117110000D01*
X39001928Y-117110000D01*
X39001928Y-119110000D01*
X39014188Y-119234482D01*
X39050498Y-119354180D01*
X39109463Y-119464494D01*
X39188815Y-119561185D01*
X39285506Y-119640537D01*
X39395820Y-119699502D01*
X39515518Y-119735812D01*
X39640000Y-119748072D01*
X41640000Y-119748072D01*
X41764482Y-119735812D01*
X41884180Y-119699502D01*
X41994494Y-119640537D01*
X42091185Y-119561185D01*
X42170537Y-119464494D01*
X42229502Y-119354180D01*
X42265812Y-119234482D01*
X42278072Y-119110000D01*
X42278072Y-117110000D01*
X42265812Y-116985518D01*
X42229502Y-116865820D01*
X42215701Y-116840000D01*
X45347319Y-116840000D01*
X45377970Y-117151204D01*
X45468745Y-117450449D01*
X45616155Y-117726235D01*
X45814537Y-117967963D01*
X45987609Y-118110000D01*
X45814537Y-118252037D01*
X45616155Y-118493765D01*
X45468745Y-118769551D01*
X45377970Y-119068796D01*
X45347319Y-119380000D01*
X45377970Y-119691204D01*
X45468745Y-119990449D01*
X45616155Y-120266235D01*
X45719446Y-120392095D01*
X45635506Y-120436963D01*
X45538815Y-120516315D01*
X45459463Y-120613006D01*
X45400498Y-120723320D01*
X45364188Y-120843018D01*
X45351928Y-120967500D01*
X45351928Y-122872500D01*
X45364188Y-122996982D01*
X45400498Y-123116680D01*
X45459463Y-123226994D01*
X45538815Y-123323685D01*
X45635506Y-123403037D01*
X45745820Y-123462002D01*
X45865518Y-123498312D01*
X45990000Y-123510572D01*
X47990000Y-123510572D01*
X48114482Y-123498312D01*
X48234180Y-123462002D01*
X48344494Y-123403037D01*
X48441185Y-123323685D01*
X48520537Y-123226994D01*
X48579502Y-123116680D01*
X48615812Y-122996982D01*
X48628072Y-122872500D01*
X48628072Y-121739268D01*
X64205000Y-121739268D01*
X64205000Y-122100732D01*
X64275518Y-122455250D01*
X64413844Y-122789199D01*
X64614662Y-123089744D01*
X64870256Y-123345338D01*
X65170801Y-123546156D01*
X65504750Y-123684482D01*
X65859268Y-123755000D01*
X66220732Y-123755000D01*
X66575250Y-123684482D01*
X66909199Y-123546156D01*
X67209744Y-123345338D01*
X67465338Y-123089744D01*
X67666156Y-122789199D01*
X67804482Y-122455250D01*
X67875000Y-122100732D01*
X67875000Y-121739268D01*
X71825000Y-121739268D01*
X71825000Y-122100732D01*
X71895518Y-122455250D01*
X72033844Y-122789199D01*
X72234662Y-123089744D01*
X72490256Y-123345338D01*
X72790801Y-123546156D01*
X73124750Y-123684482D01*
X73479268Y-123755000D01*
X73840732Y-123755000D01*
X74195250Y-123684482D01*
X74529199Y-123546156D01*
X74829744Y-123345338D01*
X75085338Y-123089744D01*
X75286156Y-122789199D01*
X75424482Y-122455250D01*
X75495000Y-122100732D01*
X75495000Y-121739268D01*
X79445000Y-121739268D01*
X79445000Y-122100732D01*
X79515518Y-122455250D01*
X79653844Y-122789199D01*
X79854662Y-123089744D01*
X80110256Y-123345338D01*
X80410801Y-123546156D01*
X80744750Y-123684482D01*
X81099268Y-123755000D01*
X81460732Y-123755000D01*
X81815250Y-123684482D01*
X82149199Y-123546156D01*
X82449744Y-123345338D01*
X82705338Y-123089744D01*
X82906156Y-122789199D01*
X83044482Y-122455250D01*
X83115000Y-122100732D01*
X83115000Y-121739268D01*
X83044482Y-121384750D01*
X82906156Y-121050801D01*
X82705338Y-120750256D01*
X82449744Y-120494662D01*
X82149199Y-120293844D01*
X81815250Y-120155518D01*
X81460732Y-120085000D01*
X81099268Y-120085000D01*
X80744750Y-120155518D01*
X80410801Y-120293844D01*
X80110256Y-120494662D01*
X79854662Y-120750256D01*
X79653844Y-121050801D01*
X79515518Y-121384750D01*
X79445000Y-121739268D01*
X75495000Y-121739268D01*
X75424482Y-121384750D01*
X75286156Y-121050801D01*
X75085338Y-120750256D01*
X74829744Y-120494662D01*
X74529199Y-120293844D01*
X74195250Y-120155518D01*
X73840732Y-120085000D01*
X73479268Y-120085000D01*
X73124750Y-120155518D01*
X72790801Y-120293844D01*
X72490256Y-120494662D01*
X72234662Y-120750256D01*
X72033844Y-121050801D01*
X71895518Y-121384750D01*
X71825000Y-121739268D01*
X67875000Y-121739268D01*
X67804482Y-121384750D01*
X67666156Y-121050801D01*
X67465338Y-120750256D01*
X67209744Y-120494662D01*
X66909199Y-120293844D01*
X66575250Y-120155518D01*
X66220732Y-120085000D01*
X65859268Y-120085000D01*
X65504750Y-120155518D01*
X65170801Y-120293844D01*
X64870256Y-120494662D01*
X64614662Y-120750256D01*
X64413844Y-121050801D01*
X64275518Y-121384750D01*
X64205000Y-121739268D01*
X48628072Y-121739268D01*
X48628072Y-120967500D01*
X48615812Y-120843018D01*
X48579502Y-120723320D01*
X48520537Y-120613006D01*
X48441185Y-120516315D01*
X48344494Y-120436963D01*
X48260554Y-120392095D01*
X48363845Y-120266235D01*
X48511255Y-119990449D01*
X48602030Y-119691204D01*
X48632681Y-119380000D01*
X48602030Y-119068796D01*
X48511255Y-118769551D01*
X48363845Y-118493765D01*
X48165463Y-118252037D01*
X47992391Y-118110000D01*
X48165463Y-117967963D01*
X48363845Y-117726235D01*
X48511221Y-117450512D01*
X51899783Y-117450512D01*
X51941213Y-117730130D01*
X52036397Y-117996292D01*
X52101616Y-118118309D01*
X52088815Y-118128815D01*
X52009463Y-118225506D01*
X51950498Y-118335820D01*
X51914188Y-118455518D01*
X51901928Y-118580000D01*
X51901928Y-120180000D01*
X51914188Y-120304482D01*
X51950498Y-120424180D01*
X52009463Y-120534494D01*
X52088815Y-120631185D01*
X52185506Y-120710537D01*
X52295820Y-120769502D01*
X52415518Y-120805812D01*
X52540000Y-120818072D01*
X54140000Y-120818072D01*
X54264482Y-120805812D01*
X54384180Y-120769502D01*
X54494494Y-120710537D01*
X54591185Y-120631185D01*
X54670537Y-120534494D01*
X54729502Y-120424180D01*
X54765812Y-120304482D01*
X54778072Y-120180000D01*
X54778072Y-119238665D01*
X58255000Y-119238665D01*
X58255000Y-119521335D01*
X58310147Y-119798574D01*
X58418320Y-120059727D01*
X58575363Y-120294759D01*
X58775241Y-120494637D01*
X59010273Y-120651680D01*
X59271426Y-120759853D01*
X59548665Y-120815000D01*
X59831335Y-120815000D01*
X60108574Y-120759853D01*
X60369727Y-120651680D01*
X60604759Y-120494637D01*
X60804637Y-120294759D01*
X60961680Y-120059727D01*
X61069853Y-119798574D01*
X61125000Y-119521335D01*
X61125000Y-119238665D01*
X61069853Y-118961426D01*
X60961680Y-118700273D01*
X60804637Y-118465241D01*
X60604759Y-118265363D01*
X60369727Y-118108320D01*
X60108574Y-118000147D01*
X59831335Y-117945000D01*
X59548665Y-117945000D01*
X59271426Y-118000147D01*
X59010273Y-118108320D01*
X58775241Y-118265363D01*
X58575363Y-118465241D01*
X58418320Y-118700273D01*
X58310147Y-118961426D01*
X58255000Y-119238665D01*
X54778072Y-119238665D01*
X54778072Y-118580000D01*
X54765812Y-118455518D01*
X54729502Y-118335820D01*
X54670537Y-118225506D01*
X54591185Y-118128815D01*
X54578242Y-118118193D01*
X54697571Y-117866004D01*
X54766300Y-117591816D01*
X54780217Y-117309488D01*
X54738787Y-117029870D01*
X54643603Y-116763708D01*
X54576671Y-116638486D01*
X54332702Y-116566903D01*
X53519605Y-117380000D01*
X53533748Y-117394143D01*
X53354143Y-117573748D01*
X53340000Y-117559605D01*
X53325858Y-117573748D01*
X53146253Y-117394143D01*
X53160395Y-117380000D01*
X52347298Y-116566903D01*
X52103329Y-116638486D01*
X51982429Y-116893996D01*
X51913700Y-117168184D01*
X51899783Y-117450512D01*
X48511221Y-117450512D01*
X48511255Y-117450449D01*
X48602030Y-117151204D01*
X48632681Y-116840000D01*
X48602030Y-116528796D01*
X48559108Y-116387298D01*
X52526903Y-116387298D01*
X53340000Y-117200395D01*
X54153097Y-116387298D01*
X54081514Y-116143329D01*
X53826004Y-116022429D01*
X53551816Y-115953700D01*
X53269488Y-115939783D01*
X52989870Y-115981213D01*
X52723708Y-116076397D01*
X52598486Y-116143329D01*
X52526903Y-116387298D01*
X48559108Y-116387298D01*
X48511255Y-116229551D01*
X48363845Y-115953765D01*
X48165463Y-115712037D01*
X47923735Y-115513655D01*
X47647949Y-115366245D01*
X47348704Y-115275470D01*
X47115486Y-115252500D01*
X46864514Y-115252500D01*
X46631296Y-115275470D01*
X46332051Y-115366245D01*
X46056265Y-115513655D01*
X45814537Y-115712037D01*
X45616155Y-115953765D01*
X45468745Y-116229551D01*
X45377970Y-116528796D01*
X45347319Y-116840000D01*
X42215701Y-116840000D01*
X42170537Y-116755506D01*
X42091185Y-116658815D01*
X41994494Y-116579463D01*
X41884180Y-116520498D01*
X41764482Y-116484188D01*
X41640000Y-116471928D01*
X39640000Y-116471928D01*
X39515518Y-116484188D01*
X39395820Y-116520498D01*
X39285506Y-116579463D01*
X39188815Y-116658815D01*
X39109463Y-116755506D01*
X39050498Y-116865820D01*
X39014188Y-116985518D01*
X39001928Y-117110000D01*
X37490000Y-117110000D01*
X37490000Y-112888665D01*
X39205000Y-112888665D01*
X39205000Y-113171335D01*
X39260147Y-113448574D01*
X39368320Y-113709727D01*
X39525363Y-113944759D01*
X39725241Y-114144637D01*
X39960273Y-114301680D01*
X40221426Y-114409853D01*
X40498665Y-114465000D01*
X40781335Y-114465000D01*
X41058574Y-114409853D01*
X41319727Y-114301680D01*
X41414035Y-114238665D01*
X58255000Y-114238665D01*
X58255000Y-114521335D01*
X58310147Y-114798574D01*
X58418320Y-115059727D01*
X58575363Y-115294759D01*
X58775241Y-115494637D01*
X59010273Y-115651680D01*
X59271426Y-115759853D01*
X59548665Y-115815000D01*
X59831335Y-115815000D01*
X60108574Y-115759853D01*
X60369727Y-115651680D01*
X60604759Y-115494637D01*
X60804637Y-115294759D01*
X60961680Y-115059727D01*
X61069853Y-114798574D01*
X61125000Y-114521335D01*
X61125000Y-114238665D01*
X61069853Y-113961426D01*
X60961680Y-113700273D01*
X60804637Y-113465241D01*
X60604759Y-113265363D01*
X60369727Y-113108320D01*
X60108574Y-113000147D01*
X59831335Y-112945000D01*
X59548665Y-112945000D01*
X59271426Y-113000147D01*
X59010273Y-113108320D01*
X58775241Y-113265363D01*
X58575363Y-113465241D01*
X58418320Y-113700273D01*
X58310147Y-113961426D01*
X58255000Y-114238665D01*
X41414035Y-114238665D01*
X41554759Y-114144637D01*
X41754637Y-113944759D01*
X41911680Y-113709727D01*
X42019853Y-113448574D01*
X42075000Y-113171335D01*
X42075000Y-112888665D01*
X42019853Y-112611426D01*
X41911680Y-112350273D01*
X41754637Y-112115241D01*
X41554759Y-111915363D01*
X41319727Y-111758320D01*
X41058574Y-111650147D01*
X40801279Y-111598967D01*
X112515000Y-111598967D01*
X112515000Y-111921033D01*
X112577832Y-112236912D01*
X112701082Y-112534463D01*
X112880013Y-112802252D01*
X113107748Y-113029987D01*
X113375537Y-113208918D01*
X113673088Y-113332168D01*
X113988967Y-113395000D01*
X114311033Y-113395000D01*
X114626912Y-113332168D01*
X114924463Y-113208918D01*
X115192252Y-113029987D01*
X115419987Y-112802252D01*
X115598918Y-112534463D01*
X115722168Y-112236912D01*
X115785000Y-111921033D01*
X115785000Y-111598967D01*
X119015000Y-111598967D01*
X119015000Y-111921033D01*
X119077832Y-112236912D01*
X119201082Y-112534463D01*
X119380013Y-112802252D01*
X119607748Y-113029987D01*
X119875537Y-113208918D01*
X120173088Y-113332168D01*
X120488967Y-113395000D01*
X120811033Y-113395000D01*
X121126912Y-113332168D01*
X121424463Y-113208918D01*
X121692252Y-113029987D01*
X121919987Y-112802252D01*
X122098918Y-112534463D01*
X122222168Y-112236912D01*
X122285000Y-111921033D01*
X122285000Y-111598967D01*
X122222168Y-111283088D01*
X122098918Y-110985537D01*
X121919987Y-110717748D01*
X121692252Y-110490013D01*
X121424463Y-110311082D01*
X121126912Y-110187832D01*
X120811033Y-110125000D01*
X120488967Y-110125000D01*
X120173088Y-110187832D01*
X119875537Y-110311082D01*
X119607748Y-110490013D01*
X119380013Y-110717748D01*
X119201082Y-110985537D01*
X119077832Y-111283088D01*
X119015000Y-111598967D01*
X115785000Y-111598967D01*
X115722168Y-111283088D01*
X115598918Y-110985537D01*
X115419987Y-110717748D01*
X115192252Y-110490013D01*
X114924463Y-110311082D01*
X114626912Y-110187832D01*
X114311033Y-110125000D01*
X113988967Y-110125000D01*
X113673088Y-110187832D01*
X113375537Y-110311082D01*
X113107748Y-110490013D01*
X112880013Y-110717748D01*
X112701082Y-110985537D01*
X112577832Y-111283088D01*
X112515000Y-111598967D01*
X40801279Y-111598967D01*
X40781335Y-111595000D01*
X40498665Y-111595000D01*
X40221426Y-111650147D01*
X39960273Y-111758320D01*
X39725241Y-111915363D01*
X39525363Y-112115241D01*
X39368320Y-112350273D01*
X39260147Y-112611426D01*
X39205000Y-112888665D01*
X37490000Y-112888665D01*
X37490000Y-109022702D01*
X39826903Y-109022702D01*
X39898486Y-109266671D01*
X40153996Y-109387571D01*
X40428184Y-109456300D01*
X40710512Y-109470217D01*
X40990130Y-109428787D01*
X41256292Y-109333603D01*
X41381514Y-109266671D01*
X41453097Y-109022702D01*
X40640000Y-108209605D01*
X39826903Y-109022702D01*
X37490000Y-109022702D01*
X37490000Y-108100512D01*
X39199783Y-108100512D01*
X39241213Y-108380130D01*
X39336397Y-108646292D01*
X39403329Y-108771514D01*
X39647298Y-108843097D01*
X40460395Y-108030000D01*
X40819605Y-108030000D01*
X41632702Y-108843097D01*
X41876671Y-108771514D01*
X41997571Y-108516004D01*
X42066300Y-108241816D01*
X42080217Y-107959488D01*
X42054959Y-107789017D01*
X45355510Y-107789017D01*
X45355510Y-108110983D01*
X45418322Y-108426763D01*
X45541533Y-108724222D01*
X45720408Y-108991927D01*
X45948073Y-109219592D01*
X46215778Y-109398467D01*
X46513237Y-109521678D01*
X46829017Y-109584490D01*
X47150983Y-109584490D01*
X47466763Y-109521678D01*
X47764222Y-109398467D01*
X48031927Y-109219592D01*
X48166469Y-109085050D01*
X51114555Y-109085050D01*
X51210258Y-109349399D01*
X51499787Y-109490238D01*
X51811229Y-109571885D01*
X52132615Y-109591205D01*
X52451595Y-109547454D01*
X52755911Y-109442314D01*
X52929742Y-109349399D01*
X53025445Y-109085050D01*
X52070000Y-108129605D01*
X51114555Y-109085050D01*
X48166469Y-109085050D01*
X48259592Y-108991927D01*
X48438467Y-108724222D01*
X48561678Y-108426763D01*
X48624490Y-108110983D01*
X48624490Y-108012615D01*
X50428795Y-108012615D01*
X50472546Y-108331595D01*
X50577686Y-108635911D01*
X50670601Y-108809742D01*
X50934950Y-108905445D01*
X51890395Y-107950000D01*
X52249605Y-107950000D01*
X53205050Y-108905445D01*
X53469399Y-108809742D01*
X53610238Y-108520213D01*
X53691885Y-108208771D01*
X53711205Y-107887385D01*
X53667454Y-107568405D01*
X53562314Y-107264089D01*
X53469399Y-107090258D01*
X53205050Y-106994555D01*
X52249605Y-107950000D01*
X51890395Y-107950000D01*
X50934950Y-106994555D01*
X50670601Y-107090258D01*
X50529762Y-107379787D01*
X50448115Y-107691229D01*
X50428795Y-108012615D01*
X48624490Y-108012615D01*
X48624490Y-107789017D01*
X48561678Y-107473237D01*
X48438467Y-107175778D01*
X48259592Y-106908073D01*
X48166469Y-106814950D01*
X51114555Y-106814950D01*
X52070000Y-107770395D01*
X53025445Y-106814950D01*
X52929742Y-106550601D01*
X52824215Y-106499268D01*
X64205000Y-106499268D01*
X64205000Y-106860732D01*
X64275518Y-107215250D01*
X64413844Y-107549199D01*
X64614662Y-107849744D01*
X64870256Y-108105338D01*
X65170801Y-108306156D01*
X65504750Y-108444482D01*
X65859268Y-108515000D01*
X66220732Y-108515000D01*
X66575250Y-108444482D01*
X66909199Y-108306156D01*
X67209744Y-108105338D01*
X67465338Y-107849744D01*
X67666156Y-107549199D01*
X67804482Y-107215250D01*
X67875000Y-106860732D01*
X67875000Y-106499268D01*
X71825000Y-106499268D01*
X71825000Y-106860732D01*
X71895518Y-107215250D01*
X72033844Y-107549199D01*
X72234662Y-107849744D01*
X72490256Y-108105338D01*
X72790801Y-108306156D01*
X73124750Y-108444482D01*
X73479268Y-108515000D01*
X73840732Y-108515000D01*
X74195250Y-108444482D01*
X74529199Y-108306156D01*
X74829744Y-108105338D01*
X75085338Y-107849744D01*
X75286156Y-107549199D01*
X75424482Y-107215250D01*
X75495000Y-106860732D01*
X75495000Y-106499268D01*
X79445000Y-106499268D01*
X79445000Y-106860732D01*
X79515518Y-107215250D01*
X79653844Y-107549199D01*
X79854662Y-107849744D01*
X80110256Y-108105338D01*
X80410801Y-108306156D01*
X80744750Y-108444482D01*
X81099268Y-108515000D01*
X81460732Y-108515000D01*
X81815250Y-108444482D01*
X82149199Y-108306156D01*
X82449744Y-108105338D01*
X82705338Y-107849744D01*
X82906156Y-107549199D01*
X83044482Y-107215250D01*
X83115000Y-106860732D01*
X83115000Y-106499268D01*
X87065000Y-106499268D01*
X87065000Y-106860732D01*
X87135518Y-107215250D01*
X87273844Y-107549199D01*
X87474662Y-107849744D01*
X87730256Y-108105338D01*
X88030801Y-108306156D01*
X88364750Y-108444482D01*
X88719268Y-108515000D01*
X89080732Y-108515000D01*
X89435250Y-108444482D01*
X89769199Y-108306156D01*
X90069744Y-108105338D01*
X90325338Y-107849744D01*
X90526156Y-107549199D01*
X90664482Y-107215250D01*
X90735000Y-106860732D01*
X90735000Y-106499268D01*
X102305000Y-106499268D01*
X102305000Y-106860732D01*
X102375518Y-107215250D01*
X102513844Y-107549199D01*
X102714662Y-107849744D01*
X102970256Y-108105338D01*
X103270801Y-108306156D01*
X103604750Y-108444482D01*
X103959268Y-108515000D01*
X104320732Y-108515000D01*
X104675250Y-108444482D01*
X104793713Y-108395413D01*
X113194192Y-108395413D01*
X113289956Y-108659814D01*
X113579571Y-108800704D01*
X113891108Y-108882384D01*
X114212595Y-108901718D01*
X114531675Y-108857961D01*
X114836088Y-108752795D01*
X115010044Y-108659814D01*
X115105808Y-108395413D01*
X119694192Y-108395413D01*
X119789956Y-108659814D01*
X120079571Y-108800704D01*
X120391108Y-108882384D01*
X120712595Y-108901718D01*
X121031675Y-108857961D01*
X121336088Y-108752795D01*
X121510044Y-108659814D01*
X121605808Y-108395413D01*
X120650000Y-107439605D01*
X119694192Y-108395413D01*
X115105808Y-108395413D01*
X114150000Y-107439605D01*
X113194192Y-108395413D01*
X104793713Y-108395413D01*
X105009199Y-108306156D01*
X105309744Y-108105338D01*
X105565338Y-107849744D01*
X105766156Y-107549199D01*
X105860018Y-107322595D01*
X112508282Y-107322595D01*
X112552039Y-107641675D01*
X112657205Y-107946088D01*
X112750186Y-108120044D01*
X113014587Y-108215808D01*
X113970395Y-107260000D01*
X114329605Y-107260000D01*
X115285413Y-108215808D01*
X115549814Y-108120044D01*
X115690704Y-107830429D01*
X115772384Y-107518892D01*
X115784189Y-107322595D01*
X119008282Y-107322595D01*
X119052039Y-107641675D01*
X119157205Y-107946088D01*
X119250186Y-108120044D01*
X119514587Y-108215808D01*
X120470395Y-107260000D01*
X120829605Y-107260000D01*
X121785413Y-108215808D01*
X122049814Y-108120044D01*
X122190704Y-107830429D01*
X122272384Y-107518892D01*
X122291718Y-107197405D01*
X122247961Y-106878325D01*
X122142795Y-106573912D01*
X122049814Y-106399956D01*
X121785413Y-106304192D01*
X120829605Y-107260000D01*
X120470395Y-107260000D01*
X119514587Y-106304192D01*
X119250186Y-106399956D01*
X119109296Y-106689571D01*
X119027616Y-107001108D01*
X119008282Y-107322595D01*
X115784189Y-107322595D01*
X115791718Y-107197405D01*
X115747961Y-106878325D01*
X115642795Y-106573912D01*
X115549814Y-106399956D01*
X115285413Y-106304192D01*
X114329605Y-107260000D01*
X113970395Y-107260000D01*
X113014587Y-106304192D01*
X112750186Y-106399956D01*
X112609296Y-106689571D01*
X112527616Y-107001108D01*
X112508282Y-107322595D01*
X105860018Y-107322595D01*
X105904482Y-107215250D01*
X105975000Y-106860732D01*
X105975000Y-106499268D01*
X105904482Y-106144750D01*
X105896131Y-106124587D01*
X113194192Y-106124587D01*
X114150000Y-107080395D01*
X115105808Y-106124587D01*
X119694192Y-106124587D01*
X120650000Y-107080395D01*
X121605808Y-106124587D01*
X121510044Y-105860186D01*
X121220429Y-105719296D01*
X120908892Y-105637616D01*
X120587405Y-105618282D01*
X120268325Y-105662039D01*
X119963912Y-105767205D01*
X119789956Y-105860186D01*
X119694192Y-106124587D01*
X115105808Y-106124587D01*
X115010044Y-105860186D01*
X114720429Y-105719296D01*
X114408892Y-105637616D01*
X114087405Y-105618282D01*
X113768325Y-105662039D01*
X113463912Y-105767205D01*
X113289956Y-105860186D01*
X113194192Y-106124587D01*
X105896131Y-106124587D01*
X105766156Y-105810801D01*
X105565338Y-105510256D01*
X105309744Y-105254662D01*
X105009199Y-105053844D01*
X104675250Y-104915518D01*
X104320732Y-104845000D01*
X103959268Y-104845000D01*
X103604750Y-104915518D01*
X103270801Y-105053844D01*
X102970256Y-105254662D01*
X102714662Y-105510256D01*
X102513844Y-105810801D01*
X102375518Y-106144750D01*
X102305000Y-106499268D01*
X90735000Y-106499268D01*
X90664482Y-106144750D01*
X90526156Y-105810801D01*
X90325338Y-105510256D01*
X90069744Y-105254662D01*
X89769199Y-105053844D01*
X89435250Y-104915518D01*
X89080732Y-104845000D01*
X88719268Y-104845000D01*
X88364750Y-104915518D01*
X88030801Y-105053844D01*
X87730256Y-105254662D01*
X87474662Y-105510256D01*
X87273844Y-105810801D01*
X87135518Y-106144750D01*
X87065000Y-106499268D01*
X83115000Y-106499268D01*
X83044482Y-106144750D01*
X82906156Y-105810801D01*
X82705338Y-105510256D01*
X82449744Y-105254662D01*
X82149199Y-105053844D01*
X81815250Y-104915518D01*
X81460732Y-104845000D01*
X81099268Y-104845000D01*
X80744750Y-104915518D01*
X80410801Y-105053844D01*
X80110256Y-105254662D01*
X79854662Y-105510256D01*
X79653844Y-105810801D01*
X79515518Y-106144750D01*
X79445000Y-106499268D01*
X75495000Y-106499268D01*
X75424482Y-106144750D01*
X75286156Y-105810801D01*
X75085338Y-105510256D01*
X74829744Y-105254662D01*
X74529199Y-105053844D01*
X74195250Y-104915518D01*
X73840732Y-104845000D01*
X73479268Y-104845000D01*
X73124750Y-104915518D01*
X72790801Y-105053844D01*
X72490256Y-105254662D01*
X72234662Y-105510256D01*
X72033844Y-105810801D01*
X71895518Y-106144750D01*
X71825000Y-106499268D01*
X67875000Y-106499268D01*
X67804482Y-106144750D01*
X67666156Y-105810801D01*
X67465338Y-105510256D01*
X67209744Y-105254662D01*
X66909199Y-105053844D01*
X66575250Y-104915518D01*
X66220732Y-104845000D01*
X65859268Y-104845000D01*
X65504750Y-104915518D01*
X65170801Y-105053844D01*
X64870256Y-105254662D01*
X64614662Y-105510256D01*
X64413844Y-105810801D01*
X64275518Y-106144750D01*
X64205000Y-106499268D01*
X52824215Y-106499268D01*
X52640213Y-106409762D01*
X52328771Y-106328115D01*
X52007385Y-106308795D01*
X51688405Y-106352546D01*
X51384089Y-106457686D01*
X51210258Y-106550601D01*
X51114555Y-106814950D01*
X48166469Y-106814950D01*
X48031927Y-106680408D01*
X47764222Y-106501533D01*
X47466763Y-106378322D01*
X47150983Y-106315510D01*
X46829017Y-106315510D01*
X46513237Y-106378322D01*
X46215778Y-106501533D01*
X45948073Y-106680408D01*
X45720408Y-106908073D01*
X45541533Y-107175778D01*
X45418322Y-107473237D01*
X45355510Y-107789017D01*
X42054959Y-107789017D01*
X42038787Y-107679870D01*
X41943603Y-107413708D01*
X41876671Y-107288486D01*
X41632702Y-107216903D01*
X40819605Y-108030000D01*
X40460395Y-108030000D01*
X39647298Y-107216903D01*
X39403329Y-107288486D01*
X39282429Y-107543996D01*
X39213700Y-107818184D01*
X39199783Y-108100512D01*
X37490000Y-108100512D01*
X37490000Y-107037298D01*
X39826903Y-107037298D01*
X40640000Y-107850395D01*
X41453097Y-107037298D01*
X41381514Y-106793329D01*
X41126004Y-106672429D01*
X40851816Y-106603700D01*
X40569488Y-106589783D01*
X40289870Y-106631213D01*
X40023708Y-106726397D01*
X39898486Y-106793329D01*
X39826903Y-107037298D01*
X37490000Y-107037298D01*
X37490000Y-104800000D01*
X133960000Y-104800000D01*
X133960001Y-174600000D01*
%TD*%
M02*
