%TF.GenerationSoftware,KiCad,Pcbnew,(5.1.6)-1*%
%TF.CreationDate,2020-09-16T20:36:39+02:00*%
%TF.ProjectId,Basic_Clock,42617369-635f-4436-9c6f-636b2e6b6963,rev?*%
%TF.SameCoordinates,Original*%
%TF.FileFunction,Legend,Top*%
%TF.FilePolarity,Positive*%
%FSLAX46Y46*%
G04 Gerber Fmt 4.6, Leading zero omitted, Abs format (unit mm)*
G04 Created by KiCad (PCBNEW (5.1.6)-1) date 2020-09-16 20:36:39*
%MOMM*%
%LPD*%
G01*
G04 APERTURE LIST*
%ADD10C,0.150000*%
%ADD11C,0.120000*%
G04 APERTURE END LIST*
D10*
X121849047Y-165918571D02*
X121991904Y-165966190D01*
X122039523Y-166013809D01*
X122087142Y-166109047D01*
X122087142Y-166251904D01*
X122039523Y-166347142D01*
X121991904Y-166394761D01*
X121896666Y-166442380D01*
X121515714Y-166442380D01*
X121515714Y-165442380D01*
X121849047Y-165442380D01*
X121944285Y-165490000D01*
X121991904Y-165537619D01*
X122039523Y-165632857D01*
X122039523Y-165728095D01*
X121991904Y-165823333D01*
X121944285Y-165870952D01*
X121849047Y-165918571D01*
X121515714Y-165918571D01*
X122944285Y-166442380D02*
X122944285Y-165918571D01*
X122896666Y-165823333D01*
X122801428Y-165775714D01*
X122610952Y-165775714D01*
X122515714Y-165823333D01*
X122944285Y-166394761D02*
X122849047Y-166442380D01*
X122610952Y-166442380D01*
X122515714Y-166394761D01*
X122468095Y-166299523D01*
X122468095Y-166204285D01*
X122515714Y-166109047D01*
X122610952Y-166061428D01*
X122849047Y-166061428D01*
X122944285Y-166013809D01*
X123372857Y-166394761D02*
X123468095Y-166442380D01*
X123658571Y-166442380D01*
X123753809Y-166394761D01*
X123801428Y-166299523D01*
X123801428Y-166251904D01*
X123753809Y-166156666D01*
X123658571Y-166109047D01*
X123515714Y-166109047D01*
X123420476Y-166061428D01*
X123372857Y-165966190D01*
X123372857Y-165918571D01*
X123420476Y-165823333D01*
X123515714Y-165775714D01*
X123658571Y-165775714D01*
X123753809Y-165823333D01*
X124230000Y-166442380D02*
X124230000Y-165775714D01*
X124230000Y-165442380D02*
X124182380Y-165490000D01*
X124230000Y-165537619D01*
X124277619Y-165490000D01*
X124230000Y-165442380D01*
X124230000Y-165537619D01*
X125134761Y-166394761D02*
X125039523Y-166442380D01*
X124849047Y-166442380D01*
X124753809Y-166394761D01*
X124706190Y-166347142D01*
X124658571Y-166251904D01*
X124658571Y-165966190D01*
X124706190Y-165870952D01*
X124753809Y-165823333D01*
X124849047Y-165775714D01*
X125039523Y-165775714D01*
X125134761Y-165823333D01*
X125325238Y-166537619D02*
X126087142Y-166537619D01*
X126896666Y-166347142D02*
X126849047Y-166394761D01*
X126706190Y-166442380D01*
X126610952Y-166442380D01*
X126468095Y-166394761D01*
X126372857Y-166299523D01*
X126325238Y-166204285D01*
X126277619Y-166013809D01*
X126277619Y-165870952D01*
X126325238Y-165680476D01*
X126372857Y-165585238D01*
X126468095Y-165490000D01*
X126610952Y-165442380D01*
X126706190Y-165442380D01*
X126849047Y-165490000D01*
X126896666Y-165537619D01*
X127468095Y-166442380D02*
X127372857Y-166394761D01*
X127325238Y-166299523D01*
X127325238Y-165442380D01*
X127991904Y-166442380D02*
X127896666Y-166394761D01*
X127849047Y-166347142D01*
X127801428Y-166251904D01*
X127801428Y-165966190D01*
X127849047Y-165870952D01*
X127896666Y-165823333D01*
X127991904Y-165775714D01*
X128134761Y-165775714D01*
X128230000Y-165823333D01*
X128277619Y-165870952D01*
X128325238Y-165966190D01*
X128325238Y-166251904D01*
X128277619Y-166347142D01*
X128230000Y-166394761D01*
X128134761Y-166442380D01*
X127991904Y-166442380D01*
X129182380Y-166394761D02*
X129087142Y-166442380D01*
X128896666Y-166442380D01*
X128801428Y-166394761D01*
X128753809Y-166347142D01*
X128706190Y-166251904D01*
X128706190Y-165966190D01*
X128753809Y-165870952D01*
X128801428Y-165823333D01*
X128896666Y-165775714D01*
X129087142Y-165775714D01*
X129182380Y-165823333D01*
X129610952Y-166442380D02*
X129610952Y-165442380D01*
X129706190Y-166061428D02*
X129991904Y-166442380D01*
X129991904Y-165775714D02*
X129610952Y-166156666D01*
X123015714Y-168092380D02*
X122920476Y-168044761D01*
X122872857Y-167997142D01*
X122825238Y-167901904D01*
X122825238Y-167616190D01*
X122872857Y-167520952D01*
X122920476Y-167473333D01*
X123015714Y-167425714D01*
X123158571Y-167425714D01*
X123253809Y-167473333D01*
X123301428Y-167520952D01*
X123349047Y-167616190D01*
X123349047Y-167901904D01*
X123301428Y-167997142D01*
X123253809Y-168044761D01*
X123158571Y-168092380D01*
X123015714Y-168092380D01*
X123682380Y-167425714D02*
X123872857Y-168092380D01*
X124063333Y-167616190D01*
X124253809Y-168092380D01*
X124444285Y-167425714D01*
X124968095Y-168092380D02*
X124872857Y-168044761D01*
X124825238Y-167997142D01*
X124777619Y-167901904D01*
X124777619Y-167616190D01*
X124825238Y-167520952D01*
X124872857Y-167473333D01*
X124968095Y-167425714D01*
X125110952Y-167425714D01*
X125206190Y-167473333D01*
X125253809Y-167520952D01*
X125301428Y-167616190D01*
X125301428Y-167901904D01*
X125253809Y-167997142D01*
X125206190Y-168044761D01*
X125110952Y-168092380D01*
X124968095Y-168092380D01*
X125872857Y-168092380D02*
X125777619Y-168044761D01*
X125730000Y-167949523D01*
X125730000Y-167092380D01*
X126110952Y-167425714D02*
X126491904Y-167425714D01*
X126253809Y-168092380D02*
X126253809Y-167235238D01*
X126301428Y-167140000D01*
X126396666Y-167092380D01*
X126491904Y-167092380D01*
X126825238Y-167997142D02*
X126872857Y-168044761D01*
X126825238Y-168092380D01*
X126777619Y-168044761D01*
X126825238Y-167997142D01*
X126825238Y-168092380D01*
X127730000Y-168044761D02*
X127634761Y-168092380D01*
X127444285Y-168092380D01*
X127349047Y-168044761D01*
X127301428Y-167997142D01*
X127253809Y-167901904D01*
X127253809Y-167616190D01*
X127301428Y-167520952D01*
X127349047Y-167473333D01*
X127444285Y-167425714D01*
X127634761Y-167425714D01*
X127730000Y-167473333D01*
X128158571Y-168092380D02*
X128158571Y-167092380D01*
X128587142Y-168092380D02*
X128587142Y-167568571D01*
X128539523Y-167473333D01*
X128444285Y-167425714D01*
X128301428Y-167425714D01*
X128206190Y-167473333D01*
X128158571Y-167520952D01*
X121539523Y-168742380D02*
X121872857Y-169742380D01*
X122206190Y-168742380D01*
X122920476Y-169694761D02*
X122825238Y-169742380D01*
X122634761Y-169742380D01*
X122539523Y-169694761D01*
X122491904Y-169599523D01*
X122491904Y-169218571D01*
X122539523Y-169123333D01*
X122634761Y-169075714D01*
X122825238Y-169075714D01*
X122920476Y-169123333D01*
X122968095Y-169218571D01*
X122968095Y-169313809D01*
X122491904Y-169409047D01*
X123396666Y-169742380D02*
X123396666Y-169075714D01*
X123396666Y-169266190D02*
X123444285Y-169170952D01*
X123491904Y-169123333D01*
X123587142Y-169075714D01*
X123682380Y-169075714D01*
X123968095Y-169694761D02*
X124063333Y-169742380D01*
X124253809Y-169742380D01*
X124349047Y-169694761D01*
X124396666Y-169599523D01*
X124396666Y-169551904D01*
X124349047Y-169456666D01*
X124253809Y-169409047D01*
X124110952Y-169409047D01*
X124015714Y-169361428D01*
X123968095Y-169266190D01*
X123968095Y-169218571D01*
X124015714Y-169123333D01*
X124110952Y-169075714D01*
X124253809Y-169075714D01*
X124349047Y-169123333D01*
X124825238Y-169742380D02*
X124825238Y-169075714D01*
X124825238Y-168742380D02*
X124777619Y-168790000D01*
X124825238Y-168837619D01*
X124872857Y-168790000D01*
X124825238Y-168742380D01*
X124825238Y-168837619D01*
X125444285Y-169742380D02*
X125349047Y-169694761D01*
X125301428Y-169647142D01*
X125253809Y-169551904D01*
X125253809Y-169266190D01*
X125301428Y-169170952D01*
X125349047Y-169123333D01*
X125444285Y-169075714D01*
X125587142Y-169075714D01*
X125682380Y-169123333D01*
X125730000Y-169170952D01*
X125777619Y-169266190D01*
X125777619Y-169551904D01*
X125730000Y-169647142D01*
X125682380Y-169694761D01*
X125587142Y-169742380D01*
X125444285Y-169742380D01*
X126206190Y-169075714D02*
X126206190Y-169742380D01*
X126206190Y-169170952D02*
X126253809Y-169123333D01*
X126349047Y-169075714D01*
X126491904Y-169075714D01*
X126587142Y-169123333D01*
X126634761Y-169218571D01*
X126634761Y-169742380D01*
X128063333Y-168742380D02*
X128158571Y-168742380D01*
X128253809Y-168790000D01*
X128301428Y-168837619D01*
X128349047Y-168932857D01*
X128396666Y-169123333D01*
X128396666Y-169361428D01*
X128349047Y-169551904D01*
X128301428Y-169647142D01*
X128253809Y-169694761D01*
X128158571Y-169742380D01*
X128063333Y-169742380D01*
X127968095Y-169694761D01*
X127920476Y-169647142D01*
X127872857Y-169551904D01*
X127825238Y-169361428D01*
X127825238Y-169123333D01*
X127872857Y-168932857D01*
X127920476Y-168837619D01*
X127968095Y-168790000D01*
X128063333Y-168742380D01*
X128825238Y-169647142D02*
X128872857Y-169694761D01*
X128825238Y-169742380D01*
X128777619Y-169694761D01*
X128825238Y-169647142D01*
X128825238Y-169742380D01*
X129825238Y-169742380D02*
X129253809Y-169742380D01*
X129539523Y-169742380D02*
X129539523Y-168742380D01*
X129444285Y-168885238D01*
X129349047Y-168980476D01*
X129253809Y-169028095D01*
X117244761Y-142675714D02*
X117292380Y-142532857D01*
X117292380Y-142294761D01*
X117244761Y-142199523D01*
X117197142Y-142151904D01*
X117101904Y-142104285D01*
X117006666Y-142104285D01*
X116911428Y-142151904D01*
X116863809Y-142199523D01*
X116816190Y-142294761D01*
X116768571Y-142485238D01*
X116720952Y-142580476D01*
X116673333Y-142628095D01*
X116578095Y-142675714D01*
X116482857Y-142675714D01*
X116387619Y-142628095D01*
X116340000Y-142580476D01*
X116292380Y-142485238D01*
X116292380Y-142247142D01*
X116340000Y-142104285D01*
X117292380Y-141675714D02*
X116292380Y-141675714D01*
X116292380Y-141437619D01*
X116340000Y-141294761D01*
X116435238Y-141199523D01*
X116530476Y-141151904D01*
X116720952Y-141104285D01*
X116863809Y-141104285D01*
X117054285Y-141151904D01*
X117149523Y-141199523D01*
X117244761Y-141294761D01*
X117292380Y-141437619D01*
X117292380Y-141675714D01*
X117006666Y-140723333D02*
X117006666Y-140247142D01*
X117292380Y-140818571D02*
X116292380Y-140485238D01*
X117292380Y-140151904D01*
X117244761Y-139104285D02*
X117292380Y-138961428D01*
X117292380Y-138723333D01*
X117244761Y-138628095D01*
X117197142Y-138580476D01*
X117101904Y-138532857D01*
X117006666Y-138532857D01*
X116911428Y-138580476D01*
X116863809Y-138628095D01*
X116816190Y-138723333D01*
X116768571Y-138913809D01*
X116720952Y-139009047D01*
X116673333Y-139056666D01*
X116578095Y-139104285D01*
X116482857Y-139104285D01*
X116387619Y-139056666D01*
X116340000Y-139009047D01*
X116292380Y-138913809D01*
X116292380Y-138675714D01*
X116340000Y-138532857D01*
X117197142Y-137532857D02*
X117244761Y-137580476D01*
X117292380Y-137723333D01*
X117292380Y-137818571D01*
X117244761Y-137961428D01*
X117149523Y-138056666D01*
X117054285Y-138104285D01*
X116863809Y-138151904D01*
X116720952Y-138151904D01*
X116530476Y-138104285D01*
X116435238Y-138056666D01*
X116340000Y-137961428D01*
X116292380Y-137818571D01*
X116292380Y-137723333D01*
X116340000Y-137580476D01*
X116387619Y-137532857D01*
X117292380Y-136628095D02*
X117292380Y-137104285D01*
X116292380Y-137104285D01*
X116340000Y-135009047D02*
X116292380Y-135104285D01*
X116292380Y-135247142D01*
X116340000Y-135390000D01*
X116435238Y-135485238D01*
X116530476Y-135532857D01*
X116720952Y-135580476D01*
X116863809Y-135580476D01*
X117054285Y-135532857D01*
X117149523Y-135485238D01*
X117244761Y-135390000D01*
X117292380Y-135247142D01*
X117292380Y-135151904D01*
X117244761Y-135009047D01*
X117197142Y-134961428D01*
X116863809Y-134961428D01*
X116863809Y-135151904D01*
X117292380Y-134532857D02*
X116292380Y-134532857D01*
X117292380Y-133961428D01*
X116292380Y-133961428D01*
X117292380Y-133485238D02*
X116292380Y-133485238D01*
X116292380Y-133247142D01*
X116340000Y-133104285D01*
X116435238Y-133009047D01*
X116530476Y-132961428D01*
X116720952Y-132913809D01*
X116863809Y-132913809D01*
X117054285Y-132961428D01*
X117149523Y-133009047D01*
X117244761Y-133104285D01*
X117292380Y-133247142D01*
X117292380Y-133485238D01*
X116911428Y-131723333D02*
X116911428Y-130961428D01*
X117292380Y-131342380D02*
X116530476Y-131342380D01*
X116292380Y-130009047D02*
X116292380Y-130485238D01*
X116768571Y-130532857D01*
X116720952Y-130485238D01*
X116673333Y-130390000D01*
X116673333Y-130151904D01*
X116720952Y-130056666D01*
X116768571Y-130009047D01*
X116863809Y-129961428D01*
X117101904Y-129961428D01*
X117197142Y-130009047D01*
X117244761Y-130056666D01*
X117292380Y-130151904D01*
X117292380Y-130390000D01*
X117244761Y-130485238D01*
X117197142Y-130532857D01*
X116292380Y-129675714D02*
X117292380Y-129342380D01*
X116292380Y-129009047D01*
X131580000Y-127547142D02*
X131532380Y-127642380D01*
X131532380Y-127785238D01*
X131580000Y-127928095D01*
X131675238Y-128023333D01*
X131770476Y-128070952D01*
X131960952Y-128118571D01*
X132103809Y-128118571D01*
X132294285Y-128070952D01*
X132389523Y-128023333D01*
X132484761Y-127928095D01*
X132532380Y-127785238D01*
X132532380Y-127690000D01*
X132484761Y-127547142D01*
X132437142Y-127499523D01*
X132103809Y-127499523D01*
X132103809Y-127690000D01*
X132532380Y-127070952D02*
X131532380Y-127070952D01*
X132532380Y-126499523D01*
X131532380Y-126499523D01*
X132532380Y-126023333D02*
X131532380Y-126023333D01*
X131532380Y-125785238D01*
X131580000Y-125642380D01*
X131675238Y-125547142D01*
X131770476Y-125499523D01*
X131960952Y-125451904D01*
X132103809Y-125451904D01*
X132294285Y-125499523D01*
X132389523Y-125547142D01*
X132484761Y-125642380D01*
X132532380Y-125785238D01*
X132532380Y-126023333D01*
X132246666Y-124309047D02*
X132246666Y-123832857D01*
X132532380Y-124404285D02*
X131532380Y-124070952D01*
X132532380Y-123737619D01*
X132008571Y-122309047D02*
X132056190Y-122166190D01*
X132103809Y-122118571D01*
X132199047Y-122070952D01*
X132341904Y-122070952D01*
X132437142Y-122118571D01*
X132484761Y-122166190D01*
X132532380Y-122261428D01*
X132532380Y-122642380D01*
X131532380Y-122642380D01*
X131532380Y-122309047D01*
X131580000Y-122213809D01*
X131627619Y-122166190D01*
X131722857Y-122118571D01*
X131818095Y-122118571D01*
X131913333Y-122166190D01*
X131960952Y-122213809D01*
X132008571Y-122309047D01*
X132008571Y-122642380D01*
X132151428Y-120880476D02*
X132151428Y-120118571D01*
X132532380Y-120499523D02*
X131770476Y-120499523D01*
X131532380Y-119166190D02*
X131532380Y-119642380D01*
X132008571Y-119690000D01*
X131960952Y-119642380D01*
X131913333Y-119547142D01*
X131913333Y-119309047D01*
X131960952Y-119213809D01*
X132008571Y-119166190D01*
X132103809Y-119118571D01*
X132341904Y-119118571D01*
X132437142Y-119166190D01*
X132484761Y-119213809D01*
X132532380Y-119309047D01*
X132532380Y-119547142D01*
X132484761Y-119642380D01*
X132437142Y-119690000D01*
X131532380Y-118832857D02*
X132532380Y-118499523D01*
X131532380Y-118166190D01*
X84542380Y-127975714D02*
X84542380Y-127404285D01*
X85542380Y-127690000D02*
X84542380Y-127690000D01*
X84542380Y-127166190D02*
X85542380Y-126499523D01*
X84542380Y-126499523D02*
X85542380Y-127166190D01*
X85542380Y-125356666D02*
X84542380Y-125356666D01*
X84542380Y-125118571D01*
X84590000Y-124975714D01*
X84685238Y-124880476D01*
X84780476Y-124832857D01*
X84970952Y-124785238D01*
X85113809Y-124785238D01*
X85304285Y-124832857D01*
X85399523Y-124880476D01*
X85494761Y-124975714D01*
X85542380Y-125118571D01*
X85542380Y-125356666D01*
X85018571Y-124356666D02*
X85018571Y-124023333D01*
X85542380Y-123880476D02*
X85542380Y-124356666D01*
X84542380Y-124356666D01*
X84542380Y-123880476D01*
X85542380Y-122118571D02*
X85066190Y-122451904D01*
X85542380Y-122690000D02*
X84542380Y-122690000D01*
X84542380Y-122309047D01*
X84590000Y-122213809D01*
X84637619Y-122166190D01*
X84732857Y-122118571D01*
X84875714Y-122118571D01*
X84970952Y-122166190D01*
X85018571Y-122213809D01*
X85066190Y-122309047D01*
X85066190Y-122690000D01*
X85018571Y-121690000D02*
X85018571Y-121356666D01*
X85542380Y-121213809D02*
X85542380Y-121690000D01*
X84542380Y-121690000D01*
X84542380Y-121213809D01*
X85542380Y-119451904D02*
X85066190Y-119785238D01*
X85542380Y-120023333D02*
X84542380Y-120023333D01*
X84542380Y-119642380D01*
X84590000Y-119547142D01*
X84637619Y-119499523D01*
X84732857Y-119451904D01*
X84875714Y-119451904D01*
X84970952Y-119499523D01*
X85018571Y-119547142D01*
X85066190Y-119642380D01*
X85066190Y-120023333D01*
X84542380Y-119118571D02*
X85542380Y-118451904D01*
X84542380Y-118451904D02*
X85542380Y-119118571D01*
D11*
%TO.C,C5*%
X57820000Y-113260000D02*
X61560000Y-113260000D01*
X57820000Y-120500000D02*
X61560000Y-120500000D01*
X61560000Y-120500000D02*
X61560000Y-113260000D01*
X57820000Y-120500000D02*
X57820000Y-113260000D01*
%TO.C,SW4*%
X67730000Y-150130000D02*
X67730000Y-145630000D01*
X63730000Y-151380000D02*
X65230000Y-151380000D01*
X61230000Y-145630000D02*
X61230000Y-150130000D01*
X65230000Y-144380000D02*
X63730000Y-144380000D01*
%TO.C,R7*%
X91450000Y-104760000D02*
X91450000Y-108600000D01*
X91450000Y-108600000D02*
X101590000Y-108600000D01*
X101590000Y-108600000D02*
X101590000Y-104760000D01*
X101590000Y-104760000D02*
X91450000Y-104760000D01*
X90340000Y-106680000D02*
X91450000Y-106680000D01*
X102700000Y-106680000D02*
X101590000Y-106680000D01*
%TO.C,J3*%
X129540000Y-118050000D02*
X130870000Y-118050000D01*
X130870000Y-118050000D02*
X130870000Y-119380000D01*
X130870000Y-120650000D02*
X130870000Y-128330000D01*
X128210000Y-128330000D02*
X130870000Y-128330000D01*
X128210000Y-120650000D02*
X128210000Y-128330000D01*
X128210000Y-120650000D02*
X130870000Y-120650000D01*
%TO.C,J2*%
X87630000Y-128330000D02*
X86300000Y-128330000D01*
X86300000Y-128330000D02*
X86300000Y-127000000D01*
X86300000Y-125730000D02*
X86300000Y-118050000D01*
X88960000Y-118050000D02*
X86300000Y-118050000D01*
X88960000Y-125730000D02*
X88960000Y-118050000D01*
X88960000Y-125730000D02*
X86300000Y-125730000D01*
%TO.C,J1*%
X114300000Y-130750000D02*
X115630000Y-130750000D01*
X115630000Y-130750000D02*
X115630000Y-132080000D01*
X115630000Y-133350000D02*
X115630000Y-141030000D01*
X112970000Y-141030000D02*
X115630000Y-141030000D01*
X112970000Y-133350000D02*
X112970000Y-141030000D01*
X112970000Y-133350000D02*
X115630000Y-133350000D01*
%TO.C,Y1*%
X83835000Y-160530000D02*
X83835000Y-166930000D01*
X88885000Y-160530000D02*
X88885000Y-166930000D01*
X83835000Y-166930000D02*
G75*
G03*
X88885000Y-166930000I2525000J0D01*
G01*
X83835000Y-160530000D02*
G75*
G02*
X88885000Y-160530000I2525000J0D01*
G01*
%TO.C,U1*%
X43720000Y-117529000D02*
X45230000Y-117529000D01*
X43720000Y-121230000D02*
X45230000Y-121230000D01*
X45230000Y-124500000D02*
X45230000Y-114260000D01*
X43720000Y-114260000D02*
X48361000Y-114260000D01*
X43720000Y-124500000D02*
X48361000Y-124500000D01*
X48361000Y-124500000D02*
X48361000Y-114260000D01*
X43720000Y-124500000D02*
X43720000Y-114260000D01*
%TO.C,SW3*%
X75390000Y-139300000D02*
X73890000Y-139300000D01*
X71390000Y-140550000D02*
X71390000Y-145050000D01*
X73890000Y-146300000D02*
X75390000Y-146300000D01*
X77890000Y-145050000D02*
X77890000Y-140550000D01*
%TO.C,SW2*%
X85550000Y-134220000D02*
X84050000Y-134220000D01*
X81550000Y-135470000D02*
X81550000Y-139970000D01*
X84050000Y-141220000D02*
X85550000Y-141220000D01*
X88050000Y-139970000D02*
X88050000Y-135470000D01*
%TO.C,SW1*%
X113900000Y-108760000D02*
X113900000Y-110260000D01*
X115150000Y-112760000D02*
X119650000Y-112760000D01*
X120900000Y-110260000D02*
X120900000Y-108760000D01*
X119650000Y-106260000D02*
X115150000Y-106260000D01*
%TO.C,R6*%
X66040000Y-120480000D02*
X66040000Y-119370000D01*
X66040000Y-108120000D02*
X66040000Y-109230000D01*
X67960000Y-119370000D02*
X67960000Y-109230000D01*
X64120000Y-119370000D02*
X67960000Y-119370000D01*
X64120000Y-109230000D02*
X64120000Y-119370000D01*
X67960000Y-109230000D02*
X64120000Y-109230000D01*
%TO.C,R5*%
X73660000Y-120480000D02*
X73660000Y-119370000D01*
X73660000Y-108120000D02*
X73660000Y-109230000D01*
X75580000Y-119370000D02*
X75580000Y-109230000D01*
X71740000Y-119370000D02*
X75580000Y-119370000D01*
X71740000Y-109230000D02*
X71740000Y-119370000D01*
X75580000Y-109230000D02*
X71740000Y-109230000D01*
%TO.C,R4*%
X81280000Y-120480000D02*
X81280000Y-119370000D01*
X81280000Y-108120000D02*
X81280000Y-109230000D01*
X83200000Y-119370000D02*
X83200000Y-109230000D01*
X79360000Y-119370000D02*
X83200000Y-119370000D01*
X79360000Y-109230000D02*
X79360000Y-119370000D01*
X83200000Y-109230000D02*
X79360000Y-109230000D01*
%TO.C,R3*%
X55880000Y-159850000D02*
X55880000Y-158740000D01*
X55880000Y-147490000D02*
X55880000Y-148600000D01*
X57800000Y-158740000D02*
X57800000Y-148600000D01*
X53960000Y-158740000D02*
X57800000Y-158740000D01*
X53960000Y-148600000D02*
X53960000Y-158740000D01*
X57800000Y-148600000D02*
X53960000Y-148600000D01*
%TO.C,R2*%
X58250000Y-138430000D02*
X57140000Y-138430000D01*
X45890000Y-138430000D02*
X47000000Y-138430000D01*
X57140000Y-136510000D02*
X47000000Y-136510000D01*
X57140000Y-140350000D02*
X57140000Y-136510000D01*
X47000000Y-140350000D02*
X57140000Y-140350000D01*
X47000000Y-136510000D02*
X47000000Y-140350000D01*
%TO.C,R1*%
X45890000Y-130810000D02*
X47000000Y-130810000D01*
X58250000Y-130810000D02*
X57140000Y-130810000D01*
X47000000Y-132730000D02*
X57140000Y-132730000D01*
X47000000Y-128890000D02*
X47000000Y-132730000D01*
X57140000Y-128890000D02*
X47000000Y-128890000D01*
X57140000Y-132730000D02*
X57140000Y-128890000D01*
%TO.C,D2*%
X42060000Y-119410000D02*
X39220000Y-119410000D01*
X42060000Y-119650000D02*
X39220000Y-119650000D01*
X42060000Y-119530000D02*
X39220000Y-119530000D01*
X39220000Y-122370000D02*
X39400000Y-122370000D01*
X39220000Y-118930000D02*
X39220000Y-122370000D01*
X39400000Y-118930000D02*
X39220000Y-118930000D01*
X42060000Y-122370000D02*
X41880000Y-122370000D01*
X42060000Y-118930000D02*
X42060000Y-122370000D01*
X41880000Y-118930000D02*
X42060000Y-118930000D01*
%TO.C,D1*%
X58380000Y-167640000D02*
G75*
G03*
X58380000Y-167640000I-2500000J0D01*
G01*
X53320000Y-166095000D02*
X53320000Y-169185000D01*
X58870000Y-167639538D02*
G75*
G02*
X53320000Y-169184830I-2990000J-462D01*
G01*
X58870000Y-167640462D02*
G75*
G03*
X53320000Y-166095170I-2990000J462D01*
G01*
%TO.C,C1*%
X81050000Y-159420000D02*
X81050000Y-163160000D01*
X73810000Y-159420000D02*
X73810000Y-163160000D01*
X73810000Y-163160000D02*
X81050000Y-163160000D01*
X73810000Y-159420000D02*
X81050000Y-159420000D01*
%TO.C,C2*%
X73810000Y-164500000D02*
X81050000Y-164500000D01*
X73810000Y-168240000D02*
X81050000Y-168240000D01*
X73810000Y-164500000D02*
X73810000Y-168240000D01*
X81050000Y-164500000D02*
X81050000Y-168240000D01*
%TO.C,C3*%
X38770000Y-114150000D02*
X38770000Y-106910000D01*
X42510000Y-114150000D02*
X42510000Y-106910000D01*
X38770000Y-114150000D02*
X42510000Y-114150000D01*
X38770000Y-106910000D02*
X42510000Y-106910000D01*
%TO.C,C4*%
X55960000Y-118380000D02*
G75*
G03*
X55960000Y-118380000I-2620000J0D01*
G01*
X54380000Y-118380000D02*
X55920000Y-118380000D01*
X50760000Y-118380000D02*
X52300000Y-118380000D01*
X54380000Y-118340000D02*
X55920000Y-118340000D01*
X50760000Y-118340000D02*
X52300000Y-118340000D01*
X50761000Y-118300000D02*
X52300000Y-118300000D01*
X54380000Y-118300000D02*
X55919000Y-118300000D01*
X50762000Y-118260000D02*
X52300000Y-118260000D01*
X54380000Y-118260000D02*
X55918000Y-118260000D01*
X50764000Y-118220000D02*
X52300000Y-118220000D01*
X54380000Y-118220000D02*
X55916000Y-118220000D01*
X50767000Y-118180000D02*
X52300000Y-118180000D01*
X54380000Y-118180000D02*
X55913000Y-118180000D01*
X50771000Y-118140000D02*
X52300000Y-118140000D01*
X54380000Y-118140000D02*
X55909000Y-118140000D01*
X50775000Y-118100000D02*
X52300000Y-118100000D01*
X54380000Y-118100000D02*
X55905000Y-118100000D01*
X50779000Y-118060000D02*
X52300000Y-118060000D01*
X54380000Y-118060000D02*
X55901000Y-118060000D01*
X50784000Y-118020000D02*
X52300000Y-118020000D01*
X54380000Y-118020000D02*
X55896000Y-118020000D01*
X50790000Y-117980000D02*
X52300000Y-117980000D01*
X54380000Y-117980000D02*
X55890000Y-117980000D01*
X50797000Y-117940000D02*
X52300000Y-117940000D01*
X54380000Y-117940000D02*
X55883000Y-117940000D01*
X50804000Y-117900000D02*
X52300000Y-117900000D01*
X54380000Y-117900000D02*
X55876000Y-117900000D01*
X50812000Y-117860000D02*
X52300000Y-117860000D01*
X54380000Y-117860000D02*
X55868000Y-117860000D01*
X50820000Y-117820000D02*
X52300000Y-117820000D01*
X54380000Y-117820000D02*
X55860000Y-117820000D01*
X50829000Y-117780000D02*
X52300000Y-117780000D01*
X54380000Y-117780000D02*
X55851000Y-117780000D01*
X50839000Y-117740000D02*
X52300000Y-117740000D01*
X54380000Y-117740000D02*
X55841000Y-117740000D01*
X50849000Y-117700000D02*
X52300000Y-117700000D01*
X54380000Y-117700000D02*
X55831000Y-117700000D01*
X50860000Y-117659000D02*
X52300000Y-117659000D01*
X54380000Y-117659000D02*
X55820000Y-117659000D01*
X50872000Y-117619000D02*
X52300000Y-117619000D01*
X54380000Y-117619000D02*
X55808000Y-117619000D01*
X50885000Y-117579000D02*
X52300000Y-117579000D01*
X54380000Y-117579000D02*
X55795000Y-117579000D01*
X50898000Y-117539000D02*
X52300000Y-117539000D01*
X54380000Y-117539000D02*
X55782000Y-117539000D01*
X50912000Y-117499000D02*
X52300000Y-117499000D01*
X54380000Y-117499000D02*
X55768000Y-117499000D01*
X50926000Y-117459000D02*
X52300000Y-117459000D01*
X54380000Y-117459000D02*
X55754000Y-117459000D01*
X50942000Y-117419000D02*
X52300000Y-117419000D01*
X54380000Y-117419000D02*
X55738000Y-117419000D01*
X50958000Y-117379000D02*
X52300000Y-117379000D01*
X54380000Y-117379000D02*
X55722000Y-117379000D01*
X50975000Y-117339000D02*
X52300000Y-117339000D01*
X54380000Y-117339000D02*
X55705000Y-117339000D01*
X50992000Y-117299000D02*
X52300000Y-117299000D01*
X54380000Y-117299000D02*
X55688000Y-117299000D01*
X51011000Y-117259000D02*
X52300000Y-117259000D01*
X54380000Y-117259000D02*
X55669000Y-117259000D01*
X51030000Y-117219000D02*
X52300000Y-117219000D01*
X54380000Y-117219000D02*
X55650000Y-117219000D01*
X51050000Y-117179000D02*
X52300000Y-117179000D01*
X54380000Y-117179000D02*
X55630000Y-117179000D01*
X51072000Y-117139000D02*
X52300000Y-117139000D01*
X54380000Y-117139000D02*
X55608000Y-117139000D01*
X51093000Y-117099000D02*
X52300000Y-117099000D01*
X54380000Y-117099000D02*
X55587000Y-117099000D01*
X51116000Y-117059000D02*
X52300000Y-117059000D01*
X54380000Y-117059000D02*
X55564000Y-117059000D01*
X51140000Y-117019000D02*
X52300000Y-117019000D01*
X54380000Y-117019000D02*
X55540000Y-117019000D01*
X51165000Y-116979000D02*
X52300000Y-116979000D01*
X54380000Y-116979000D02*
X55515000Y-116979000D01*
X51191000Y-116939000D02*
X52300000Y-116939000D01*
X54380000Y-116939000D02*
X55489000Y-116939000D01*
X51218000Y-116899000D02*
X52300000Y-116899000D01*
X54380000Y-116899000D02*
X55462000Y-116899000D01*
X51245000Y-116859000D02*
X52300000Y-116859000D01*
X54380000Y-116859000D02*
X55435000Y-116859000D01*
X51275000Y-116819000D02*
X52300000Y-116819000D01*
X54380000Y-116819000D02*
X55405000Y-116819000D01*
X51305000Y-116779000D02*
X52300000Y-116779000D01*
X54380000Y-116779000D02*
X55375000Y-116779000D01*
X51336000Y-116739000D02*
X52300000Y-116739000D01*
X54380000Y-116739000D02*
X55344000Y-116739000D01*
X51369000Y-116699000D02*
X52300000Y-116699000D01*
X54380000Y-116699000D02*
X55311000Y-116699000D01*
X51403000Y-116659000D02*
X52300000Y-116659000D01*
X54380000Y-116659000D02*
X55277000Y-116659000D01*
X51439000Y-116619000D02*
X52300000Y-116619000D01*
X54380000Y-116619000D02*
X55241000Y-116619000D01*
X51476000Y-116579000D02*
X52300000Y-116579000D01*
X54380000Y-116579000D02*
X55204000Y-116579000D01*
X51514000Y-116539000D02*
X52300000Y-116539000D01*
X54380000Y-116539000D02*
X55166000Y-116539000D01*
X51555000Y-116499000D02*
X52300000Y-116499000D01*
X54380000Y-116499000D02*
X55125000Y-116499000D01*
X51597000Y-116459000D02*
X52300000Y-116459000D01*
X54380000Y-116459000D02*
X55083000Y-116459000D01*
X51641000Y-116419000D02*
X52300000Y-116419000D01*
X54380000Y-116419000D02*
X55039000Y-116419000D01*
X51687000Y-116379000D02*
X52300000Y-116379000D01*
X54380000Y-116379000D02*
X54993000Y-116379000D01*
X51735000Y-116339000D02*
X54945000Y-116339000D01*
X51786000Y-116299000D02*
X54894000Y-116299000D01*
X51840000Y-116259000D02*
X54840000Y-116259000D01*
X51897000Y-116219000D02*
X54783000Y-116219000D01*
X51957000Y-116179000D02*
X54723000Y-116179000D01*
X52021000Y-116139000D02*
X54659000Y-116139000D01*
X52089000Y-116099000D02*
X54591000Y-116099000D01*
X52162000Y-116059000D02*
X54518000Y-116059000D01*
X52242000Y-116019000D02*
X54438000Y-116019000D01*
X52329000Y-115979000D02*
X54351000Y-115979000D01*
X52425000Y-115939000D02*
X54255000Y-115939000D01*
X52535000Y-115899000D02*
X54145000Y-115899000D01*
X52663000Y-115859000D02*
X54017000Y-115859000D01*
X52822000Y-115819000D02*
X53858000Y-115819000D01*
X53056000Y-115779000D02*
X53624000Y-115779000D01*
X51865000Y-121184775D02*
X51865000Y-120684775D01*
X51615000Y-120934775D02*
X52115000Y-120934775D01*
%TO.C,C6*%
X108620000Y-157330000D02*
X108620000Y-150090000D01*
X112360000Y-157330000D02*
X112360000Y-150090000D01*
X108620000Y-157330000D02*
X112360000Y-157330000D01*
X108620000Y-150090000D02*
X112360000Y-150090000D01*
%TO.C,C7*%
X94580000Y-159790000D02*
X90840000Y-159790000D01*
X94580000Y-152550000D02*
X90840000Y-152550000D01*
X90840000Y-152550000D02*
X90840000Y-159790000D01*
X94580000Y-152550000D02*
X94580000Y-159790000D01*
%TO.C,U2*%
X100600000Y-135830000D02*
X98950000Y-135830000D01*
X98950000Y-135830000D02*
X98950000Y-171510000D01*
X98950000Y-171510000D02*
X104250000Y-171510000D01*
X104250000Y-171510000D02*
X104250000Y-135830000D01*
X104250000Y-135830000D02*
X102600000Y-135830000D01*
X96460000Y-135770000D02*
X96460000Y-171570000D01*
X96460000Y-171570000D02*
X106740000Y-171570000D01*
X106740000Y-171570000D02*
X106740000Y-135770000D01*
X106740000Y-135770000D02*
X96460000Y-135770000D01*
X102600000Y-135830000D02*
G75*
G02*
X100600000Y-135830000I-1000000J0D01*
G01*
%TO.C,C5*%
D10*
X57047142Y-117046666D02*
X57094761Y-117094285D01*
X57142380Y-117237142D01*
X57142380Y-117332380D01*
X57094761Y-117475238D01*
X56999523Y-117570476D01*
X56904285Y-117618095D01*
X56713809Y-117665714D01*
X56570952Y-117665714D01*
X56380476Y-117618095D01*
X56285238Y-117570476D01*
X56190000Y-117475238D01*
X56142380Y-117332380D01*
X56142380Y-117237142D01*
X56190000Y-117094285D01*
X56237619Y-117046666D01*
X56142380Y-116141904D02*
X56142380Y-116618095D01*
X56618571Y-116665714D01*
X56570952Y-116618095D01*
X56523333Y-116522857D01*
X56523333Y-116284761D01*
X56570952Y-116189523D01*
X56618571Y-116141904D01*
X56713809Y-116094285D01*
X56951904Y-116094285D01*
X57047142Y-116141904D01*
X57094761Y-116189523D01*
X57142380Y-116284761D01*
X57142380Y-116522857D01*
X57094761Y-116618095D01*
X57047142Y-116665714D01*
%TO.C,J-VCC1*%
X44609047Y-104862380D02*
X44609047Y-105576666D01*
X44561428Y-105719523D01*
X44466190Y-105814761D01*
X44323333Y-105862380D01*
X44228095Y-105862380D01*
X45085238Y-105481428D02*
X45847142Y-105481428D01*
X46180476Y-104862380D02*
X46513809Y-105862380D01*
X46847142Y-104862380D01*
X47751904Y-105767142D02*
X47704285Y-105814761D01*
X47561428Y-105862380D01*
X47466190Y-105862380D01*
X47323333Y-105814761D01*
X47228095Y-105719523D01*
X47180476Y-105624285D01*
X47132857Y-105433809D01*
X47132857Y-105290952D01*
X47180476Y-105100476D01*
X47228095Y-105005238D01*
X47323333Y-104910000D01*
X47466190Y-104862380D01*
X47561428Y-104862380D01*
X47704285Y-104910000D01*
X47751904Y-104957619D01*
X48751904Y-105767142D02*
X48704285Y-105814761D01*
X48561428Y-105862380D01*
X48466190Y-105862380D01*
X48323333Y-105814761D01*
X48228095Y-105719523D01*
X48180476Y-105624285D01*
X48132857Y-105433809D01*
X48132857Y-105290952D01*
X48180476Y-105100476D01*
X48228095Y-105005238D01*
X48323333Y-104910000D01*
X48466190Y-104862380D01*
X48561428Y-104862380D01*
X48704285Y-104910000D01*
X48751904Y-104957619D01*
X49704285Y-105862380D02*
X49132857Y-105862380D01*
X49418571Y-105862380D02*
X49418571Y-104862380D01*
X49323333Y-105005238D01*
X49228095Y-105100476D01*
X49132857Y-105148095D01*
%TO.C,J-GND1*%
X49593809Y-104862380D02*
X49593809Y-105576666D01*
X49546190Y-105719523D01*
X49450952Y-105814761D01*
X49308095Y-105862380D01*
X49212857Y-105862380D01*
X50070000Y-105481428D02*
X50831904Y-105481428D01*
X51831904Y-104910000D02*
X51736666Y-104862380D01*
X51593809Y-104862380D01*
X51450952Y-104910000D01*
X51355714Y-105005238D01*
X51308095Y-105100476D01*
X51260476Y-105290952D01*
X51260476Y-105433809D01*
X51308095Y-105624285D01*
X51355714Y-105719523D01*
X51450952Y-105814761D01*
X51593809Y-105862380D01*
X51689047Y-105862380D01*
X51831904Y-105814761D01*
X51879523Y-105767142D01*
X51879523Y-105433809D01*
X51689047Y-105433809D01*
X52308095Y-105862380D02*
X52308095Y-104862380D01*
X52879523Y-105862380D01*
X52879523Y-104862380D01*
X53355714Y-105862380D02*
X53355714Y-104862380D01*
X53593809Y-104862380D01*
X53736666Y-104910000D01*
X53831904Y-105005238D01*
X53879523Y-105100476D01*
X53927142Y-105290952D01*
X53927142Y-105433809D01*
X53879523Y-105624285D01*
X53831904Y-105719523D01*
X53736666Y-105814761D01*
X53593809Y-105862380D01*
X53355714Y-105862380D01*
X54879523Y-105862380D02*
X54308095Y-105862380D01*
X54593809Y-105862380D02*
X54593809Y-104862380D01*
X54498571Y-105005238D01*
X54403333Y-105100476D01*
X54308095Y-105148095D01*
%TO.C,SW4*%
X60634761Y-149213333D02*
X60682380Y-149070476D01*
X60682380Y-148832380D01*
X60634761Y-148737142D01*
X60587142Y-148689523D01*
X60491904Y-148641904D01*
X60396666Y-148641904D01*
X60301428Y-148689523D01*
X60253809Y-148737142D01*
X60206190Y-148832380D01*
X60158571Y-149022857D01*
X60110952Y-149118095D01*
X60063333Y-149165714D01*
X59968095Y-149213333D01*
X59872857Y-149213333D01*
X59777619Y-149165714D01*
X59730000Y-149118095D01*
X59682380Y-149022857D01*
X59682380Y-148784761D01*
X59730000Y-148641904D01*
X59682380Y-148308571D02*
X60682380Y-148070476D01*
X59968095Y-147880000D01*
X60682380Y-147689523D01*
X59682380Y-147451428D01*
X60015714Y-146641904D02*
X60682380Y-146641904D01*
X59634761Y-146880000D02*
X60349047Y-147118095D01*
X60349047Y-146499047D01*
%TO.C,R7*%
X96353333Y-104212380D02*
X96020000Y-103736190D01*
X95781904Y-104212380D02*
X95781904Y-103212380D01*
X96162857Y-103212380D01*
X96258095Y-103260000D01*
X96305714Y-103307619D01*
X96353333Y-103402857D01*
X96353333Y-103545714D01*
X96305714Y-103640952D01*
X96258095Y-103688571D01*
X96162857Y-103736190D01*
X95781904Y-103736190D01*
X96686666Y-103212380D02*
X97353333Y-103212380D01*
X96924761Y-104212380D01*
%TO.C,J3*%
X129206666Y-116062380D02*
X129206666Y-116776666D01*
X129159047Y-116919523D01*
X129063809Y-117014761D01*
X128920952Y-117062380D01*
X128825714Y-117062380D01*
X129587619Y-116062380D02*
X130206666Y-116062380D01*
X129873333Y-116443333D01*
X130016190Y-116443333D01*
X130111428Y-116490952D01*
X130159047Y-116538571D01*
X130206666Y-116633809D01*
X130206666Y-116871904D01*
X130159047Y-116967142D01*
X130111428Y-117014761D01*
X130016190Y-117062380D01*
X129730476Y-117062380D01*
X129635238Y-117014761D01*
X129587619Y-116967142D01*
%TO.C,J2*%
X87296666Y-129222380D02*
X87296666Y-129936666D01*
X87249047Y-130079523D01*
X87153809Y-130174761D01*
X87010952Y-130222380D01*
X86915714Y-130222380D01*
X87725238Y-129317619D02*
X87772857Y-129270000D01*
X87868095Y-129222380D01*
X88106190Y-129222380D01*
X88201428Y-129270000D01*
X88249047Y-129317619D01*
X88296666Y-129412857D01*
X88296666Y-129508095D01*
X88249047Y-129650952D01*
X87677619Y-130222380D01*
X88296666Y-130222380D01*
%TO.C,J1*%
X113966666Y-128762380D02*
X113966666Y-129476666D01*
X113919047Y-129619523D01*
X113823809Y-129714761D01*
X113680952Y-129762380D01*
X113585714Y-129762380D01*
X114966666Y-129762380D02*
X114395238Y-129762380D01*
X114680952Y-129762380D02*
X114680952Y-128762380D01*
X114585714Y-128905238D01*
X114490476Y-129000476D01*
X114395238Y-129048095D01*
%TO.C,Y1*%
X89861190Y-164206190D02*
X90337380Y-164206190D01*
X89337380Y-164539523D02*
X89861190Y-164206190D01*
X89337380Y-163872857D01*
X90337380Y-163015714D02*
X90337380Y-163587142D01*
X90337380Y-163301428D02*
X89337380Y-163301428D01*
X89480238Y-163396666D01*
X89575476Y-163491904D01*
X89623095Y-163587142D01*
%TO.C,U1*%
X42172380Y-120141904D02*
X42981904Y-120141904D01*
X43077142Y-120094285D01*
X43124761Y-120046666D01*
X43172380Y-119951428D01*
X43172380Y-119760952D01*
X43124761Y-119665714D01*
X43077142Y-119618095D01*
X42981904Y-119570476D01*
X42172380Y-119570476D01*
X43172380Y-118570476D02*
X43172380Y-119141904D01*
X43172380Y-118856190D02*
X42172380Y-118856190D01*
X42315238Y-118951428D01*
X42410476Y-119046666D01*
X42458095Y-119141904D01*
%TO.C,SW3*%
X70794761Y-144133333D02*
X70842380Y-143990476D01*
X70842380Y-143752380D01*
X70794761Y-143657142D01*
X70747142Y-143609523D01*
X70651904Y-143561904D01*
X70556666Y-143561904D01*
X70461428Y-143609523D01*
X70413809Y-143657142D01*
X70366190Y-143752380D01*
X70318571Y-143942857D01*
X70270952Y-144038095D01*
X70223333Y-144085714D01*
X70128095Y-144133333D01*
X70032857Y-144133333D01*
X69937619Y-144085714D01*
X69890000Y-144038095D01*
X69842380Y-143942857D01*
X69842380Y-143704761D01*
X69890000Y-143561904D01*
X69842380Y-143228571D02*
X70842380Y-142990476D01*
X70128095Y-142800000D01*
X70842380Y-142609523D01*
X69842380Y-142371428D01*
X69842380Y-142085714D02*
X69842380Y-141466666D01*
X70223333Y-141800000D01*
X70223333Y-141657142D01*
X70270952Y-141561904D01*
X70318571Y-141514285D01*
X70413809Y-141466666D01*
X70651904Y-141466666D01*
X70747142Y-141514285D01*
X70794761Y-141561904D01*
X70842380Y-141657142D01*
X70842380Y-141942857D01*
X70794761Y-142038095D01*
X70747142Y-142085714D01*
%TO.C,SW2*%
X80954761Y-139053333D02*
X81002380Y-138910476D01*
X81002380Y-138672380D01*
X80954761Y-138577142D01*
X80907142Y-138529523D01*
X80811904Y-138481904D01*
X80716666Y-138481904D01*
X80621428Y-138529523D01*
X80573809Y-138577142D01*
X80526190Y-138672380D01*
X80478571Y-138862857D01*
X80430952Y-138958095D01*
X80383333Y-139005714D01*
X80288095Y-139053333D01*
X80192857Y-139053333D01*
X80097619Y-139005714D01*
X80050000Y-138958095D01*
X80002380Y-138862857D01*
X80002380Y-138624761D01*
X80050000Y-138481904D01*
X80002380Y-138148571D02*
X81002380Y-137910476D01*
X80288095Y-137720000D01*
X81002380Y-137529523D01*
X80002380Y-137291428D01*
X80097619Y-136958095D02*
X80050000Y-136910476D01*
X80002380Y-136815238D01*
X80002380Y-136577142D01*
X80050000Y-136481904D01*
X80097619Y-136434285D01*
X80192857Y-136386666D01*
X80288095Y-136386666D01*
X80430952Y-136434285D01*
X81002380Y-137005714D01*
X81002380Y-136386666D01*
%TO.C,SW1*%
X116066666Y-114164761D02*
X116209523Y-114212380D01*
X116447619Y-114212380D01*
X116542857Y-114164761D01*
X116590476Y-114117142D01*
X116638095Y-114021904D01*
X116638095Y-113926666D01*
X116590476Y-113831428D01*
X116542857Y-113783809D01*
X116447619Y-113736190D01*
X116257142Y-113688571D01*
X116161904Y-113640952D01*
X116114285Y-113593333D01*
X116066666Y-113498095D01*
X116066666Y-113402857D01*
X116114285Y-113307619D01*
X116161904Y-113260000D01*
X116257142Y-113212380D01*
X116495238Y-113212380D01*
X116638095Y-113260000D01*
X116971428Y-113212380D02*
X117209523Y-114212380D01*
X117400000Y-113498095D01*
X117590476Y-114212380D01*
X117828571Y-113212380D01*
X118733333Y-114212380D02*
X118161904Y-114212380D01*
X118447619Y-114212380D02*
X118447619Y-113212380D01*
X118352380Y-113355238D01*
X118257142Y-113450476D01*
X118161904Y-113498095D01*
%TO.C,R6*%
X69412380Y-114466666D02*
X68936190Y-114800000D01*
X69412380Y-115038095D02*
X68412380Y-115038095D01*
X68412380Y-114657142D01*
X68460000Y-114561904D01*
X68507619Y-114514285D01*
X68602857Y-114466666D01*
X68745714Y-114466666D01*
X68840952Y-114514285D01*
X68888571Y-114561904D01*
X68936190Y-114657142D01*
X68936190Y-115038095D01*
X68412380Y-113609523D02*
X68412380Y-113800000D01*
X68460000Y-113895238D01*
X68507619Y-113942857D01*
X68650476Y-114038095D01*
X68840952Y-114085714D01*
X69221904Y-114085714D01*
X69317142Y-114038095D01*
X69364761Y-113990476D01*
X69412380Y-113895238D01*
X69412380Y-113704761D01*
X69364761Y-113609523D01*
X69317142Y-113561904D01*
X69221904Y-113514285D01*
X68983809Y-113514285D01*
X68888571Y-113561904D01*
X68840952Y-113609523D01*
X68793333Y-113704761D01*
X68793333Y-113895238D01*
X68840952Y-113990476D01*
X68888571Y-114038095D01*
X68983809Y-114085714D01*
%TO.C,R5*%
X77032380Y-114466666D02*
X76556190Y-114800000D01*
X77032380Y-115038095D02*
X76032380Y-115038095D01*
X76032380Y-114657142D01*
X76080000Y-114561904D01*
X76127619Y-114514285D01*
X76222857Y-114466666D01*
X76365714Y-114466666D01*
X76460952Y-114514285D01*
X76508571Y-114561904D01*
X76556190Y-114657142D01*
X76556190Y-115038095D01*
X76032380Y-113561904D02*
X76032380Y-114038095D01*
X76508571Y-114085714D01*
X76460952Y-114038095D01*
X76413333Y-113942857D01*
X76413333Y-113704761D01*
X76460952Y-113609523D01*
X76508571Y-113561904D01*
X76603809Y-113514285D01*
X76841904Y-113514285D01*
X76937142Y-113561904D01*
X76984761Y-113609523D01*
X77032380Y-113704761D01*
X77032380Y-113942857D01*
X76984761Y-114038095D01*
X76937142Y-114085714D01*
%TO.C,R4*%
X84652380Y-114466666D02*
X84176190Y-114800000D01*
X84652380Y-115038095D02*
X83652380Y-115038095D01*
X83652380Y-114657142D01*
X83700000Y-114561904D01*
X83747619Y-114514285D01*
X83842857Y-114466666D01*
X83985714Y-114466666D01*
X84080952Y-114514285D01*
X84128571Y-114561904D01*
X84176190Y-114657142D01*
X84176190Y-115038095D01*
X83985714Y-113609523D02*
X84652380Y-113609523D01*
X83604761Y-113847619D02*
X84319047Y-114085714D01*
X84319047Y-113466666D01*
%TO.C,R3*%
X59252380Y-153836666D02*
X58776190Y-154170000D01*
X59252380Y-154408095D02*
X58252380Y-154408095D01*
X58252380Y-154027142D01*
X58300000Y-153931904D01*
X58347619Y-153884285D01*
X58442857Y-153836666D01*
X58585714Y-153836666D01*
X58680952Y-153884285D01*
X58728571Y-153931904D01*
X58776190Y-154027142D01*
X58776190Y-154408095D01*
X58252380Y-153503333D02*
X58252380Y-152884285D01*
X58633333Y-153217619D01*
X58633333Y-153074761D01*
X58680952Y-152979523D01*
X58728571Y-152931904D01*
X58823809Y-152884285D01*
X59061904Y-152884285D01*
X59157142Y-152931904D01*
X59204761Y-152979523D01*
X59252380Y-153074761D01*
X59252380Y-153360476D01*
X59204761Y-153455714D01*
X59157142Y-153503333D01*
%TO.C,R2*%
X51903333Y-135962380D02*
X51570000Y-135486190D01*
X51331904Y-135962380D02*
X51331904Y-134962380D01*
X51712857Y-134962380D01*
X51808095Y-135010000D01*
X51855714Y-135057619D01*
X51903333Y-135152857D01*
X51903333Y-135295714D01*
X51855714Y-135390952D01*
X51808095Y-135438571D01*
X51712857Y-135486190D01*
X51331904Y-135486190D01*
X52284285Y-135057619D02*
X52331904Y-135010000D01*
X52427142Y-134962380D01*
X52665238Y-134962380D01*
X52760476Y-135010000D01*
X52808095Y-135057619D01*
X52855714Y-135152857D01*
X52855714Y-135248095D01*
X52808095Y-135390952D01*
X52236666Y-135962380D01*
X52855714Y-135962380D01*
%TO.C,R1*%
X51903333Y-134182380D02*
X51570000Y-133706190D01*
X51331904Y-134182380D02*
X51331904Y-133182380D01*
X51712857Y-133182380D01*
X51808095Y-133230000D01*
X51855714Y-133277619D01*
X51903333Y-133372857D01*
X51903333Y-133515714D01*
X51855714Y-133610952D01*
X51808095Y-133658571D01*
X51712857Y-133706190D01*
X51331904Y-133706190D01*
X52855714Y-134182380D02*
X52284285Y-134182380D01*
X52570000Y-134182380D02*
X52570000Y-133182380D01*
X52474761Y-133325238D01*
X52379523Y-133420476D01*
X52284285Y-133468095D01*
%TO.C,D2*%
X43512380Y-121388095D02*
X42512380Y-121388095D01*
X42512380Y-121150000D01*
X42560000Y-121007142D01*
X42655238Y-120911904D01*
X42750476Y-120864285D01*
X42940952Y-120816666D01*
X43083809Y-120816666D01*
X43274285Y-120864285D01*
X43369523Y-120911904D01*
X43464761Y-121007142D01*
X43512380Y-121150000D01*
X43512380Y-121388095D01*
X42607619Y-120435714D02*
X42560000Y-120388095D01*
X42512380Y-120292857D01*
X42512380Y-120054761D01*
X42560000Y-119959523D01*
X42607619Y-119911904D01*
X42702857Y-119864285D01*
X42798095Y-119864285D01*
X42940952Y-119911904D01*
X43512380Y-120483333D01*
X43512380Y-119864285D01*
X43092380Y-118371904D02*
X42092380Y-118371904D01*
X43092380Y-117800476D02*
X42520952Y-118229047D01*
X42092380Y-117800476D02*
X42663809Y-118371904D01*
%TO.C,D1*%
X55141904Y-164132380D02*
X55141904Y-163132380D01*
X55380000Y-163132380D01*
X55522857Y-163180000D01*
X55618095Y-163275238D01*
X55665714Y-163370476D01*
X55713333Y-163560952D01*
X55713333Y-163703809D01*
X55665714Y-163894285D01*
X55618095Y-163989523D01*
X55522857Y-164084761D01*
X55380000Y-164132380D01*
X55141904Y-164132380D01*
X56665714Y-164132380D02*
X56094285Y-164132380D01*
X56380000Y-164132380D02*
X56380000Y-163132380D01*
X56284761Y-163275238D01*
X56189523Y-163370476D01*
X56094285Y-163418095D01*
%TO.C,C1*%
X77263333Y-158647142D02*
X77215714Y-158694761D01*
X77072857Y-158742380D01*
X76977619Y-158742380D01*
X76834761Y-158694761D01*
X76739523Y-158599523D01*
X76691904Y-158504285D01*
X76644285Y-158313809D01*
X76644285Y-158170952D01*
X76691904Y-157980476D01*
X76739523Y-157885238D01*
X76834761Y-157790000D01*
X76977619Y-157742380D01*
X77072857Y-157742380D01*
X77215714Y-157790000D01*
X77263333Y-157837619D01*
X78215714Y-158742380D02*
X77644285Y-158742380D01*
X77930000Y-158742380D02*
X77930000Y-157742380D01*
X77834761Y-157885238D01*
X77739523Y-157980476D01*
X77644285Y-158028095D01*
%TO.C,C2*%
X77263333Y-163727142D02*
X77215714Y-163774761D01*
X77072857Y-163822380D01*
X76977619Y-163822380D01*
X76834761Y-163774761D01*
X76739523Y-163679523D01*
X76691904Y-163584285D01*
X76644285Y-163393809D01*
X76644285Y-163250952D01*
X76691904Y-163060476D01*
X76739523Y-162965238D01*
X76834761Y-162870000D01*
X76977619Y-162822380D01*
X77072857Y-162822380D01*
X77215714Y-162870000D01*
X77263333Y-162917619D01*
X77644285Y-162917619D02*
X77691904Y-162870000D01*
X77787142Y-162822380D01*
X78025238Y-162822380D01*
X78120476Y-162870000D01*
X78168095Y-162917619D01*
X78215714Y-163012857D01*
X78215714Y-163108095D01*
X78168095Y-163250952D01*
X77596666Y-163822380D01*
X78215714Y-163822380D01*
%TO.C,C3*%
X37997142Y-110696666D02*
X38044761Y-110744285D01*
X38092380Y-110887142D01*
X38092380Y-110982380D01*
X38044761Y-111125238D01*
X37949523Y-111220476D01*
X37854285Y-111268095D01*
X37663809Y-111315714D01*
X37520952Y-111315714D01*
X37330476Y-111268095D01*
X37235238Y-111220476D01*
X37140000Y-111125238D01*
X37092380Y-110982380D01*
X37092380Y-110887142D01*
X37140000Y-110744285D01*
X37187619Y-110696666D01*
X37092380Y-110363333D02*
X37092380Y-109744285D01*
X37473333Y-110077619D01*
X37473333Y-109934761D01*
X37520952Y-109839523D01*
X37568571Y-109791904D01*
X37663809Y-109744285D01*
X37901904Y-109744285D01*
X37997142Y-109791904D01*
X38044761Y-109839523D01*
X38092380Y-109934761D01*
X38092380Y-110220476D01*
X38044761Y-110315714D01*
X37997142Y-110363333D01*
%TO.C,C4*%
X49947142Y-118546666D02*
X49994761Y-118594285D01*
X50042380Y-118737142D01*
X50042380Y-118832380D01*
X49994761Y-118975238D01*
X49899523Y-119070476D01*
X49804285Y-119118095D01*
X49613809Y-119165714D01*
X49470952Y-119165714D01*
X49280476Y-119118095D01*
X49185238Y-119070476D01*
X49090000Y-118975238D01*
X49042380Y-118832380D01*
X49042380Y-118737142D01*
X49090000Y-118594285D01*
X49137619Y-118546666D01*
X49375714Y-117689523D02*
X50042380Y-117689523D01*
X48994761Y-117927619D02*
X49709047Y-118165714D01*
X49709047Y-117546666D01*
%TO.C,C6*%
X107847142Y-153876666D02*
X107894761Y-153924285D01*
X107942380Y-154067142D01*
X107942380Y-154162380D01*
X107894761Y-154305238D01*
X107799523Y-154400476D01*
X107704285Y-154448095D01*
X107513809Y-154495714D01*
X107370952Y-154495714D01*
X107180476Y-154448095D01*
X107085238Y-154400476D01*
X106990000Y-154305238D01*
X106942380Y-154162380D01*
X106942380Y-154067142D01*
X106990000Y-153924285D01*
X107037619Y-153876666D01*
X106942380Y-153019523D02*
X106942380Y-153210000D01*
X106990000Y-153305238D01*
X107037619Y-153352857D01*
X107180476Y-153448095D01*
X107370952Y-153495714D01*
X107751904Y-153495714D01*
X107847142Y-153448095D01*
X107894761Y-153400476D01*
X107942380Y-153305238D01*
X107942380Y-153114761D01*
X107894761Y-153019523D01*
X107847142Y-152971904D01*
X107751904Y-152924285D01*
X107513809Y-152924285D01*
X107418571Y-152971904D01*
X107370952Y-153019523D01*
X107323333Y-153114761D01*
X107323333Y-153305238D01*
X107370952Y-153400476D01*
X107418571Y-153448095D01*
X107513809Y-153495714D01*
%TO.C,C7*%
X96067142Y-156336666D02*
X96114761Y-156384285D01*
X96162380Y-156527142D01*
X96162380Y-156622380D01*
X96114761Y-156765238D01*
X96019523Y-156860476D01*
X95924285Y-156908095D01*
X95733809Y-156955714D01*
X95590952Y-156955714D01*
X95400476Y-156908095D01*
X95305238Y-156860476D01*
X95210000Y-156765238D01*
X95162380Y-156622380D01*
X95162380Y-156527142D01*
X95210000Y-156384285D01*
X95257619Y-156336666D01*
X95162380Y-156003333D02*
X95162380Y-155336666D01*
X96162380Y-155765238D01*
%TO.C,U2*%
X100838095Y-134282380D02*
X100838095Y-135091904D01*
X100885714Y-135187142D01*
X100933333Y-135234761D01*
X101028571Y-135282380D01*
X101219047Y-135282380D01*
X101314285Y-135234761D01*
X101361904Y-135187142D01*
X101409523Y-135091904D01*
X101409523Y-134282380D01*
X101838095Y-134377619D02*
X101885714Y-134330000D01*
X101980952Y-134282380D01*
X102219047Y-134282380D01*
X102314285Y-134330000D01*
X102361904Y-134377619D01*
X102409523Y-134472857D01*
X102409523Y-134568095D01*
X102361904Y-134710952D01*
X101790476Y-135282380D01*
X102409523Y-135282380D01*
%TD*%
M02*
