%TF.GenerationSoftware,KiCad,Pcbnew,(5.1.6)-1*%
%TF.CreationDate,2020-09-16T20:36:39+02:00*%
%TF.ProjectId,Basic_Clock,42617369-635f-4436-9c6f-636b2e6b6963,rev?*%
%TF.SameCoordinates,Original*%
%TF.FileFunction,Soldermask,Bot*%
%TF.FilePolarity,Negative*%
%FSLAX46Y46*%
G04 Gerber Fmt 4.6, Leading zero omitted, Abs format (unit mm)*
G04 Created by KiCad (PCBNEW (5.1.6)-1) date 2020-09-16 20:36:39*
%MOMM*%
%LPD*%
G01*
G04 APERTURE LIST*
%ADD10C,1.700000*%
%ADD11C,2.098980*%
%ADD12C,2.100000*%
%ADD13O,2.500000X2.500000*%
%ADD14C,2.500000*%
%ADD15O,1.800000X1.800000*%
%ADD16R,1.800000X1.800000*%
%ADD17C,1.600000*%
%ADD18O,2.100000X2.005000*%
%ADD19R,2.100000X2.005000*%
%ADD20O,2.100000X2.100000*%
%ADD21R,2.100000X2.100000*%
%ADD22C,1.900000*%
%ADD23R,1.900000X1.900000*%
%ADD24R,1.700000X1.700000*%
%ADD25O,1.700000X1.700000*%
G04 APERTURE END LIST*
D10*
%TO.C,C5*%
X59690000Y-114380000D03*
X59690000Y-119380000D03*
%TD*%
D11*
%TO.C,J-VCC1*%
X46990000Y-107950000D03*
%TD*%
%TO.C,J-GND1*%
X52070000Y-107950000D03*
%TD*%
D12*
%TO.C,SW4*%
X62230000Y-144630000D03*
X66730000Y-144630000D03*
X62230000Y-151130000D03*
X66730000Y-151130000D03*
%TD*%
D13*
%TO.C,R7*%
X104140000Y-106680000D03*
D14*
X88900000Y-106680000D03*
%TD*%
D15*
%TO.C,J3*%
X129540000Y-127000000D03*
X129540000Y-124460000D03*
X129540000Y-121920000D03*
D16*
X129540000Y-119380000D03*
%TD*%
D15*
%TO.C,J2*%
X87630000Y-119380000D03*
X87630000Y-121920000D03*
X87630000Y-124460000D03*
D16*
X87630000Y-127000000D03*
%TD*%
D15*
%TO.C,J1*%
X114300000Y-139700000D03*
X114300000Y-137160000D03*
X114300000Y-134620000D03*
D16*
X114300000Y-132080000D03*
%TD*%
D17*
%TO.C,Y1*%
X86360000Y-166170000D03*
X86360000Y-161290000D03*
%TD*%
D18*
%TO.C,U1*%
X46990000Y-116840000D03*
X46990000Y-119380000D03*
D19*
X46990000Y-121920000D03*
%TD*%
D12*
%TO.C,SW3*%
X72390000Y-139550000D03*
X76890000Y-139550000D03*
X72390000Y-146050000D03*
X76890000Y-146050000D03*
%TD*%
%TO.C,SW2*%
X82550000Y-134470000D03*
X87050000Y-134470000D03*
X82550000Y-140970000D03*
X87050000Y-140970000D03*
%TD*%
%TO.C,SW1*%
X114150000Y-111760000D03*
X114150000Y-107260000D03*
X120650000Y-111760000D03*
X120650000Y-107260000D03*
%TD*%
D13*
%TO.C,R6*%
X66040000Y-121920000D03*
D14*
X66040000Y-106680000D03*
%TD*%
D13*
%TO.C,R5*%
X73660000Y-121920000D03*
D14*
X73660000Y-106680000D03*
%TD*%
D13*
%TO.C,R4*%
X81280000Y-121920000D03*
D14*
X81280000Y-106680000D03*
%TD*%
D13*
%TO.C,R3*%
X55880000Y-161290000D03*
D14*
X55880000Y-146050000D03*
%TD*%
D13*
%TO.C,R2*%
X59690000Y-138430000D03*
D14*
X44450000Y-138430000D03*
%TD*%
D13*
%TO.C,R1*%
X44450000Y-130810000D03*
D14*
X59690000Y-130810000D03*
%TD*%
D20*
%TO.C,D2*%
X40640000Y-123190000D03*
D21*
X40640000Y-118110000D03*
%TD*%
D22*
%TO.C,D1*%
X57150000Y-167640000D03*
D23*
X54610000Y-167640000D03*
%TD*%
D10*
%TO.C,C1*%
X79930000Y-161290000D03*
X74930000Y-161290000D03*
%TD*%
%TO.C,C2*%
X74930000Y-166370000D03*
X79930000Y-166370000D03*
%TD*%
%TO.C,C3*%
X40640000Y-113030000D03*
X40640000Y-108030000D03*
%TD*%
D24*
%TO.C,C4*%
X53340000Y-119380000D03*
D10*
X53340000Y-117380000D03*
%TD*%
%TO.C,C6*%
X110490000Y-156210000D03*
X110490000Y-151210000D03*
%TD*%
%TO.C,C7*%
X92710000Y-158670000D03*
X92710000Y-153670000D03*
%TD*%
D24*
%TO.C,U2*%
X97790000Y-137160000D03*
D25*
X105410000Y-170180000D03*
X97790000Y-139700000D03*
X105410000Y-167640000D03*
X97790000Y-142240000D03*
X105410000Y-165100000D03*
X97790000Y-144780000D03*
X105410000Y-162560000D03*
X97790000Y-147320000D03*
X105410000Y-160020000D03*
X97790000Y-149860000D03*
X105410000Y-157480000D03*
X97790000Y-152400000D03*
X105410000Y-154940000D03*
X97790000Y-154940000D03*
X105410000Y-152400000D03*
X97790000Y-157480000D03*
X105410000Y-149860000D03*
X97790000Y-160020000D03*
X105410000Y-147320000D03*
X97790000Y-162560000D03*
X105410000Y-144780000D03*
X97790000Y-165100000D03*
X105410000Y-142240000D03*
X97790000Y-167640000D03*
X105410000Y-139700000D03*
X97790000Y-170180000D03*
X105410000Y-137160000D03*
%TD*%
M02*
