%TF.GenerationSoftware,KiCad,Pcbnew,(5.1.6)-1*%
%TF.CreationDate,2020-09-16T20:36:39+02:00*%
%TF.ProjectId,Basic_Clock,42617369-635f-4436-9c6f-636b2e6b6963,rev?*%
%TF.SameCoordinates,Original*%
%TF.FileFunction,Copper,L1,Top*%
%TF.FilePolarity,Positive*%
%FSLAX46Y46*%
G04 Gerber Fmt 4.6, Leading zero omitted, Abs format (unit mm)*
G04 Created by KiCad (PCBNEW (5.1.6)-1) date 2020-09-16 20:36:39*
%MOMM*%
%LPD*%
G01*
G04 APERTURE LIST*
%TA.AperFunction,ComponentPad*%
%ADD10C,1.600000*%
%TD*%
%TA.AperFunction,ComponentPad*%
%ADD11C,1.998980*%
%TD*%
%TA.AperFunction,ComponentPad*%
%ADD12C,2.000000*%
%TD*%
%TA.AperFunction,ComponentPad*%
%ADD13O,2.400000X2.400000*%
%TD*%
%TA.AperFunction,ComponentPad*%
%ADD14C,2.400000*%
%TD*%
%TA.AperFunction,ComponentPad*%
%ADD15O,1.700000X1.700000*%
%TD*%
%TA.AperFunction,ComponentPad*%
%ADD16R,1.700000X1.700000*%
%TD*%
%TA.AperFunction,ComponentPad*%
%ADD17C,1.500000*%
%TD*%
%TA.AperFunction,ComponentPad*%
%ADD18O,2.000000X1.905000*%
%TD*%
%TA.AperFunction,ComponentPad*%
%ADD19R,2.000000X1.905000*%
%TD*%
%TA.AperFunction,ComponentPad*%
%ADD20O,2.000000X2.000000*%
%TD*%
%TA.AperFunction,ComponentPad*%
%ADD21R,2.000000X2.000000*%
%TD*%
%TA.AperFunction,ComponentPad*%
%ADD22C,1.800000*%
%TD*%
%TA.AperFunction,ComponentPad*%
%ADD23R,1.800000X1.800000*%
%TD*%
%TA.AperFunction,ComponentPad*%
%ADD24R,1.600000X1.600000*%
%TD*%
%TA.AperFunction,ComponentPad*%
%ADD25O,1.600000X1.600000*%
%TD*%
%TA.AperFunction,ViaPad*%
%ADD26C,0.800000*%
%TD*%
%TA.AperFunction,Conductor*%
%ADD27C,0.250000*%
%TD*%
%TA.AperFunction,Conductor*%
%ADD28C,0.500000*%
%TD*%
%TA.AperFunction,Conductor*%
%ADD29C,0.254000*%
%TD*%
G04 APERTURE END LIST*
D10*
%TO.P,C5,2*%
%TO.N,Net-(C5-Pad2)*%
X59690000Y-114380000D03*
%TO.P,C5,1*%
%TO.N,+5V*%
X59690000Y-119380000D03*
%TD*%
D11*
%TO.P,J-VCC1,1*%
%TO.N,+28V*%
X46990000Y-107950000D03*
%TD*%
%TO.P,J-GND1,1*%
%TO.N,GND*%
X52070000Y-107950000D03*
%TD*%
D12*
%TO.P,SW4,1*%
%TO.N,GND*%
X62230000Y-144630000D03*
%TO.P,SW4,2*%
%TO.N,/PIN4*%
X66730000Y-144630000D03*
%TO.P,SW4,1*%
%TO.N,GND*%
X62230000Y-151130000D03*
%TO.P,SW4,2*%
%TO.N,/PIN4*%
X66730000Y-151130000D03*
%TD*%
D13*
%TO.P,R7,2*%
%TO.N,Net-(R7-Pad2)*%
X104140000Y-106680000D03*
D14*
%TO.P,R7,1*%
%TO.N,+5V*%
X88900000Y-106680000D03*
%TD*%
D15*
%TO.P,J3,4*%
%TO.N,GND*%
X129540000Y-127000000D03*
%TO.P,J3,3*%
%TO.N,Net-(J3-Pad3)*%
X129540000Y-124460000D03*
%TO.P,J3,2*%
%TO.N,Net-(J3-Pad2)*%
X129540000Y-121920000D03*
D16*
%TO.P,J3,1*%
%TO.N,+5V*%
X129540000Y-119380000D03*
%TD*%
D15*
%TO.P,J2,4*%
%TO.N,/RXD*%
X87630000Y-119380000D03*
%TO.P,J2,3*%
%TO.N,/RE*%
X87630000Y-121920000D03*
%TO.P,J2,2*%
%TO.N,/DE*%
X87630000Y-124460000D03*
D16*
%TO.P,J2,1*%
%TO.N,/TXD*%
X87630000Y-127000000D03*
%TD*%
D15*
%TO.P,J1,4*%
%TO.N,/SDA*%
X114300000Y-139700000D03*
%TO.P,J1,3*%
%TO.N,/SCL*%
X114300000Y-137160000D03*
%TO.P,J1,2*%
%TO.N,GND*%
X114300000Y-134620000D03*
D16*
%TO.P,J1,1*%
%TO.N,+5V*%
X114300000Y-132080000D03*
%TD*%
D17*
%TO.P,Y1,2*%
%TO.N,Net-(C2-Pad2)*%
X86360000Y-166170000D03*
%TO.P,Y1,1*%
%TO.N,Net-(C1-Pad2)*%
X86360000Y-161290000D03*
%TD*%
D18*
%TO.P,U1,3*%
%TO.N,+28V*%
X46990000Y-116840000D03*
%TO.P,U1,2*%
%TO.N,+5V*%
X46990000Y-119380000D03*
D19*
%TO.P,U1,1*%
%TO.N,Net-(R1-Pad2)*%
X46990000Y-121920000D03*
%TD*%
D12*
%TO.P,SW3,1*%
%TO.N,GND*%
X72390000Y-139550000D03*
%TO.P,SW3,2*%
%TO.N,/PIN3*%
X76890000Y-139550000D03*
%TO.P,SW3,1*%
%TO.N,GND*%
X72390000Y-146050000D03*
%TO.P,SW3,2*%
%TO.N,/PIN3*%
X76890000Y-146050000D03*
%TD*%
%TO.P,SW2,1*%
%TO.N,GND*%
X82550000Y-134470000D03*
%TO.P,SW2,2*%
%TO.N,/PIN2*%
X87050000Y-134470000D03*
%TO.P,SW2,1*%
%TO.N,GND*%
X82550000Y-140970000D03*
%TO.P,SW2,2*%
%TO.N,/PIN2*%
X87050000Y-140970000D03*
%TD*%
%TO.P,SW1,1*%
%TO.N,Net-(R7-Pad2)*%
X114150000Y-111760000D03*
%TO.P,SW1,2*%
%TO.N,GND*%
X114150000Y-107260000D03*
%TO.P,SW1,1*%
%TO.N,Net-(R7-Pad2)*%
X120650000Y-111760000D03*
%TO.P,SW1,2*%
%TO.N,GND*%
X120650000Y-107260000D03*
%TD*%
D13*
%TO.P,R6,2*%
%TO.N,/PIN4*%
X66040000Y-121920000D03*
D14*
%TO.P,R6,1*%
%TO.N,+5V*%
X66040000Y-106680000D03*
%TD*%
D13*
%TO.P,R5,2*%
%TO.N,/PIN3*%
X73660000Y-121920000D03*
D14*
%TO.P,R5,1*%
%TO.N,+5V*%
X73660000Y-106680000D03*
%TD*%
D13*
%TO.P,R4,2*%
%TO.N,/PIN2*%
X81280000Y-121920000D03*
D14*
%TO.P,R4,1*%
%TO.N,+5V*%
X81280000Y-106680000D03*
%TD*%
D13*
%TO.P,R3,2*%
%TO.N,Net-(D1-Pad2)*%
X55880000Y-161290000D03*
D14*
%TO.P,R3,1*%
%TO.N,+5V*%
X55880000Y-146050000D03*
%TD*%
D13*
%TO.P,R2,2*%
%TO.N,GND*%
X59690000Y-138430000D03*
D14*
%TO.P,R2,1*%
%TO.N,Net-(R1-Pad2)*%
X44450000Y-138430000D03*
%TD*%
D13*
%TO.P,R1,2*%
%TO.N,Net-(R1-Pad2)*%
X44450000Y-130810000D03*
D14*
%TO.P,R1,1*%
%TO.N,+5V*%
X59690000Y-130810000D03*
%TD*%
D20*
%TO.P,D2,2*%
%TO.N,+5V*%
X40640000Y-123190000D03*
D21*
%TO.P,D2,1*%
%TO.N,+28V*%
X40640000Y-118110000D03*
%TD*%
D22*
%TO.P,D1,2*%
%TO.N,Net-(D1-Pad2)*%
X57150000Y-167640000D03*
D23*
%TO.P,D1,1*%
%TO.N,GND*%
X54610000Y-167640000D03*
%TD*%
D10*
%TO.P,C1,2*%
%TO.N,Net-(C1-Pad2)*%
X79930000Y-161290000D03*
%TO.P,C1,1*%
%TO.N,GND*%
X74930000Y-161290000D03*
%TD*%
%TO.P,C2,1*%
%TO.N,GND*%
X74930000Y-166370000D03*
%TO.P,C2,2*%
%TO.N,Net-(C2-Pad2)*%
X79930000Y-166370000D03*
%TD*%
%TO.P,C3,1*%
%TO.N,+28V*%
X40640000Y-113030000D03*
%TO.P,C3,2*%
%TO.N,GND*%
X40640000Y-108030000D03*
%TD*%
D24*
%TO.P,C4,1*%
%TO.N,+5V*%
X53340000Y-119380000D03*
D10*
%TO.P,C4,2*%
%TO.N,GND*%
X53340000Y-117380000D03*
%TD*%
%TO.P,C6,1*%
%TO.N,+5V*%
X110490000Y-156210000D03*
%TO.P,C6,2*%
%TO.N,GND*%
X110490000Y-151210000D03*
%TD*%
%TO.P,C7,2*%
%TO.N,GND*%
X92710000Y-158670000D03*
%TO.P,C7,1*%
%TO.N,+5V*%
X92710000Y-153670000D03*
%TD*%
D24*
%TO.P,U2,1*%
%TO.N,Net-(R7-Pad2)*%
X97790000Y-137160000D03*
D25*
%TO.P,U2,15*%
%TO.N,GND*%
X105410000Y-170180000D03*
%TO.P,U2,2*%
%TO.N,/RXD*%
X97790000Y-139700000D03*
%TO.P,U2,16*%
%TO.N,GND*%
X105410000Y-167640000D03*
%TO.P,U2,3*%
%TO.N,/TXD*%
X97790000Y-142240000D03*
%TO.P,U2,17*%
%TO.N,GND*%
X105410000Y-165100000D03*
%TO.P,U2,4*%
%TO.N,/PIN2*%
X97790000Y-144780000D03*
%TO.P,U2,18*%
%TO.N,GND*%
X105410000Y-162560000D03*
%TO.P,U2,5*%
%TO.N,/PIN3*%
X97790000Y-147320000D03*
%TO.P,U2,19*%
%TO.N,GND*%
X105410000Y-160020000D03*
%TO.P,U2,6*%
%TO.N,/PIN4*%
X97790000Y-149860000D03*
%TO.P,U2,20*%
%TO.N,+5V*%
X105410000Y-157480000D03*
%TO.P,U2,7*%
X97790000Y-152400000D03*
%TO.P,U2,21*%
%TO.N,Net-(U2-Pad21)*%
X105410000Y-154940000D03*
%TO.P,U2,8*%
%TO.N,GND*%
X97790000Y-154940000D03*
%TO.P,U2,22*%
X105410000Y-152400000D03*
%TO.P,U2,9*%
%TO.N,Net-(C1-Pad2)*%
X97790000Y-157480000D03*
%TO.P,U2,23*%
%TO.N,GND*%
X105410000Y-149860000D03*
%TO.P,U2,10*%
%TO.N,Net-(C2-Pad2)*%
X97790000Y-160020000D03*
%TO.P,U2,24*%
%TO.N,GND*%
X105410000Y-147320000D03*
%TO.P,U2,11*%
X97790000Y-162560000D03*
%TO.P,U2,25*%
%TO.N,/RE*%
X105410000Y-144780000D03*
%TO.P,U2,12*%
%TO.N,GND*%
X97790000Y-165100000D03*
%TO.P,U2,26*%
%TO.N,/DE*%
X105410000Y-142240000D03*
%TO.P,U2,13*%
%TO.N,GND*%
X97790000Y-167640000D03*
%TO.P,U2,27*%
%TO.N,/SDA*%
X105410000Y-139700000D03*
%TO.P,U2,14*%
%TO.N,GND*%
X97790000Y-170180000D03*
%TO.P,U2,28*%
%TO.N,/SCL*%
X105410000Y-137160000D03*
%TD*%
D26*
%TO.N,GND*%
X105410000Y-167640000D03*
X105410000Y-170180000D03*
%TO.N,+5V*%
X97790000Y-152400000D03*
X105410000Y-157480000D03*
%TO.N,/DE*%
X87630000Y-124460000D03*
%TD*%
D27*
%TO.N,Net-(C1-Pad2)*%
X86360000Y-161290000D02*
X86360000Y-161050000D01*
X93980000Y-161290000D02*
X97790000Y-157480000D01*
X86360000Y-161290000D02*
X93980000Y-161290000D01*
X79930000Y-161290000D02*
X86360000Y-161290000D01*
%TO.N,GND*%
X52070000Y-116110000D02*
X53340000Y-117380000D01*
X52070000Y-107950000D02*
X52070000Y-116110000D01*
X109300000Y-152400000D02*
X110490000Y-151210000D01*
X105410000Y-152400000D02*
X109300000Y-152400000D01*
X94060000Y-158670000D02*
X97790000Y-154940000D01*
X92710000Y-158670000D02*
X94060000Y-158670000D01*
%TO.N,Net-(C2-Pad2)*%
X97590000Y-159820000D02*
X97790000Y-160020000D01*
X91640000Y-166170000D02*
X97790000Y-160020000D01*
X86360000Y-166170000D02*
X91640000Y-166170000D01*
X86160000Y-166370000D02*
X86360000Y-166170000D01*
X79930000Y-166370000D02*
X86160000Y-166370000D01*
%TO.N,+28V*%
X41910000Y-113030000D02*
X40640000Y-113030000D01*
D28*
X46990000Y-107950000D02*
X41910000Y-113030000D01*
X40640000Y-113030000D02*
X40640000Y-118110000D01*
X43180000Y-113030000D02*
X46990000Y-116840000D01*
X40640000Y-113030000D02*
X43180000Y-113030000D01*
D27*
%TO.N,+5V*%
X116840000Y-132080000D02*
X129540000Y-119380000D01*
X114300000Y-132080000D02*
X116840000Y-132080000D01*
X53340000Y-119380000D02*
X46990000Y-119380000D01*
X45727501Y-120642499D02*
X46990000Y-119380000D01*
X43187501Y-120642499D02*
X45727501Y-120642499D01*
X40640000Y-123190000D02*
X43187501Y-120642499D01*
X106680000Y-156210000D02*
X105410000Y-157480000D01*
X110490000Y-156210000D02*
X106680000Y-156210000D01*
X96520000Y-153670000D02*
X97790000Y-152400000D01*
X92710000Y-153670000D02*
X96520000Y-153670000D01*
%TO.N,Net-(D1-Pad2)*%
X55880000Y-166370000D02*
X57150000Y-167640000D01*
X55880000Y-161290000D02*
X55880000Y-166370000D01*
%TO.N,Net-(R1-Pad2)*%
X46990000Y-123190000D02*
X46990000Y-121920000D01*
X44450000Y-130810000D02*
X44450000Y-138430000D01*
X46990000Y-128270000D02*
X44450000Y-130810000D01*
X46990000Y-121920000D02*
X46990000Y-128270000D01*
%TO.N,/PIN2*%
X87050000Y-134470000D02*
X87050000Y-140970000D01*
X93980000Y-140970000D02*
X97790000Y-144780000D01*
X87050000Y-140970000D02*
X93980000Y-140970000D01*
X81280000Y-128700000D02*
X87050000Y-134470000D01*
X81280000Y-121920000D02*
X81280000Y-128700000D01*
%TO.N,/PIN3*%
X76890000Y-139550000D02*
X76890000Y-146050000D01*
X96520000Y-146050000D02*
X97790000Y-147320000D01*
X76890000Y-146050000D02*
X96520000Y-146050000D01*
X73660000Y-136320000D02*
X76890000Y-139550000D01*
X73660000Y-121920000D02*
X73660000Y-136320000D01*
%TO.N,/PIN4*%
X66730000Y-144630000D02*
X66730000Y-151130000D01*
X96520000Y-151130000D02*
X97790000Y-149860000D01*
X66730000Y-151130000D02*
X96520000Y-151130000D01*
X66040000Y-143940000D02*
X66730000Y-144630000D01*
X66040000Y-121920000D02*
X66040000Y-143940000D01*
%TO.N,/SCL*%
X105410000Y-137160000D02*
X110490000Y-137160000D01*
X110490000Y-137160000D02*
X114300000Y-137160000D01*
%TO.N,/SDA*%
X105410000Y-139700000D02*
X110490000Y-139700000D01*
X110490000Y-139700000D02*
X114300000Y-139700000D01*
%TO.N,/TXD*%
X87630000Y-127000000D02*
X87630000Y-132080000D01*
X87630000Y-132080000D02*
X97790000Y-142240000D01*
%TO.N,/RXD*%
X97790000Y-139700000D02*
X93980000Y-135890000D01*
X93980000Y-125730000D02*
X87630000Y-119380000D01*
X93980000Y-135890000D02*
X93980000Y-125730000D01*
%TO.N,Net-(R7-Pad2)*%
X97790000Y-121770000D02*
X107800000Y-111760000D01*
X97790000Y-137160000D02*
X97790000Y-121770000D01*
X114300000Y-111760000D02*
X107800000Y-111760000D01*
X107800000Y-110340000D02*
X104140000Y-106680000D01*
X107800000Y-111760000D02*
X107800000Y-110340000D01*
X120650000Y-111760000D02*
X114150000Y-111760000D01*
%TD*%
D29*
%TO.N,+5V*%
G36*
X133960001Y-174600000D02*
G01*
X37490000Y-174600000D01*
X37490000Y-166740000D01*
X53071928Y-166740000D01*
X53071928Y-168540000D01*
X53084188Y-168664482D01*
X53120498Y-168784180D01*
X53179463Y-168894494D01*
X53258815Y-168991185D01*
X53355506Y-169070537D01*
X53465820Y-169129502D01*
X53585518Y-169165812D01*
X53710000Y-169178072D01*
X55510000Y-169178072D01*
X55634482Y-169165812D01*
X55754180Y-169129502D01*
X55864494Y-169070537D01*
X55961185Y-168991185D01*
X56040537Y-168894494D01*
X56099502Y-168784180D01*
X56105056Y-168765873D01*
X56171495Y-168832312D01*
X56422905Y-169000299D01*
X56702257Y-169116011D01*
X56998816Y-169175000D01*
X57301184Y-169175000D01*
X57597743Y-169116011D01*
X57877095Y-169000299D01*
X58128505Y-168832312D01*
X58342312Y-168618505D01*
X58510299Y-168367095D01*
X58626011Y-168087743D01*
X58685000Y-167791184D01*
X58685000Y-167488816D01*
X58626011Y-167192257D01*
X58510299Y-166912905D01*
X58342312Y-166661495D01*
X58128505Y-166447688D01*
X57877095Y-166279701D01*
X57753884Y-166228665D01*
X73495000Y-166228665D01*
X73495000Y-166511335D01*
X73550147Y-166788574D01*
X73658320Y-167049727D01*
X73815363Y-167284759D01*
X74015241Y-167484637D01*
X74250273Y-167641680D01*
X74511426Y-167749853D01*
X74788665Y-167805000D01*
X75071335Y-167805000D01*
X75348574Y-167749853D01*
X75609727Y-167641680D01*
X75844759Y-167484637D01*
X76044637Y-167284759D01*
X76201680Y-167049727D01*
X76309853Y-166788574D01*
X76365000Y-166511335D01*
X76365000Y-166228665D01*
X76309853Y-165951426D01*
X76201680Y-165690273D01*
X76044637Y-165455241D01*
X75844759Y-165255363D01*
X75609727Y-165098320D01*
X75348574Y-164990147D01*
X75071335Y-164935000D01*
X74788665Y-164935000D01*
X74511426Y-164990147D01*
X74250273Y-165098320D01*
X74015241Y-165255363D01*
X73815363Y-165455241D01*
X73658320Y-165690273D01*
X73550147Y-165951426D01*
X73495000Y-166228665D01*
X57753884Y-166228665D01*
X57597743Y-166163989D01*
X57301184Y-166105000D01*
X56998816Y-166105000D01*
X56741070Y-166156269D01*
X56640000Y-166055199D01*
X56640000Y-162961388D01*
X56749199Y-162916156D01*
X57049744Y-162715338D01*
X57305338Y-162459744D01*
X57506156Y-162159199D01*
X57644482Y-161825250D01*
X57715000Y-161470732D01*
X57715000Y-161148665D01*
X73495000Y-161148665D01*
X73495000Y-161431335D01*
X73550147Y-161708574D01*
X73658320Y-161969727D01*
X73815363Y-162204759D01*
X74015241Y-162404637D01*
X74250273Y-162561680D01*
X74511426Y-162669853D01*
X74788665Y-162725000D01*
X75071335Y-162725000D01*
X75348574Y-162669853D01*
X75609727Y-162561680D01*
X75844759Y-162404637D01*
X76044637Y-162204759D01*
X76201680Y-161969727D01*
X76309853Y-161708574D01*
X76365000Y-161431335D01*
X76365000Y-161148665D01*
X78495000Y-161148665D01*
X78495000Y-161431335D01*
X78550147Y-161708574D01*
X78658320Y-161969727D01*
X78815363Y-162204759D01*
X79015241Y-162404637D01*
X79250273Y-162561680D01*
X79511426Y-162669853D01*
X79788665Y-162725000D01*
X80071335Y-162725000D01*
X80348574Y-162669853D01*
X80609727Y-162561680D01*
X80844759Y-162404637D01*
X81044637Y-162204759D01*
X81148043Y-162050000D01*
X85202091Y-162050000D01*
X85284201Y-162172886D01*
X85477114Y-162365799D01*
X85703957Y-162517371D01*
X85956011Y-162621775D01*
X86223589Y-162675000D01*
X86496411Y-162675000D01*
X86763989Y-162621775D01*
X87016043Y-162517371D01*
X87242886Y-162365799D01*
X87435799Y-162172886D01*
X87517909Y-162050000D01*
X93942678Y-162050000D01*
X93980000Y-162053676D01*
X94017322Y-162050000D01*
X94017333Y-162050000D01*
X94128986Y-162039003D01*
X94272247Y-161995546D01*
X94404276Y-161924974D01*
X94520001Y-161830001D01*
X94543804Y-161800997D01*
X96355000Y-159989801D01*
X96355000Y-160161335D01*
X96391312Y-160343885D01*
X91325199Y-165410000D01*
X87517909Y-165410000D01*
X87435799Y-165287114D01*
X87242886Y-165094201D01*
X87016043Y-164942629D01*
X86763989Y-164838225D01*
X86496411Y-164785000D01*
X86223589Y-164785000D01*
X85956011Y-164838225D01*
X85703957Y-164942629D01*
X85477114Y-165094201D01*
X85284201Y-165287114D01*
X85132629Y-165513957D01*
X85092847Y-165610000D01*
X81148043Y-165610000D01*
X81044637Y-165455241D01*
X80844759Y-165255363D01*
X80609727Y-165098320D01*
X80348574Y-164990147D01*
X80071335Y-164935000D01*
X79788665Y-164935000D01*
X79511426Y-164990147D01*
X79250273Y-165098320D01*
X79015241Y-165255363D01*
X78815363Y-165455241D01*
X78658320Y-165690273D01*
X78550147Y-165951426D01*
X78495000Y-166228665D01*
X78495000Y-166511335D01*
X78550147Y-166788574D01*
X78658320Y-167049727D01*
X78815363Y-167284759D01*
X79015241Y-167484637D01*
X79250273Y-167641680D01*
X79511426Y-167749853D01*
X79788665Y-167805000D01*
X80071335Y-167805000D01*
X80348574Y-167749853D01*
X80609727Y-167641680D01*
X80844759Y-167484637D01*
X81044637Y-167284759D01*
X81148043Y-167130000D01*
X85361315Y-167130000D01*
X85477114Y-167245799D01*
X85703957Y-167397371D01*
X85956011Y-167501775D01*
X86223589Y-167555000D01*
X86496411Y-167555000D01*
X86763989Y-167501775D01*
X87016043Y-167397371D01*
X87242886Y-167245799D01*
X87435799Y-167052886D01*
X87517909Y-166930000D01*
X91602678Y-166930000D01*
X91640000Y-166933676D01*
X91677322Y-166930000D01*
X91677333Y-166930000D01*
X91788986Y-166919003D01*
X91932247Y-166875546D01*
X92064276Y-166804974D01*
X92180001Y-166710001D01*
X92203804Y-166680997D01*
X96355000Y-162529802D01*
X96355000Y-162701335D01*
X96410147Y-162978574D01*
X96518320Y-163239727D01*
X96675363Y-163474759D01*
X96875241Y-163674637D01*
X97107759Y-163830000D01*
X96875241Y-163985363D01*
X96675363Y-164185241D01*
X96518320Y-164420273D01*
X96410147Y-164681426D01*
X96355000Y-164958665D01*
X96355000Y-165241335D01*
X96410147Y-165518574D01*
X96518320Y-165779727D01*
X96675363Y-166014759D01*
X96875241Y-166214637D01*
X97107759Y-166370000D01*
X96875241Y-166525363D01*
X96675363Y-166725241D01*
X96518320Y-166960273D01*
X96410147Y-167221426D01*
X96355000Y-167498665D01*
X96355000Y-167781335D01*
X96410147Y-168058574D01*
X96518320Y-168319727D01*
X96675363Y-168554759D01*
X96875241Y-168754637D01*
X97107759Y-168910000D01*
X96875241Y-169065363D01*
X96675363Y-169265241D01*
X96518320Y-169500273D01*
X96410147Y-169761426D01*
X96355000Y-170038665D01*
X96355000Y-170321335D01*
X96410147Y-170598574D01*
X96518320Y-170859727D01*
X96675363Y-171094759D01*
X96875241Y-171294637D01*
X97110273Y-171451680D01*
X97371426Y-171559853D01*
X97648665Y-171615000D01*
X97931335Y-171615000D01*
X98208574Y-171559853D01*
X98469727Y-171451680D01*
X98704759Y-171294637D01*
X98904637Y-171094759D01*
X99061680Y-170859727D01*
X99169853Y-170598574D01*
X99225000Y-170321335D01*
X99225000Y-170038665D01*
X99169853Y-169761426D01*
X99061680Y-169500273D01*
X98904637Y-169265241D01*
X98704759Y-169065363D01*
X98472241Y-168910000D01*
X98704759Y-168754637D01*
X98904637Y-168554759D01*
X99061680Y-168319727D01*
X99169853Y-168058574D01*
X99225000Y-167781335D01*
X99225000Y-167498665D01*
X99169853Y-167221426D01*
X99061680Y-166960273D01*
X98904637Y-166725241D01*
X98704759Y-166525363D01*
X98472241Y-166370000D01*
X98704759Y-166214637D01*
X98904637Y-166014759D01*
X99061680Y-165779727D01*
X99169853Y-165518574D01*
X99225000Y-165241335D01*
X99225000Y-164958665D01*
X99169853Y-164681426D01*
X99061680Y-164420273D01*
X98904637Y-164185241D01*
X98704759Y-163985363D01*
X98472241Y-163830000D01*
X98704759Y-163674637D01*
X98904637Y-163474759D01*
X99061680Y-163239727D01*
X99169853Y-162978574D01*
X99225000Y-162701335D01*
X99225000Y-162418665D01*
X99169853Y-162141426D01*
X99061680Y-161880273D01*
X98904637Y-161645241D01*
X98704759Y-161445363D01*
X98472241Y-161290000D01*
X98704759Y-161134637D01*
X98904637Y-160934759D01*
X99061680Y-160699727D01*
X99169853Y-160438574D01*
X99225000Y-160161335D01*
X99225000Y-159878665D01*
X103975000Y-159878665D01*
X103975000Y-160161335D01*
X104030147Y-160438574D01*
X104138320Y-160699727D01*
X104295363Y-160934759D01*
X104495241Y-161134637D01*
X104727759Y-161290000D01*
X104495241Y-161445363D01*
X104295363Y-161645241D01*
X104138320Y-161880273D01*
X104030147Y-162141426D01*
X103975000Y-162418665D01*
X103975000Y-162701335D01*
X104030147Y-162978574D01*
X104138320Y-163239727D01*
X104295363Y-163474759D01*
X104495241Y-163674637D01*
X104727759Y-163830000D01*
X104495241Y-163985363D01*
X104295363Y-164185241D01*
X104138320Y-164420273D01*
X104030147Y-164681426D01*
X103975000Y-164958665D01*
X103975000Y-165241335D01*
X104030147Y-165518574D01*
X104138320Y-165779727D01*
X104295363Y-166014759D01*
X104495241Y-166214637D01*
X104727759Y-166370000D01*
X104495241Y-166525363D01*
X104295363Y-166725241D01*
X104138320Y-166960273D01*
X104030147Y-167221426D01*
X103975000Y-167498665D01*
X103975000Y-167781335D01*
X104030147Y-168058574D01*
X104138320Y-168319727D01*
X104295363Y-168554759D01*
X104495241Y-168754637D01*
X104727759Y-168910000D01*
X104495241Y-169065363D01*
X104295363Y-169265241D01*
X104138320Y-169500273D01*
X104030147Y-169761426D01*
X103975000Y-170038665D01*
X103975000Y-170321335D01*
X104030147Y-170598574D01*
X104138320Y-170859727D01*
X104295363Y-171094759D01*
X104495241Y-171294637D01*
X104730273Y-171451680D01*
X104991426Y-171559853D01*
X105268665Y-171615000D01*
X105551335Y-171615000D01*
X105828574Y-171559853D01*
X106089727Y-171451680D01*
X106324759Y-171294637D01*
X106524637Y-171094759D01*
X106681680Y-170859727D01*
X106789853Y-170598574D01*
X106845000Y-170321335D01*
X106845000Y-170038665D01*
X106789853Y-169761426D01*
X106681680Y-169500273D01*
X106524637Y-169265241D01*
X106324759Y-169065363D01*
X106092241Y-168910000D01*
X106324759Y-168754637D01*
X106524637Y-168554759D01*
X106681680Y-168319727D01*
X106789853Y-168058574D01*
X106845000Y-167781335D01*
X106845000Y-167498665D01*
X106789853Y-167221426D01*
X106681680Y-166960273D01*
X106524637Y-166725241D01*
X106324759Y-166525363D01*
X106092241Y-166370000D01*
X106324759Y-166214637D01*
X106524637Y-166014759D01*
X106681680Y-165779727D01*
X106789853Y-165518574D01*
X106845000Y-165241335D01*
X106845000Y-164958665D01*
X106789853Y-164681426D01*
X106681680Y-164420273D01*
X106524637Y-164185241D01*
X106324759Y-163985363D01*
X106092241Y-163830000D01*
X106324759Y-163674637D01*
X106524637Y-163474759D01*
X106681680Y-163239727D01*
X106789853Y-162978574D01*
X106845000Y-162701335D01*
X106845000Y-162418665D01*
X106789853Y-162141426D01*
X106681680Y-161880273D01*
X106524637Y-161645241D01*
X106324759Y-161445363D01*
X106092241Y-161290000D01*
X106324759Y-161134637D01*
X106524637Y-160934759D01*
X106681680Y-160699727D01*
X106789853Y-160438574D01*
X106845000Y-160161335D01*
X106845000Y-159878665D01*
X106789853Y-159601426D01*
X106681680Y-159340273D01*
X106524637Y-159105241D01*
X106324759Y-158905363D01*
X106089727Y-158748320D01*
X106079135Y-158743933D01*
X106265131Y-158632385D01*
X106473519Y-158443414D01*
X106641037Y-158217420D01*
X106761246Y-157963087D01*
X106801904Y-157829039D01*
X106679915Y-157607000D01*
X105537000Y-157607000D01*
X105537000Y-157627000D01*
X105283000Y-157627000D01*
X105283000Y-157607000D01*
X104140085Y-157607000D01*
X104018096Y-157829039D01*
X104058754Y-157963087D01*
X104178963Y-158217420D01*
X104346481Y-158443414D01*
X104554869Y-158632385D01*
X104740865Y-158743933D01*
X104730273Y-158748320D01*
X104495241Y-158905363D01*
X104295363Y-159105241D01*
X104138320Y-159340273D01*
X104030147Y-159601426D01*
X103975000Y-159878665D01*
X99225000Y-159878665D01*
X99169853Y-159601426D01*
X99061680Y-159340273D01*
X98904637Y-159105241D01*
X98704759Y-158905363D01*
X98472241Y-158750000D01*
X98704759Y-158594637D01*
X98904637Y-158394759D01*
X99061680Y-158159727D01*
X99169853Y-157898574D01*
X99225000Y-157621335D01*
X99225000Y-157338665D01*
X99169853Y-157061426D01*
X99061680Y-156800273D01*
X98904637Y-156565241D01*
X98704759Y-156365363D01*
X98472241Y-156210000D01*
X98704759Y-156054637D01*
X98904637Y-155854759D01*
X99061680Y-155619727D01*
X99169853Y-155358574D01*
X99225000Y-155081335D01*
X99225000Y-154798665D01*
X99169853Y-154521426D01*
X99061680Y-154260273D01*
X98904637Y-154025241D01*
X98704759Y-153825363D01*
X98469727Y-153668320D01*
X98459135Y-153663933D01*
X98645131Y-153552385D01*
X98853519Y-153363414D01*
X99021037Y-153137420D01*
X99141246Y-152883087D01*
X99181904Y-152749039D01*
X99059915Y-152527000D01*
X97917000Y-152527000D01*
X97917000Y-152547000D01*
X97663000Y-152547000D01*
X97663000Y-152527000D01*
X96520085Y-152527000D01*
X96398096Y-152749039D01*
X96438754Y-152883087D01*
X96558963Y-153137420D01*
X96726481Y-153363414D01*
X96934869Y-153552385D01*
X97120865Y-153663933D01*
X97110273Y-153668320D01*
X96875241Y-153825363D01*
X96675363Y-154025241D01*
X96518320Y-154260273D01*
X96410147Y-154521426D01*
X96355000Y-154798665D01*
X96355000Y-155081335D01*
X96391312Y-155263886D01*
X93854806Y-157800393D01*
X93824637Y-157755241D01*
X93624759Y-157555363D01*
X93389727Y-157398320D01*
X93128574Y-157290147D01*
X92851335Y-157235000D01*
X92568665Y-157235000D01*
X92291426Y-157290147D01*
X92030273Y-157398320D01*
X91795241Y-157555363D01*
X91595363Y-157755241D01*
X91438320Y-157990273D01*
X91330147Y-158251426D01*
X91275000Y-158528665D01*
X91275000Y-158811335D01*
X91330147Y-159088574D01*
X91438320Y-159349727D01*
X91595363Y-159584759D01*
X91795241Y-159784637D01*
X92030273Y-159941680D01*
X92291426Y-160049853D01*
X92568665Y-160105000D01*
X92851335Y-160105000D01*
X93128574Y-160049853D01*
X93389727Y-159941680D01*
X93624759Y-159784637D01*
X93824637Y-159584759D01*
X93928043Y-159430000D01*
X94022678Y-159430000D01*
X94060000Y-159433676D01*
X94097322Y-159430000D01*
X94097333Y-159430000D01*
X94208986Y-159419003D01*
X94352247Y-159375546D01*
X94484276Y-159304974D01*
X94600001Y-159210001D01*
X94623804Y-159180997D01*
X96355000Y-157449801D01*
X96355000Y-157621335D01*
X96391312Y-157803886D01*
X93665199Y-160530000D01*
X87517909Y-160530000D01*
X87435799Y-160407114D01*
X87242886Y-160214201D01*
X87016043Y-160062629D01*
X86763989Y-159958225D01*
X86496411Y-159905000D01*
X86223589Y-159905000D01*
X85956011Y-159958225D01*
X85703957Y-160062629D01*
X85477114Y-160214201D01*
X85284201Y-160407114D01*
X85202091Y-160530000D01*
X81148043Y-160530000D01*
X81044637Y-160375241D01*
X80844759Y-160175363D01*
X80609727Y-160018320D01*
X80348574Y-159910147D01*
X80071335Y-159855000D01*
X79788665Y-159855000D01*
X79511426Y-159910147D01*
X79250273Y-160018320D01*
X79015241Y-160175363D01*
X78815363Y-160375241D01*
X78658320Y-160610273D01*
X78550147Y-160871426D01*
X78495000Y-161148665D01*
X76365000Y-161148665D01*
X76309853Y-160871426D01*
X76201680Y-160610273D01*
X76044637Y-160375241D01*
X75844759Y-160175363D01*
X75609727Y-160018320D01*
X75348574Y-159910147D01*
X75071335Y-159855000D01*
X74788665Y-159855000D01*
X74511426Y-159910147D01*
X74250273Y-160018320D01*
X74015241Y-160175363D01*
X73815363Y-160375241D01*
X73658320Y-160610273D01*
X73550147Y-160871426D01*
X73495000Y-161148665D01*
X57715000Y-161148665D01*
X57715000Y-161109268D01*
X57644482Y-160754750D01*
X57506156Y-160420801D01*
X57305338Y-160120256D01*
X57049744Y-159864662D01*
X56749199Y-159663844D01*
X56415250Y-159525518D01*
X56060732Y-159455000D01*
X55699268Y-159455000D01*
X55344750Y-159525518D01*
X55010801Y-159663844D01*
X54710256Y-159864662D01*
X54454662Y-160120256D01*
X54253844Y-160420801D01*
X54115518Y-160754750D01*
X54045000Y-161109268D01*
X54045000Y-161470732D01*
X54115518Y-161825250D01*
X54253844Y-162159199D01*
X54454662Y-162459744D01*
X54710256Y-162715338D01*
X55010801Y-162916156D01*
X55120000Y-162961388D01*
X55120001Y-166101928D01*
X53710000Y-166101928D01*
X53585518Y-166114188D01*
X53465820Y-166150498D01*
X53355506Y-166209463D01*
X53258815Y-166288815D01*
X53179463Y-166385506D01*
X53120498Y-166495820D01*
X53084188Y-166615518D01*
X53071928Y-166740000D01*
X37490000Y-166740000D01*
X37490000Y-154662702D01*
X91896903Y-154662702D01*
X91968486Y-154906671D01*
X92223996Y-155027571D01*
X92498184Y-155096300D01*
X92780512Y-155110217D01*
X93060130Y-155068787D01*
X93326292Y-154973603D01*
X93451514Y-154906671D01*
X93523097Y-154662702D01*
X92710000Y-153849605D01*
X91896903Y-154662702D01*
X37490000Y-154662702D01*
X37490000Y-153740512D01*
X91269783Y-153740512D01*
X91311213Y-154020130D01*
X91406397Y-154286292D01*
X91473329Y-154411514D01*
X91717298Y-154483097D01*
X92530395Y-153670000D01*
X92889605Y-153670000D01*
X93702702Y-154483097D01*
X93946671Y-154411514D01*
X94067571Y-154156004D01*
X94136300Y-153881816D01*
X94150217Y-153599488D01*
X94108787Y-153319870D01*
X94013603Y-153053708D01*
X93946671Y-152928486D01*
X93702702Y-152856903D01*
X92889605Y-153670000D01*
X92530395Y-153670000D01*
X91717298Y-152856903D01*
X91473329Y-152928486D01*
X91352429Y-153183996D01*
X91283700Y-153458184D01*
X91269783Y-153740512D01*
X37490000Y-153740512D01*
X37490000Y-150968967D01*
X60595000Y-150968967D01*
X60595000Y-151291033D01*
X60657832Y-151606912D01*
X60781082Y-151904463D01*
X60960013Y-152172252D01*
X61187748Y-152399987D01*
X61455537Y-152578918D01*
X61753088Y-152702168D01*
X62068967Y-152765000D01*
X62391033Y-152765000D01*
X62706912Y-152702168D01*
X63004463Y-152578918D01*
X63272252Y-152399987D01*
X63499987Y-152172252D01*
X63678918Y-151904463D01*
X63802168Y-151606912D01*
X63865000Y-151291033D01*
X63865000Y-150968967D01*
X63802168Y-150653088D01*
X63678918Y-150355537D01*
X63499987Y-150087748D01*
X63272252Y-149860013D01*
X63004463Y-149681082D01*
X62706912Y-149557832D01*
X62391033Y-149495000D01*
X62068967Y-149495000D01*
X61753088Y-149557832D01*
X61455537Y-149681082D01*
X61187748Y-149860013D01*
X60960013Y-150087748D01*
X60781082Y-150355537D01*
X60657832Y-150653088D01*
X60595000Y-150968967D01*
X37490000Y-150968967D01*
X37490000Y-147327980D01*
X54781626Y-147327980D01*
X54901514Y-147612836D01*
X55225210Y-147773699D01*
X55574069Y-147868322D01*
X55934684Y-147893067D01*
X56293198Y-147846985D01*
X56635833Y-147731846D01*
X56858486Y-147612836D01*
X56978374Y-147327980D01*
X55880000Y-146229605D01*
X54781626Y-147327980D01*
X37490000Y-147327980D01*
X37490000Y-146104684D01*
X54036933Y-146104684D01*
X54083015Y-146463198D01*
X54198154Y-146805833D01*
X54317164Y-147028486D01*
X54602020Y-147148374D01*
X55700395Y-146050000D01*
X56059605Y-146050000D01*
X57157980Y-147148374D01*
X57442836Y-147028486D01*
X57603699Y-146704790D01*
X57698322Y-146355931D01*
X57723067Y-145995316D01*
X57676985Y-145636802D01*
X57561846Y-145294167D01*
X57442836Y-145071514D01*
X57157980Y-144951626D01*
X56059605Y-146050000D01*
X55700395Y-146050000D01*
X54602020Y-144951626D01*
X54317164Y-145071514D01*
X54156301Y-145395210D01*
X54061678Y-145744069D01*
X54036933Y-146104684D01*
X37490000Y-146104684D01*
X37490000Y-144772020D01*
X54781626Y-144772020D01*
X55880000Y-145870395D01*
X56978374Y-144772020D01*
X56858486Y-144487164D01*
X56821870Y-144468967D01*
X60595000Y-144468967D01*
X60595000Y-144791033D01*
X60657832Y-145106912D01*
X60781082Y-145404463D01*
X60960013Y-145672252D01*
X61187748Y-145899987D01*
X61455537Y-146078918D01*
X61753088Y-146202168D01*
X62068967Y-146265000D01*
X62391033Y-146265000D01*
X62706912Y-146202168D01*
X63004463Y-146078918D01*
X63272252Y-145899987D01*
X63499987Y-145672252D01*
X63678918Y-145404463D01*
X63802168Y-145106912D01*
X63865000Y-144791033D01*
X63865000Y-144468967D01*
X63802168Y-144153088D01*
X63678918Y-143855537D01*
X63499987Y-143587748D01*
X63272252Y-143360013D01*
X63004463Y-143181082D01*
X62706912Y-143057832D01*
X62391033Y-142995000D01*
X62068967Y-142995000D01*
X61753088Y-143057832D01*
X61455537Y-143181082D01*
X61187748Y-143360013D01*
X60960013Y-143587748D01*
X60781082Y-143855537D01*
X60657832Y-144153088D01*
X60595000Y-144468967D01*
X56821870Y-144468967D01*
X56534790Y-144326301D01*
X56185931Y-144231678D01*
X55825316Y-144206933D01*
X55466802Y-144253015D01*
X55124167Y-144368154D01*
X54901514Y-144487164D01*
X54781626Y-144772020D01*
X37490000Y-144772020D01*
X37490000Y-130629268D01*
X42615000Y-130629268D01*
X42615000Y-130990732D01*
X42685518Y-131345250D01*
X42823844Y-131679199D01*
X43024662Y-131979744D01*
X43280256Y-132235338D01*
X43580801Y-132436156D01*
X43690000Y-132481388D01*
X43690001Y-136758612D01*
X43580801Y-136803844D01*
X43280256Y-137004662D01*
X43024662Y-137260256D01*
X42823844Y-137560801D01*
X42685518Y-137894750D01*
X42615000Y-138249268D01*
X42615000Y-138610732D01*
X42685518Y-138965250D01*
X42823844Y-139299199D01*
X43024662Y-139599744D01*
X43280256Y-139855338D01*
X43580801Y-140056156D01*
X43914750Y-140194482D01*
X44269268Y-140265000D01*
X44630732Y-140265000D01*
X44985250Y-140194482D01*
X45319199Y-140056156D01*
X45619744Y-139855338D01*
X45875338Y-139599744D01*
X46076156Y-139299199D01*
X46214482Y-138965250D01*
X46285000Y-138610732D01*
X46285000Y-138249268D01*
X57855000Y-138249268D01*
X57855000Y-138610732D01*
X57925518Y-138965250D01*
X58063844Y-139299199D01*
X58264662Y-139599744D01*
X58520256Y-139855338D01*
X58820801Y-140056156D01*
X59154750Y-140194482D01*
X59509268Y-140265000D01*
X59870732Y-140265000D01*
X60225250Y-140194482D01*
X60559199Y-140056156D01*
X60859744Y-139855338D01*
X61115338Y-139599744D01*
X61316156Y-139299199D01*
X61454482Y-138965250D01*
X61525000Y-138610732D01*
X61525000Y-138249268D01*
X61454482Y-137894750D01*
X61316156Y-137560801D01*
X61115338Y-137260256D01*
X60859744Y-137004662D01*
X60559199Y-136803844D01*
X60225250Y-136665518D01*
X59870732Y-136595000D01*
X59509268Y-136595000D01*
X59154750Y-136665518D01*
X58820801Y-136803844D01*
X58520256Y-137004662D01*
X58264662Y-137260256D01*
X58063844Y-137560801D01*
X57925518Y-137894750D01*
X57855000Y-138249268D01*
X46285000Y-138249268D01*
X46214482Y-137894750D01*
X46076156Y-137560801D01*
X45875338Y-137260256D01*
X45619744Y-137004662D01*
X45319199Y-136803844D01*
X45210000Y-136758612D01*
X45210000Y-132481388D01*
X45319199Y-132436156D01*
X45619744Y-132235338D01*
X45767102Y-132087980D01*
X58591626Y-132087980D01*
X58711514Y-132372836D01*
X59035210Y-132533699D01*
X59384069Y-132628322D01*
X59744684Y-132653067D01*
X60103198Y-132606985D01*
X60445833Y-132491846D01*
X60668486Y-132372836D01*
X60788374Y-132087980D01*
X59690000Y-130989605D01*
X58591626Y-132087980D01*
X45767102Y-132087980D01*
X45875338Y-131979744D01*
X46076156Y-131679199D01*
X46214482Y-131345250D01*
X46285000Y-130990732D01*
X46285000Y-130864684D01*
X57846933Y-130864684D01*
X57893015Y-131223198D01*
X58008154Y-131565833D01*
X58127164Y-131788486D01*
X58412020Y-131908374D01*
X59510395Y-130810000D01*
X59869605Y-130810000D01*
X60967980Y-131908374D01*
X61252836Y-131788486D01*
X61413699Y-131464790D01*
X61508322Y-131115931D01*
X61533067Y-130755316D01*
X61486985Y-130396802D01*
X61371846Y-130054167D01*
X61252836Y-129831514D01*
X60967980Y-129711626D01*
X59869605Y-130810000D01*
X59510395Y-130810000D01*
X58412020Y-129711626D01*
X58127164Y-129831514D01*
X57966301Y-130155210D01*
X57871678Y-130504069D01*
X57846933Y-130864684D01*
X46285000Y-130864684D01*
X46285000Y-130629268D01*
X46214482Y-130274750D01*
X46169251Y-130165551D01*
X46802782Y-129532020D01*
X58591626Y-129532020D01*
X59690000Y-130630395D01*
X60788374Y-129532020D01*
X60668486Y-129247164D01*
X60344790Y-129086301D01*
X59995931Y-128991678D01*
X59635316Y-128966933D01*
X59276802Y-129013015D01*
X58934167Y-129128154D01*
X58711514Y-129247164D01*
X58591626Y-129532020D01*
X46802782Y-129532020D01*
X47501008Y-128833795D01*
X47530001Y-128810001D01*
X47553795Y-128781008D01*
X47553799Y-128781004D01*
X47624973Y-128694277D01*
X47624974Y-128694276D01*
X47695546Y-128562247D01*
X47739003Y-128418986D01*
X47750000Y-128307333D01*
X47750000Y-128307324D01*
X47753676Y-128270001D01*
X47750000Y-128232678D01*
X47750000Y-123510572D01*
X47990000Y-123510572D01*
X48114482Y-123498312D01*
X48234180Y-123462002D01*
X48344494Y-123403037D01*
X48441185Y-123323685D01*
X48520537Y-123226994D01*
X48579502Y-123116680D01*
X48615812Y-122996982D01*
X48628072Y-122872500D01*
X48628072Y-121739268D01*
X64205000Y-121739268D01*
X64205000Y-122100732D01*
X64275518Y-122455250D01*
X64413844Y-122789199D01*
X64614662Y-123089744D01*
X64870256Y-123345338D01*
X65170801Y-123546156D01*
X65280000Y-123591388D01*
X65280001Y-143858147D01*
X65157832Y-144153088D01*
X65095000Y-144468967D01*
X65095000Y-144791033D01*
X65157832Y-145106912D01*
X65281082Y-145404463D01*
X65460013Y-145672252D01*
X65687748Y-145899987D01*
X65955537Y-146078918D01*
X65970000Y-146084909D01*
X65970001Y-149675091D01*
X65955537Y-149681082D01*
X65687748Y-149860013D01*
X65460013Y-150087748D01*
X65281082Y-150355537D01*
X65157832Y-150653088D01*
X65095000Y-150968967D01*
X65095000Y-151291033D01*
X65157832Y-151606912D01*
X65281082Y-151904463D01*
X65460013Y-152172252D01*
X65687748Y-152399987D01*
X65955537Y-152578918D01*
X66253088Y-152702168D01*
X66568967Y-152765000D01*
X66891033Y-152765000D01*
X67206912Y-152702168D01*
X67266953Y-152677298D01*
X91896903Y-152677298D01*
X92710000Y-153490395D01*
X93523097Y-152677298D01*
X93451514Y-152433329D01*
X93196004Y-152312429D01*
X92921816Y-152243700D01*
X92639488Y-152229783D01*
X92359870Y-152271213D01*
X92093708Y-152366397D01*
X91968486Y-152433329D01*
X91896903Y-152677298D01*
X67266953Y-152677298D01*
X67504463Y-152578918D01*
X67772252Y-152399987D01*
X67999987Y-152172252D01*
X68178918Y-151904463D01*
X68184909Y-151890000D01*
X96451474Y-151890000D01*
X96438754Y-151916913D01*
X96398096Y-152050961D01*
X96520085Y-152273000D01*
X97663000Y-152273000D01*
X97663000Y-152253000D01*
X97917000Y-152253000D01*
X97917000Y-152273000D01*
X99059915Y-152273000D01*
X99181904Y-152050961D01*
X99141246Y-151916913D01*
X99021037Y-151662580D01*
X98853519Y-151436586D01*
X98645131Y-151247615D01*
X98459135Y-151136067D01*
X98469727Y-151131680D01*
X98704759Y-150974637D01*
X98904637Y-150774759D01*
X99061680Y-150539727D01*
X99169853Y-150278574D01*
X99225000Y-150001335D01*
X99225000Y-149718665D01*
X99169853Y-149441426D01*
X99061680Y-149180273D01*
X98904637Y-148945241D01*
X98704759Y-148745363D01*
X98472241Y-148590000D01*
X98704759Y-148434637D01*
X98904637Y-148234759D01*
X99061680Y-147999727D01*
X99169853Y-147738574D01*
X99225000Y-147461335D01*
X99225000Y-147178665D01*
X99169853Y-146901426D01*
X99061680Y-146640273D01*
X98904637Y-146405241D01*
X98704759Y-146205363D01*
X98472241Y-146050000D01*
X98704759Y-145894637D01*
X98904637Y-145694759D01*
X99061680Y-145459727D01*
X99169853Y-145198574D01*
X99225000Y-144921335D01*
X99225000Y-144638665D01*
X99169853Y-144361426D01*
X99061680Y-144100273D01*
X98904637Y-143865241D01*
X98704759Y-143665363D01*
X98472241Y-143510000D01*
X98704759Y-143354637D01*
X98904637Y-143154759D01*
X99061680Y-142919727D01*
X99169853Y-142658574D01*
X99225000Y-142381335D01*
X99225000Y-142098665D01*
X99169853Y-141821426D01*
X99061680Y-141560273D01*
X98904637Y-141325241D01*
X98704759Y-141125363D01*
X98472241Y-140970000D01*
X98704759Y-140814637D01*
X98904637Y-140614759D01*
X99061680Y-140379727D01*
X99169853Y-140118574D01*
X99225000Y-139841335D01*
X99225000Y-139558665D01*
X99169853Y-139281426D01*
X99061680Y-139020273D01*
X98904637Y-138785241D01*
X98706039Y-138586643D01*
X98714482Y-138585812D01*
X98834180Y-138549502D01*
X98944494Y-138490537D01*
X99041185Y-138411185D01*
X99120537Y-138314494D01*
X99179502Y-138204180D01*
X99215812Y-138084482D01*
X99228072Y-137960000D01*
X99228072Y-137018665D01*
X103975000Y-137018665D01*
X103975000Y-137301335D01*
X104030147Y-137578574D01*
X104138320Y-137839727D01*
X104295363Y-138074759D01*
X104495241Y-138274637D01*
X104727759Y-138430000D01*
X104495241Y-138585363D01*
X104295363Y-138785241D01*
X104138320Y-139020273D01*
X104030147Y-139281426D01*
X103975000Y-139558665D01*
X103975000Y-139841335D01*
X104030147Y-140118574D01*
X104138320Y-140379727D01*
X104295363Y-140614759D01*
X104495241Y-140814637D01*
X104727759Y-140970000D01*
X104495241Y-141125363D01*
X104295363Y-141325241D01*
X104138320Y-141560273D01*
X104030147Y-141821426D01*
X103975000Y-142098665D01*
X103975000Y-142381335D01*
X104030147Y-142658574D01*
X104138320Y-142919727D01*
X104295363Y-143154759D01*
X104495241Y-143354637D01*
X104727759Y-143510000D01*
X104495241Y-143665363D01*
X104295363Y-143865241D01*
X104138320Y-144100273D01*
X104030147Y-144361426D01*
X103975000Y-144638665D01*
X103975000Y-144921335D01*
X104030147Y-145198574D01*
X104138320Y-145459727D01*
X104295363Y-145694759D01*
X104495241Y-145894637D01*
X104727759Y-146050000D01*
X104495241Y-146205363D01*
X104295363Y-146405241D01*
X104138320Y-146640273D01*
X104030147Y-146901426D01*
X103975000Y-147178665D01*
X103975000Y-147461335D01*
X104030147Y-147738574D01*
X104138320Y-147999727D01*
X104295363Y-148234759D01*
X104495241Y-148434637D01*
X104727759Y-148590000D01*
X104495241Y-148745363D01*
X104295363Y-148945241D01*
X104138320Y-149180273D01*
X104030147Y-149441426D01*
X103975000Y-149718665D01*
X103975000Y-150001335D01*
X104030147Y-150278574D01*
X104138320Y-150539727D01*
X104295363Y-150774759D01*
X104495241Y-150974637D01*
X104727759Y-151130000D01*
X104495241Y-151285363D01*
X104295363Y-151485241D01*
X104138320Y-151720273D01*
X104030147Y-151981426D01*
X103975000Y-152258665D01*
X103975000Y-152541335D01*
X104030147Y-152818574D01*
X104138320Y-153079727D01*
X104295363Y-153314759D01*
X104495241Y-153514637D01*
X104727759Y-153670000D01*
X104495241Y-153825363D01*
X104295363Y-154025241D01*
X104138320Y-154260273D01*
X104030147Y-154521426D01*
X103975000Y-154798665D01*
X103975000Y-155081335D01*
X104030147Y-155358574D01*
X104138320Y-155619727D01*
X104295363Y-155854759D01*
X104495241Y-156054637D01*
X104730273Y-156211680D01*
X104740865Y-156216067D01*
X104554869Y-156327615D01*
X104346481Y-156516586D01*
X104178963Y-156742580D01*
X104058754Y-156996913D01*
X104018096Y-157130961D01*
X104140085Y-157353000D01*
X105283000Y-157353000D01*
X105283000Y-157333000D01*
X105537000Y-157333000D01*
X105537000Y-157353000D01*
X106679915Y-157353000D01*
X106762489Y-157202702D01*
X109676903Y-157202702D01*
X109748486Y-157446671D01*
X110003996Y-157567571D01*
X110278184Y-157636300D01*
X110560512Y-157650217D01*
X110840130Y-157608787D01*
X111106292Y-157513603D01*
X111231514Y-157446671D01*
X111303097Y-157202702D01*
X110490000Y-156389605D01*
X109676903Y-157202702D01*
X106762489Y-157202702D01*
X106801904Y-157130961D01*
X106761246Y-156996913D01*
X106641037Y-156742580D01*
X106473519Y-156516586D01*
X106265131Y-156327615D01*
X106186592Y-156280512D01*
X109049783Y-156280512D01*
X109091213Y-156560130D01*
X109186397Y-156826292D01*
X109253329Y-156951514D01*
X109497298Y-157023097D01*
X110310395Y-156210000D01*
X110669605Y-156210000D01*
X111482702Y-157023097D01*
X111726671Y-156951514D01*
X111847571Y-156696004D01*
X111916300Y-156421816D01*
X111930217Y-156139488D01*
X111888787Y-155859870D01*
X111793603Y-155593708D01*
X111726671Y-155468486D01*
X111482702Y-155396903D01*
X110669605Y-156210000D01*
X110310395Y-156210000D01*
X109497298Y-155396903D01*
X109253329Y-155468486D01*
X109132429Y-155723996D01*
X109063700Y-155998184D01*
X109049783Y-156280512D01*
X106186592Y-156280512D01*
X106079135Y-156216067D01*
X106089727Y-156211680D01*
X106324759Y-156054637D01*
X106524637Y-155854759D01*
X106681680Y-155619727D01*
X106789853Y-155358574D01*
X106817954Y-155217298D01*
X109676903Y-155217298D01*
X110490000Y-156030395D01*
X111303097Y-155217298D01*
X111231514Y-154973329D01*
X110976004Y-154852429D01*
X110701816Y-154783700D01*
X110419488Y-154769783D01*
X110139870Y-154811213D01*
X109873708Y-154906397D01*
X109748486Y-154973329D01*
X109676903Y-155217298D01*
X106817954Y-155217298D01*
X106845000Y-155081335D01*
X106845000Y-154798665D01*
X106789853Y-154521426D01*
X106681680Y-154260273D01*
X106524637Y-154025241D01*
X106324759Y-153825363D01*
X106092241Y-153670000D01*
X106324759Y-153514637D01*
X106524637Y-153314759D01*
X106628043Y-153160000D01*
X109262678Y-153160000D01*
X109300000Y-153163676D01*
X109337322Y-153160000D01*
X109337333Y-153160000D01*
X109448986Y-153149003D01*
X109592247Y-153105546D01*
X109724276Y-153034974D01*
X109840001Y-152940001D01*
X109863804Y-152910997D01*
X110166114Y-152608688D01*
X110348665Y-152645000D01*
X110631335Y-152645000D01*
X110908574Y-152589853D01*
X111169727Y-152481680D01*
X111404759Y-152324637D01*
X111604637Y-152124759D01*
X111761680Y-151889727D01*
X111869853Y-151628574D01*
X111925000Y-151351335D01*
X111925000Y-151068665D01*
X111869853Y-150791426D01*
X111761680Y-150530273D01*
X111604637Y-150295241D01*
X111404759Y-150095363D01*
X111169727Y-149938320D01*
X110908574Y-149830147D01*
X110631335Y-149775000D01*
X110348665Y-149775000D01*
X110071426Y-149830147D01*
X109810273Y-149938320D01*
X109575241Y-150095363D01*
X109375363Y-150295241D01*
X109218320Y-150530273D01*
X109110147Y-150791426D01*
X109055000Y-151068665D01*
X109055000Y-151351335D01*
X109091312Y-151533886D01*
X108985199Y-151640000D01*
X106628043Y-151640000D01*
X106524637Y-151485241D01*
X106324759Y-151285363D01*
X106092241Y-151130000D01*
X106324759Y-150974637D01*
X106524637Y-150774759D01*
X106681680Y-150539727D01*
X106789853Y-150278574D01*
X106845000Y-150001335D01*
X106845000Y-149718665D01*
X106789853Y-149441426D01*
X106681680Y-149180273D01*
X106524637Y-148945241D01*
X106324759Y-148745363D01*
X106092241Y-148590000D01*
X106324759Y-148434637D01*
X106524637Y-148234759D01*
X106681680Y-147999727D01*
X106789853Y-147738574D01*
X106845000Y-147461335D01*
X106845000Y-147178665D01*
X106789853Y-146901426D01*
X106681680Y-146640273D01*
X106524637Y-146405241D01*
X106324759Y-146205363D01*
X106092241Y-146050000D01*
X106324759Y-145894637D01*
X106524637Y-145694759D01*
X106681680Y-145459727D01*
X106789853Y-145198574D01*
X106845000Y-144921335D01*
X106845000Y-144638665D01*
X106789853Y-144361426D01*
X106681680Y-144100273D01*
X106524637Y-143865241D01*
X106324759Y-143665363D01*
X106092241Y-143510000D01*
X106324759Y-143354637D01*
X106524637Y-143154759D01*
X106681680Y-142919727D01*
X106789853Y-142658574D01*
X106845000Y-142381335D01*
X106845000Y-142098665D01*
X106789853Y-141821426D01*
X106681680Y-141560273D01*
X106524637Y-141325241D01*
X106324759Y-141125363D01*
X106092241Y-140970000D01*
X106324759Y-140814637D01*
X106524637Y-140614759D01*
X106628043Y-140460000D01*
X113021822Y-140460000D01*
X113146525Y-140646632D01*
X113353368Y-140853475D01*
X113596589Y-141015990D01*
X113866842Y-141127932D01*
X114153740Y-141185000D01*
X114446260Y-141185000D01*
X114733158Y-141127932D01*
X115003411Y-141015990D01*
X115246632Y-140853475D01*
X115453475Y-140646632D01*
X115615990Y-140403411D01*
X115727932Y-140133158D01*
X115785000Y-139846260D01*
X115785000Y-139553740D01*
X115727932Y-139266842D01*
X115615990Y-138996589D01*
X115453475Y-138753368D01*
X115246632Y-138546525D01*
X115072240Y-138430000D01*
X115246632Y-138313475D01*
X115453475Y-138106632D01*
X115615990Y-137863411D01*
X115727932Y-137593158D01*
X115785000Y-137306260D01*
X115785000Y-137013740D01*
X115727932Y-136726842D01*
X115615990Y-136456589D01*
X115453475Y-136213368D01*
X115246632Y-136006525D01*
X115072240Y-135890000D01*
X115246632Y-135773475D01*
X115453475Y-135566632D01*
X115615990Y-135323411D01*
X115727932Y-135053158D01*
X115785000Y-134766260D01*
X115785000Y-134473740D01*
X115727932Y-134186842D01*
X115615990Y-133916589D01*
X115453475Y-133673368D01*
X115321620Y-133541513D01*
X115394180Y-133519502D01*
X115504494Y-133460537D01*
X115601185Y-133381185D01*
X115680537Y-133284494D01*
X115739502Y-133174180D01*
X115775812Y-133054482D01*
X115788072Y-132930000D01*
X115785000Y-132365750D01*
X115626250Y-132207000D01*
X114427000Y-132207000D01*
X114427000Y-132227000D01*
X114173000Y-132227000D01*
X114173000Y-132207000D01*
X112973750Y-132207000D01*
X112815000Y-132365750D01*
X112811928Y-132930000D01*
X112824188Y-133054482D01*
X112860498Y-133174180D01*
X112919463Y-133284494D01*
X112998815Y-133381185D01*
X113095506Y-133460537D01*
X113205820Y-133519502D01*
X113278380Y-133541513D01*
X113146525Y-133673368D01*
X112984010Y-133916589D01*
X112872068Y-134186842D01*
X112815000Y-134473740D01*
X112815000Y-134766260D01*
X112872068Y-135053158D01*
X112984010Y-135323411D01*
X113146525Y-135566632D01*
X113353368Y-135773475D01*
X113527760Y-135890000D01*
X113353368Y-136006525D01*
X113146525Y-136213368D01*
X113021822Y-136400000D01*
X106628043Y-136400000D01*
X106524637Y-136245241D01*
X106324759Y-136045363D01*
X106089727Y-135888320D01*
X105828574Y-135780147D01*
X105551335Y-135725000D01*
X105268665Y-135725000D01*
X104991426Y-135780147D01*
X104730273Y-135888320D01*
X104495241Y-136045363D01*
X104295363Y-136245241D01*
X104138320Y-136480273D01*
X104030147Y-136741426D01*
X103975000Y-137018665D01*
X99228072Y-137018665D01*
X99228072Y-136360000D01*
X99215812Y-136235518D01*
X99179502Y-136115820D01*
X99120537Y-136005506D01*
X99041185Y-135908815D01*
X98944494Y-135829463D01*
X98834180Y-135770498D01*
X98714482Y-135734188D01*
X98590000Y-135721928D01*
X98550000Y-135721928D01*
X98550000Y-131230000D01*
X112811928Y-131230000D01*
X112815000Y-131794250D01*
X112973750Y-131953000D01*
X114173000Y-131953000D01*
X114173000Y-130753750D01*
X114427000Y-130753750D01*
X114427000Y-131953000D01*
X115626250Y-131953000D01*
X115785000Y-131794250D01*
X115788072Y-131230000D01*
X115775812Y-131105518D01*
X115739502Y-130985820D01*
X115680537Y-130875506D01*
X115601185Y-130778815D01*
X115504494Y-130699463D01*
X115394180Y-130640498D01*
X115274482Y-130604188D01*
X115150000Y-130591928D01*
X114585750Y-130595000D01*
X114427000Y-130753750D01*
X114173000Y-130753750D01*
X114014250Y-130595000D01*
X113450000Y-130591928D01*
X113325518Y-130604188D01*
X113205820Y-130640498D01*
X113095506Y-130699463D01*
X112998815Y-130778815D01*
X112919463Y-130875506D01*
X112860498Y-130985820D01*
X112824188Y-131105518D01*
X112811928Y-131230000D01*
X98550000Y-131230000D01*
X98550000Y-122084801D01*
X100404801Y-120230000D01*
X128051928Y-120230000D01*
X128064188Y-120354482D01*
X128100498Y-120474180D01*
X128159463Y-120584494D01*
X128238815Y-120681185D01*
X128335506Y-120760537D01*
X128445820Y-120819502D01*
X128518380Y-120841513D01*
X128386525Y-120973368D01*
X128224010Y-121216589D01*
X128112068Y-121486842D01*
X128055000Y-121773740D01*
X128055000Y-122066260D01*
X128112068Y-122353158D01*
X128224010Y-122623411D01*
X128386525Y-122866632D01*
X128593368Y-123073475D01*
X128767760Y-123190000D01*
X128593368Y-123306525D01*
X128386525Y-123513368D01*
X128224010Y-123756589D01*
X128112068Y-124026842D01*
X128055000Y-124313740D01*
X128055000Y-124606260D01*
X128112068Y-124893158D01*
X128224010Y-125163411D01*
X128386525Y-125406632D01*
X128593368Y-125613475D01*
X128767760Y-125730000D01*
X128593368Y-125846525D01*
X128386525Y-126053368D01*
X128224010Y-126296589D01*
X128112068Y-126566842D01*
X128055000Y-126853740D01*
X128055000Y-127146260D01*
X128112068Y-127433158D01*
X128224010Y-127703411D01*
X128386525Y-127946632D01*
X128593368Y-128153475D01*
X128836589Y-128315990D01*
X129106842Y-128427932D01*
X129393740Y-128485000D01*
X129686260Y-128485000D01*
X129973158Y-128427932D01*
X130243411Y-128315990D01*
X130486632Y-128153475D01*
X130693475Y-127946632D01*
X130855990Y-127703411D01*
X130967932Y-127433158D01*
X131025000Y-127146260D01*
X131025000Y-126853740D01*
X130967932Y-126566842D01*
X130855990Y-126296589D01*
X130693475Y-126053368D01*
X130486632Y-125846525D01*
X130312240Y-125730000D01*
X130486632Y-125613475D01*
X130693475Y-125406632D01*
X130855990Y-125163411D01*
X130967932Y-124893158D01*
X131025000Y-124606260D01*
X131025000Y-124313740D01*
X130967932Y-124026842D01*
X130855990Y-123756589D01*
X130693475Y-123513368D01*
X130486632Y-123306525D01*
X130312240Y-123190000D01*
X130486632Y-123073475D01*
X130693475Y-122866632D01*
X130855990Y-122623411D01*
X130967932Y-122353158D01*
X131025000Y-122066260D01*
X131025000Y-121773740D01*
X130967932Y-121486842D01*
X130855990Y-121216589D01*
X130693475Y-120973368D01*
X130561620Y-120841513D01*
X130634180Y-120819502D01*
X130744494Y-120760537D01*
X130841185Y-120681185D01*
X130920537Y-120584494D01*
X130979502Y-120474180D01*
X131015812Y-120354482D01*
X131028072Y-120230000D01*
X131025000Y-119665750D01*
X130866250Y-119507000D01*
X129667000Y-119507000D01*
X129667000Y-119527000D01*
X129413000Y-119527000D01*
X129413000Y-119507000D01*
X128213750Y-119507000D01*
X128055000Y-119665750D01*
X128051928Y-120230000D01*
X100404801Y-120230000D01*
X102104801Y-118530000D01*
X128051928Y-118530000D01*
X128055000Y-119094250D01*
X128213750Y-119253000D01*
X129413000Y-119253000D01*
X129413000Y-118053750D01*
X129667000Y-118053750D01*
X129667000Y-119253000D01*
X130866250Y-119253000D01*
X131025000Y-119094250D01*
X131028072Y-118530000D01*
X131015812Y-118405518D01*
X130979502Y-118285820D01*
X130920537Y-118175506D01*
X130841185Y-118078815D01*
X130744494Y-117999463D01*
X130634180Y-117940498D01*
X130514482Y-117904188D01*
X130390000Y-117891928D01*
X129825750Y-117895000D01*
X129667000Y-118053750D01*
X129413000Y-118053750D01*
X129254250Y-117895000D01*
X128690000Y-117891928D01*
X128565518Y-117904188D01*
X128445820Y-117940498D01*
X128335506Y-117999463D01*
X128238815Y-118078815D01*
X128159463Y-118175506D01*
X128100498Y-118285820D01*
X128064188Y-118405518D01*
X128051928Y-118530000D01*
X102104801Y-118530000D01*
X108114802Y-112520000D01*
X112695091Y-112520000D01*
X112701082Y-112534463D01*
X112880013Y-112802252D01*
X113107748Y-113029987D01*
X113375537Y-113208918D01*
X113673088Y-113332168D01*
X113988967Y-113395000D01*
X114311033Y-113395000D01*
X114626912Y-113332168D01*
X114924463Y-113208918D01*
X115192252Y-113029987D01*
X115419987Y-112802252D01*
X115598918Y-112534463D01*
X115604909Y-112520000D01*
X119195091Y-112520000D01*
X119201082Y-112534463D01*
X119380013Y-112802252D01*
X119607748Y-113029987D01*
X119875537Y-113208918D01*
X120173088Y-113332168D01*
X120488967Y-113395000D01*
X120811033Y-113395000D01*
X121126912Y-113332168D01*
X121424463Y-113208918D01*
X121692252Y-113029987D01*
X121919987Y-112802252D01*
X122098918Y-112534463D01*
X122222168Y-112236912D01*
X122285000Y-111921033D01*
X122285000Y-111598967D01*
X122222168Y-111283088D01*
X122098918Y-110985537D01*
X121919987Y-110717748D01*
X121692252Y-110490013D01*
X121424463Y-110311082D01*
X121126912Y-110187832D01*
X120811033Y-110125000D01*
X120488967Y-110125000D01*
X120173088Y-110187832D01*
X119875537Y-110311082D01*
X119607748Y-110490013D01*
X119380013Y-110717748D01*
X119201082Y-110985537D01*
X119195091Y-111000000D01*
X115604909Y-111000000D01*
X115598918Y-110985537D01*
X115419987Y-110717748D01*
X115192252Y-110490013D01*
X114924463Y-110311082D01*
X114626912Y-110187832D01*
X114311033Y-110125000D01*
X113988967Y-110125000D01*
X113673088Y-110187832D01*
X113375537Y-110311082D01*
X113107748Y-110490013D01*
X112880013Y-110717748D01*
X112701082Y-110985537D01*
X112695091Y-111000000D01*
X108560000Y-111000000D01*
X108560000Y-110377325D01*
X108563676Y-110340000D01*
X108560000Y-110302675D01*
X108560000Y-110302667D01*
X108549003Y-110191014D01*
X108505546Y-110047753D01*
X108434974Y-109915724D01*
X108340001Y-109799999D01*
X108311003Y-109776201D01*
X105859250Y-107324449D01*
X105904482Y-107215250D01*
X105927612Y-107098967D01*
X112515000Y-107098967D01*
X112515000Y-107421033D01*
X112577832Y-107736912D01*
X112701082Y-108034463D01*
X112880013Y-108302252D01*
X113107748Y-108529987D01*
X113375537Y-108708918D01*
X113673088Y-108832168D01*
X113988967Y-108895000D01*
X114311033Y-108895000D01*
X114626912Y-108832168D01*
X114924463Y-108708918D01*
X115192252Y-108529987D01*
X115419987Y-108302252D01*
X115598918Y-108034463D01*
X115722168Y-107736912D01*
X115785000Y-107421033D01*
X115785000Y-107098967D01*
X119015000Y-107098967D01*
X119015000Y-107421033D01*
X119077832Y-107736912D01*
X119201082Y-108034463D01*
X119380013Y-108302252D01*
X119607748Y-108529987D01*
X119875537Y-108708918D01*
X120173088Y-108832168D01*
X120488967Y-108895000D01*
X120811033Y-108895000D01*
X121126912Y-108832168D01*
X121424463Y-108708918D01*
X121692252Y-108529987D01*
X121919987Y-108302252D01*
X122098918Y-108034463D01*
X122222168Y-107736912D01*
X122285000Y-107421033D01*
X122285000Y-107098967D01*
X122222168Y-106783088D01*
X122098918Y-106485537D01*
X121919987Y-106217748D01*
X121692252Y-105990013D01*
X121424463Y-105811082D01*
X121126912Y-105687832D01*
X120811033Y-105625000D01*
X120488967Y-105625000D01*
X120173088Y-105687832D01*
X119875537Y-105811082D01*
X119607748Y-105990013D01*
X119380013Y-106217748D01*
X119201082Y-106485537D01*
X119077832Y-106783088D01*
X119015000Y-107098967D01*
X115785000Y-107098967D01*
X115722168Y-106783088D01*
X115598918Y-106485537D01*
X115419987Y-106217748D01*
X115192252Y-105990013D01*
X114924463Y-105811082D01*
X114626912Y-105687832D01*
X114311033Y-105625000D01*
X113988967Y-105625000D01*
X113673088Y-105687832D01*
X113375537Y-105811082D01*
X113107748Y-105990013D01*
X112880013Y-106217748D01*
X112701082Y-106485537D01*
X112577832Y-106783088D01*
X112515000Y-107098967D01*
X105927612Y-107098967D01*
X105975000Y-106860732D01*
X105975000Y-106499268D01*
X105904482Y-106144750D01*
X105766156Y-105810801D01*
X105565338Y-105510256D01*
X105309744Y-105254662D01*
X105009199Y-105053844D01*
X104675250Y-104915518D01*
X104320732Y-104845000D01*
X103959268Y-104845000D01*
X103604750Y-104915518D01*
X103270801Y-105053844D01*
X102970256Y-105254662D01*
X102714662Y-105510256D01*
X102513844Y-105810801D01*
X102375518Y-106144750D01*
X102305000Y-106499268D01*
X102305000Y-106860732D01*
X102375518Y-107215250D01*
X102513844Y-107549199D01*
X102714662Y-107849744D01*
X102970256Y-108105338D01*
X103270801Y-108306156D01*
X103604750Y-108444482D01*
X103959268Y-108515000D01*
X104320732Y-108515000D01*
X104675250Y-108444482D01*
X104784449Y-108399250D01*
X107040001Y-110654803D01*
X107040000Y-111445198D01*
X97278998Y-121206201D01*
X97250000Y-121229999D01*
X97226202Y-121258997D01*
X97226201Y-121258998D01*
X97155026Y-121345724D01*
X97084454Y-121477754D01*
X97040998Y-121621015D01*
X97026324Y-121770000D01*
X97030001Y-121807333D01*
X97030000Y-135721928D01*
X96990000Y-135721928D01*
X96865518Y-135734188D01*
X96745820Y-135770498D01*
X96635506Y-135829463D01*
X96538815Y-135908815D01*
X96459463Y-136005506D01*
X96400498Y-136115820D01*
X96364188Y-136235518D01*
X96351928Y-136360000D01*
X96351928Y-137187127D01*
X94740000Y-135575199D01*
X94740000Y-125767322D01*
X94743676Y-125729999D01*
X94740000Y-125692676D01*
X94740000Y-125692667D01*
X94729003Y-125581014D01*
X94685546Y-125437753D01*
X94653182Y-125377205D01*
X94614974Y-125305723D01*
X94543799Y-125218997D01*
X94520001Y-125189999D01*
X94491003Y-125166201D01*
X89071209Y-119746408D01*
X89115000Y-119526260D01*
X89115000Y-119233740D01*
X89057932Y-118946842D01*
X88945990Y-118676589D01*
X88783475Y-118433368D01*
X88576632Y-118226525D01*
X88333411Y-118064010D01*
X88063158Y-117952068D01*
X87776260Y-117895000D01*
X87483740Y-117895000D01*
X87196842Y-117952068D01*
X86926589Y-118064010D01*
X86683368Y-118226525D01*
X86476525Y-118433368D01*
X86314010Y-118676589D01*
X86202068Y-118946842D01*
X86145000Y-119233740D01*
X86145000Y-119526260D01*
X86202068Y-119813158D01*
X86314010Y-120083411D01*
X86476525Y-120326632D01*
X86683368Y-120533475D01*
X86857760Y-120650000D01*
X86683368Y-120766525D01*
X86476525Y-120973368D01*
X86314010Y-121216589D01*
X86202068Y-121486842D01*
X86145000Y-121773740D01*
X86145000Y-122066260D01*
X86202068Y-122353158D01*
X86314010Y-122623411D01*
X86476525Y-122866632D01*
X86683368Y-123073475D01*
X86857760Y-123190000D01*
X86683368Y-123306525D01*
X86476525Y-123513368D01*
X86314010Y-123756589D01*
X86202068Y-124026842D01*
X86145000Y-124313740D01*
X86145000Y-124606260D01*
X86202068Y-124893158D01*
X86314010Y-125163411D01*
X86476525Y-125406632D01*
X86608380Y-125538487D01*
X86535820Y-125560498D01*
X86425506Y-125619463D01*
X86328815Y-125698815D01*
X86249463Y-125795506D01*
X86190498Y-125905820D01*
X86154188Y-126025518D01*
X86141928Y-126150000D01*
X86141928Y-127850000D01*
X86154188Y-127974482D01*
X86190498Y-128094180D01*
X86249463Y-128204494D01*
X86328815Y-128301185D01*
X86425506Y-128380537D01*
X86535820Y-128439502D01*
X86655518Y-128475812D01*
X86780000Y-128488072D01*
X86870000Y-128488072D01*
X86870001Y-132042668D01*
X86866324Y-132080000D01*
X86880998Y-132228985D01*
X86924454Y-132372246D01*
X86995026Y-132504276D01*
X87066201Y-132591002D01*
X87090000Y-132620001D01*
X87118998Y-132643799D01*
X87334822Y-132859623D01*
X87211033Y-132835000D01*
X86888967Y-132835000D01*
X86573088Y-132897832D01*
X86558625Y-132903823D01*
X82040000Y-128385199D01*
X82040000Y-123591388D01*
X82149199Y-123546156D01*
X82449744Y-123345338D01*
X82705338Y-123089744D01*
X82906156Y-122789199D01*
X83044482Y-122455250D01*
X83115000Y-122100732D01*
X83115000Y-121739268D01*
X83044482Y-121384750D01*
X82906156Y-121050801D01*
X82705338Y-120750256D01*
X82449744Y-120494662D01*
X82149199Y-120293844D01*
X81815250Y-120155518D01*
X81460732Y-120085000D01*
X81099268Y-120085000D01*
X80744750Y-120155518D01*
X80410801Y-120293844D01*
X80110256Y-120494662D01*
X79854662Y-120750256D01*
X79653844Y-121050801D01*
X79515518Y-121384750D01*
X79445000Y-121739268D01*
X79445000Y-122100732D01*
X79515518Y-122455250D01*
X79653844Y-122789199D01*
X79854662Y-123089744D01*
X80110256Y-123345338D01*
X80410801Y-123546156D01*
X80520000Y-123591388D01*
X80520001Y-128662668D01*
X80516324Y-128700000D01*
X80530998Y-128848985D01*
X80574454Y-128992246D01*
X80645026Y-129124276D01*
X80693913Y-129183844D01*
X80740000Y-129240001D01*
X80768998Y-129263799D01*
X85483823Y-133978625D01*
X85477832Y-133993088D01*
X85415000Y-134308967D01*
X85415000Y-134631033D01*
X85477832Y-134946912D01*
X85601082Y-135244463D01*
X85780013Y-135512252D01*
X86007748Y-135739987D01*
X86275537Y-135918918D01*
X86290000Y-135924909D01*
X86290001Y-139515091D01*
X86275537Y-139521082D01*
X86007748Y-139700013D01*
X85780013Y-139927748D01*
X85601082Y-140195537D01*
X85477832Y-140493088D01*
X85415000Y-140808967D01*
X85415000Y-141131033D01*
X85477832Y-141446912D01*
X85601082Y-141744463D01*
X85780013Y-142012252D01*
X86007748Y-142239987D01*
X86275537Y-142418918D01*
X86573088Y-142542168D01*
X86888967Y-142605000D01*
X87211033Y-142605000D01*
X87526912Y-142542168D01*
X87824463Y-142418918D01*
X88092252Y-142239987D01*
X88319987Y-142012252D01*
X88498918Y-141744463D01*
X88504909Y-141730000D01*
X93665199Y-141730000D01*
X96391312Y-144456114D01*
X96355000Y-144638665D01*
X96355000Y-144921335D01*
X96410147Y-145198574D01*
X96448017Y-145290000D01*
X78344909Y-145290000D01*
X78338918Y-145275537D01*
X78159987Y-145007748D01*
X77932252Y-144780013D01*
X77664463Y-144601082D01*
X77650000Y-144595091D01*
X77650000Y-141004909D01*
X77664463Y-140998918D01*
X77932252Y-140819987D01*
X77943272Y-140808967D01*
X80915000Y-140808967D01*
X80915000Y-141131033D01*
X80977832Y-141446912D01*
X81101082Y-141744463D01*
X81280013Y-142012252D01*
X81507748Y-142239987D01*
X81775537Y-142418918D01*
X82073088Y-142542168D01*
X82388967Y-142605000D01*
X82711033Y-142605000D01*
X83026912Y-142542168D01*
X83324463Y-142418918D01*
X83592252Y-142239987D01*
X83819987Y-142012252D01*
X83998918Y-141744463D01*
X84122168Y-141446912D01*
X84185000Y-141131033D01*
X84185000Y-140808967D01*
X84122168Y-140493088D01*
X83998918Y-140195537D01*
X83819987Y-139927748D01*
X83592252Y-139700013D01*
X83324463Y-139521082D01*
X83026912Y-139397832D01*
X82711033Y-139335000D01*
X82388967Y-139335000D01*
X82073088Y-139397832D01*
X81775537Y-139521082D01*
X81507748Y-139700013D01*
X81280013Y-139927748D01*
X81101082Y-140195537D01*
X80977832Y-140493088D01*
X80915000Y-140808967D01*
X77943272Y-140808967D01*
X78159987Y-140592252D01*
X78338918Y-140324463D01*
X78462168Y-140026912D01*
X78525000Y-139711033D01*
X78525000Y-139388967D01*
X78462168Y-139073088D01*
X78338918Y-138775537D01*
X78159987Y-138507748D01*
X77932252Y-138280013D01*
X77664463Y-138101082D01*
X77366912Y-137977832D01*
X77051033Y-137915000D01*
X76728967Y-137915000D01*
X76413088Y-137977832D01*
X76398625Y-137983823D01*
X74420000Y-136005199D01*
X74420000Y-134308967D01*
X80915000Y-134308967D01*
X80915000Y-134631033D01*
X80977832Y-134946912D01*
X81101082Y-135244463D01*
X81280013Y-135512252D01*
X81507748Y-135739987D01*
X81775537Y-135918918D01*
X82073088Y-136042168D01*
X82388967Y-136105000D01*
X82711033Y-136105000D01*
X83026912Y-136042168D01*
X83324463Y-135918918D01*
X83592252Y-135739987D01*
X83819987Y-135512252D01*
X83998918Y-135244463D01*
X84122168Y-134946912D01*
X84185000Y-134631033D01*
X84185000Y-134308967D01*
X84122168Y-133993088D01*
X83998918Y-133695537D01*
X83819987Y-133427748D01*
X83592252Y-133200013D01*
X83324463Y-133021082D01*
X83026912Y-132897832D01*
X82711033Y-132835000D01*
X82388967Y-132835000D01*
X82073088Y-132897832D01*
X81775537Y-133021082D01*
X81507748Y-133200013D01*
X81280013Y-133427748D01*
X81101082Y-133695537D01*
X80977832Y-133993088D01*
X80915000Y-134308967D01*
X74420000Y-134308967D01*
X74420000Y-123591388D01*
X74529199Y-123546156D01*
X74829744Y-123345338D01*
X75085338Y-123089744D01*
X75286156Y-122789199D01*
X75424482Y-122455250D01*
X75495000Y-122100732D01*
X75495000Y-121739268D01*
X75424482Y-121384750D01*
X75286156Y-121050801D01*
X75085338Y-120750256D01*
X74829744Y-120494662D01*
X74529199Y-120293844D01*
X74195250Y-120155518D01*
X73840732Y-120085000D01*
X73479268Y-120085000D01*
X73124750Y-120155518D01*
X72790801Y-120293844D01*
X72490256Y-120494662D01*
X72234662Y-120750256D01*
X72033844Y-121050801D01*
X71895518Y-121384750D01*
X71825000Y-121739268D01*
X71825000Y-122100732D01*
X71895518Y-122455250D01*
X72033844Y-122789199D01*
X72234662Y-123089744D01*
X72490256Y-123345338D01*
X72790801Y-123546156D01*
X72900000Y-123591388D01*
X72900001Y-136282668D01*
X72896324Y-136320000D01*
X72910998Y-136468985D01*
X72954454Y-136612246D01*
X73025026Y-136744276D01*
X73073913Y-136803844D01*
X73120000Y-136860001D01*
X73148998Y-136883799D01*
X75323823Y-139058625D01*
X75317832Y-139073088D01*
X75255000Y-139388967D01*
X75255000Y-139711033D01*
X75317832Y-140026912D01*
X75441082Y-140324463D01*
X75620013Y-140592252D01*
X75847748Y-140819987D01*
X76115537Y-140998918D01*
X76130000Y-141004909D01*
X76130001Y-144595091D01*
X76115537Y-144601082D01*
X75847748Y-144780013D01*
X75620013Y-145007748D01*
X75441082Y-145275537D01*
X75317832Y-145573088D01*
X75255000Y-145888967D01*
X75255000Y-146211033D01*
X75317832Y-146526912D01*
X75441082Y-146824463D01*
X75620013Y-147092252D01*
X75847748Y-147319987D01*
X76115537Y-147498918D01*
X76413088Y-147622168D01*
X76728967Y-147685000D01*
X77051033Y-147685000D01*
X77366912Y-147622168D01*
X77664463Y-147498918D01*
X77932252Y-147319987D01*
X78159987Y-147092252D01*
X78338918Y-146824463D01*
X78344909Y-146810000D01*
X96205199Y-146810000D01*
X96391312Y-146996114D01*
X96355000Y-147178665D01*
X96355000Y-147461335D01*
X96410147Y-147738574D01*
X96518320Y-147999727D01*
X96675363Y-148234759D01*
X96875241Y-148434637D01*
X97107759Y-148590000D01*
X96875241Y-148745363D01*
X96675363Y-148945241D01*
X96518320Y-149180273D01*
X96410147Y-149441426D01*
X96355000Y-149718665D01*
X96355000Y-150001335D01*
X96391312Y-150183886D01*
X96205199Y-150370000D01*
X68184909Y-150370000D01*
X68178918Y-150355537D01*
X67999987Y-150087748D01*
X67772252Y-149860013D01*
X67504463Y-149681082D01*
X67490000Y-149675091D01*
X67490000Y-146084909D01*
X67504463Y-146078918D01*
X67772252Y-145899987D01*
X67783272Y-145888967D01*
X70755000Y-145888967D01*
X70755000Y-146211033D01*
X70817832Y-146526912D01*
X70941082Y-146824463D01*
X71120013Y-147092252D01*
X71347748Y-147319987D01*
X71615537Y-147498918D01*
X71913088Y-147622168D01*
X72228967Y-147685000D01*
X72551033Y-147685000D01*
X72866912Y-147622168D01*
X73164463Y-147498918D01*
X73432252Y-147319987D01*
X73659987Y-147092252D01*
X73838918Y-146824463D01*
X73962168Y-146526912D01*
X74025000Y-146211033D01*
X74025000Y-145888967D01*
X73962168Y-145573088D01*
X73838918Y-145275537D01*
X73659987Y-145007748D01*
X73432252Y-144780013D01*
X73164463Y-144601082D01*
X72866912Y-144477832D01*
X72551033Y-144415000D01*
X72228967Y-144415000D01*
X71913088Y-144477832D01*
X71615537Y-144601082D01*
X71347748Y-144780013D01*
X71120013Y-145007748D01*
X70941082Y-145275537D01*
X70817832Y-145573088D01*
X70755000Y-145888967D01*
X67783272Y-145888967D01*
X67999987Y-145672252D01*
X68178918Y-145404463D01*
X68302168Y-145106912D01*
X68365000Y-144791033D01*
X68365000Y-144468967D01*
X68302168Y-144153088D01*
X68178918Y-143855537D01*
X67999987Y-143587748D01*
X67772252Y-143360013D01*
X67504463Y-143181082D01*
X67206912Y-143057832D01*
X66891033Y-142995000D01*
X66800000Y-142995000D01*
X66800000Y-139388967D01*
X70755000Y-139388967D01*
X70755000Y-139711033D01*
X70817832Y-140026912D01*
X70941082Y-140324463D01*
X71120013Y-140592252D01*
X71347748Y-140819987D01*
X71615537Y-140998918D01*
X71913088Y-141122168D01*
X72228967Y-141185000D01*
X72551033Y-141185000D01*
X72866912Y-141122168D01*
X73164463Y-140998918D01*
X73432252Y-140819987D01*
X73659987Y-140592252D01*
X73838918Y-140324463D01*
X73962168Y-140026912D01*
X74025000Y-139711033D01*
X74025000Y-139388967D01*
X73962168Y-139073088D01*
X73838918Y-138775537D01*
X73659987Y-138507748D01*
X73432252Y-138280013D01*
X73164463Y-138101082D01*
X72866912Y-137977832D01*
X72551033Y-137915000D01*
X72228967Y-137915000D01*
X71913088Y-137977832D01*
X71615537Y-138101082D01*
X71347748Y-138280013D01*
X71120013Y-138507748D01*
X70941082Y-138775537D01*
X70817832Y-139073088D01*
X70755000Y-139388967D01*
X66800000Y-139388967D01*
X66800000Y-123591388D01*
X66909199Y-123546156D01*
X67209744Y-123345338D01*
X67465338Y-123089744D01*
X67666156Y-122789199D01*
X67804482Y-122455250D01*
X67875000Y-122100732D01*
X67875000Y-121739268D01*
X67804482Y-121384750D01*
X67666156Y-121050801D01*
X67465338Y-120750256D01*
X67209744Y-120494662D01*
X66909199Y-120293844D01*
X66575250Y-120155518D01*
X66220732Y-120085000D01*
X65859268Y-120085000D01*
X65504750Y-120155518D01*
X65170801Y-120293844D01*
X64870256Y-120494662D01*
X64614662Y-120750256D01*
X64413844Y-121050801D01*
X64275518Y-121384750D01*
X64205000Y-121739268D01*
X48628072Y-121739268D01*
X48628072Y-120967500D01*
X48615812Y-120843018D01*
X48579502Y-120723320D01*
X48520537Y-120613006D01*
X48441185Y-120516315D01*
X48344494Y-120436963D01*
X48252781Y-120387941D01*
X48365969Y-120246923D01*
X48400810Y-120180000D01*
X51901928Y-120180000D01*
X51914188Y-120304482D01*
X51950498Y-120424180D01*
X52009463Y-120534494D01*
X52088815Y-120631185D01*
X52185506Y-120710537D01*
X52295820Y-120769502D01*
X52415518Y-120805812D01*
X52540000Y-120818072D01*
X53054250Y-120815000D01*
X53213000Y-120656250D01*
X53213000Y-119507000D01*
X53467000Y-119507000D01*
X53467000Y-120656250D01*
X53625750Y-120815000D01*
X54140000Y-120818072D01*
X54264482Y-120805812D01*
X54384180Y-120769502D01*
X54494494Y-120710537D01*
X54591185Y-120631185D01*
X54670537Y-120534494D01*
X54729502Y-120424180D01*
X54745117Y-120372702D01*
X58876903Y-120372702D01*
X58948486Y-120616671D01*
X59203996Y-120737571D01*
X59478184Y-120806300D01*
X59760512Y-120820217D01*
X60040130Y-120778787D01*
X60306292Y-120683603D01*
X60431514Y-120616671D01*
X60503097Y-120372702D01*
X59690000Y-119559605D01*
X58876903Y-120372702D01*
X54745117Y-120372702D01*
X54765812Y-120304482D01*
X54778072Y-120180000D01*
X54775000Y-119665750D01*
X54616250Y-119507000D01*
X53467000Y-119507000D01*
X53213000Y-119507000D01*
X52063750Y-119507000D01*
X51905000Y-119665750D01*
X51901928Y-120180000D01*
X48400810Y-120180000D01*
X48509571Y-119971094D01*
X48580563Y-119752980D01*
X48460594Y-119507000D01*
X47117000Y-119507000D01*
X47117000Y-119527000D01*
X46863000Y-119527000D01*
X46863000Y-119507000D01*
X45519406Y-119507000D01*
X45399437Y-119752980D01*
X45470429Y-119971094D01*
X45614031Y-120246923D01*
X45727219Y-120387941D01*
X45635506Y-120436963D01*
X45538815Y-120516315D01*
X45459463Y-120613006D01*
X45400498Y-120723320D01*
X45364188Y-120843018D01*
X45351928Y-120967500D01*
X45351928Y-122872500D01*
X45364188Y-122996982D01*
X45400498Y-123116680D01*
X45459463Y-123226994D01*
X45538815Y-123323685D01*
X45635506Y-123403037D01*
X45745820Y-123462002D01*
X45865518Y-123498312D01*
X45990000Y-123510572D01*
X46230000Y-123510572D01*
X46230001Y-127955196D01*
X45094449Y-129090749D01*
X44985250Y-129045518D01*
X44630732Y-128975000D01*
X44269268Y-128975000D01*
X43914750Y-129045518D01*
X43580801Y-129183844D01*
X43280256Y-129384662D01*
X43024662Y-129640256D01*
X42823844Y-129940801D01*
X42685518Y-130274750D01*
X42615000Y-130629268D01*
X37490000Y-130629268D01*
X37490000Y-123570435D01*
X39049871Y-123570435D01*
X39154644Y-123873344D01*
X39316499Y-124149992D01*
X39529215Y-124389748D01*
X39784618Y-124583399D01*
X40072893Y-124723502D01*
X40259566Y-124780124D01*
X40513000Y-124660777D01*
X40513000Y-123317000D01*
X40767000Y-123317000D01*
X40767000Y-124660777D01*
X41020434Y-124780124D01*
X41207107Y-124723502D01*
X41495382Y-124583399D01*
X41750785Y-124389748D01*
X41963501Y-124149992D01*
X42125356Y-123873344D01*
X42230129Y-123570435D01*
X42111315Y-123317000D01*
X40767000Y-123317000D01*
X40513000Y-123317000D01*
X39168685Y-123317000D01*
X39049871Y-123570435D01*
X37490000Y-123570435D01*
X37490000Y-122809565D01*
X39049871Y-122809565D01*
X39168685Y-123063000D01*
X40513000Y-123063000D01*
X40513000Y-121719223D01*
X40767000Y-121719223D01*
X40767000Y-123063000D01*
X42111315Y-123063000D01*
X42230129Y-122809565D01*
X42125356Y-122506656D01*
X41963501Y-122230008D01*
X41750785Y-121990252D01*
X41495382Y-121796601D01*
X41207107Y-121656498D01*
X41020434Y-121599876D01*
X40767000Y-121719223D01*
X40513000Y-121719223D01*
X40259566Y-121599876D01*
X40072893Y-121656498D01*
X39784618Y-121796601D01*
X39529215Y-121990252D01*
X39316499Y-122230008D01*
X39154644Y-122506656D01*
X39049871Y-122809565D01*
X37490000Y-122809565D01*
X37490000Y-117110000D01*
X39001928Y-117110000D01*
X39001928Y-119110000D01*
X39014188Y-119234482D01*
X39050498Y-119354180D01*
X39109463Y-119464494D01*
X39188815Y-119561185D01*
X39285506Y-119640537D01*
X39395820Y-119699502D01*
X39515518Y-119735812D01*
X39640000Y-119748072D01*
X41640000Y-119748072D01*
X41764482Y-119735812D01*
X41884180Y-119699502D01*
X41994494Y-119640537D01*
X42091185Y-119561185D01*
X42170537Y-119464494D01*
X42178010Y-119450512D01*
X58249783Y-119450512D01*
X58291213Y-119730130D01*
X58386397Y-119996292D01*
X58453329Y-120121514D01*
X58697298Y-120193097D01*
X59510395Y-119380000D01*
X59869605Y-119380000D01*
X60682702Y-120193097D01*
X60926671Y-120121514D01*
X61047571Y-119866004D01*
X61116300Y-119591816D01*
X61130217Y-119309488D01*
X61088787Y-119029870D01*
X60993603Y-118763708D01*
X60926671Y-118638486D01*
X60682702Y-118566903D01*
X59869605Y-119380000D01*
X59510395Y-119380000D01*
X58697298Y-118566903D01*
X58453329Y-118638486D01*
X58332429Y-118893996D01*
X58263700Y-119168184D01*
X58249783Y-119450512D01*
X42178010Y-119450512D01*
X42229502Y-119354180D01*
X42265812Y-119234482D01*
X42278072Y-119110000D01*
X42278072Y-117110000D01*
X42265812Y-116985518D01*
X42229502Y-116865820D01*
X42170537Y-116755506D01*
X42091185Y-116658815D01*
X41994494Y-116579463D01*
X41884180Y-116520498D01*
X41764482Y-116484188D01*
X41640000Y-116471928D01*
X41525000Y-116471928D01*
X41525000Y-114164521D01*
X41554759Y-114144637D01*
X41754637Y-113944759D01*
X41774521Y-113915000D01*
X41866531Y-113915000D01*
X41910000Y-113919281D01*
X41953469Y-113915000D01*
X42813422Y-113915000D01*
X45389432Y-116491011D01*
X45377970Y-116528796D01*
X45347319Y-116840000D01*
X45377970Y-117151204D01*
X45468745Y-117450449D01*
X45616155Y-117726235D01*
X45814537Y-117967963D01*
X45993899Y-118115163D01*
X45808685Y-118270563D01*
X45614031Y-118513077D01*
X45470429Y-118788906D01*
X45399437Y-119007020D01*
X45519406Y-119253000D01*
X46863000Y-119253000D01*
X46863000Y-119233000D01*
X47117000Y-119233000D01*
X47117000Y-119253000D01*
X48460594Y-119253000D01*
X48580563Y-119007020D01*
X48509571Y-118788906D01*
X48365969Y-118513077D01*
X48171315Y-118270563D01*
X47986101Y-118115163D01*
X48165463Y-117967963D01*
X48363845Y-117726235D01*
X48511255Y-117450449D01*
X48602030Y-117151204D01*
X48632681Y-116840000D01*
X48602030Y-116528796D01*
X48511255Y-116229551D01*
X48363845Y-115953765D01*
X48165463Y-115712037D01*
X47923735Y-115513655D01*
X47647949Y-115366245D01*
X47348704Y-115275470D01*
X47115486Y-115252500D01*
X46864514Y-115252500D01*
X46672947Y-115271368D01*
X43836532Y-112434954D01*
X43808817Y-112401183D01*
X43798699Y-112392879D01*
X46643909Y-109547670D01*
X46829017Y-109584490D01*
X47150983Y-109584490D01*
X47466763Y-109521678D01*
X47764222Y-109398467D01*
X48031927Y-109219592D01*
X48259592Y-108991927D01*
X48438467Y-108724222D01*
X48561678Y-108426763D01*
X48624490Y-108110983D01*
X48624490Y-107789017D01*
X50435510Y-107789017D01*
X50435510Y-108110983D01*
X50498322Y-108426763D01*
X50621533Y-108724222D01*
X50800408Y-108991927D01*
X51028073Y-109219592D01*
X51295778Y-109398467D01*
X51310000Y-109404358D01*
X51310001Y-116072668D01*
X51306324Y-116110000D01*
X51310001Y-116147333D01*
X51320998Y-116258986D01*
X51334180Y-116302442D01*
X51364454Y-116402246D01*
X51435026Y-116534276D01*
X51506201Y-116621002D01*
X51530000Y-116650001D01*
X51558998Y-116673799D01*
X51941312Y-117056114D01*
X51905000Y-117238665D01*
X51905000Y-117521335D01*
X51960147Y-117798574D01*
X52068320Y-118059727D01*
X52105393Y-118115210D01*
X52088815Y-118128815D01*
X52009463Y-118225506D01*
X51950498Y-118335820D01*
X51914188Y-118455518D01*
X51901928Y-118580000D01*
X51905000Y-119094250D01*
X52063750Y-119253000D01*
X53213000Y-119253000D01*
X53213000Y-119233000D01*
X53467000Y-119233000D01*
X53467000Y-119253000D01*
X54616250Y-119253000D01*
X54775000Y-119094250D01*
X54778072Y-118580000D01*
X54765812Y-118455518D01*
X54745118Y-118387298D01*
X58876903Y-118387298D01*
X59690000Y-119200395D01*
X60503097Y-118387298D01*
X60431514Y-118143329D01*
X60176004Y-118022429D01*
X59901816Y-117953700D01*
X59619488Y-117939783D01*
X59339870Y-117981213D01*
X59073708Y-118076397D01*
X58948486Y-118143329D01*
X58876903Y-118387298D01*
X54745118Y-118387298D01*
X54729502Y-118335820D01*
X54670537Y-118225506D01*
X54591185Y-118128815D01*
X54574607Y-118115210D01*
X54611680Y-118059727D01*
X54719853Y-117798574D01*
X54775000Y-117521335D01*
X54775000Y-117238665D01*
X54719853Y-116961426D01*
X54611680Y-116700273D01*
X54454637Y-116465241D01*
X54254759Y-116265363D01*
X54019727Y-116108320D01*
X53758574Y-116000147D01*
X53481335Y-115945000D01*
X53198665Y-115945000D01*
X53016114Y-115981312D01*
X52830000Y-115795199D01*
X52830000Y-114238665D01*
X58255000Y-114238665D01*
X58255000Y-114521335D01*
X58310147Y-114798574D01*
X58418320Y-115059727D01*
X58575363Y-115294759D01*
X58775241Y-115494637D01*
X59010273Y-115651680D01*
X59271426Y-115759853D01*
X59548665Y-115815000D01*
X59831335Y-115815000D01*
X60108574Y-115759853D01*
X60369727Y-115651680D01*
X60604759Y-115494637D01*
X60804637Y-115294759D01*
X60961680Y-115059727D01*
X61069853Y-114798574D01*
X61125000Y-114521335D01*
X61125000Y-114238665D01*
X61069853Y-113961426D01*
X60961680Y-113700273D01*
X60804637Y-113465241D01*
X60604759Y-113265363D01*
X60369727Y-113108320D01*
X60108574Y-113000147D01*
X59831335Y-112945000D01*
X59548665Y-112945000D01*
X59271426Y-113000147D01*
X59010273Y-113108320D01*
X58775241Y-113265363D01*
X58575363Y-113465241D01*
X58418320Y-113700273D01*
X58310147Y-113961426D01*
X58255000Y-114238665D01*
X52830000Y-114238665D01*
X52830000Y-109404358D01*
X52844222Y-109398467D01*
X53111927Y-109219592D01*
X53339592Y-108991927D01*
X53518467Y-108724222D01*
X53641678Y-108426763D01*
X53704490Y-108110983D01*
X53704490Y-107957980D01*
X64941626Y-107957980D01*
X65061514Y-108242836D01*
X65385210Y-108403699D01*
X65734069Y-108498322D01*
X66094684Y-108523067D01*
X66453198Y-108476985D01*
X66795833Y-108361846D01*
X67018486Y-108242836D01*
X67138374Y-107957980D01*
X72561626Y-107957980D01*
X72681514Y-108242836D01*
X73005210Y-108403699D01*
X73354069Y-108498322D01*
X73714684Y-108523067D01*
X74073198Y-108476985D01*
X74415833Y-108361846D01*
X74638486Y-108242836D01*
X74758374Y-107957980D01*
X80181626Y-107957980D01*
X80301514Y-108242836D01*
X80625210Y-108403699D01*
X80974069Y-108498322D01*
X81334684Y-108523067D01*
X81693198Y-108476985D01*
X82035833Y-108361846D01*
X82258486Y-108242836D01*
X82378374Y-107957980D01*
X87801626Y-107957980D01*
X87921514Y-108242836D01*
X88245210Y-108403699D01*
X88594069Y-108498322D01*
X88954684Y-108523067D01*
X89313198Y-108476985D01*
X89655833Y-108361846D01*
X89878486Y-108242836D01*
X89998374Y-107957980D01*
X88900000Y-106859605D01*
X87801626Y-107957980D01*
X82378374Y-107957980D01*
X81280000Y-106859605D01*
X80181626Y-107957980D01*
X74758374Y-107957980D01*
X73660000Y-106859605D01*
X72561626Y-107957980D01*
X67138374Y-107957980D01*
X66040000Y-106859605D01*
X64941626Y-107957980D01*
X53704490Y-107957980D01*
X53704490Y-107789017D01*
X53641678Y-107473237D01*
X53518467Y-107175778D01*
X53339592Y-106908073D01*
X53166203Y-106734684D01*
X64196933Y-106734684D01*
X64243015Y-107093198D01*
X64358154Y-107435833D01*
X64477164Y-107658486D01*
X64762020Y-107778374D01*
X65860395Y-106680000D01*
X66219605Y-106680000D01*
X67317980Y-107778374D01*
X67602836Y-107658486D01*
X67763699Y-107334790D01*
X67858322Y-106985931D01*
X67875562Y-106734684D01*
X71816933Y-106734684D01*
X71863015Y-107093198D01*
X71978154Y-107435833D01*
X72097164Y-107658486D01*
X72382020Y-107778374D01*
X73480395Y-106680000D01*
X73839605Y-106680000D01*
X74937980Y-107778374D01*
X75222836Y-107658486D01*
X75383699Y-107334790D01*
X75478322Y-106985931D01*
X75495562Y-106734684D01*
X79436933Y-106734684D01*
X79483015Y-107093198D01*
X79598154Y-107435833D01*
X79717164Y-107658486D01*
X80002020Y-107778374D01*
X81100395Y-106680000D01*
X81459605Y-106680000D01*
X82557980Y-107778374D01*
X82842836Y-107658486D01*
X83003699Y-107334790D01*
X83098322Y-106985931D01*
X83115562Y-106734684D01*
X87056933Y-106734684D01*
X87103015Y-107093198D01*
X87218154Y-107435833D01*
X87337164Y-107658486D01*
X87622020Y-107778374D01*
X88720395Y-106680000D01*
X89079605Y-106680000D01*
X90177980Y-107778374D01*
X90462836Y-107658486D01*
X90623699Y-107334790D01*
X90718322Y-106985931D01*
X90743067Y-106625316D01*
X90696985Y-106266802D01*
X90581846Y-105924167D01*
X90462836Y-105701514D01*
X90177980Y-105581626D01*
X89079605Y-106680000D01*
X88720395Y-106680000D01*
X87622020Y-105581626D01*
X87337164Y-105701514D01*
X87176301Y-106025210D01*
X87081678Y-106374069D01*
X87056933Y-106734684D01*
X83115562Y-106734684D01*
X83123067Y-106625316D01*
X83076985Y-106266802D01*
X82961846Y-105924167D01*
X82842836Y-105701514D01*
X82557980Y-105581626D01*
X81459605Y-106680000D01*
X81100395Y-106680000D01*
X80002020Y-105581626D01*
X79717164Y-105701514D01*
X79556301Y-106025210D01*
X79461678Y-106374069D01*
X79436933Y-106734684D01*
X75495562Y-106734684D01*
X75503067Y-106625316D01*
X75456985Y-106266802D01*
X75341846Y-105924167D01*
X75222836Y-105701514D01*
X74937980Y-105581626D01*
X73839605Y-106680000D01*
X73480395Y-106680000D01*
X72382020Y-105581626D01*
X72097164Y-105701514D01*
X71936301Y-106025210D01*
X71841678Y-106374069D01*
X71816933Y-106734684D01*
X67875562Y-106734684D01*
X67883067Y-106625316D01*
X67836985Y-106266802D01*
X67721846Y-105924167D01*
X67602836Y-105701514D01*
X67317980Y-105581626D01*
X66219605Y-106680000D01*
X65860395Y-106680000D01*
X64762020Y-105581626D01*
X64477164Y-105701514D01*
X64316301Y-106025210D01*
X64221678Y-106374069D01*
X64196933Y-106734684D01*
X53166203Y-106734684D01*
X53111927Y-106680408D01*
X52844222Y-106501533D01*
X52546763Y-106378322D01*
X52230983Y-106315510D01*
X51909017Y-106315510D01*
X51593237Y-106378322D01*
X51295778Y-106501533D01*
X51028073Y-106680408D01*
X50800408Y-106908073D01*
X50621533Y-107175778D01*
X50498322Y-107473237D01*
X50435510Y-107789017D01*
X48624490Y-107789017D01*
X48561678Y-107473237D01*
X48438467Y-107175778D01*
X48259592Y-106908073D01*
X48031927Y-106680408D01*
X47764222Y-106501533D01*
X47466763Y-106378322D01*
X47150983Y-106315510D01*
X46829017Y-106315510D01*
X46513237Y-106378322D01*
X46215778Y-106501533D01*
X45948073Y-106680408D01*
X45720408Y-106908073D01*
X45541533Y-107175778D01*
X45418322Y-107473237D01*
X45355510Y-107789017D01*
X45355510Y-108110983D01*
X45392330Y-108296091D01*
X41663909Y-112024513D01*
X41554759Y-111915363D01*
X41319727Y-111758320D01*
X41058574Y-111650147D01*
X40781335Y-111595000D01*
X40498665Y-111595000D01*
X40221426Y-111650147D01*
X39960273Y-111758320D01*
X39725241Y-111915363D01*
X39525363Y-112115241D01*
X39368320Y-112350273D01*
X39260147Y-112611426D01*
X39205000Y-112888665D01*
X39205000Y-113171335D01*
X39260147Y-113448574D01*
X39368320Y-113709727D01*
X39525363Y-113944759D01*
X39725241Y-114144637D01*
X39755000Y-114164521D01*
X39755001Y-116471928D01*
X39640000Y-116471928D01*
X39515518Y-116484188D01*
X39395820Y-116520498D01*
X39285506Y-116579463D01*
X39188815Y-116658815D01*
X39109463Y-116755506D01*
X39050498Y-116865820D01*
X39014188Y-116985518D01*
X39001928Y-117110000D01*
X37490000Y-117110000D01*
X37490000Y-107888665D01*
X39205000Y-107888665D01*
X39205000Y-108171335D01*
X39260147Y-108448574D01*
X39368320Y-108709727D01*
X39525363Y-108944759D01*
X39725241Y-109144637D01*
X39960273Y-109301680D01*
X40221426Y-109409853D01*
X40498665Y-109465000D01*
X40781335Y-109465000D01*
X41058574Y-109409853D01*
X41319727Y-109301680D01*
X41554759Y-109144637D01*
X41754637Y-108944759D01*
X41911680Y-108709727D01*
X42019853Y-108448574D01*
X42075000Y-108171335D01*
X42075000Y-107888665D01*
X42019853Y-107611426D01*
X41911680Y-107350273D01*
X41754637Y-107115241D01*
X41554759Y-106915363D01*
X41319727Y-106758320D01*
X41058574Y-106650147D01*
X40781335Y-106595000D01*
X40498665Y-106595000D01*
X40221426Y-106650147D01*
X39960273Y-106758320D01*
X39725241Y-106915363D01*
X39525363Y-107115241D01*
X39368320Y-107350273D01*
X39260147Y-107611426D01*
X39205000Y-107888665D01*
X37490000Y-107888665D01*
X37490000Y-105402020D01*
X64941626Y-105402020D01*
X66040000Y-106500395D01*
X67138374Y-105402020D01*
X72561626Y-105402020D01*
X73660000Y-106500395D01*
X74758374Y-105402020D01*
X80181626Y-105402020D01*
X81280000Y-106500395D01*
X82378374Y-105402020D01*
X87801626Y-105402020D01*
X88900000Y-106500395D01*
X89998374Y-105402020D01*
X89878486Y-105117164D01*
X89554790Y-104956301D01*
X89205931Y-104861678D01*
X88845316Y-104836933D01*
X88486802Y-104883015D01*
X88144167Y-104998154D01*
X87921514Y-105117164D01*
X87801626Y-105402020D01*
X82378374Y-105402020D01*
X82258486Y-105117164D01*
X81934790Y-104956301D01*
X81585931Y-104861678D01*
X81225316Y-104836933D01*
X80866802Y-104883015D01*
X80524167Y-104998154D01*
X80301514Y-105117164D01*
X80181626Y-105402020D01*
X74758374Y-105402020D01*
X74638486Y-105117164D01*
X74314790Y-104956301D01*
X73965931Y-104861678D01*
X73605316Y-104836933D01*
X73246802Y-104883015D01*
X72904167Y-104998154D01*
X72681514Y-105117164D01*
X72561626Y-105402020D01*
X67138374Y-105402020D01*
X67018486Y-105117164D01*
X66694790Y-104956301D01*
X66345931Y-104861678D01*
X65985316Y-104836933D01*
X65626802Y-104883015D01*
X65284167Y-104998154D01*
X65061514Y-105117164D01*
X64941626Y-105402020D01*
X37490000Y-105402020D01*
X37490000Y-104800000D01*
X133960000Y-104800000D01*
X133960001Y-174600000D01*
G37*
X133960001Y-174600000D02*
X37490000Y-174600000D01*
X37490000Y-166740000D01*
X53071928Y-166740000D01*
X53071928Y-168540000D01*
X53084188Y-168664482D01*
X53120498Y-168784180D01*
X53179463Y-168894494D01*
X53258815Y-168991185D01*
X53355506Y-169070537D01*
X53465820Y-169129502D01*
X53585518Y-169165812D01*
X53710000Y-169178072D01*
X55510000Y-169178072D01*
X55634482Y-169165812D01*
X55754180Y-169129502D01*
X55864494Y-169070537D01*
X55961185Y-168991185D01*
X56040537Y-168894494D01*
X56099502Y-168784180D01*
X56105056Y-168765873D01*
X56171495Y-168832312D01*
X56422905Y-169000299D01*
X56702257Y-169116011D01*
X56998816Y-169175000D01*
X57301184Y-169175000D01*
X57597743Y-169116011D01*
X57877095Y-169000299D01*
X58128505Y-168832312D01*
X58342312Y-168618505D01*
X58510299Y-168367095D01*
X58626011Y-168087743D01*
X58685000Y-167791184D01*
X58685000Y-167488816D01*
X58626011Y-167192257D01*
X58510299Y-166912905D01*
X58342312Y-166661495D01*
X58128505Y-166447688D01*
X57877095Y-166279701D01*
X57753884Y-166228665D01*
X73495000Y-166228665D01*
X73495000Y-166511335D01*
X73550147Y-166788574D01*
X73658320Y-167049727D01*
X73815363Y-167284759D01*
X74015241Y-167484637D01*
X74250273Y-167641680D01*
X74511426Y-167749853D01*
X74788665Y-167805000D01*
X75071335Y-167805000D01*
X75348574Y-167749853D01*
X75609727Y-167641680D01*
X75844759Y-167484637D01*
X76044637Y-167284759D01*
X76201680Y-167049727D01*
X76309853Y-166788574D01*
X76365000Y-166511335D01*
X76365000Y-166228665D01*
X76309853Y-165951426D01*
X76201680Y-165690273D01*
X76044637Y-165455241D01*
X75844759Y-165255363D01*
X75609727Y-165098320D01*
X75348574Y-164990147D01*
X75071335Y-164935000D01*
X74788665Y-164935000D01*
X74511426Y-164990147D01*
X74250273Y-165098320D01*
X74015241Y-165255363D01*
X73815363Y-165455241D01*
X73658320Y-165690273D01*
X73550147Y-165951426D01*
X73495000Y-166228665D01*
X57753884Y-166228665D01*
X57597743Y-166163989D01*
X57301184Y-166105000D01*
X56998816Y-166105000D01*
X56741070Y-166156269D01*
X56640000Y-166055199D01*
X56640000Y-162961388D01*
X56749199Y-162916156D01*
X57049744Y-162715338D01*
X57305338Y-162459744D01*
X57506156Y-162159199D01*
X57644482Y-161825250D01*
X57715000Y-161470732D01*
X57715000Y-161148665D01*
X73495000Y-161148665D01*
X73495000Y-161431335D01*
X73550147Y-161708574D01*
X73658320Y-161969727D01*
X73815363Y-162204759D01*
X74015241Y-162404637D01*
X74250273Y-162561680D01*
X74511426Y-162669853D01*
X74788665Y-162725000D01*
X75071335Y-162725000D01*
X75348574Y-162669853D01*
X75609727Y-162561680D01*
X75844759Y-162404637D01*
X76044637Y-162204759D01*
X76201680Y-161969727D01*
X76309853Y-161708574D01*
X76365000Y-161431335D01*
X76365000Y-161148665D01*
X78495000Y-161148665D01*
X78495000Y-161431335D01*
X78550147Y-161708574D01*
X78658320Y-161969727D01*
X78815363Y-162204759D01*
X79015241Y-162404637D01*
X79250273Y-162561680D01*
X79511426Y-162669853D01*
X79788665Y-162725000D01*
X80071335Y-162725000D01*
X80348574Y-162669853D01*
X80609727Y-162561680D01*
X80844759Y-162404637D01*
X81044637Y-162204759D01*
X81148043Y-162050000D01*
X85202091Y-162050000D01*
X85284201Y-162172886D01*
X85477114Y-162365799D01*
X85703957Y-162517371D01*
X85956011Y-162621775D01*
X86223589Y-162675000D01*
X86496411Y-162675000D01*
X86763989Y-162621775D01*
X87016043Y-162517371D01*
X87242886Y-162365799D01*
X87435799Y-162172886D01*
X87517909Y-162050000D01*
X93942678Y-162050000D01*
X93980000Y-162053676D01*
X94017322Y-162050000D01*
X94017333Y-162050000D01*
X94128986Y-162039003D01*
X94272247Y-161995546D01*
X94404276Y-161924974D01*
X94520001Y-161830001D01*
X94543804Y-161800997D01*
X96355000Y-159989801D01*
X96355000Y-160161335D01*
X96391312Y-160343885D01*
X91325199Y-165410000D01*
X87517909Y-165410000D01*
X87435799Y-165287114D01*
X87242886Y-165094201D01*
X87016043Y-164942629D01*
X86763989Y-164838225D01*
X86496411Y-164785000D01*
X86223589Y-164785000D01*
X85956011Y-164838225D01*
X85703957Y-164942629D01*
X85477114Y-165094201D01*
X85284201Y-165287114D01*
X85132629Y-165513957D01*
X85092847Y-165610000D01*
X81148043Y-165610000D01*
X81044637Y-165455241D01*
X80844759Y-165255363D01*
X80609727Y-165098320D01*
X80348574Y-164990147D01*
X80071335Y-164935000D01*
X79788665Y-164935000D01*
X79511426Y-164990147D01*
X79250273Y-165098320D01*
X79015241Y-165255363D01*
X78815363Y-165455241D01*
X78658320Y-165690273D01*
X78550147Y-165951426D01*
X78495000Y-166228665D01*
X78495000Y-166511335D01*
X78550147Y-166788574D01*
X78658320Y-167049727D01*
X78815363Y-167284759D01*
X79015241Y-167484637D01*
X79250273Y-167641680D01*
X79511426Y-167749853D01*
X79788665Y-167805000D01*
X80071335Y-167805000D01*
X80348574Y-167749853D01*
X80609727Y-167641680D01*
X80844759Y-167484637D01*
X81044637Y-167284759D01*
X81148043Y-167130000D01*
X85361315Y-167130000D01*
X85477114Y-167245799D01*
X85703957Y-167397371D01*
X85956011Y-167501775D01*
X86223589Y-167555000D01*
X86496411Y-167555000D01*
X86763989Y-167501775D01*
X87016043Y-167397371D01*
X87242886Y-167245799D01*
X87435799Y-167052886D01*
X87517909Y-166930000D01*
X91602678Y-166930000D01*
X91640000Y-166933676D01*
X91677322Y-166930000D01*
X91677333Y-166930000D01*
X91788986Y-166919003D01*
X91932247Y-166875546D01*
X92064276Y-166804974D01*
X92180001Y-166710001D01*
X92203804Y-166680997D01*
X96355000Y-162529802D01*
X96355000Y-162701335D01*
X96410147Y-162978574D01*
X96518320Y-163239727D01*
X96675363Y-163474759D01*
X96875241Y-163674637D01*
X97107759Y-163830000D01*
X96875241Y-163985363D01*
X96675363Y-164185241D01*
X96518320Y-164420273D01*
X96410147Y-164681426D01*
X96355000Y-164958665D01*
X96355000Y-165241335D01*
X96410147Y-165518574D01*
X96518320Y-165779727D01*
X96675363Y-166014759D01*
X96875241Y-166214637D01*
X97107759Y-166370000D01*
X96875241Y-166525363D01*
X96675363Y-166725241D01*
X96518320Y-166960273D01*
X96410147Y-167221426D01*
X96355000Y-167498665D01*
X96355000Y-167781335D01*
X96410147Y-168058574D01*
X96518320Y-168319727D01*
X96675363Y-168554759D01*
X96875241Y-168754637D01*
X97107759Y-168910000D01*
X96875241Y-169065363D01*
X96675363Y-169265241D01*
X96518320Y-169500273D01*
X96410147Y-169761426D01*
X96355000Y-170038665D01*
X96355000Y-170321335D01*
X96410147Y-170598574D01*
X96518320Y-170859727D01*
X96675363Y-171094759D01*
X96875241Y-171294637D01*
X97110273Y-171451680D01*
X97371426Y-171559853D01*
X97648665Y-171615000D01*
X97931335Y-171615000D01*
X98208574Y-171559853D01*
X98469727Y-171451680D01*
X98704759Y-171294637D01*
X98904637Y-171094759D01*
X99061680Y-170859727D01*
X99169853Y-170598574D01*
X99225000Y-170321335D01*
X99225000Y-170038665D01*
X99169853Y-169761426D01*
X99061680Y-169500273D01*
X98904637Y-169265241D01*
X98704759Y-169065363D01*
X98472241Y-168910000D01*
X98704759Y-168754637D01*
X98904637Y-168554759D01*
X99061680Y-168319727D01*
X99169853Y-168058574D01*
X99225000Y-167781335D01*
X99225000Y-167498665D01*
X99169853Y-167221426D01*
X99061680Y-166960273D01*
X98904637Y-166725241D01*
X98704759Y-166525363D01*
X98472241Y-166370000D01*
X98704759Y-166214637D01*
X98904637Y-166014759D01*
X99061680Y-165779727D01*
X99169853Y-165518574D01*
X99225000Y-165241335D01*
X99225000Y-164958665D01*
X99169853Y-164681426D01*
X99061680Y-164420273D01*
X98904637Y-164185241D01*
X98704759Y-163985363D01*
X98472241Y-163830000D01*
X98704759Y-163674637D01*
X98904637Y-163474759D01*
X99061680Y-163239727D01*
X99169853Y-162978574D01*
X99225000Y-162701335D01*
X99225000Y-162418665D01*
X99169853Y-162141426D01*
X99061680Y-161880273D01*
X98904637Y-161645241D01*
X98704759Y-161445363D01*
X98472241Y-161290000D01*
X98704759Y-161134637D01*
X98904637Y-160934759D01*
X99061680Y-160699727D01*
X99169853Y-160438574D01*
X99225000Y-160161335D01*
X99225000Y-159878665D01*
X103975000Y-159878665D01*
X103975000Y-160161335D01*
X104030147Y-160438574D01*
X104138320Y-160699727D01*
X104295363Y-160934759D01*
X104495241Y-161134637D01*
X104727759Y-161290000D01*
X104495241Y-161445363D01*
X104295363Y-161645241D01*
X104138320Y-161880273D01*
X104030147Y-162141426D01*
X103975000Y-162418665D01*
X103975000Y-162701335D01*
X104030147Y-162978574D01*
X104138320Y-163239727D01*
X104295363Y-163474759D01*
X104495241Y-163674637D01*
X104727759Y-163830000D01*
X104495241Y-163985363D01*
X104295363Y-164185241D01*
X104138320Y-164420273D01*
X104030147Y-164681426D01*
X103975000Y-164958665D01*
X103975000Y-165241335D01*
X104030147Y-165518574D01*
X104138320Y-165779727D01*
X104295363Y-166014759D01*
X104495241Y-166214637D01*
X104727759Y-166370000D01*
X104495241Y-166525363D01*
X104295363Y-166725241D01*
X104138320Y-166960273D01*
X104030147Y-167221426D01*
X103975000Y-167498665D01*
X103975000Y-167781335D01*
X104030147Y-168058574D01*
X104138320Y-168319727D01*
X104295363Y-168554759D01*
X104495241Y-168754637D01*
X104727759Y-168910000D01*
X104495241Y-169065363D01*
X104295363Y-169265241D01*
X104138320Y-169500273D01*
X104030147Y-169761426D01*
X103975000Y-170038665D01*
X103975000Y-170321335D01*
X104030147Y-170598574D01*
X104138320Y-170859727D01*
X104295363Y-171094759D01*
X104495241Y-171294637D01*
X104730273Y-171451680D01*
X104991426Y-171559853D01*
X105268665Y-171615000D01*
X105551335Y-171615000D01*
X105828574Y-171559853D01*
X106089727Y-171451680D01*
X106324759Y-171294637D01*
X106524637Y-171094759D01*
X106681680Y-170859727D01*
X106789853Y-170598574D01*
X106845000Y-170321335D01*
X106845000Y-170038665D01*
X106789853Y-169761426D01*
X106681680Y-169500273D01*
X106524637Y-169265241D01*
X106324759Y-169065363D01*
X106092241Y-168910000D01*
X106324759Y-168754637D01*
X106524637Y-168554759D01*
X106681680Y-168319727D01*
X106789853Y-168058574D01*
X106845000Y-167781335D01*
X106845000Y-167498665D01*
X106789853Y-167221426D01*
X106681680Y-166960273D01*
X106524637Y-166725241D01*
X106324759Y-166525363D01*
X106092241Y-166370000D01*
X106324759Y-166214637D01*
X106524637Y-166014759D01*
X106681680Y-165779727D01*
X106789853Y-165518574D01*
X106845000Y-165241335D01*
X106845000Y-164958665D01*
X106789853Y-164681426D01*
X106681680Y-164420273D01*
X106524637Y-164185241D01*
X106324759Y-163985363D01*
X106092241Y-163830000D01*
X106324759Y-163674637D01*
X106524637Y-163474759D01*
X106681680Y-163239727D01*
X106789853Y-162978574D01*
X106845000Y-162701335D01*
X106845000Y-162418665D01*
X106789853Y-162141426D01*
X106681680Y-161880273D01*
X106524637Y-161645241D01*
X106324759Y-161445363D01*
X106092241Y-161290000D01*
X106324759Y-161134637D01*
X106524637Y-160934759D01*
X106681680Y-160699727D01*
X106789853Y-160438574D01*
X106845000Y-160161335D01*
X106845000Y-159878665D01*
X106789853Y-159601426D01*
X106681680Y-159340273D01*
X106524637Y-159105241D01*
X106324759Y-158905363D01*
X106089727Y-158748320D01*
X106079135Y-158743933D01*
X106265131Y-158632385D01*
X106473519Y-158443414D01*
X106641037Y-158217420D01*
X106761246Y-157963087D01*
X106801904Y-157829039D01*
X106679915Y-157607000D01*
X105537000Y-157607000D01*
X105537000Y-157627000D01*
X105283000Y-157627000D01*
X105283000Y-157607000D01*
X104140085Y-157607000D01*
X104018096Y-157829039D01*
X104058754Y-157963087D01*
X104178963Y-158217420D01*
X104346481Y-158443414D01*
X104554869Y-158632385D01*
X104740865Y-158743933D01*
X104730273Y-158748320D01*
X104495241Y-158905363D01*
X104295363Y-159105241D01*
X104138320Y-159340273D01*
X104030147Y-159601426D01*
X103975000Y-159878665D01*
X99225000Y-159878665D01*
X99169853Y-159601426D01*
X99061680Y-159340273D01*
X98904637Y-159105241D01*
X98704759Y-158905363D01*
X98472241Y-158750000D01*
X98704759Y-158594637D01*
X98904637Y-158394759D01*
X99061680Y-158159727D01*
X99169853Y-157898574D01*
X99225000Y-157621335D01*
X99225000Y-157338665D01*
X99169853Y-157061426D01*
X99061680Y-156800273D01*
X98904637Y-156565241D01*
X98704759Y-156365363D01*
X98472241Y-156210000D01*
X98704759Y-156054637D01*
X98904637Y-155854759D01*
X99061680Y-155619727D01*
X99169853Y-155358574D01*
X99225000Y-155081335D01*
X99225000Y-154798665D01*
X99169853Y-154521426D01*
X99061680Y-154260273D01*
X98904637Y-154025241D01*
X98704759Y-153825363D01*
X98469727Y-153668320D01*
X98459135Y-153663933D01*
X98645131Y-153552385D01*
X98853519Y-153363414D01*
X99021037Y-153137420D01*
X99141246Y-152883087D01*
X99181904Y-152749039D01*
X99059915Y-152527000D01*
X97917000Y-152527000D01*
X97917000Y-152547000D01*
X97663000Y-152547000D01*
X97663000Y-152527000D01*
X96520085Y-152527000D01*
X96398096Y-152749039D01*
X96438754Y-152883087D01*
X96558963Y-153137420D01*
X96726481Y-153363414D01*
X96934869Y-153552385D01*
X97120865Y-153663933D01*
X97110273Y-153668320D01*
X96875241Y-153825363D01*
X96675363Y-154025241D01*
X96518320Y-154260273D01*
X96410147Y-154521426D01*
X96355000Y-154798665D01*
X96355000Y-155081335D01*
X96391312Y-155263886D01*
X93854806Y-157800393D01*
X93824637Y-157755241D01*
X93624759Y-157555363D01*
X93389727Y-157398320D01*
X93128574Y-157290147D01*
X92851335Y-157235000D01*
X92568665Y-157235000D01*
X92291426Y-157290147D01*
X92030273Y-157398320D01*
X91795241Y-157555363D01*
X91595363Y-157755241D01*
X91438320Y-157990273D01*
X91330147Y-158251426D01*
X91275000Y-158528665D01*
X91275000Y-158811335D01*
X91330147Y-159088574D01*
X91438320Y-159349727D01*
X91595363Y-159584759D01*
X91795241Y-159784637D01*
X92030273Y-159941680D01*
X92291426Y-160049853D01*
X92568665Y-160105000D01*
X92851335Y-160105000D01*
X93128574Y-160049853D01*
X93389727Y-159941680D01*
X93624759Y-159784637D01*
X93824637Y-159584759D01*
X93928043Y-159430000D01*
X94022678Y-159430000D01*
X94060000Y-159433676D01*
X94097322Y-159430000D01*
X94097333Y-159430000D01*
X94208986Y-159419003D01*
X94352247Y-159375546D01*
X94484276Y-159304974D01*
X94600001Y-159210001D01*
X94623804Y-159180997D01*
X96355000Y-157449801D01*
X96355000Y-157621335D01*
X96391312Y-157803886D01*
X93665199Y-160530000D01*
X87517909Y-160530000D01*
X87435799Y-160407114D01*
X87242886Y-160214201D01*
X87016043Y-160062629D01*
X86763989Y-159958225D01*
X86496411Y-159905000D01*
X86223589Y-159905000D01*
X85956011Y-159958225D01*
X85703957Y-160062629D01*
X85477114Y-160214201D01*
X85284201Y-160407114D01*
X85202091Y-160530000D01*
X81148043Y-160530000D01*
X81044637Y-160375241D01*
X80844759Y-160175363D01*
X80609727Y-160018320D01*
X80348574Y-159910147D01*
X80071335Y-159855000D01*
X79788665Y-159855000D01*
X79511426Y-159910147D01*
X79250273Y-160018320D01*
X79015241Y-160175363D01*
X78815363Y-160375241D01*
X78658320Y-160610273D01*
X78550147Y-160871426D01*
X78495000Y-161148665D01*
X76365000Y-161148665D01*
X76309853Y-160871426D01*
X76201680Y-160610273D01*
X76044637Y-160375241D01*
X75844759Y-160175363D01*
X75609727Y-160018320D01*
X75348574Y-159910147D01*
X75071335Y-159855000D01*
X74788665Y-159855000D01*
X74511426Y-159910147D01*
X74250273Y-160018320D01*
X74015241Y-160175363D01*
X73815363Y-160375241D01*
X73658320Y-160610273D01*
X73550147Y-160871426D01*
X73495000Y-161148665D01*
X57715000Y-161148665D01*
X57715000Y-161109268D01*
X57644482Y-160754750D01*
X57506156Y-160420801D01*
X57305338Y-160120256D01*
X57049744Y-159864662D01*
X56749199Y-159663844D01*
X56415250Y-159525518D01*
X56060732Y-159455000D01*
X55699268Y-159455000D01*
X55344750Y-159525518D01*
X55010801Y-159663844D01*
X54710256Y-159864662D01*
X54454662Y-160120256D01*
X54253844Y-160420801D01*
X54115518Y-160754750D01*
X54045000Y-161109268D01*
X54045000Y-161470732D01*
X54115518Y-161825250D01*
X54253844Y-162159199D01*
X54454662Y-162459744D01*
X54710256Y-162715338D01*
X55010801Y-162916156D01*
X55120000Y-162961388D01*
X55120001Y-166101928D01*
X53710000Y-166101928D01*
X53585518Y-166114188D01*
X53465820Y-166150498D01*
X53355506Y-166209463D01*
X53258815Y-166288815D01*
X53179463Y-166385506D01*
X53120498Y-166495820D01*
X53084188Y-166615518D01*
X53071928Y-166740000D01*
X37490000Y-166740000D01*
X37490000Y-154662702D01*
X91896903Y-154662702D01*
X91968486Y-154906671D01*
X92223996Y-155027571D01*
X92498184Y-155096300D01*
X92780512Y-155110217D01*
X93060130Y-155068787D01*
X93326292Y-154973603D01*
X93451514Y-154906671D01*
X93523097Y-154662702D01*
X92710000Y-153849605D01*
X91896903Y-154662702D01*
X37490000Y-154662702D01*
X37490000Y-153740512D01*
X91269783Y-153740512D01*
X91311213Y-154020130D01*
X91406397Y-154286292D01*
X91473329Y-154411514D01*
X91717298Y-154483097D01*
X92530395Y-153670000D01*
X92889605Y-153670000D01*
X93702702Y-154483097D01*
X93946671Y-154411514D01*
X94067571Y-154156004D01*
X94136300Y-153881816D01*
X94150217Y-153599488D01*
X94108787Y-153319870D01*
X94013603Y-153053708D01*
X93946671Y-152928486D01*
X93702702Y-152856903D01*
X92889605Y-153670000D01*
X92530395Y-153670000D01*
X91717298Y-152856903D01*
X91473329Y-152928486D01*
X91352429Y-153183996D01*
X91283700Y-153458184D01*
X91269783Y-153740512D01*
X37490000Y-153740512D01*
X37490000Y-150968967D01*
X60595000Y-150968967D01*
X60595000Y-151291033D01*
X60657832Y-151606912D01*
X60781082Y-151904463D01*
X60960013Y-152172252D01*
X61187748Y-152399987D01*
X61455537Y-152578918D01*
X61753088Y-152702168D01*
X62068967Y-152765000D01*
X62391033Y-152765000D01*
X62706912Y-152702168D01*
X63004463Y-152578918D01*
X63272252Y-152399987D01*
X63499987Y-152172252D01*
X63678918Y-151904463D01*
X63802168Y-151606912D01*
X63865000Y-151291033D01*
X63865000Y-150968967D01*
X63802168Y-150653088D01*
X63678918Y-150355537D01*
X63499987Y-150087748D01*
X63272252Y-149860013D01*
X63004463Y-149681082D01*
X62706912Y-149557832D01*
X62391033Y-149495000D01*
X62068967Y-149495000D01*
X61753088Y-149557832D01*
X61455537Y-149681082D01*
X61187748Y-149860013D01*
X60960013Y-150087748D01*
X60781082Y-150355537D01*
X60657832Y-150653088D01*
X60595000Y-150968967D01*
X37490000Y-150968967D01*
X37490000Y-147327980D01*
X54781626Y-147327980D01*
X54901514Y-147612836D01*
X55225210Y-147773699D01*
X55574069Y-147868322D01*
X55934684Y-147893067D01*
X56293198Y-147846985D01*
X56635833Y-147731846D01*
X56858486Y-147612836D01*
X56978374Y-147327980D01*
X55880000Y-146229605D01*
X54781626Y-147327980D01*
X37490000Y-147327980D01*
X37490000Y-146104684D01*
X54036933Y-146104684D01*
X54083015Y-146463198D01*
X54198154Y-146805833D01*
X54317164Y-147028486D01*
X54602020Y-147148374D01*
X55700395Y-146050000D01*
X56059605Y-146050000D01*
X57157980Y-147148374D01*
X57442836Y-147028486D01*
X57603699Y-146704790D01*
X57698322Y-146355931D01*
X57723067Y-145995316D01*
X57676985Y-145636802D01*
X57561846Y-145294167D01*
X57442836Y-145071514D01*
X57157980Y-144951626D01*
X56059605Y-146050000D01*
X55700395Y-146050000D01*
X54602020Y-144951626D01*
X54317164Y-145071514D01*
X54156301Y-145395210D01*
X54061678Y-145744069D01*
X54036933Y-146104684D01*
X37490000Y-146104684D01*
X37490000Y-144772020D01*
X54781626Y-144772020D01*
X55880000Y-145870395D01*
X56978374Y-144772020D01*
X56858486Y-144487164D01*
X56821870Y-144468967D01*
X60595000Y-144468967D01*
X60595000Y-144791033D01*
X60657832Y-145106912D01*
X60781082Y-145404463D01*
X60960013Y-145672252D01*
X61187748Y-145899987D01*
X61455537Y-146078918D01*
X61753088Y-146202168D01*
X62068967Y-146265000D01*
X62391033Y-146265000D01*
X62706912Y-146202168D01*
X63004463Y-146078918D01*
X63272252Y-145899987D01*
X63499987Y-145672252D01*
X63678918Y-145404463D01*
X63802168Y-145106912D01*
X63865000Y-144791033D01*
X63865000Y-144468967D01*
X63802168Y-144153088D01*
X63678918Y-143855537D01*
X63499987Y-143587748D01*
X63272252Y-143360013D01*
X63004463Y-143181082D01*
X62706912Y-143057832D01*
X62391033Y-142995000D01*
X62068967Y-142995000D01*
X61753088Y-143057832D01*
X61455537Y-143181082D01*
X61187748Y-143360013D01*
X60960013Y-143587748D01*
X60781082Y-143855537D01*
X60657832Y-144153088D01*
X60595000Y-144468967D01*
X56821870Y-144468967D01*
X56534790Y-144326301D01*
X56185931Y-144231678D01*
X55825316Y-144206933D01*
X55466802Y-144253015D01*
X55124167Y-144368154D01*
X54901514Y-144487164D01*
X54781626Y-144772020D01*
X37490000Y-144772020D01*
X37490000Y-130629268D01*
X42615000Y-130629268D01*
X42615000Y-130990732D01*
X42685518Y-131345250D01*
X42823844Y-131679199D01*
X43024662Y-131979744D01*
X43280256Y-132235338D01*
X43580801Y-132436156D01*
X43690000Y-132481388D01*
X43690001Y-136758612D01*
X43580801Y-136803844D01*
X43280256Y-137004662D01*
X43024662Y-137260256D01*
X42823844Y-137560801D01*
X42685518Y-137894750D01*
X42615000Y-138249268D01*
X42615000Y-138610732D01*
X42685518Y-138965250D01*
X42823844Y-139299199D01*
X43024662Y-139599744D01*
X43280256Y-139855338D01*
X43580801Y-140056156D01*
X43914750Y-140194482D01*
X44269268Y-140265000D01*
X44630732Y-140265000D01*
X44985250Y-140194482D01*
X45319199Y-140056156D01*
X45619744Y-139855338D01*
X45875338Y-139599744D01*
X46076156Y-139299199D01*
X46214482Y-138965250D01*
X46285000Y-138610732D01*
X46285000Y-138249268D01*
X57855000Y-138249268D01*
X57855000Y-138610732D01*
X57925518Y-138965250D01*
X58063844Y-139299199D01*
X58264662Y-139599744D01*
X58520256Y-139855338D01*
X58820801Y-140056156D01*
X59154750Y-140194482D01*
X59509268Y-140265000D01*
X59870732Y-140265000D01*
X60225250Y-140194482D01*
X60559199Y-140056156D01*
X60859744Y-139855338D01*
X61115338Y-139599744D01*
X61316156Y-139299199D01*
X61454482Y-138965250D01*
X61525000Y-138610732D01*
X61525000Y-138249268D01*
X61454482Y-137894750D01*
X61316156Y-137560801D01*
X61115338Y-137260256D01*
X60859744Y-137004662D01*
X60559199Y-136803844D01*
X60225250Y-136665518D01*
X59870732Y-136595000D01*
X59509268Y-136595000D01*
X59154750Y-136665518D01*
X58820801Y-136803844D01*
X58520256Y-137004662D01*
X58264662Y-137260256D01*
X58063844Y-137560801D01*
X57925518Y-137894750D01*
X57855000Y-138249268D01*
X46285000Y-138249268D01*
X46214482Y-137894750D01*
X46076156Y-137560801D01*
X45875338Y-137260256D01*
X45619744Y-137004662D01*
X45319199Y-136803844D01*
X45210000Y-136758612D01*
X45210000Y-132481388D01*
X45319199Y-132436156D01*
X45619744Y-132235338D01*
X45767102Y-132087980D01*
X58591626Y-132087980D01*
X58711514Y-132372836D01*
X59035210Y-132533699D01*
X59384069Y-132628322D01*
X59744684Y-132653067D01*
X60103198Y-132606985D01*
X60445833Y-132491846D01*
X60668486Y-132372836D01*
X60788374Y-132087980D01*
X59690000Y-130989605D01*
X58591626Y-132087980D01*
X45767102Y-132087980D01*
X45875338Y-131979744D01*
X46076156Y-131679199D01*
X46214482Y-131345250D01*
X46285000Y-130990732D01*
X46285000Y-130864684D01*
X57846933Y-130864684D01*
X57893015Y-131223198D01*
X58008154Y-131565833D01*
X58127164Y-131788486D01*
X58412020Y-131908374D01*
X59510395Y-130810000D01*
X59869605Y-130810000D01*
X60967980Y-131908374D01*
X61252836Y-131788486D01*
X61413699Y-131464790D01*
X61508322Y-131115931D01*
X61533067Y-130755316D01*
X61486985Y-130396802D01*
X61371846Y-130054167D01*
X61252836Y-129831514D01*
X60967980Y-129711626D01*
X59869605Y-130810000D01*
X59510395Y-130810000D01*
X58412020Y-129711626D01*
X58127164Y-129831514D01*
X57966301Y-130155210D01*
X57871678Y-130504069D01*
X57846933Y-130864684D01*
X46285000Y-130864684D01*
X46285000Y-130629268D01*
X46214482Y-130274750D01*
X46169251Y-130165551D01*
X46802782Y-129532020D01*
X58591626Y-129532020D01*
X59690000Y-130630395D01*
X60788374Y-129532020D01*
X60668486Y-129247164D01*
X60344790Y-129086301D01*
X59995931Y-128991678D01*
X59635316Y-128966933D01*
X59276802Y-129013015D01*
X58934167Y-129128154D01*
X58711514Y-129247164D01*
X58591626Y-129532020D01*
X46802782Y-129532020D01*
X47501008Y-128833795D01*
X47530001Y-128810001D01*
X47553795Y-128781008D01*
X47553799Y-128781004D01*
X47624973Y-128694277D01*
X47624974Y-128694276D01*
X47695546Y-128562247D01*
X47739003Y-128418986D01*
X47750000Y-128307333D01*
X47750000Y-128307324D01*
X47753676Y-128270001D01*
X47750000Y-128232678D01*
X47750000Y-123510572D01*
X47990000Y-123510572D01*
X48114482Y-123498312D01*
X48234180Y-123462002D01*
X48344494Y-123403037D01*
X48441185Y-123323685D01*
X48520537Y-123226994D01*
X48579502Y-123116680D01*
X48615812Y-122996982D01*
X48628072Y-122872500D01*
X48628072Y-121739268D01*
X64205000Y-121739268D01*
X64205000Y-122100732D01*
X64275518Y-122455250D01*
X64413844Y-122789199D01*
X64614662Y-123089744D01*
X64870256Y-123345338D01*
X65170801Y-123546156D01*
X65280000Y-123591388D01*
X65280001Y-143858147D01*
X65157832Y-144153088D01*
X65095000Y-144468967D01*
X65095000Y-144791033D01*
X65157832Y-145106912D01*
X65281082Y-145404463D01*
X65460013Y-145672252D01*
X65687748Y-145899987D01*
X65955537Y-146078918D01*
X65970000Y-146084909D01*
X65970001Y-149675091D01*
X65955537Y-149681082D01*
X65687748Y-149860013D01*
X65460013Y-150087748D01*
X65281082Y-150355537D01*
X65157832Y-150653088D01*
X65095000Y-150968967D01*
X65095000Y-151291033D01*
X65157832Y-151606912D01*
X65281082Y-151904463D01*
X65460013Y-152172252D01*
X65687748Y-152399987D01*
X65955537Y-152578918D01*
X66253088Y-152702168D01*
X66568967Y-152765000D01*
X66891033Y-152765000D01*
X67206912Y-152702168D01*
X67266953Y-152677298D01*
X91896903Y-152677298D01*
X92710000Y-153490395D01*
X93523097Y-152677298D01*
X93451514Y-152433329D01*
X93196004Y-152312429D01*
X92921816Y-152243700D01*
X92639488Y-152229783D01*
X92359870Y-152271213D01*
X92093708Y-152366397D01*
X91968486Y-152433329D01*
X91896903Y-152677298D01*
X67266953Y-152677298D01*
X67504463Y-152578918D01*
X67772252Y-152399987D01*
X67999987Y-152172252D01*
X68178918Y-151904463D01*
X68184909Y-151890000D01*
X96451474Y-151890000D01*
X96438754Y-151916913D01*
X96398096Y-152050961D01*
X96520085Y-152273000D01*
X97663000Y-152273000D01*
X97663000Y-152253000D01*
X97917000Y-152253000D01*
X97917000Y-152273000D01*
X99059915Y-152273000D01*
X99181904Y-152050961D01*
X99141246Y-151916913D01*
X99021037Y-151662580D01*
X98853519Y-151436586D01*
X98645131Y-151247615D01*
X98459135Y-151136067D01*
X98469727Y-151131680D01*
X98704759Y-150974637D01*
X98904637Y-150774759D01*
X99061680Y-150539727D01*
X99169853Y-150278574D01*
X99225000Y-150001335D01*
X99225000Y-149718665D01*
X99169853Y-149441426D01*
X99061680Y-149180273D01*
X98904637Y-148945241D01*
X98704759Y-148745363D01*
X98472241Y-148590000D01*
X98704759Y-148434637D01*
X98904637Y-148234759D01*
X99061680Y-147999727D01*
X99169853Y-147738574D01*
X99225000Y-147461335D01*
X99225000Y-147178665D01*
X99169853Y-146901426D01*
X99061680Y-146640273D01*
X98904637Y-146405241D01*
X98704759Y-146205363D01*
X98472241Y-146050000D01*
X98704759Y-145894637D01*
X98904637Y-145694759D01*
X99061680Y-145459727D01*
X99169853Y-145198574D01*
X99225000Y-144921335D01*
X99225000Y-144638665D01*
X99169853Y-144361426D01*
X99061680Y-144100273D01*
X98904637Y-143865241D01*
X98704759Y-143665363D01*
X98472241Y-143510000D01*
X98704759Y-143354637D01*
X98904637Y-143154759D01*
X99061680Y-142919727D01*
X99169853Y-142658574D01*
X99225000Y-142381335D01*
X99225000Y-142098665D01*
X99169853Y-141821426D01*
X99061680Y-141560273D01*
X98904637Y-141325241D01*
X98704759Y-141125363D01*
X98472241Y-140970000D01*
X98704759Y-140814637D01*
X98904637Y-140614759D01*
X99061680Y-140379727D01*
X99169853Y-140118574D01*
X99225000Y-139841335D01*
X99225000Y-139558665D01*
X99169853Y-139281426D01*
X99061680Y-139020273D01*
X98904637Y-138785241D01*
X98706039Y-138586643D01*
X98714482Y-138585812D01*
X98834180Y-138549502D01*
X98944494Y-138490537D01*
X99041185Y-138411185D01*
X99120537Y-138314494D01*
X99179502Y-138204180D01*
X99215812Y-138084482D01*
X99228072Y-137960000D01*
X99228072Y-137018665D01*
X103975000Y-137018665D01*
X103975000Y-137301335D01*
X104030147Y-137578574D01*
X104138320Y-137839727D01*
X104295363Y-138074759D01*
X104495241Y-138274637D01*
X104727759Y-138430000D01*
X104495241Y-138585363D01*
X104295363Y-138785241D01*
X104138320Y-139020273D01*
X104030147Y-139281426D01*
X103975000Y-139558665D01*
X103975000Y-139841335D01*
X104030147Y-140118574D01*
X104138320Y-140379727D01*
X104295363Y-140614759D01*
X104495241Y-140814637D01*
X104727759Y-140970000D01*
X104495241Y-141125363D01*
X104295363Y-141325241D01*
X104138320Y-141560273D01*
X104030147Y-141821426D01*
X103975000Y-142098665D01*
X103975000Y-142381335D01*
X104030147Y-142658574D01*
X104138320Y-142919727D01*
X104295363Y-143154759D01*
X104495241Y-143354637D01*
X104727759Y-143510000D01*
X104495241Y-143665363D01*
X104295363Y-143865241D01*
X104138320Y-144100273D01*
X104030147Y-144361426D01*
X103975000Y-144638665D01*
X103975000Y-144921335D01*
X104030147Y-145198574D01*
X104138320Y-145459727D01*
X104295363Y-145694759D01*
X104495241Y-145894637D01*
X104727759Y-146050000D01*
X104495241Y-146205363D01*
X104295363Y-146405241D01*
X104138320Y-146640273D01*
X104030147Y-146901426D01*
X103975000Y-147178665D01*
X103975000Y-147461335D01*
X104030147Y-147738574D01*
X104138320Y-147999727D01*
X104295363Y-148234759D01*
X104495241Y-148434637D01*
X104727759Y-148590000D01*
X104495241Y-148745363D01*
X104295363Y-148945241D01*
X104138320Y-149180273D01*
X104030147Y-149441426D01*
X103975000Y-149718665D01*
X103975000Y-150001335D01*
X104030147Y-150278574D01*
X104138320Y-150539727D01*
X104295363Y-150774759D01*
X104495241Y-150974637D01*
X104727759Y-151130000D01*
X104495241Y-151285363D01*
X104295363Y-151485241D01*
X104138320Y-151720273D01*
X104030147Y-151981426D01*
X103975000Y-152258665D01*
X103975000Y-152541335D01*
X104030147Y-152818574D01*
X104138320Y-153079727D01*
X104295363Y-153314759D01*
X104495241Y-153514637D01*
X104727759Y-153670000D01*
X104495241Y-153825363D01*
X104295363Y-154025241D01*
X104138320Y-154260273D01*
X104030147Y-154521426D01*
X103975000Y-154798665D01*
X103975000Y-155081335D01*
X104030147Y-155358574D01*
X104138320Y-155619727D01*
X104295363Y-155854759D01*
X104495241Y-156054637D01*
X104730273Y-156211680D01*
X104740865Y-156216067D01*
X104554869Y-156327615D01*
X104346481Y-156516586D01*
X104178963Y-156742580D01*
X104058754Y-156996913D01*
X104018096Y-157130961D01*
X104140085Y-157353000D01*
X105283000Y-157353000D01*
X105283000Y-157333000D01*
X105537000Y-157333000D01*
X105537000Y-157353000D01*
X106679915Y-157353000D01*
X106762489Y-157202702D01*
X109676903Y-157202702D01*
X109748486Y-157446671D01*
X110003996Y-157567571D01*
X110278184Y-157636300D01*
X110560512Y-157650217D01*
X110840130Y-157608787D01*
X111106292Y-157513603D01*
X111231514Y-157446671D01*
X111303097Y-157202702D01*
X110490000Y-156389605D01*
X109676903Y-157202702D01*
X106762489Y-157202702D01*
X106801904Y-157130961D01*
X106761246Y-156996913D01*
X106641037Y-156742580D01*
X106473519Y-156516586D01*
X106265131Y-156327615D01*
X106186592Y-156280512D01*
X109049783Y-156280512D01*
X109091213Y-156560130D01*
X109186397Y-156826292D01*
X109253329Y-156951514D01*
X109497298Y-157023097D01*
X110310395Y-156210000D01*
X110669605Y-156210000D01*
X111482702Y-157023097D01*
X111726671Y-156951514D01*
X111847571Y-156696004D01*
X111916300Y-156421816D01*
X111930217Y-156139488D01*
X111888787Y-155859870D01*
X111793603Y-155593708D01*
X111726671Y-155468486D01*
X111482702Y-155396903D01*
X110669605Y-156210000D01*
X110310395Y-156210000D01*
X109497298Y-155396903D01*
X109253329Y-155468486D01*
X109132429Y-155723996D01*
X109063700Y-155998184D01*
X109049783Y-156280512D01*
X106186592Y-156280512D01*
X106079135Y-156216067D01*
X106089727Y-156211680D01*
X106324759Y-156054637D01*
X106524637Y-155854759D01*
X106681680Y-155619727D01*
X106789853Y-155358574D01*
X106817954Y-155217298D01*
X109676903Y-155217298D01*
X110490000Y-156030395D01*
X111303097Y-155217298D01*
X111231514Y-154973329D01*
X110976004Y-154852429D01*
X110701816Y-154783700D01*
X110419488Y-154769783D01*
X110139870Y-154811213D01*
X109873708Y-154906397D01*
X109748486Y-154973329D01*
X109676903Y-155217298D01*
X106817954Y-155217298D01*
X106845000Y-155081335D01*
X106845000Y-154798665D01*
X106789853Y-154521426D01*
X106681680Y-154260273D01*
X106524637Y-154025241D01*
X106324759Y-153825363D01*
X106092241Y-153670000D01*
X106324759Y-153514637D01*
X106524637Y-153314759D01*
X106628043Y-153160000D01*
X109262678Y-153160000D01*
X109300000Y-153163676D01*
X109337322Y-153160000D01*
X109337333Y-153160000D01*
X109448986Y-153149003D01*
X109592247Y-153105546D01*
X109724276Y-153034974D01*
X109840001Y-152940001D01*
X109863804Y-152910997D01*
X110166114Y-152608688D01*
X110348665Y-152645000D01*
X110631335Y-152645000D01*
X110908574Y-152589853D01*
X111169727Y-152481680D01*
X111404759Y-152324637D01*
X111604637Y-152124759D01*
X111761680Y-151889727D01*
X111869853Y-151628574D01*
X111925000Y-151351335D01*
X111925000Y-151068665D01*
X111869853Y-150791426D01*
X111761680Y-150530273D01*
X111604637Y-150295241D01*
X111404759Y-150095363D01*
X111169727Y-149938320D01*
X110908574Y-149830147D01*
X110631335Y-149775000D01*
X110348665Y-149775000D01*
X110071426Y-149830147D01*
X109810273Y-149938320D01*
X109575241Y-150095363D01*
X109375363Y-150295241D01*
X109218320Y-150530273D01*
X109110147Y-150791426D01*
X109055000Y-151068665D01*
X109055000Y-151351335D01*
X109091312Y-151533886D01*
X108985199Y-151640000D01*
X106628043Y-151640000D01*
X106524637Y-151485241D01*
X106324759Y-151285363D01*
X106092241Y-151130000D01*
X106324759Y-150974637D01*
X106524637Y-150774759D01*
X106681680Y-150539727D01*
X106789853Y-150278574D01*
X106845000Y-150001335D01*
X106845000Y-149718665D01*
X106789853Y-149441426D01*
X106681680Y-149180273D01*
X106524637Y-148945241D01*
X106324759Y-148745363D01*
X106092241Y-148590000D01*
X106324759Y-148434637D01*
X106524637Y-148234759D01*
X106681680Y-147999727D01*
X106789853Y-147738574D01*
X106845000Y-147461335D01*
X106845000Y-147178665D01*
X106789853Y-146901426D01*
X106681680Y-146640273D01*
X106524637Y-146405241D01*
X106324759Y-146205363D01*
X106092241Y-146050000D01*
X106324759Y-145894637D01*
X106524637Y-145694759D01*
X106681680Y-145459727D01*
X106789853Y-145198574D01*
X106845000Y-144921335D01*
X106845000Y-144638665D01*
X106789853Y-144361426D01*
X106681680Y-144100273D01*
X106524637Y-143865241D01*
X106324759Y-143665363D01*
X106092241Y-143510000D01*
X106324759Y-143354637D01*
X106524637Y-143154759D01*
X106681680Y-142919727D01*
X106789853Y-142658574D01*
X106845000Y-142381335D01*
X106845000Y-142098665D01*
X106789853Y-141821426D01*
X106681680Y-141560273D01*
X106524637Y-141325241D01*
X106324759Y-141125363D01*
X106092241Y-140970000D01*
X106324759Y-140814637D01*
X106524637Y-140614759D01*
X106628043Y-140460000D01*
X113021822Y-140460000D01*
X113146525Y-140646632D01*
X113353368Y-140853475D01*
X113596589Y-141015990D01*
X113866842Y-141127932D01*
X114153740Y-141185000D01*
X114446260Y-141185000D01*
X114733158Y-141127932D01*
X115003411Y-141015990D01*
X115246632Y-140853475D01*
X115453475Y-140646632D01*
X115615990Y-140403411D01*
X115727932Y-140133158D01*
X115785000Y-139846260D01*
X115785000Y-139553740D01*
X115727932Y-139266842D01*
X115615990Y-138996589D01*
X115453475Y-138753368D01*
X115246632Y-138546525D01*
X115072240Y-138430000D01*
X115246632Y-138313475D01*
X115453475Y-138106632D01*
X115615990Y-137863411D01*
X115727932Y-137593158D01*
X115785000Y-137306260D01*
X115785000Y-137013740D01*
X115727932Y-136726842D01*
X115615990Y-136456589D01*
X115453475Y-136213368D01*
X115246632Y-136006525D01*
X115072240Y-135890000D01*
X115246632Y-135773475D01*
X115453475Y-135566632D01*
X115615990Y-135323411D01*
X115727932Y-135053158D01*
X115785000Y-134766260D01*
X115785000Y-134473740D01*
X115727932Y-134186842D01*
X115615990Y-133916589D01*
X115453475Y-133673368D01*
X115321620Y-133541513D01*
X115394180Y-133519502D01*
X115504494Y-133460537D01*
X115601185Y-133381185D01*
X115680537Y-133284494D01*
X115739502Y-133174180D01*
X115775812Y-133054482D01*
X115788072Y-132930000D01*
X115785000Y-132365750D01*
X115626250Y-132207000D01*
X114427000Y-132207000D01*
X114427000Y-132227000D01*
X114173000Y-132227000D01*
X114173000Y-132207000D01*
X112973750Y-132207000D01*
X112815000Y-132365750D01*
X112811928Y-132930000D01*
X112824188Y-133054482D01*
X112860498Y-133174180D01*
X112919463Y-133284494D01*
X112998815Y-133381185D01*
X113095506Y-133460537D01*
X113205820Y-133519502D01*
X113278380Y-133541513D01*
X113146525Y-133673368D01*
X112984010Y-133916589D01*
X112872068Y-134186842D01*
X112815000Y-134473740D01*
X112815000Y-134766260D01*
X112872068Y-135053158D01*
X112984010Y-135323411D01*
X113146525Y-135566632D01*
X113353368Y-135773475D01*
X113527760Y-135890000D01*
X113353368Y-136006525D01*
X113146525Y-136213368D01*
X113021822Y-136400000D01*
X106628043Y-136400000D01*
X106524637Y-136245241D01*
X106324759Y-136045363D01*
X106089727Y-135888320D01*
X105828574Y-135780147D01*
X105551335Y-135725000D01*
X105268665Y-135725000D01*
X104991426Y-135780147D01*
X104730273Y-135888320D01*
X104495241Y-136045363D01*
X104295363Y-136245241D01*
X104138320Y-136480273D01*
X104030147Y-136741426D01*
X103975000Y-137018665D01*
X99228072Y-137018665D01*
X99228072Y-136360000D01*
X99215812Y-136235518D01*
X99179502Y-136115820D01*
X99120537Y-136005506D01*
X99041185Y-135908815D01*
X98944494Y-135829463D01*
X98834180Y-135770498D01*
X98714482Y-135734188D01*
X98590000Y-135721928D01*
X98550000Y-135721928D01*
X98550000Y-131230000D01*
X112811928Y-131230000D01*
X112815000Y-131794250D01*
X112973750Y-131953000D01*
X114173000Y-131953000D01*
X114173000Y-130753750D01*
X114427000Y-130753750D01*
X114427000Y-131953000D01*
X115626250Y-131953000D01*
X115785000Y-131794250D01*
X115788072Y-131230000D01*
X115775812Y-131105518D01*
X115739502Y-130985820D01*
X115680537Y-130875506D01*
X115601185Y-130778815D01*
X115504494Y-130699463D01*
X115394180Y-130640498D01*
X115274482Y-130604188D01*
X115150000Y-130591928D01*
X114585750Y-130595000D01*
X114427000Y-130753750D01*
X114173000Y-130753750D01*
X114014250Y-130595000D01*
X113450000Y-130591928D01*
X113325518Y-130604188D01*
X113205820Y-130640498D01*
X113095506Y-130699463D01*
X112998815Y-130778815D01*
X112919463Y-130875506D01*
X112860498Y-130985820D01*
X112824188Y-131105518D01*
X112811928Y-131230000D01*
X98550000Y-131230000D01*
X98550000Y-122084801D01*
X100404801Y-120230000D01*
X128051928Y-120230000D01*
X128064188Y-120354482D01*
X128100498Y-120474180D01*
X128159463Y-120584494D01*
X128238815Y-120681185D01*
X128335506Y-120760537D01*
X128445820Y-120819502D01*
X128518380Y-120841513D01*
X128386525Y-120973368D01*
X128224010Y-121216589D01*
X128112068Y-121486842D01*
X128055000Y-121773740D01*
X128055000Y-122066260D01*
X128112068Y-122353158D01*
X128224010Y-122623411D01*
X128386525Y-122866632D01*
X128593368Y-123073475D01*
X128767760Y-123190000D01*
X128593368Y-123306525D01*
X128386525Y-123513368D01*
X128224010Y-123756589D01*
X128112068Y-124026842D01*
X128055000Y-124313740D01*
X128055000Y-124606260D01*
X128112068Y-124893158D01*
X128224010Y-125163411D01*
X128386525Y-125406632D01*
X128593368Y-125613475D01*
X128767760Y-125730000D01*
X128593368Y-125846525D01*
X128386525Y-126053368D01*
X128224010Y-126296589D01*
X128112068Y-126566842D01*
X128055000Y-126853740D01*
X128055000Y-127146260D01*
X128112068Y-127433158D01*
X128224010Y-127703411D01*
X128386525Y-127946632D01*
X128593368Y-128153475D01*
X128836589Y-128315990D01*
X129106842Y-128427932D01*
X129393740Y-128485000D01*
X129686260Y-128485000D01*
X129973158Y-128427932D01*
X130243411Y-128315990D01*
X130486632Y-128153475D01*
X130693475Y-127946632D01*
X130855990Y-127703411D01*
X130967932Y-127433158D01*
X131025000Y-127146260D01*
X131025000Y-126853740D01*
X130967932Y-126566842D01*
X130855990Y-126296589D01*
X130693475Y-126053368D01*
X130486632Y-125846525D01*
X130312240Y-125730000D01*
X130486632Y-125613475D01*
X130693475Y-125406632D01*
X130855990Y-125163411D01*
X130967932Y-124893158D01*
X131025000Y-124606260D01*
X131025000Y-124313740D01*
X130967932Y-124026842D01*
X130855990Y-123756589D01*
X130693475Y-123513368D01*
X130486632Y-123306525D01*
X130312240Y-123190000D01*
X130486632Y-123073475D01*
X130693475Y-122866632D01*
X130855990Y-122623411D01*
X130967932Y-122353158D01*
X131025000Y-122066260D01*
X131025000Y-121773740D01*
X130967932Y-121486842D01*
X130855990Y-121216589D01*
X130693475Y-120973368D01*
X130561620Y-120841513D01*
X130634180Y-120819502D01*
X130744494Y-120760537D01*
X130841185Y-120681185D01*
X130920537Y-120584494D01*
X130979502Y-120474180D01*
X131015812Y-120354482D01*
X131028072Y-120230000D01*
X131025000Y-119665750D01*
X130866250Y-119507000D01*
X129667000Y-119507000D01*
X129667000Y-119527000D01*
X129413000Y-119527000D01*
X129413000Y-119507000D01*
X128213750Y-119507000D01*
X128055000Y-119665750D01*
X128051928Y-120230000D01*
X100404801Y-120230000D01*
X102104801Y-118530000D01*
X128051928Y-118530000D01*
X128055000Y-119094250D01*
X128213750Y-119253000D01*
X129413000Y-119253000D01*
X129413000Y-118053750D01*
X129667000Y-118053750D01*
X129667000Y-119253000D01*
X130866250Y-119253000D01*
X131025000Y-119094250D01*
X131028072Y-118530000D01*
X131015812Y-118405518D01*
X130979502Y-118285820D01*
X130920537Y-118175506D01*
X130841185Y-118078815D01*
X130744494Y-117999463D01*
X130634180Y-117940498D01*
X130514482Y-117904188D01*
X130390000Y-117891928D01*
X129825750Y-117895000D01*
X129667000Y-118053750D01*
X129413000Y-118053750D01*
X129254250Y-117895000D01*
X128690000Y-117891928D01*
X128565518Y-117904188D01*
X128445820Y-117940498D01*
X128335506Y-117999463D01*
X128238815Y-118078815D01*
X128159463Y-118175506D01*
X128100498Y-118285820D01*
X128064188Y-118405518D01*
X128051928Y-118530000D01*
X102104801Y-118530000D01*
X108114802Y-112520000D01*
X112695091Y-112520000D01*
X112701082Y-112534463D01*
X112880013Y-112802252D01*
X113107748Y-113029987D01*
X113375537Y-113208918D01*
X113673088Y-113332168D01*
X113988967Y-113395000D01*
X114311033Y-113395000D01*
X114626912Y-113332168D01*
X114924463Y-113208918D01*
X115192252Y-113029987D01*
X115419987Y-112802252D01*
X115598918Y-112534463D01*
X115604909Y-112520000D01*
X119195091Y-112520000D01*
X119201082Y-112534463D01*
X119380013Y-112802252D01*
X119607748Y-113029987D01*
X119875537Y-113208918D01*
X120173088Y-113332168D01*
X120488967Y-113395000D01*
X120811033Y-113395000D01*
X121126912Y-113332168D01*
X121424463Y-113208918D01*
X121692252Y-113029987D01*
X121919987Y-112802252D01*
X122098918Y-112534463D01*
X122222168Y-112236912D01*
X122285000Y-111921033D01*
X122285000Y-111598967D01*
X122222168Y-111283088D01*
X122098918Y-110985537D01*
X121919987Y-110717748D01*
X121692252Y-110490013D01*
X121424463Y-110311082D01*
X121126912Y-110187832D01*
X120811033Y-110125000D01*
X120488967Y-110125000D01*
X120173088Y-110187832D01*
X119875537Y-110311082D01*
X119607748Y-110490013D01*
X119380013Y-110717748D01*
X119201082Y-110985537D01*
X119195091Y-111000000D01*
X115604909Y-111000000D01*
X115598918Y-110985537D01*
X115419987Y-110717748D01*
X115192252Y-110490013D01*
X114924463Y-110311082D01*
X114626912Y-110187832D01*
X114311033Y-110125000D01*
X113988967Y-110125000D01*
X113673088Y-110187832D01*
X113375537Y-110311082D01*
X113107748Y-110490013D01*
X112880013Y-110717748D01*
X112701082Y-110985537D01*
X112695091Y-111000000D01*
X108560000Y-111000000D01*
X108560000Y-110377325D01*
X108563676Y-110340000D01*
X108560000Y-110302675D01*
X108560000Y-110302667D01*
X108549003Y-110191014D01*
X108505546Y-110047753D01*
X108434974Y-109915724D01*
X108340001Y-109799999D01*
X108311003Y-109776201D01*
X105859250Y-107324449D01*
X105904482Y-107215250D01*
X105927612Y-107098967D01*
X112515000Y-107098967D01*
X112515000Y-107421033D01*
X112577832Y-107736912D01*
X112701082Y-108034463D01*
X112880013Y-108302252D01*
X113107748Y-108529987D01*
X113375537Y-108708918D01*
X113673088Y-108832168D01*
X113988967Y-108895000D01*
X114311033Y-108895000D01*
X114626912Y-108832168D01*
X114924463Y-108708918D01*
X115192252Y-108529987D01*
X115419987Y-108302252D01*
X115598918Y-108034463D01*
X115722168Y-107736912D01*
X115785000Y-107421033D01*
X115785000Y-107098967D01*
X119015000Y-107098967D01*
X119015000Y-107421033D01*
X119077832Y-107736912D01*
X119201082Y-108034463D01*
X119380013Y-108302252D01*
X119607748Y-108529987D01*
X119875537Y-108708918D01*
X120173088Y-108832168D01*
X120488967Y-108895000D01*
X120811033Y-108895000D01*
X121126912Y-108832168D01*
X121424463Y-108708918D01*
X121692252Y-108529987D01*
X121919987Y-108302252D01*
X122098918Y-108034463D01*
X122222168Y-107736912D01*
X122285000Y-107421033D01*
X122285000Y-107098967D01*
X122222168Y-106783088D01*
X122098918Y-106485537D01*
X121919987Y-106217748D01*
X121692252Y-105990013D01*
X121424463Y-105811082D01*
X121126912Y-105687832D01*
X120811033Y-105625000D01*
X120488967Y-105625000D01*
X120173088Y-105687832D01*
X119875537Y-105811082D01*
X119607748Y-105990013D01*
X119380013Y-106217748D01*
X119201082Y-106485537D01*
X119077832Y-106783088D01*
X119015000Y-107098967D01*
X115785000Y-107098967D01*
X115722168Y-106783088D01*
X115598918Y-106485537D01*
X115419987Y-106217748D01*
X115192252Y-105990013D01*
X114924463Y-105811082D01*
X114626912Y-105687832D01*
X114311033Y-105625000D01*
X113988967Y-105625000D01*
X113673088Y-105687832D01*
X113375537Y-105811082D01*
X113107748Y-105990013D01*
X112880013Y-106217748D01*
X112701082Y-106485537D01*
X112577832Y-106783088D01*
X112515000Y-107098967D01*
X105927612Y-107098967D01*
X105975000Y-106860732D01*
X105975000Y-106499268D01*
X105904482Y-106144750D01*
X105766156Y-105810801D01*
X105565338Y-105510256D01*
X105309744Y-105254662D01*
X105009199Y-105053844D01*
X104675250Y-104915518D01*
X104320732Y-104845000D01*
X103959268Y-104845000D01*
X103604750Y-104915518D01*
X103270801Y-105053844D01*
X102970256Y-105254662D01*
X102714662Y-105510256D01*
X102513844Y-105810801D01*
X102375518Y-106144750D01*
X102305000Y-106499268D01*
X102305000Y-106860732D01*
X102375518Y-107215250D01*
X102513844Y-107549199D01*
X102714662Y-107849744D01*
X102970256Y-108105338D01*
X103270801Y-108306156D01*
X103604750Y-108444482D01*
X103959268Y-108515000D01*
X104320732Y-108515000D01*
X104675250Y-108444482D01*
X104784449Y-108399250D01*
X107040001Y-110654803D01*
X107040000Y-111445198D01*
X97278998Y-121206201D01*
X97250000Y-121229999D01*
X97226202Y-121258997D01*
X97226201Y-121258998D01*
X97155026Y-121345724D01*
X97084454Y-121477754D01*
X97040998Y-121621015D01*
X97026324Y-121770000D01*
X97030001Y-121807333D01*
X97030000Y-135721928D01*
X96990000Y-135721928D01*
X96865518Y-135734188D01*
X96745820Y-135770498D01*
X96635506Y-135829463D01*
X96538815Y-135908815D01*
X96459463Y-136005506D01*
X96400498Y-136115820D01*
X96364188Y-136235518D01*
X96351928Y-136360000D01*
X96351928Y-137187127D01*
X94740000Y-135575199D01*
X94740000Y-125767322D01*
X94743676Y-125729999D01*
X94740000Y-125692676D01*
X94740000Y-125692667D01*
X94729003Y-125581014D01*
X94685546Y-125437753D01*
X94653182Y-125377205D01*
X94614974Y-125305723D01*
X94543799Y-125218997D01*
X94520001Y-125189999D01*
X94491003Y-125166201D01*
X89071209Y-119746408D01*
X89115000Y-119526260D01*
X89115000Y-119233740D01*
X89057932Y-118946842D01*
X88945990Y-118676589D01*
X88783475Y-118433368D01*
X88576632Y-118226525D01*
X88333411Y-118064010D01*
X88063158Y-117952068D01*
X87776260Y-117895000D01*
X87483740Y-117895000D01*
X87196842Y-117952068D01*
X86926589Y-118064010D01*
X86683368Y-118226525D01*
X86476525Y-118433368D01*
X86314010Y-118676589D01*
X86202068Y-118946842D01*
X86145000Y-119233740D01*
X86145000Y-119526260D01*
X86202068Y-119813158D01*
X86314010Y-120083411D01*
X86476525Y-120326632D01*
X86683368Y-120533475D01*
X86857760Y-120650000D01*
X86683368Y-120766525D01*
X86476525Y-120973368D01*
X86314010Y-121216589D01*
X86202068Y-121486842D01*
X86145000Y-121773740D01*
X86145000Y-122066260D01*
X86202068Y-122353158D01*
X86314010Y-122623411D01*
X86476525Y-122866632D01*
X86683368Y-123073475D01*
X86857760Y-123190000D01*
X86683368Y-123306525D01*
X86476525Y-123513368D01*
X86314010Y-123756589D01*
X86202068Y-124026842D01*
X86145000Y-124313740D01*
X86145000Y-124606260D01*
X86202068Y-124893158D01*
X86314010Y-125163411D01*
X86476525Y-125406632D01*
X86608380Y-125538487D01*
X86535820Y-125560498D01*
X86425506Y-125619463D01*
X86328815Y-125698815D01*
X86249463Y-125795506D01*
X86190498Y-125905820D01*
X86154188Y-126025518D01*
X86141928Y-126150000D01*
X86141928Y-127850000D01*
X86154188Y-127974482D01*
X86190498Y-128094180D01*
X86249463Y-128204494D01*
X86328815Y-128301185D01*
X86425506Y-128380537D01*
X86535820Y-128439502D01*
X86655518Y-128475812D01*
X86780000Y-128488072D01*
X86870000Y-128488072D01*
X86870001Y-132042668D01*
X86866324Y-132080000D01*
X86880998Y-132228985D01*
X86924454Y-132372246D01*
X86995026Y-132504276D01*
X87066201Y-132591002D01*
X87090000Y-132620001D01*
X87118998Y-132643799D01*
X87334822Y-132859623D01*
X87211033Y-132835000D01*
X86888967Y-132835000D01*
X86573088Y-132897832D01*
X86558625Y-132903823D01*
X82040000Y-128385199D01*
X82040000Y-123591388D01*
X82149199Y-123546156D01*
X82449744Y-123345338D01*
X82705338Y-123089744D01*
X82906156Y-122789199D01*
X83044482Y-122455250D01*
X83115000Y-122100732D01*
X83115000Y-121739268D01*
X83044482Y-121384750D01*
X82906156Y-121050801D01*
X82705338Y-120750256D01*
X82449744Y-120494662D01*
X82149199Y-120293844D01*
X81815250Y-120155518D01*
X81460732Y-120085000D01*
X81099268Y-120085000D01*
X80744750Y-120155518D01*
X80410801Y-120293844D01*
X80110256Y-120494662D01*
X79854662Y-120750256D01*
X79653844Y-121050801D01*
X79515518Y-121384750D01*
X79445000Y-121739268D01*
X79445000Y-122100732D01*
X79515518Y-122455250D01*
X79653844Y-122789199D01*
X79854662Y-123089744D01*
X80110256Y-123345338D01*
X80410801Y-123546156D01*
X80520000Y-123591388D01*
X80520001Y-128662668D01*
X80516324Y-128700000D01*
X80530998Y-128848985D01*
X80574454Y-128992246D01*
X80645026Y-129124276D01*
X80693913Y-129183844D01*
X80740000Y-129240001D01*
X80768998Y-129263799D01*
X85483823Y-133978625D01*
X85477832Y-133993088D01*
X85415000Y-134308967D01*
X85415000Y-134631033D01*
X85477832Y-134946912D01*
X85601082Y-135244463D01*
X85780013Y-135512252D01*
X86007748Y-135739987D01*
X86275537Y-135918918D01*
X86290000Y-135924909D01*
X86290001Y-139515091D01*
X86275537Y-139521082D01*
X86007748Y-139700013D01*
X85780013Y-139927748D01*
X85601082Y-140195537D01*
X85477832Y-140493088D01*
X85415000Y-140808967D01*
X85415000Y-141131033D01*
X85477832Y-141446912D01*
X85601082Y-141744463D01*
X85780013Y-142012252D01*
X86007748Y-142239987D01*
X86275537Y-142418918D01*
X86573088Y-142542168D01*
X86888967Y-142605000D01*
X87211033Y-142605000D01*
X87526912Y-142542168D01*
X87824463Y-142418918D01*
X88092252Y-142239987D01*
X88319987Y-142012252D01*
X88498918Y-141744463D01*
X88504909Y-141730000D01*
X93665199Y-141730000D01*
X96391312Y-144456114D01*
X96355000Y-144638665D01*
X96355000Y-144921335D01*
X96410147Y-145198574D01*
X96448017Y-145290000D01*
X78344909Y-145290000D01*
X78338918Y-145275537D01*
X78159987Y-145007748D01*
X77932252Y-144780013D01*
X77664463Y-144601082D01*
X77650000Y-144595091D01*
X77650000Y-141004909D01*
X77664463Y-140998918D01*
X77932252Y-140819987D01*
X77943272Y-140808967D01*
X80915000Y-140808967D01*
X80915000Y-141131033D01*
X80977832Y-141446912D01*
X81101082Y-141744463D01*
X81280013Y-142012252D01*
X81507748Y-142239987D01*
X81775537Y-142418918D01*
X82073088Y-142542168D01*
X82388967Y-142605000D01*
X82711033Y-142605000D01*
X83026912Y-142542168D01*
X83324463Y-142418918D01*
X83592252Y-142239987D01*
X83819987Y-142012252D01*
X83998918Y-141744463D01*
X84122168Y-141446912D01*
X84185000Y-141131033D01*
X84185000Y-140808967D01*
X84122168Y-140493088D01*
X83998918Y-140195537D01*
X83819987Y-139927748D01*
X83592252Y-139700013D01*
X83324463Y-139521082D01*
X83026912Y-139397832D01*
X82711033Y-139335000D01*
X82388967Y-139335000D01*
X82073088Y-139397832D01*
X81775537Y-139521082D01*
X81507748Y-139700013D01*
X81280013Y-139927748D01*
X81101082Y-140195537D01*
X80977832Y-140493088D01*
X80915000Y-140808967D01*
X77943272Y-140808967D01*
X78159987Y-140592252D01*
X78338918Y-140324463D01*
X78462168Y-140026912D01*
X78525000Y-139711033D01*
X78525000Y-139388967D01*
X78462168Y-139073088D01*
X78338918Y-138775537D01*
X78159987Y-138507748D01*
X77932252Y-138280013D01*
X77664463Y-138101082D01*
X77366912Y-137977832D01*
X77051033Y-137915000D01*
X76728967Y-137915000D01*
X76413088Y-137977832D01*
X76398625Y-137983823D01*
X74420000Y-136005199D01*
X74420000Y-134308967D01*
X80915000Y-134308967D01*
X80915000Y-134631033D01*
X80977832Y-134946912D01*
X81101082Y-135244463D01*
X81280013Y-135512252D01*
X81507748Y-135739987D01*
X81775537Y-135918918D01*
X82073088Y-136042168D01*
X82388967Y-136105000D01*
X82711033Y-136105000D01*
X83026912Y-136042168D01*
X83324463Y-135918918D01*
X83592252Y-135739987D01*
X83819987Y-135512252D01*
X83998918Y-135244463D01*
X84122168Y-134946912D01*
X84185000Y-134631033D01*
X84185000Y-134308967D01*
X84122168Y-133993088D01*
X83998918Y-133695537D01*
X83819987Y-133427748D01*
X83592252Y-133200013D01*
X83324463Y-133021082D01*
X83026912Y-132897832D01*
X82711033Y-132835000D01*
X82388967Y-132835000D01*
X82073088Y-132897832D01*
X81775537Y-133021082D01*
X81507748Y-133200013D01*
X81280013Y-133427748D01*
X81101082Y-133695537D01*
X80977832Y-133993088D01*
X80915000Y-134308967D01*
X74420000Y-134308967D01*
X74420000Y-123591388D01*
X74529199Y-123546156D01*
X74829744Y-123345338D01*
X75085338Y-123089744D01*
X75286156Y-122789199D01*
X75424482Y-122455250D01*
X75495000Y-122100732D01*
X75495000Y-121739268D01*
X75424482Y-121384750D01*
X75286156Y-121050801D01*
X75085338Y-120750256D01*
X74829744Y-120494662D01*
X74529199Y-120293844D01*
X74195250Y-120155518D01*
X73840732Y-120085000D01*
X73479268Y-120085000D01*
X73124750Y-120155518D01*
X72790801Y-120293844D01*
X72490256Y-120494662D01*
X72234662Y-120750256D01*
X72033844Y-121050801D01*
X71895518Y-121384750D01*
X71825000Y-121739268D01*
X71825000Y-122100732D01*
X71895518Y-122455250D01*
X72033844Y-122789199D01*
X72234662Y-123089744D01*
X72490256Y-123345338D01*
X72790801Y-123546156D01*
X72900000Y-123591388D01*
X72900001Y-136282668D01*
X72896324Y-136320000D01*
X72910998Y-136468985D01*
X72954454Y-136612246D01*
X73025026Y-136744276D01*
X73073913Y-136803844D01*
X73120000Y-136860001D01*
X73148998Y-136883799D01*
X75323823Y-139058625D01*
X75317832Y-139073088D01*
X75255000Y-139388967D01*
X75255000Y-139711033D01*
X75317832Y-140026912D01*
X75441082Y-140324463D01*
X75620013Y-140592252D01*
X75847748Y-140819987D01*
X76115537Y-140998918D01*
X76130000Y-141004909D01*
X76130001Y-144595091D01*
X76115537Y-144601082D01*
X75847748Y-144780013D01*
X75620013Y-145007748D01*
X75441082Y-145275537D01*
X75317832Y-145573088D01*
X75255000Y-145888967D01*
X75255000Y-146211033D01*
X75317832Y-146526912D01*
X75441082Y-146824463D01*
X75620013Y-147092252D01*
X75847748Y-147319987D01*
X76115537Y-147498918D01*
X76413088Y-147622168D01*
X76728967Y-147685000D01*
X77051033Y-147685000D01*
X77366912Y-147622168D01*
X77664463Y-147498918D01*
X77932252Y-147319987D01*
X78159987Y-147092252D01*
X78338918Y-146824463D01*
X78344909Y-146810000D01*
X96205199Y-146810000D01*
X96391312Y-146996114D01*
X96355000Y-147178665D01*
X96355000Y-147461335D01*
X96410147Y-147738574D01*
X96518320Y-147999727D01*
X96675363Y-148234759D01*
X96875241Y-148434637D01*
X97107759Y-148590000D01*
X96875241Y-148745363D01*
X96675363Y-148945241D01*
X96518320Y-149180273D01*
X96410147Y-149441426D01*
X96355000Y-149718665D01*
X96355000Y-150001335D01*
X96391312Y-150183886D01*
X96205199Y-150370000D01*
X68184909Y-150370000D01*
X68178918Y-150355537D01*
X67999987Y-150087748D01*
X67772252Y-149860013D01*
X67504463Y-149681082D01*
X67490000Y-149675091D01*
X67490000Y-146084909D01*
X67504463Y-146078918D01*
X67772252Y-145899987D01*
X67783272Y-145888967D01*
X70755000Y-145888967D01*
X70755000Y-146211033D01*
X70817832Y-146526912D01*
X70941082Y-146824463D01*
X71120013Y-147092252D01*
X71347748Y-147319987D01*
X71615537Y-147498918D01*
X71913088Y-147622168D01*
X72228967Y-147685000D01*
X72551033Y-147685000D01*
X72866912Y-147622168D01*
X73164463Y-147498918D01*
X73432252Y-147319987D01*
X73659987Y-147092252D01*
X73838918Y-146824463D01*
X73962168Y-146526912D01*
X74025000Y-146211033D01*
X74025000Y-145888967D01*
X73962168Y-145573088D01*
X73838918Y-145275537D01*
X73659987Y-145007748D01*
X73432252Y-144780013D01*
X73164463Y-144601082D01*
X72866912Y-144477832D01*
X72551033Y-144415000D01*
X72228967Y-144415000D01*
X71913088Y-144477832D01*
X71615537Y-144601082D01*
X71347748Y-144780013D01*
X71120013Y-145007748D01*
X70941082Y-145275537D01*
X70817832Y-145573088D01*
X70755000Y-145888967D01*
X67783272Y-145888967D01*
X67999987Y-145672252D01*
X68178918Y-145404463D01*
X68302168Y-145106912D01*
X68365000Y-144791033D01*
X68365000Y-144468967D01*
X68302168Y-144153088D01*
X68178918Y-143855537D01*
X67999987Y-143587748D01*
X67772252Y-143360013D01*
X67504463Y-143181082D01*
X67206912Y-143057832D01*
X66891033Y-142995000D01*
X66800000Y-142995000D01*
X66800000Y-139388967D01*
X70755000Y-139388967D01*
X70755000Y-139711033D01*
X70817832Y-140026912D01*
X70941082Y-140324463D01*
X71120013Y-140592252D01*
X71347748Y-140819987D01*
X71615537Y-140998918D01*
X71913088Y-141122168D01*
X72228967Y-141185000D01*
X72551033Y-141185000D01*
X72866912Y-141122168D01*
X73164463Y-140998918D01*
X73432252Y-140819987D01*
X73659987Y-140592252D01*
X73838918Y-140324463D01*
X73962168Y-140026912D01*
X74025000Y-139711033D01*
X74025000Y-139388967D01*
X73962168Y-139073088D01*
X73838918Y-138775537D01*
X73659987Y-138507748D01*
X73432252Y-138280013D01*
X73164463Y-138101082D01*
X72866912Y-137977832D01*
X72551033Y-137915000D01*
X72228967Y-137915000D01*
X71913088Y-137977832D01*
X71615537Y-138101082D01*
X71347748Y-138280013D01*
X71120013Y-138507748D01*
X70941082Y-138775537D01*
X70817832Y-139073088D01*
X70755000Y-139388967D01*
X66800000Y-139388967D01*
X66800000Y-123591388D01*
X66909199Y-123546156D01*
X67209744Y-123345338D01*
X67465338Y-123089744D01*
X67666156Y-122789199D01*
X67804482Y-122455250D01*
X67875000Y-122100732D01*
X67875000Y-121739268D01*
X67804482Y-121384750D01*
X67666156Y-121050801D01*
X67465338Y-120750256D01*
X67209744Y-120494662D01*
X66909199Y-120293844D01*
X66575250Y-120155518D01*
X66220732Y-120085000D01*
X65859268Y-120085000D01*
X65504750Y-120155518D01*
X65170801Y-120293844D01*
X64870256Y-120494662D01*
X64614662Y-120750256D01*
X64413844Y-121050801D01*
X64275518Y-121384750D01*
X64205000Y-121739268D01*
X48628072Y-121739268D01*
X48628072Y-120967500D01*
X48615812Y-120843018D01*
X48579502Y-120723320D01*
X48520537Y-120613006D01*
X48441185Y-120516315D01*
X48344494Y-120436963D01*
X48252781Y-120387941D01*
X48365969Y-120246923D01*
X48400810Y-120180000D01*
X51901928Y-120180000D01*
X51914188Y-120304482D01*
X51950498Y-120424180D01*
X52009463Y-120534494D01*
X52088815Y-120631185D01*
X52185506Y-120710537D01*
X52295820Y-120769502D01*
X52415518Y-120805812D01*
X52540000Y-120818072D01*
X53054250Y-120815000D01*
X53213000Y-120656250D01*
X53213000Y-119507000D01*
X53467000Y-119507000D01*
X53467000Y-120656250D01*
X53625750Y-120815000D01*
X54140000Y-120818072D01*
X54264482Y-120805812D01*
X54384180Y-120769502D01*
X54494494Y-120710537D01*
X54591185Y-120631185D01*
X54670537Y-120534494D01*
X54729502Y-120424180D01*
X54745117Y-120372702D01*
X58876903Y-120372702D01*
X58948486Y-120616671D01*
X59203996Y-120737571D01*
X59478184Y-120806300D01*
X59760512Y-120820217D01*
X60040130Y-120778787D01*
X60306292Y-120683603D01*
X60431514Y-120616671D01*
X60503097Y-120372702D01*
X59690000Y-119559605D01*
X58876903Y-120372702D01*
X54745117Y-120372702D01*
X54765812Y-120304482D01*
X54778072Y-120180000D01*
X54775000Y-119665750D01*
X54616250Y-119507000D01*
X53467000Y-119507000D01*
X53213000Y-119507000D01*
X52063750Y-119507000D01*
X51905000Y-119665750D01*
X51901928Y-120180000D01*
X48400810Y-120180000D01*
X48509571Y-119971094D01*
X48580563Y-119752980D01*
X48460594Y-119507000D01*
X47117000Y-119507000D01*
X47117000Y-119527000D01*
X46863000Y-119527000D01*
X46863000Y-119507000D01*
X45519406Y-119507000D01*
X45399437Y-119752980D01*
X45470429Y-119971094D01*
X45614031Y-120246923D01*
X45727219Y-120387941D01*
X45635506Y-120436963D01*
X45538815Y-120516315D01*
X45459463Y-120613006D01*
X45400498Y-120723320D01*
X45364188Y-120843018D01*
X45351928Y-120967500D01*
X45351928Y-122872500D01*
X45364188Y-122996982D01*
X45400498Y-123116680D01*
X45459463Y-123226994D01*
X45538815Y-123323685D01*
X45635506Y-123403037D01*
X45745820Y-123462002D01*
X45865518Y-123498312D01*
X45990000Y-123510572D01*
X46230000Y-123510572D01*
X46230001Y-127955196D01*
X45094449Y-129090749D01*
X44985250Y-129045518D01*
X44630732Y-128975000D01*
X44269268Y-128975000D01*
X43914750Y-129045518D01*
X43580801Y-129183844D01*
X43280256Y-129384662D01*
X43024662Y-129640256D01*
X42823844Y-129940801D01*
X42685518Y-130274750D01*
X42615000Y-130629268D01*
X37490000Y-130629268D01*
X37490000Y-123570435D01*
X39049871Y-123570435D01*
X39154644Y-123873344D01*
X39316499Y-124149992D01*
X39529215Y-124389748D01*
X39784618Y-124583399D01*
X40072893Y-124723502D01*
X40259566Y-124780124D01*
X40513000Y-124660777D01*
X40513000Y-123317000D01*
X40767000Y-123317000D01*
X40767000Y-124660777D01*
X41020434Y-124780124D01*
X41207107Y-124723502D01*
X41495382Y-124583399D01*
X41750785Y-124389748D01*
X41963501Y-124149992D01*
X42125356Y-123873344D01*
X42230129Y-123570435D01*
X42111315Y-123317000D01*
X40767000Y-123317000D01*
X40513000Y-123317000D01*
X39168685Y-123317000D01*
X39049871Y-123570435D01*
X37490000Y-123570435D01*
X37490000Y-122809565D01*
X39049871Y-122809565D01*
X39168685Y-123063000D01*
X40513000Y-123063000D01*
X40513000Y-121719223D01*
X40767000Y-121719223D01*
X40767000Y-123063000D01*
X42111315Y-123063000D01*
X42230129Y-122809565D01*
X42125356Y-122506656D01*
X41963501Y-122230008D01*
X41750785Y-121990252D01*
X41495382Y-121796601D01*
X41207107Y-121656498D01*
X41020434Y-121599876D01*
X40767000Y-121719223D01*
X40513000Y-121719223D01*
X40259566Y-121599876D01*
X40072893Y-121656498D01*
X39784618Y-121796601D01*
X39529215Y-121990252D01*
X39316499Y-122230008D01*
X39154644Y-122506656D01*
X39049871Y-122809565D01*
X37490000Y-122809565D01*
X37490000Y-117110000D01*
X39001928Y-117110000D01*
X39001928Y-119110000D01*
X39014188Y-119234482D01*
X39050498Y-119354180D01*
X39109463Y-119464494D01*
X39188815Y-119561185D01*
X39285506Y-119640537D01*
X39395820Y-119699502D01*
X39515518Y-119735812D01*
X39640000Y-119748072D01*
X41640000Y-119748072D01*
X41764482Y-119735812D01*
X41884180Y-119699502D01*
X41994494Y-119640537D01*
X42091185Y-119561185D01*
X42170537Y-119464494D01*
X42178010Y-119450512D01*
X58249783Y-119450512D01*
X58291213Y-119730130D01*
X58386397Y-119996292D01*
X58453329Y-120121514D01*
X58697298Y-120193097D01*
X59510395Y-119380000D01*
X59869605Y-119380000D01*
X60682702Y-120193097D01*
X60926671Y-120121514D01*
X61047571Y-119866004D01*
X61116300Y-119591816D01*
X61130217Y-119309488D01*
X61088787Y-119029870D01*
X60993603Y-118763708D01*
X60926671Y-118638486D01*
X60682702Y-118566903D01*
X59869605Y-119380000D01*
X59510395Y-119380000D01*
X58697298Y-118566903D01*
X58453329Y-118638486D01*
X58332429Y-118893996D01*
X58263700Y-119168184D01*
X58249783Y-119450512D01*
X42178010Y-119450512D01*
X42229502Y-119354180D01*
X42265812Y-119234482D01*
X42278072Y-119110000D01*
X42278072Y-117110000D01*
X42265812Y-116985518D01*
X42229502Y-116865820D01*
X42170537Y-116755506D01*
X42091185Y-116658815D01*
X41994494Y-116579463D01*
X41884180Y-116520498D01*
X41764482Y-116484188D01*
X41640000Y-116471928D01*
X41525000Y-116471928D01*
X41525000Y-114164521D01*
X41554759Y-114144637D01*
X41754637Y-113944759D01*
X41774521Y-113915000D01*
X41866531Y-113915000D01*
X41910000Y-113919281D01*
X41953469Y-113915000D01*
X42813422Y-113915000D01*
X45389432Y-116491011D01*
X45377970Y-116528796D01*
X45347319Y-116840000D01*
X45377970Y-117151204D01*
X45468745Y-117450449D01*
X45616155Y-117726235D01*
X45814537Y-117967963D01*
X45993899Y-118115163D01*
X45808685Y-118270563D01*
X45614031Y-118513077D01*
X45470429Y-118788906D01*
X45399437Y-119007020D01*
X45519406Y-119253000D01*
X46863000Y-119253000D01*
X46863000Y-119233000D01*
X47117000Y-119233000D01*
X47117000Y-119253000D01*
X48460594Y-119253000D01*
X48580563Y-119007020D01*
X48509571Y-118788906D01*
X48365969Y-118513077D01*
X48171315Y-118270563D01*
X47986101Y-118115163D01*
X48165463Y-117967963D01*
X48363845Y-117726235D01*
X48511255Y-117450449D01*
X48602030Y-117151204D01*
X48632681Y-116840000D01*
X48602030Y-116528796D01*
X48511255Y-116229551D01*
X48363845Y-115953765D01*
X48165463Y-115712037D01*
X47923735Y-115513655D01*
X47647949Y-115366245D01*
X47348704Y-115275470D01*
X47115486Y-115252500D01*
X46864514Y-115252500D01*
X46672947Y-115271368D01*
X43836532Y-112434954D01*
X43808817Y-112401183D01*
X43798699Y-112392879D01*
X46643909Y-109547670D01*
X46829017Y-109584490D01*
X47150983Y-109584490D01*
X47466763Y-109521678D01*
X47764222Y-109398467D01*
X48031927Y-109219592D01*
X48259592Y-108991927D01*
X48438467Y-108724222D01*
X48561678Y-108426763D01*
X48624490Y-108110983D01*
X48624490Y-107789017D01*
X50435510Y-107789017D01*
X50435510Y-108110983D01*
X50498322Y-108426763D01*
X50621533Y-108724222D01*
X50800408Y-108991927D01*
X51028073Y-109219592D01*
X51295778Y-109398467D01*
X51310000Y-109404358D01*
X51310001Y-116072668D01*
X51306324Y-116110000D01*
X51310001Y-116147333D01*
X51320998Y-116258986D01*
X51334180Y-116302442D01*
X51364454Y-116402246D01*
X51435026Y-116534276D01*
X51506201Y-116621002D01*
X51530000Y-116650001D01*
X51558998Y-116673799D01*
X51941312Y-117056114D01*
X51905000Y-117238665D01*
X51905000Y-117521335D01*
X51960147Y-117798574D01*
X52068320Y-118059727D01*
X52105393Y-118115210D01*
X52088815Y-118128815D01*
X52009463Y-118225506D01*
X51950498Y-118335820D01*
X51914188Y-118455518D01*
X51901928Y-118580000D01*
X51905000Y-119094250D01*
X52063750Y-119253000D01*
X53213000Y-119253000D01*
X53213000Y-119233000D01*
X53467000Y-119233000D01*
X53467000Y-119253000D01*
X54616250Y-119253000D01*
X54775000Y-119094250D01*
X54778072Y-118580000D01*
X54765812Y-118455518D01*
X54745118Y-118387298D01*
X58876903Y-118387298D01*
X59690000Y-119200395D01*
X60503097Y-118387298D01*
X60431514Y-118143329D01*
X60176004Y-118022429D01*
X59901816Y-117953700D01*
X59619488Y-117939783D01*
X59339870Y-117981213D01*
X59073708Y-118076397D01*
X58948486Y-118143329D01*
X58876903Y-118387298D01*
X54745118Y-118387298D01*
X54729502Y-118335820D01*
X54670537Y-118225506D01*
X54591185Y-118128815D01*
X54574607Y-118115210D01*
X54611680Y-118059727D01*
X54719853Y-117798574D01*
X54775000Y-117521335D01*
X54775000Y-117238665D01*
X54719853Y-116961426D01*
X54611680Y-116700273D01*
X54454637Y-116465241D01*
X54254759Y-116265363D01*
X54019727Y-116108320D01*
X53758574Y-116000147D01*
X53481335Y-115945000D01*
X53198665Y-115945000D01*
X53016114Y-115981312D01*
X52830000Y-115795199D01*
X52830000Y-114238665D01*
X58255000Y-114238665D01*
X58255000Y-114521335D01*
X58310147Y-114798574D01*
X58418320Y-115059727D01*
X58575363Y-115294759D01*
X58775241Y-115494637D01*
X59010273Y-115651680D01*
X59271426Y-115759853D01*
X59548665Y-115815000D01*
X59831335Y-115815000D01*
X60108574Y-115759853D01*
X60369727Y-115651680D01*
X60604759Y-115494637D01*
X60804637Y-115294759D01*
X60961680Y-115059727D01*
X61069853Y-114798574D01*
X61125000Y-114521335D01*
X61125000Y-114238665D01*
X61069853Y-113961426D01*
X60961680Y-113700273D01*
X60804637Y-113465241D01*
X60604759Y-113265363D01*
X60369727Y-113108320D01*
X60108574Y-113000147D01*
X59831335Y-112945000D01*
X59548665Y-112945000D01*
X59271426Y-113000147D01*
X59010273Y-113108320D01*
X58775241Y-113265363D01*
X58575363Y-113465241D01*
X58418320Y-113700273D01*
X58310147Y-113961426D01*
X58255000Y-114238665D01*
X52830000Y-114238665D01*
X52830000Y-109404358D01*
X52844222Y-109398467D01*
X53111927Y-109219592D01*
X53339592Y-108991927D01*
X53518467Y-108724222D01*
X53641678Y-108426763D01*
X53704490Y-108110983D01*
X53704490Y-107957980D01*
X64941626Y-107957980D01*
X65061514Y-108242836D01*
X65385210Y-108403699D01*
X65734069Y-108498322D01*
X66094684Y-108523067D01*
X66453198Y-108476985D01*
X66795833Y-108361846D01*
X67018486Y-108242836D01*
X67138374Y-107957980D01*
X72561626Y-107957980D01*
X72681514Y-108242836D01*
X73005210Y-108403699D01*
X73354069Y-108498322D01*
X73714684Y-108523067D01*
X74073198Y-108476985D01*
X74415833Y-108361846D01*
X74638486Y-108242836D01*
X74758374Y-107957980D01*
X80181626Y-107957980D01*
X80301514Y-108242836D01*
X80625210Y-108403699D01*
X80974069Y-108498322D01*
X81334684Y-108523067D01*
X81693198Y-108476985D01*
X82035833Y-108361846D01*
X82258486Y-108242836D01*
X82378374Y-107957980D01*
X87801626Y-107957980D01*
X87921514Y-108242836D01*
X88245210Y-108403699D01*
X88594069Y-108498322D01*
X88954684Y-108523067D01*
X89313198Y-108476985D01*
X89655833Y-108361846D01*
X89878486Y-108242836D01*
X89998374Y-107957980D01*
X88900000Y-106859605D01*
X87801626Y-107957980D01*
X82378374Y-107957980D01*
X81280000Y-106859605D01*
X80181626Y-107957980D01*
X74758374Y-107957980D01*
X73660000Y-106859605D01*
X72561626Y-107957980D01*
X67138374Y-107957980D01*
X66040000Y-106859605D01*
X64941626Y-107957980D01*
X53704490Y-107957980D01*
X53704490Y-107789017D01*
X53641678Y-107473237D01*
X53518467Y-107175778D01*
X53339592Y-106908073D01*
X53166203Y-106734684D01*
X64196933Y-106734684D01*
X64243015Y-107093198D01*
X64358154Y-107435833D01*
X64477164Y-107658486D01*
X64762020Y-107778374D01*
X65860395Y-106680000D01*
X66219605Y-106680000D01*
X67317980Y-107778374D01*
X67602836Y-107658486D01*
X67763699Y-107334790D01*
X67858322Y-106985931D01*
X67875562Y-106734684D01*
X71816933Y-106734684D01*
X71863015Y-107093198D01*
X71978154Y-107435833D01*
X72097164Y-107658486D01*
X72382020Y-107778374D01*
X73480395Y-106680000D01*
X73839605Y-106680000D01*
X74937980Y-107778374D01*
X75222836Y-107658486D01*
X75383699Y-107334790D01*
X75478322Y-106985931D01*
X75495562Y-106734684D01*
X79436933Y-106734684D01*
X79483015Y-107093198D01*
X79598154Y-107435833D01*
X79717164Y-107658486D01*
X80002020Y-107778374D01*
X81100395Y-106680000D01*
X81459605Y-106680000D01*
X82557980Y-107778374D01*
X82842836Y-107658486D01*
X83003699Y-107334790D01*
X83098322Y-106985931D01*
X83115562Y-106734684D01*
X87056933Y-106734684D01*
X87103015Y-107093198D01*
X87218154Y-107435833D01*
X87337164Y-107658486D01*
X87622020Y-107778374D01*
X88720395Y-106680000D01*
X89079605Y-106680000D01*
X90177980Y-107778374D01*
X90462836Y-107658486D01*
X90623699Y-107334790D01*
X90718322Y-106985931D01*
X90743067Y-106625316D01*
X90696985Y-106266802D01*
X90581846Y-105924167D01*
X90462836Y-105701514D01*
X90177980Y-105581626D01*
X89079605Y-106680000D01*
X88720395Y-106680000D01*
X87622020Y-105581626D01*
X87337164Y-105701514D01*
X87176301Y-106025210D01*
X87081678Y-106374069D01*
X87056933Y-106734684D01*
X83115562Y-106734684D01*
X83123067Y-106625316D01*
X83076985Y-106266802D01*
X82961846Y-105924167D01*
X82842836Y-105701514D01*
X82557980Y-105581626D01*
X81459605Y-106680000D01*
X81100395Y-106680000D01*
X80002020Y-105581626D01*
X79717164Y-105701514D01*
X79556301Y-106025210D01*
X79461678Y-106374069D01*
X79436933Y-106734684D01*
X75495562Y-106734684D01*
X75503067Y-106625316D01*
X75456985Y-106266802D01*
X75341846Y-105924167D01*
X75222836Y-105701514D01*
X74937980Y-105581626D01*
X73839605Y-106680000D01*
X73480395Y-106680000D01*
X72382020Y-105581626D01*
X72097164Y-105701514D01*
X71936301Y-106025210D01*
X71841678Y-106374069D01*
X71816933Y-106734684D01*
X67875562Y-106734684D01*
X67883067Y-106625316D01*
X67836985Y-106266802D01*
X67721846Y-105924167D01*
X67602836Y-105701514D01*
X67317980Y-105581626D01*
X66219605Y-106680000D01*
X65860395Y-106680000D01*
X64762020Y-105581626D01*
X64477164Y-105701514D01*
X64316301Y-106025210D01*
X64221678Y-106374069D01*
X64196933Y-106734684D01*
X53166203Y-106734684D01*
X53111927Y-106680408D01*
X52844222Y-106501533D01*
X52546763Y-106378322D01*
X52230983Y-106315510D01*
X51909017Y-106315510D01*
X51593237Y-106378322D01*
X51295778Y-106501533D01*
X51028073Y-106680408D01*
X50800408Y-106908073D01*
X50621533Y-107175778D01*
X50498322Y-107473237D01*
X50435510Y-107789017D01*
X48624490Y-107789017D01*
X48561678Y-107473237D01*
X48438467Y-107175778D01*
X48259592Y-106908073D01*
X48031927Y-106680408D01*
X47764222Y-106501533D01*
X47466763Y-106378322D01*
X47150983Y-106315510D01*
X46829017Y-106315510D01*
X46513237Y-106378322D01*
X46215778Y-106501533D01*
X45948073Y-106680408D01*
X45720408Y-106908073D01*
X45541533Y-107175778D01*
X45418322Y-107473237D01*
X45355510Y-107789017D01*
X45355510Y-108110983D01*
X45392330Y-108296091D01*
X41663909Y-112024513D01*
X41554759Y-111915363D01*
X41319727Y-111758320D01*
X41058574Y-111650147D01*
X40781335Y-111595000D01*
X40498665Y-111595000D01*
X40221426Y-111650147D01*
X39960273Y-111758320D01*
X39725241Y-111915363D01*
X39525363Y-112115241D01*
X39368320Y-112350273D01*
X39260147Y-112611426D01*
X39205000Y-112888665D01*
X39205000Y-113171335D01*
X39260147Y-113448574D01*
X39368320Y-113709727D01*
X39525363Y-113944759D01*
X39725241Y-114144637D01*
X39755000Y-114164521D01*
X39755001Y-116471928D01*
X39640000Y-116471928D01*
X39515518Y-116484188D01*
X39395820Y-116520498D01*
X39285506Y-116579463D01*
X39188815Y-116658815D01*
X39109463Y-116755506D01*
X39050498Y-116865820D01*
X39014188Y-116985518D01*
X39001928Y-117110000D01*
X37490000Y-117110000D01*
X37490000Y-107888665D01*
X39205000Y-107888665D01*
X39205000Y-108171335D01*
X39260147Y-108448574D01*
X39368320Y-108709727D01*
X39525363Y-108944759D01*
X39725241Y-109144637D01*
X39960273Y-109301680D01*
X40221426Y-109409853D01*
X40498665Y-109465000D01*
X40781335Y-109465000D01*
X41058574Y-109409853D01*
X41319727Y-109301680D01*
X41554759Y-109144637D01*
X41754637Y-108944759D01*
X41911680Y-108709727D01*
X42019853Y-108448574D01*
X42075000Y-108171335D01*
X42075000Y-107888665D01*
X42019853Y-107611426D01*
X41911680Y-107350273D01*
X41754637Y-107115241D01*
X41554759Y-106915363D01*
X41319727Y-106758320D01*
X41058574Y-106650147D01*
X40781335Y-106595000D01*
X40498665Y-106595000D01*
X40221426Y-106650147D01*
X39960273Y-106758320D01*
X39725241Y-106915363D01*
X39525363Y-107115241D01*
X39368320Y-107350273D01*
X39260147Y-107611426D01*
X39205000Y-107888665D01*
X37490000Y-107888665D01*
X37490000Y-105402020D01*
X64941626Y-105402020D01*
X66040000Y-106500395D01*
X67138374Y-105402020D01*
X72561626Y-105402020D01*
X73660000Y-106500395D01*
X74758374Y-105402020D01*
X80181626Y-105402020D01*
X81280000Y-106500395D01*
X82378374Y-105402020D01*
X87801626Y-105402020D01*
X88900000Y-106500395D01*
X89998374Y-105402020D01*
X89878486Y-105117164D01*
X89554790Y-104956301D01*
X89205931Y-104861678D01*
X88845316Y-104836933D01*
X88486802Y-104883015D01*
X88144167Y-104998154D01*
X87921514Y-105117164D01*
X87801626Y-105402020D01*
X82378374Y-105402020D01*
X82258486Y-105117164D01*
X81934790Y-104956301D01*
X81585931Y-104861678D01*
X81225316Y-104836933D01*
X80866802Y-104883015D01*
X80524167Y-104998154D01*
X80301514Y-105117164D01*
X80181626Y-105402020D01*
X74758374Y-105402020D01*
X74638486Y-105117164D01*
X74314790Y-104956301D01*
X73965931Y-104861678D01*
X73605316Y-104836933D01*
X73246802Y-104883015D01*
X72904167Y-104998154D01*
X72681514Y-105117164D01*
X72561626Y-105402020D01*
X67138374Y-105402020D01*
X67018486Y-105117164D01*
X66694790Y-104956301D01*
X66345931Y-104861678D01*
X65985316Y-104836933D01*
X65626802Y-104883015D01*
X65284167Y-104998154D01*
X65061514Y-105117164D01*
X64941626Y-105402020D01*
X37490000Y-105402020D01*
X37490000Y-104800000D01*
X133960000Y-104800000D01*
X133960001Y-174600000D01*
%TD*%
M02*
