M48
; DRILL file {KiCad (5.1.6)-1} date 10/24/20 11:54:44
; FORMAT={-:-/ absolute / inch / decimal}
; #@! TF.CreationDate,2020-10-24T11:54:44+02:00
; #@! TF.GenerationSoftware,Kicad,Pcbnew,(5.1.6)-1
FMAT,2
INCH
T1C0.0157
T2C0.0315
T3C0.0354
T4C0.0394
T5C0.0433
T6C0.1260
%
G90
G05
T1
X4.15Y-6.6
X4.15Y-6.7
T2
X2.1Y-4.5
X2.2969Y-4.5
X2.1Y-6.65
X2.6Y-6.65
X3.25Y-6.4
X3.4469Y-6.4
X3.85Y-5.4
X3.85Y-5.5
X3.85Y-5.6
X3.85Y-5.7
X3.85Y-5.8
X3.85Y-5.9
X3.85Y-6.0
X3.85Y-6.1
X3.85Y-6.2
X3.85Y-6.3
X3.85Y-6.4
X3.85Y-6.5
X3.85Y-6.6
X3.85Y-6.7
X4.15Y-5.4
X4.15Y-5.5
X4.15Y-5.6
X4.15Y-5.7
X4.15Y-5.8
X4.15Y-5.9
X4.15Y-6.0
X4.15Y-6.1
X4.15Y-6.2
X4.15Y-6.3
X4.15Y-6.4
X4.15Y-6.5
X4.15Y-6.6
X4.15Y-6.7
X3.0Y-4.3
X3.0Y-4.8
X3.2531Y-6.0
X3.45Y-6.0
X2.1Y-6.15
X2.6Y-6.15
X3.65Y-6.2
X3.65Y-6.3921
X2.7Y-4.3
X2.7Y-4.8
X3.65Y-4.3
X4.15Y-4.3
X2.45Y-5.3213
X2.45Y-5.4
X3.2Y-4.3
X3.2Y-4.8
X2.45Y-4.9031
X2.45Y-5.1
X4.35Y-5.9531
X4.35Y-6.15
X2.1Y-6.4
X2.6Y-6.4
X3.25Y-6.2
X3.4469Y-6.2
T3
X2.85Y-6.65
X2.95Y-6.65
T4
X3.5Y-4.65
X3.5Y-4.75
X3.5Y-4.85
X3.5Y-4.95
X3.65Y-5.2
X3.75Y-5.2
X4.5Y-5.4
X4.5Y-5.5
X2.1Y-4.3
X2.5Y-4.3
X4.6Y-5.85
X4.6Y-5.95
X4.6Y-6.05
X4.6Y-6.15
X2.9Y-6.2
X2.9Y-6.3
T5
X2.85Y-5.5441
X2.85Y-5.8
X3.0272Y-5.5441
X3.0272Y-5.8
X1.65Y-4.55
X1.65Y-4.75
X3.25Y-5.2941
X3.25Y-5.55
X3.4272Y-5.2941
X3.4272Y-5.55
X4.3441Y-4.2728
X4.3441Y-4.45
X4.6Y-4.2728
X4.6Y-4.45
X2.1Y-5.4
X2.1Y-5.5
X2.1Y-5.6
X2.45Y-5.6441
X2.45Y-5.9
X2.6272Y-5.6441
X2.6272Y-5.9
T6
X5.1Y-4.25
X1.6Y-4.25
X1.6Y-6.7
X5.1Y-6.7
T0
M30
