%TF.GenerationSoftware,KiCad,Pcbnew,(5.1.6)-1*%
%TF.CreationDate,2020-10-24T11:54:38+02:00*%
%TF.ProjectId,Basic_Clock,42617369-635f-4436-9c6f-636b2e6b6963,rev?*%
%TF.SameCoordinates,Original*%
%TF.FileFunction,Legend,Top*%
%TF.FilePolarity,Positive*%
%FSLAX46Y46*%
G04 Gerber Fmt 4.6, Leading zero omitted, Abs format (unit mm)*
G04 Created by KiCad (PCBNEW (5.1.6)-1) date 2020-10-24 11:54:38*
%MOMM*%
%LPD*%
G01*
G04 APERTURE LIST*
%ADD10C,0.150000*%
%ADD11C,0.120000*%
G04 APERTURE END LIST*
D10*
X120245238Y-145614285D02*
X120197619Y-145757142D01*
X120197619Y-145995238D01*
X120245238Y-146090476D01*
X120292857Y-146138095D01*
X120388095Y-146185714D01*
X120483333Y-146185714D01*
X120578571Y-146138095D01*
X120626190Y-146090476D01*
X120673809Y-145995238D01*
X120721428Y-145804761D01*
X120769047Y-145709523D01*
X120816666Y-145661904D01*
X120911904Y-145614285D01*
X121007142Y-145614285D01*
X121102380Y-145661904D01*
X121150000Y-145709523D01*
X121197619Y-145804761D01*
X121197619Y-146042857D01*
X121150000Y-146185714D01*
X120197619Y-146614285D02*
X121197619Y-146614285D01*
X121197619Y-146852380D01*
X121150000Y-146995238D01*
X121054761Y-147090476D01*
X120959523Y-147138095D01*
X120769047Y-147185714D01*
X120626190Y-147185714D01*
X120435714Y-147138095D01*
X120340476Y-147090476D01*
X120245238Y-146995238D01*
X120197619Y-146852380D01*
X120197619Y-146614285D01*
X120483333Y-147566666D02*
X120483333Y-148042857D01*
X120197619Y-147471428D02*
X121197619Y-147804761D01*
X120197619Y-148138095D01*
X120245238Y-149185714D02*
X120197619Y-149328571D01*
X120197619Y-149566666D01*
X120245238Y-149661904D01*
X120292857Y-149709523D01*
X120388095Y-149757142D01*
X120483333Y-149757142D01*
X120578571Y-149709523D01*
X120626190Y-149661904D01*
X120673809Y-149566666D01*
X120721428Y-149376190D01*
X120769047Y-149280952D01*
X120816666Y-149233333D01*
X120911904Y-149185714D01*
X121007142Y-149185714D01*
X121102380Y-149233333D01*
X121150000Y-149280952D01*
X121197619Y-149376190D01*
X121197619Y-149614285D01*
X121150000Y-149757142D01*
X120292857Y-150757142D02*
X120245238Y-150709523D01*
X120197619Y-150566666D01*
X120197619Y-150471428D01*
X120245238Y-150328571D01*
X120340476Y-150233333D01*
X120435714Y-150185714D01*
X120626190Y-150138095D01*
X120769047Y-150138095D01*
X120959523Y-150185714D01*
X121054761Y-150233333D01*
X121150000Y-150328571D01*
X121197619Y-150471428D01*
X121197619Y-150566666D01*
X121150000Y-150709523D01*
X121102380Y-150757142D01*
X120197619Y-151661904D02*
X120197619Y-151185714D01*
X121197619Y-151185714D01*
X121150000Y-153280952D02*
X121197619Y-153185714D01*
X121197619Y-153042857D01*
X121150000Y-152900000D01*
X121054761Y-152804761D01*
X120959523Y-152757142D01*
X120769047Y-152709523D01*
X120626190Y-152709523D01*
X120435714Y-152757142D01*
X120340476Y-152804761D01*
X120245238Y-152900000D01*
X120197619Y-153042857D01*
X120197619Y-153138095D01*
X120245238Y-153280952D01*
X120292857Y-153328571D01*
X120626190Y-153328571D01*
X120626190Y-153138095D01*
X120197619Y-153757142D02*
X121197619Y-153757142D01*
X120197619Y-154328571D01*
X121197619Y-154328571D01*
X120197619Y-154804761D02*
X121197619Y-154804761D01*
X121197619Y-155042857D01*
X121150000Y-155185714D01*
X121054761Y-155280952D01*
X120959523Y-155328571D01*
X120769047Y-155376190D01*
X120626190Y-155376190D01*
X120435714Y-155328571D01*
X120340476Y-155280952D01*
X120245238Y-155185714D01*
X120197619Y-155042857D01*
X120197619Y-154804761D01*
X120578571Y-156566666D02*
X120578571Y-157328571D01*
X120197619Y-156947619D02*
X120959523Y-156947619D01*
X121197619Y-158280952D02*
X121197619Y-157804761D01*
X120721428Y-157757142D01*
X120769047Y-157804761D01*
X120816666Y-157900000D01*
X120816666Y-158138095D01*
X120769047Y-158233333D01*
X120721428Y-158280952D01*
X120626190Y-158328571D01*
X120388095Y-158328571D01*
X120292857Y-158280952D01*
X120245238Y-158233333D01*
X120197619Y-158138095D01*
X120197619Y-157900000D01*
X120245238Y-157804761D01*
X120292857Y-157757142D01*
X121197619Y-158614285D02*
X120197619Y-158947619D01*
X121197619Y-159280952D01*
X117586190Y-166743571D02*
X117252857Y-166743571D01*
X117252857Y-167267380D02*
X117252857Y-166267380D01*
X117729047Y-166267380D01*
X118062380Y-166981666D02*
X118538571Y-166981666D01*
X117967142Y-167267380D02*
X118300476Y-166267380D01*
X118633809Y-167267380D01*
X118967142Y-167267380D02*
X118967142Y-166267380D01*
X113919523Y-167917380D02*
X114252857Y-168917380D01*
X114586190Y-167917380D01*
X115300476Y-168869761D02*
X115205238Y-168917380D01*
X115014761Y-168917380D01*
X114919523Y-168869761D01*
X114871904Y-168774523D01*
X114871904Y-168393571D01*
X114919523Y-168298333D01*
X115014761Y-168250714D01*
X115205238Y-168250714D01*
X115300476Y-168298333D01*
X115348095Y-168393571D01*
X115348095Y-168488809D01*
X114871904Y-168584047D01*
X115776666Y-168917380D02*
X115776666Y-168250714D01*
X115776666Y-168441190D02*
X115824285Y-168345952D01*
X115871904Y-168298333D01*
X115967142Y-168250714D01*
X116062380Y-168250714D01*
X116348095Y-168869761D02*
X116443333Y-168917380D01*
X116633809Y-168917380D01*
X116729047Y-168869761D01*
X116776666Y-168774523D01*
X116776666Y-168726904D01*
X116729047Y-168631666D01*
X116633809Y-168584047D01*
X116490952Y-168584047D01*
X116395714Y-168536428D01*
X116348095Y-168441190D01*
X116348095Y-168393571D01*
X116395714Y-168298333D01*
X116490952Y-168250714D01*
X116633809Y-168250714D01*
X116729047Y-168298333D01*
X117205238Y-168917380D02*
X117205238Y-168250714D01*
X117205238Y-167917380D02*
X117157619Y-167965000D01*
X117205238Y-168012619D01*
X117252857Y-167965000D01*
X117205238Y-167917380D01*
X117205238Y-168012619D01*
X117824285Y-168917380D02*
X117729047Y-168869761D01*
X117681428Y-168822142D01*
X117633809Y-168726904D01*
X117633809Y-168441190D01*
X117681428Y-168345952D01*
X117729047Y-168298333D01*
X117824285Y-168250714D01*
X117967142Y-168250714D01*
X118062380Y-168298333D01*
X118110000Y-168345952D01*
X118157619Y-168441190D01*
X118157619Y-168726904D01*
X118110000Y-168822142D01*
X118062380Y-168869761D01*
X117967142Y-168917380D01*
X117824285Y-168917380D01*
X118586190Y-168250714D02*
X118586190Y-168917380D01*
X118586190Y-168345952D02*
X118633809Y-168298333D01*
X118729047Y-168250714D01*
X118871904Y-168250714D01*
X118967142Y-168298333D01*
X119014761Y-168393571D01*
X119014761Y-168917380D01*
X120443333Y-167917380D02*
X120538571Y-167917380D01*
X120633809Y-167965000D01*
X120681428Y-168012619D01*
X120729047Y-168107857D01*
X120776666Y-168298333D01*
X120776666Y-168536428D01*
X120729047Y-168726904D01*
X120681428Y-168822142D01*
X120633809Y-168869761D01*
X120538571Y-168917380D01*
X120443333Y-168917380D01*
X120348095Y-168869761D01*
X120300476Y-168822142D01*
X120252857Y-168726904D01*
X120205238Y-168536428D01*
X120205238Y-168298333D01*
X120252857Y-168107857D01*
X120300476Y-168012619D01*
X120348095Y-167965000D01*
X120443333Y-167917380D01*
X121205238Y-168822142D02*
X121252857Y-168869761D01*
X121205238Y-168917380D01*
X121157619Y-168869761D01*
X121205238Y-168822142D01*
X121205238Y-168917380D01*
X121586190Y-167917380D02*
X122205238Y-167917380D01*
X121871904Y-168298333D01*
X122014761Y-168298333D01*
X122110000Y-168345952D01*
X122157619Y-168393571D01*
X122205238Y-168488809D01*
X122205238Y-168726904D01*
X122157619Y-168822142D01*
X122110000Y-168869761D01*
X122014761Y-168917380D01*
X121729047Y-168917380D01*
X121633809Y-168869761D01*
X121586190Y-168822142D01*
X85812380Y-127229523D02*
X85812380Y-126658095D01*
X86812380Y-126943809D02*
X85812380Y-126943809D01*
X85812380Y-126420000D02*
X86812380Y-125753333D01*
X85812380Y-125753333D02*
X86812380Y-126420000D01*
X86812380Y-124039047D02*
X86336190Y-124372380D01*
X86812380Y-124610476D02*
X85812380Y-124610476D01*
X85812380Y-124229523D01*
X85860000Y-124134285D01*
X85907619Y-124086666D01*
X86002857Y-124039047D01*
X86145714Y-124039047D01*
X86240952Y-124086666D01*
X86288571Y-124134285D01*
X86336190Y-124229523D01*
X86336190Y-124610476D01*
X85812380Y-123705714D02*
X86812380Y-123039047D01*
X85812380Y-123039047D02*
X86812380Y-123705714D01*
X85812380Y-121420000D02*
X85812380Y-121896190D01*
X86288571Y-121943809D01*
X86240952Y-121896190D01*
X86193333Y-121800952D01*
X86193333Y-121562857D01*
X86240952Y-121467619D01*
X86288571Y-121420000D01*
X86383809Y-121372380D01*
X86621904Y-121372380D01*
X86717142Y-121420000D01*
X86764761Y-121467619D01*
X86812380Y-121562857D01*
X86812380Y-121800952D01*
X86764761Y-121896190D01*
X86717142Y-121943809D01*
X85812380Y-121086666D02*
X86812380Y-120753333D01*
X85812380Y-120420000D01*
X85860000Y-118800952D02*
X85812380Y-118896190D01*
X85812380Y-119039047D01*
X85860000Y-119181904D01*
X85955238Y-119277142D01*
X86050476Y-119324761D01*
X86240952Y-119372380D01*
X86383809Y-119372380D01*
X86574285Y-119324761D01*
X86669523Y-119277142D01*
X86764761Y-119181904D01*
X86812380Y-119039047D01*
X86812380Y-118943809D01*
X86764761Y-118800952D01*
X86717142Y-118753333D01*
X86383809Y-118753333D01*
X86383809Y-118943809D01*
X86812380Y-118324761D02*
X85812380Y-118324761D01*
X86812380Y-117753333D01*
X85812380Y-117753333D01*
X86812380Y-117277142D02*
X85812380Y-117277142D01*
X85812380Y-117039047D01*
X85860000Y-116896190D01*
X85955238Y-116800952D01*
X86050476Y-116753333D01*
X86240952Y-116705714D01*
X86383809Y-116705714D01*
X86574285Y-116753333D01*
X86669523Y-116800952D01*
X86764761Y-116896190D01*
X86812380Y-117039047D01*
X86812380Y-117277142D01*
D11*
%TO.C,J_UART1*%
X93980000Y-130750000D02*
X93980000Y-133410000D01*
X93980000Y-130750000D02*
X91380000Y-130750000D01*
X91380000Y-130750000D02*
X91380000Y-133410000D01*
X93980000Y-133410000D02*
X91380000Y-133410000D01*
X96580000Y-133410000D02*
X95250000Y-133410000D01*
X96580000Y-132080000D02*
X96580000Y-133410000D01*
%TO.C,J_POWER1*%
X74990000Y-158750000D02*
X72330000Y-158750000D01*
X74990000Y-158750000D02*
X74990000Y-156150000D01*
X74990000Y-156150000D02*
X72330000Y-156150000D01*
X72330000Y-158750000D02*
X72330000Y-156150000D01*
X72330000Y-161350000D02*
X72330000Y-160020000D01*
X73660000Y-161350000D02*
X72330000Y-161350000D01*
%TO.C,J_I2C1*%
X115630000Y-138430000D02*
X112970000Y-138430000D01*
X115630000Y-138430000D02*
X115630000Y-135830000D01*
X115630000Y-135830000D02*
X112970000Y-135830000D01*
X112970000Y-138430000D02*
X112970000Y-135830000D01*
X112970000Y-141030000D02*
X112970000Y-139700000D01*
X114300000Y-141030000D02*
X112970000Y-141030000D01*
%TO.C,C5 100nF*%
X60360000Y-130660000D02*
X60360000Y-123420000D01*
X64100000Y-130660000D02*
X64100000Y-123420000D01*
X60360000Y-130660000D02*
X64100000Y-130660000D01*
X60360000Y-123420000D02*
X64100000Y-123420000D01*
%TO.C,SW4*%
X65230000Y-143110000D02*
X63730000Y-143110000D01*
X61230000Y-144360000D02*
X61230000Y-148860000D01*
X63730000Y-150110000D02*
X65230000Y-150110000D01*
X67730000Y-148860000D02*
X67730000Y-144360000D01*
%TO.C,J2*%
X90230000Y-124460000D02*
X87570000Y-124460000D01*
X90230000Y-124460000D02*
X90230000Y-116780000D01*
X90230000Y-116780000D02*
X87570000Y-116780000D01*
X87570000Y-124460000D02*
X87570000Y-116780000D01*
X87570000Y-127060000D02*
X87570000Y-125730000D01*
X88900000Y-127060000D02*
X87570000Y-127060000D01*
%TO.C,J1*%
X118170000Y-154940000D02*
X115510000Y-154940000D01*
X118170000Y-154940000D02*
X118170000Y-147260000D01*
X118170000Y-147260000D02*
X115510000Y-147260000D01*
X115510000Y-154940000D02*
X115510000Y-147260000D01*
X115510000Y-157540000D02*
X115510000Y-156210000D01*
X116840000Y-157540000D02*
X115510000Y-157540000D01*
%TO.C,Y1*%
X95235000Y-156720000D02*
X95235000Y-163120000D01*
X90185000Y-156720000D02*
X90185000Y-163120000D01*
X90185000Y-163120000D02*
G75*
G03*
X95235000Y-163120000I2525000J0D01*
G01*
X90185000Y-156720000D02*
G75*
G02*
X95235000Y-156720000I2525000J0D01*
G01*
%TO.C,U1*%
X50070000Y-144820000D02*
X50070000Y-134580000D01*
X54711000Y-144820000D02*
X54711000Y-134580000D01*
X50070000Y-144820000D02*
X54711000Y-144820000D01*
X50070000Y-134580000D02*
X54711000Y-134580000D01*
X51580000Y-144820000D02*
X51580000Y-134580000D01*
X50070000Y-141550000D02*
X51580000Y-141550000D01*
X50070000Y-137849000D02*
X51580000Y-137849000D01*
%TO.C,SW3*%
X77890000Y-146320000D02*
X77890000Y-141820000D01*
X73890000Y-147570000D02*
X75390000Y-147570000D01*
X71390000Y-141820000D02*
X71390000Y-146320000D01*
X75390000Y-140570000D02*
X73890000Y-140570000D01*
%TO.C,SW2*%
X88050000Y-139970000D02*
X88050000Y-135470000D01*
X84050000Y-141220000D02*
X85550000Y-141220000D01*
X81550000Y-135470000D02*
X81550000Y-139970000D01*
X85550000Y-134220000D02*
X84050000Y-134220000D01*
%TO.C,SW1*%
X115840000Y-107530000D02*
X111340000Y-107530000D01*
X117090000Y-111530000D02*
X117090000Y-110030000D01*
X111340000Y-114030000D02*
X115840000Y-114030000D01*
X110090000Y-110030000D02*
X110090000Y-111530000D01*
%TO.C,D1*%
X76220000Y-170455000D02*
X76220000Y-167365000D01*
X76160000Y-168910000D02*
G75*
G03*
X76160000Y-168910000I-2500000J0D01*
G01*
X70670000Y-168910462D02*
G75*
G02*
X76220000Y-167365170I2990000J462D01*
G01*
X70670000Y-168909538D02*
G75*
G03*
X76220000Y-170454830I2990000J-462D01*
G01*
%TO.C,C1 22pF*%
X81430000Y-155610000D02*
X88670000Y-155610000D01*
X81430000Y-159350000D02*
X88670000Y-159350000D01*
X81430000Y-155610000D02*
X81430000Y-159350000D01*
X88670000Y-155610000D02*
X88670000Y-159350000D01*
%TO.C,C2 22pF*%
X88670000Y-160690000D02*
X88670000Y-164430000D01*
X81430000Y-160690000D02*
X81430000Y-164430000D01*
X81430000Y-164430000D02*
X88670000Y-164430000D01*
X81430000Y-160690000D02*
X88670000Y-160690000D01*
%TO.C,C3 100nF*%
X59460000Y-112430000D02*
X59460000Y-116170000D01*
X52220000Y-112430000D02*
X52220000Y-116170000D01*
X52220000Y-116170000D02*
X59460000Y-116170000D01*
X52220000Y-112430000D02*
X59460000Y-112430000D01*
%TO.C,C4 1uF*%
X60505000Y-138714775D02*
X61005000Y-138714775D01*
X60755000Y-138964775D02*
X60755000Y-138464775D01*
X61946000Y-133559000D02*
X62514000Y-133559000D01*
X61712000Y-133599000D02*
X62748000Y-133599000D01*
X61553000Y-133639000D02*
X62907000Y-133639000D01*
X61425000Y-133679000D02*
X63035000Y-133679000D01*
X61315000Y-133719000D02*
X63145000Y-133719000D01*
X61219000Y-133759000D02*
X63241000Y-133759000D01*
X61132000Y-133799000D02*
X63328000Y-133799000D01*
X61052000Y-133839000D02*
X63408000Y-133839000D01*
X60979000Y-133879000D02*
X63481000Y-133879000D01*
X60911000Y-133919000D02*
X63549000Y-133919000D01*
X60847000Y-133959000D02*
X63613000Y-133959000D01*
X60787000Y-133999000D02*
X63673000Y-133999000D01*
X60730000Y-134039000D02*
X63730000Y-134039000D01*
X60676000Y-134079000D02*
X63784000Y-134079000D01*
X60625000Y-134119000D02*
X63835000Y-134119000D01*
X63270000Y-134159000D02*
X63883000Y-134159000D01*
X60577000Y-134159000D02*
X61190000Y-134159000D01*
X63270000Y-134199000D02*
X63929000Y-134199000D01*
X60531000Y-134199000D02*
X61190000Y-134199000D01*
X63270000Y-134239000D02*
X63973000Y-134239000D01*
X60487000Y-134239000D02*
X61190000Y-134239000D01*
X63270000Y-134279000D02*
X64015000Y-134279000D01*
X60445000Y-134279000D02*
X61190000Y-134279000D01*
X63270000Y-134319000D02*
X64056000Y-134319000D01*
X60404000Y-134319000D02*
X61190000Y-134319000D01*
X63270000Y-134359000D02*
X64094000Y-134359000D01*
X60366000Y-134359000D02*
X61190000Y-134359000D01*
X63270000Y-134399000D02*
X64131000Y-134399000D01*
X60329000Y-134399000D02*
X61190000Y-134399000D01*
X63270000Y-134439000D02*
X64167000Y-134439000D01*
X60293000Y-134439000D02*
X61190000Y-134439000D01*
X63270000Y-134479000D02*
X64201000Y-134479000D01*
X60259000Y-134479000D02*
X61190000Y-134479000D01*
X63270000Y-134519000D02*
X64234000Y-134519000D01*
X60226000Y-134519000D02*
X61190000Y-134519000D01*
X63270000Y-134559000D02*
X64265000Y-134559000D01*
X60195000Y-134559000D02*
X61190000Y-134559000D01*
X63270000Y-134599000D02*
X64295000Y-134599000D01*
X60165000Y-134599000D02*
X61190000Y-134599000D01*
X63270000Y-134639000D02*
X64325000Y-134639000D01*
X60135000Y-134639000D02*
X61190000Y-134639000D01*
X63270000Y-134679000D02*
X64352000Y-134679000D01*
X60108000Y-134679000D02*
X61190000Y-134679000D01*
X63270000Y-134719000D02*
X64379000Y-134719000D01*
X60081000Y-134719000D02*
X61190000Y-134719000D01*
X63270000Y-134759000D02*
X64405000Y-134759000D01*
X60055000Y-134759000D02*
X61190000Y-134759000D01*
X63270000Y-134799000D02*
X64430000Y-134799000D01*
X60030000Y-134799000D02*
X61190000Y-134799000D01*
X63270000Y-134839000D02*
X64454000Y-134839000D01*
X60006000Y-134839000D02*
X61190000Y-134839000D01*
X63270000Y-134879000D02*
X64477000Y-134879000D01*
X59983000Y-134879000D02*
X61190000Y-134879000D01*
X63270000Y-134919000D02*
X64498000Y-134919000D01*
X59962000Y-134919000D02*
X61190000Y-134919000D01*
X63270000Y-134959000D02*
X64520000Y-134959000D01*
X59940000Y-134959000D02*
X61190000Y-134959000D01*
X63270000Y-134999000D02*
X64540000Y-134999000D01*
X59920000Y-134999000D02*
X61190000Y-134999000D01*
X63270000Y-135039000D02*
X64559000Y-135039000D01*
X59901000Y-135039000D02*
X61190000Y-135039000D01*
X63270000Y-135079000D02*
X64578000Y-135079000D01*
X59882000Y-135079000D02*
X61190000Y-135079000D01*
X63270000Y-135119000D02*
X64595000Y-135119000D01*
X59865000Y-135119000D02*
X61190000Y-135119000D01*
X63270000Y-135159000D02*
X64612000Y-135159000D01*
X59848000Y-135159000D02*
X61190000Y-135159000D01*
X63270000Y-135199000D02*
X64628000Y-135199000D01*
X59832000Y-135199000D02*
X61190000Y-135199000D01*
X63270000Y-135239000D02*
X64644000Y-135239000D01*
X59816000Y-135239000D02*
X61190000Y-135239000D01*
X63270000Y-135279000D02*
X64658000Y-135279000D01*
X59802000Y-135279000D02*
X61190000Y-135279000D01*
X63270000Y-135319000D02*
X64672000Y-135319000D01*
X59788000Y-135319000D02*
X61190000Y-135319000D01*
X63270000Y-135359000D02*
X64685000Y-135359000D01*
X59775000Y-135359000D02*
X61190000Y-135359000D01*
X63270000Y-135399000D02*
X64698000Y-135399000D01*
X59762000Y-135399000D02*
X61190000Y-135399000D01*
X63270000Y-135439000D02*
X64710000Y-135439000D01*
X59750000Y-135439000D02*
X61190000Y-135439000D01*
X63270000Y-135480000D02*
X64721000Y-135480000D01*
X59739000Y-135480000D02*
X61190000Y-135480000D01*
X63270000Y-135520000D02*
X64731000Y-135520000D01*
X59729000Y-135520000D02*
X61190000Y-135520000D01*
X63270000Y-135560000D02*
X64741000Y-135560000D01*
X59719000Y-135560000D02*
X61190000Y-135560000D01*
X63270000Y-135600000D02*
X64750000Y-135600000D01*
X59710000Y-135600000D02*
X61190000Y-135600000D01*
X63270000Y-135640000D02*
X64758000Y-135640000D01*
X59702000Y-135640000D02*
X61190000Y-135640000D01*
X63270000Y-135680000D02*
X64766000Y-135680000D01*
X59694000Y-135680000D02*
X61190000Y-135680000D01*
X63270000Y-135720000D02*
X64773000Y-135720000D01*
X59687000Y-135720000D02*
X61190000Y-135720000D01*
X63270000Y-135760000D02*
X64780000Y-135760000D01*
X59680000Y-135760000D02*
X61190000Y-135760000D01*
X63270000Y-135800000D02*
X64786000Y-135800000D01*
X59674000Y-135800000D02*
X61190000Y-135800000D01*
X63270000Y-135840000D02*
X64791000Y-135840000D01*
X59669000Y-135840000D02*
X61190000Y-135840000D01*
X63270000Y-135880000D02*
X64795000Y-135880000D01*
X59665000Y-135880000D02*
X61190000Y-135880000D01*
X63270000Y-135920000D02*
X64799000Y-135920000D01*
X59661000Y-135920000D02*
X61190000Y-135920000D01*
X63270000Y-135960000D02*
X64803000Y-135960000D01*
X59657000Y-135960000D02*
X61190000Y-135960000D01*
X63270000Y-136000000D02*
X64806000Y-136000000D01*
X59654000Y-136000000D02*
X61190000Y-136000000D01*
X63270000Y-136040000D02*
X64808000Y-136040000D01*
X59652000Y-136040000D02*
X61190000Y-136040000D01*
X63270000Y-136080000D02*
X64809000Y-136080000D01*
X59651000Y-136080000D02*
X61190000Y-136080000D01*
X59650000Y-136120000D02*
X61190000Y-136120000D01*
X63270000Y-136120000D02*
X64810000Y-136120000D01*
X59650000Y-136160000D02*
X61190000Y-136160000D01*
X63270000Y-136160000D02*
X64810000Y-136160000D01*
X64850000Y-136160000D02*
G75*
G03*
X64850000Y-136160000I-2620000J0D01*
G01*
%TO.C,C6 100nF*%
X108620000Y-150090000D02*
X112360000Y-150090000D01*
X108620000Y-157330000D02*
X112360000Y-157330000D01*
X112360000Y-157330000D02*
X112360000Y-150090000D01*
X108620000Y-157330000D02*
X108620000Y-150090000D01*
%TO.C,C7 100nF*%
X88750000Y-154270000D02*
X81510000Y-154270000D01*
X88750000Y-150530000D02*
X81510000Y-150530000D01*
X88750000Y-154270000D02*
X88750000Y-150530000D01*
X81510000Y-154270000D02*
X81510000Y-150530000D01*
%TO.C,U2*%
X106740000Y-135770000D02*
X96460000Y-135770000D01*
X106740000Y-171570000D02*
X106740000Y-135770000D01*
X96460000Y-171570000D02*
X106740000Y-171570000D01*
X96460000Y-135770000D02*
X96460000Y-171570000D01*
X104250000Y-135830000D02*
X102600000Y-135830000D01*
X104250000Y-171510000D02*
X104250000Y-135830000D01*
X98950000Y-171510000D02*
X104250000Y-171510000D01*
X98950000Y-135830000D02*
X98950000Y-171510000D01*
X100600000Y-135830000D02*
X98950000Y-135830000D01*
X102600000Y-135830000D02*
G75*
G02*
X100600000Y-135830000I-1000000J0D01*
G01*
%TO.C,D2*%
X57180000Y-107800000D02*
X57180000Y-110640000D01*
X57420000Y-107800000D02*
X57420000Y-110640000D01*
X57300000Y-107800000D02*
X57300000Y-110640000D01*
X62260000Y-109220000D02*
X60140000Y-109220000D01*
X54580000Y-109220000D02*
X56700000Y-109220000D01*
X60140000Y-107800000D02*
X56700000Y-107800000D01*
X60140000Y-110640000D02*
X60140000Y-107800000D01*
X56700000Y-110640000D02*
X60140000Y-110640000D01*
X56700000Y-107800000D02*
X56700000Y-110640000D01*
%TO.C,R1 240*%
X64310000Y-157930000D02*
X64310000Y-154490000D01*
X64310000Y-154490000D02*
X55070000Y-154490000D01*
X55070000Y-154490000D02*
X55070000Y-157930000D01*
X55070000Y-157930000D02*
X64310000Y-157930000D01*
X65000000Y-156210000D02*
X64310000Y-156210000D01*
X54380000Y-156210000D02*
X55070000Y-156210000D01*
%TO.C,R2 720*%
X65000000Y-162560000D02*
X64310000Y-162560000D01*
X54380000Y-162560000D02*
X55070000Y-162560000D01*
X64310000Y-160840000D02*
X55070000Y-160840000D01*
X64310000Y-164280000D02*
X64310000Y-160840000D01*
X55070000Y-164280000D02*
X64310000Y-164280000D01*
X55070000Y-160840000D02*
X55070000Y-164280000D01*
%TO.C,R3 1k*%
X55070000Y-167190000D02*
X55070000Y-170630000D01*
X55070000Y-170630000D02*
X64310000Y-170630000D01*
X64310000Y-170630000D02*
X64310000Y-167190000D01*
X64310000Y-167190000D02*
X55070000Y-167190000D01*
X54380000Y-168910000D02*
X55070000Y-168910000D01*
X65000000Y-168910000D02*
X64310000Y-168910000D01*
%TO.C,R4 10k*%
X81280000Y-120880000D02*
X81280000Y-120190000D01*
X81280000Y-110260000D02*
X81280000Y-110950000D01*
X83000000Y-120190000D02*
X83000000Y-110950000D01*
X79560000Y-120190000D02*
X83000000Y-120190000D01*
X79560000Y-110950000D02*
X79560000Y-120190000D01*
X83000000Y-110950000D02*
X79560000Y-110950000D01*
%TO.C,R5 10k*%
X77920000Y-110950000D02*
X74480000Y-110950000D01*
X74480000Y-110950000D02*
X74480000Y-120190000D01*
X74480000Y-120190000D02*
X77920000Y-120190000D01*
X77920000Y-120190000D02*
X77920000Y-110950000D01*
X76200000Y-110260000D02*
X76200000Y-110950000D01*
X76200000Y-120880000D02*
X76200000Y-120190000D01*
%TO.C,R6 10k*%
X68580000Y-120880000D02*
X68580000Y-120190000D01*
X68580000Y-110260000D02*
X68580000Y-110950000D01*
X70300000Y-120190000D02*
X70300000Y-110950000D01*
X66860000Y-120190000D02*
X70300000Y-120190000D01*
X66860000Y-110950000D02*
X66860000Y-120190000D01*
X70300000Y-110950000D02*
X66860000Y-110950000D01*
%TO.C,J4*%
X43340000Y-115570000D02*
G75*
G03*
X43340000Y-115570000I-1430000J0D01*
G01*
X45460000Y-123250000D02*
X45460000Y-112970000D01*
X44360000Y-123250000D02*
X44360000Y-112970000D01*
X39360000Y-123250000D02*
X39360000Y-112970000D01*
X37450000Y-123250000D02*
X37450000Y-112970000D01*
X46020000Y-123250000D02*
X46020000Y-112970000D01*
X37450000Y-123250000D02*
X46020000Y-123250000D01*
X37450000Y-112970000D02*
X46020000Y-112970000D01*
X37510000Y-121900000D02*
X37510000Y-119400000D01*
X38510000Y-121900000D02*
X38510000Y-119400000D01*
X37510000Y-121900000D02*
X38510000Y-121900000D01*
X37510000Y-119400000D02*
X38510000Y-119400000D01*
X41000000Y-114485000D02*
X41059000Y-114545000D01*
X42955000Y-116440000D02*
X42995000Y-116480000D01*
X40825000Y-114659000D02*
X40865000Y-114699000D01*
X42760000Y-116594000D02*
X42820000Y-116654000D01*
X37510000Y-116820000D02*
X37510000Y-114320000D01*
X38510000Y-116820000D02*
X38510000Y-114320000D01*
X37510000Y-116820000D02*
X38510000Y-116820000D01*
X37510000Y-114320000D02*
X38510000Y-114320000D01*
X45520000Y-123490000D02*
X46260000Y-123490000D01*
X46260000Y-123490000D02*
X46260000Y-122990000D01*
X43195275Y-120023129D02*
G75*
G02*
X43340000Y-120650000I-1285275J-626871D01*
G01*
X41282638Y-119364176D02*
G75*
G02*
X42537000Y-119364000I627362J-1285824D01*
G01*
X40624176Y-121277362D02*
G75*
G02*
X40624000Y-120023000I1285824J627362D01*
G01*
X42536746Y-121936611D02*
G75*
G02*
X41282000Y-121936000I-626746J1286611D01*
G01*
X43340940Y-120625720D02*
G75*
G02*
X43196000Y-121278000I-1430940J-24280D01*
G01*
%TO.C,R7 10k*%
X94440000Y-107500000D02*
X94440000Y-110940000D01*
X94440000Y-110940000D02*
X103680000Y-110940000D01*
X103680000Y-110940000D02*
X103680000Y-107500000D01*
X103680000Y-107500000D02*
X94440000Y-107500000D01*
X93750000Y-109220000D02*
X94440000Y-109220000D01*
X104370000Y-109220000D02*
X103680000Y-109220000D01*
%TO.C,J_UART1*%
D10*
X97472380Y-134627619D02*
X98186666Y-134627619D01*
X98329523Y-134675238D01*
X98424761Y-134770476D01*
X98472380Y-134913333D01*
X98472380Y-135008571D01*
X98567619Y-134389523D02*
X98567619Y-133627619D01*
X97472380Y-133389523D02*
X98281904Y-133389523D01*
X98377142Y-133341904D01*
X98424761Y-133294285D01*
X98472380Y-133199047D01*
X98472380Y-133008571D01*
X98424761Y-132913333D01*
X98377142Y-132865714D01*
X98281904Y-132818095D01*
X97472380Y-132818095D01*
X98186666Y-132389523D02*
X98186666Y-131913333D01*
X98472380Y-132484761D02*
X97472380Y-132151428D01*
X98472380Y-131818095D01*
X98472380Y-130913333D02*
X97996190Y-131246666D01*
X98472380Y-131484761D02*
X97472380Y-131484761D01*
X97472380Y-131103809D01*
X97520000Y-131008571D01*
X97567619Y-130960952D01*
X97662857Y-130913333D01*
X97805714Y-130913333D01*
X97900952Y-130960952D01*
X97948571Y-131008571D01*
X97996190Y-131103809D01*
X97996190Y-131484761D01*
X97472380Y-130627619D02*
X97472380Y-130056190D01*
X98472380Y-130341904D02*
X97472380Y-130341904D01*
X98472380Y-129199047D02*
X98472380Y-129770476D01*
X98472380Y-129484761D02*
X97472380Y-129484761D01*
X97615238Y-129580000D01*
X97710476Y-129675238D01*
X97758095Y-129770476D01*
%TO.C,J_POWER1*%
X70398095Y-162242380D02*
X70398095Y-162956666D01*
X70350476Y-163099523D01*
X70255238Y-163194761D01*
X70112380Y-163242380D01*
X70017142Y-163242380D01*
X70636190Y-163337619D02*
X71398095Y-163337619D01*
X71636190Y-163242380D02*
X71636190Y-162242380D01*
X72017142Y-162242380D01*
X72112380Y-162290000D01*
X72160000Y-162337619D01*
X72207619Y-162432857D01*
X72207619Y-162575714D01*
X72160000Y-162670952D01*
X72112380Y-162718571D01*
X72017142Y-162766190D01*
X71636190Y-162766190D01*
X72826666Y-162242380D02*
X73017142Y-162242380D01*
X73112380Y-162290000D01*
X73207619Y-162385238D01*
X73255238Y-162575714D01*
X73255238Y-162909047D01*
X73207619Y-163099523D01*
X73112380Y-163194761D01*
X73017142Y-163242380D01*
X72826666Y-163242380D01*
X72731428Y-163194761D01*
X72636190Y-163099523D01*
X72588571Y-162909047D01*
X72588571Y-162575714D01*
X72636190Y-162385238D01*
X72731428Y-162290000D01*
X72826666Y-162242380D01*
X73588571Y-162242380D02*
X73826666Y-163242380D01*
X74017142Y-162528095D01*
X74207619Y-163242380D01*
X74445714Y-162242380D01*
X74826666Y-162718571D02*
X75160000Y-162718571D01*
X75302857Y-163242380D02*
X74826666Y-163242380D01*
X74826666Y-162242380D01*
X75302857Y-162242380D01*
X76302857Y-163242380D02*
X75969523Y-162766190D01*
X75731428Y-163242380D02*
X75731428Y-162242380D01*
X76112380Y-162242380D01*
X76207619Y-162290000D01*
X76255238Y-162337619D01*
X76302857Y-162432857D01*
X76302857Y-162575714D01*
X76255238Y-162670952D01*
X76207619Y-162718571D01*
X76112380Y-162766190D01*
X75731428Y-162766190D01*
X77255238Y-163242380D02*
X76683809Y-163242380D01*
X76969523Y-163242380D02*
X76969523Y-162242380D01*
X76874285Y-162385238D01*
X76779047Y-162480476D01*
X76683809Y-162528095D01*
%TO.C,J_I2C1*%
X112371428Y-141922380D02*
X112371428Y-142636666D01*
X112323809Y-142779523D01*
X112228571Y-142874761D01*
X112085714Y-142922380D01*
X111990476Y-142922380D01*
X112609523Y-143017619D02*
X113371428Y-143017619D01*
X113609523Y-142922380D02*
X113609523Y-141922380D01*
X114038095Y-142017619D02*
X114085714Y-141970000D01*
X114180952Y-141922380D01*
X114419047Y-141922380D01*
X114514285Y-141970000D01*
X114561904Y-142017619D01*
X114609523Y-142112857D01*
X114609523Y-142208095D01*
X114561904Y-142350952D01*
X113990476Y-142922380D01*
X114609523Y-142922380D01*
X115609523Y-142827142D02*
X115561904Y-142874761D01*
X115419047Y-142922380D01*
X115323809Y-142922380D01*
X115180952Y-142874761D01*
X115085714Y-142779523D01*
X115038095Y-142684285D01*
X114990476Y-142493809D01*
X114990476Y-142350952D01*
X115038095Y-142160476D01*
X115085714Y-142065238D01*
X115180952Y-141970000D01*
X115323809Y-141922380D01*
X115419047Y-141922380D01*
X115561904Y-141970000D01*
X115609523Y-142017619D01*
X116561904Y-142922380D02*
X115990476Y-142922380D01*
X116276190Y-142922380D02*
X116276190Y-141922380D01*
X116180952Y-142065238D01*
X116085714Y-142160476D01*
X115990476Y-142208095D01*
%TO.C,C5 100nF*%
X58777142Y-129897142D02*
X58824761Y-129944761D01*
X58872380Y-130087619D01*
X58872380Y-130182857D01*
X58824761Y-130325714D01*
X58729523Y-130420952D01*
X58634285Y-130468571D01*
X58443809Y-130516190D01*
X58300952Y-130516190D01*
X58110476Y-130468571D01*
X58015238Y-130420952D01*
X57920000Y-130325714D01*
X57872380Y-130182857D01*
X57872380Y-130087619D01*
X57920000Y-129944761D01*
X57967619Y-129897142D01*
X57872380Y-128992380D02*
X57872380Y-129468571D01*
X58348571Y-129516190D01*
X58300952Y-129468571D01*
X58253333Y-129373333D01*
X58253333Y-129135238D01*
X58300952Y-129040000D01*
X58348571Y-128992380D01*
X58443809Y-128944761D01*
X58681904Y-128944761D01*
X58777142Y-128992380D01*
X58824761Y-129040000D01*
X58872380Y-129135238D01*
X58872380Y-129373333D01*
X58824761Y-129468571D01*
X58777142Y-129516190D01*
X58872380Y-127230476D02*
X58872380Y-127801904D01*
X58872380Y-127516190D02*
X57872380Y-127516190D01*
X58015238Y-127611428D01*
X58110476Y-127706666D01*
X58158095Y-127801904D01*
X57872380Y-126611428D02*
X57872380Y-126516190D01*
X57920000Y-126420952D01*
X57967619Y-126373333D01*
X58062857Y-126325714D01*
X58253333Y-126278095D01*
X58491428Y-126278095D01*
X58681904Y-126325714D01*
X58777142Y-126373333D01*
X58824761Y-126420952D01*
X58872380Y-126516190D01*
X58872380Y-126611428D01*
X58824761Y-126706666D01*
X58777142Y-126754285D01*
X58681904Y-126801904D01*
X58491428Y-126849523D01*
X58253333Y-126849523D01*
X58062857Y-126801904D01*
X57967619Y-126754285D01*
X57920000Y-126706666D01*
X57872380Y-126611428D01*
X57872380Y-125659047D02*
X57872380Y-125563809D01*
X57920000Y-125468571D01*
X57967619Y-125420952D01*
X58062857Y-125373333D01*
X58253333Y-125325714D01*
X58491428Y-125325714D01*
X58681904Y-125373333D01*
X58777142Y-125420952D01*
X58824761Y-125468571D01*
X58872380Y-125563809D01*
X58872380Y-125659047D01*
X58824761Y-125754285D01*
X58777142Y-125801904D01*
X58681904Y-125849523D01*
X58491428Y-125897142D01*
X58253333Y-125897142D01*
X58062857Y-125849523D01*
X57967619Y-125801904D01*
X57920000Y-125754285D01*
X57872380Y-125659047D01*
X58205714Y-124897142D02*
X58872380Y-124897142D01*
X58300952Y-124897142D02*
X58253333Y-124849523D01*
X58205714Y-124754285D01*
X58205714Y-124611428D01*
X58253333Y-124516190D01*
X58348571Y-124468571D01*
X58872380Y-124468571D01*
X58348571Y-123659047D02*
X58348571Y-123992380D01*
X58872380Y-123992380D02*
X57872380Y-123992380D01*
X57872380Y-123516190D01*
%TO.C,SW4*%
X60634761Y-147943333D02*
X60682380Y-147800476D01*
X60682380Y-147562380D01*
X60634761Y-147467142D01*
X60587142Y-147419523D01*
X60491904Y-147371904D01*
X60396666Y-147371904D01*
X60301428Y-147419523D01*
X60253809Y-147467142D01*
X60206190Y-147562380D01*
X60158571Y-147752857D01*
X60110952Y-147848095D01*
X60063333Y-147895714D01*
X59968095Y-147943333D01*
X59872857Y-147943333D01*
X59777619Y-147895714D01*
X59730000Y-147848095D01*
X59682380Y-147752857D01*
X59682380Y-147514761D01*
X59730000Y-147371904D01*
X59682380Y-147038571D02*
X60682380Y-146800476D01*
X59968095Y-146610000D01*
X60682380Y-146419523D01*
X59682380Y-146181428D01*
X60015714Y-145371904D02*
X60682380Y-145371904D01*
X59634761Y-145610000D02*
X60349047Y-145848095D01*
X60349047Y-145229047D01*
%TO.C,J2*%
X88566666Y-127952380D02*
X88566666Y-128666666D01*
X88519047Y-128809523D01*
X88423809Y-128904761D01*
X88280952Y-128952380D01*
X88185714Y-128952380D01*
X88995238Y-128047619D02*
X89042857Y-128000000D01*
X89138095Y-127952380D01*
X89376190Y-127952380D01*
X89471428Y-128000000D01*
X89519047Y-128047619D01*
X89566666Y-128142857D01*
X89566666Y-128238095D01*
X89519047Y-128380952D01*
X88947619Y-128952380D01*
X89566666Y-128952380D01*
%TO.C,J1*%
X116506666Y-158432380D02*
X116506666Y-159146666D01*
X116459047Y-159289523D01*
X116363809Y-159384761D01*
X116220952Y-159432380D01*
X116125714Y-159432380D01*
X117506666Y-159432380D02*
X116935238Y-159432380D01*
X117220952Y-159432380D02*
X117220952Y-158432380D01*
X117125714Y-158575238D01*
X117030476Y-158670476D01*
X116935238Y-158718095D01*
%TO.C,Y1*%
X93956190Y-160496190D02*
X94432380Y-160496190D01*
X93432380Y-160829523D02*
X93956190Y-160496190D01*
X93432380Y-160162857D01*
X94432380Y-159305714D02*
X94432380Y-159877142D01*
X94432380Y-159591428D02*
X93432380Y-159591428D01*
X93575238Y-159686666D01*
X93670476Y-159781904D01*
X93718095Y-159877142D01*
%TO.C,U1*%
X48522380Y-140461904D02*
X49331904Y-140461904D01*
X49427142Y-140414285D01*
X49474761Y-140366666D01*
X49522380Y-140271428D01*
X49522380Y-140080952D01*
X49474761Y-139985714D01*
X49427142Y-139938095D01*
X49331904Y-139890476D01*
X48522380Y-139890476D01*
X49522380Y-138890476D02*
X49522380Y-139461904D01*
X49522380Y-139176190D02*
X48522380Y-139176190D01*
X48665238Y-139271428D01*
X48760476Y-139366666D01*
X48808095Y-139461904D01*
%TO.C,SW3*%
X70794761Y-145403333D02*
X70842380Y-145260476D01*
X70842380Y-145022380D01*
X70794761Y-144927142D01*
X70747142Y-144879523D01*
X70651904Y-144831904D01*
X70556666Y-144831904D01*
X70461428Y-144879523D01*
X70413809Y-144927142D01*
X70366190Y-145022380D01*
X70318571Y-145212857D01*
X70270952Y-145308095D01*
X70223333Y-145355714D01*
X70128095Y-145403333D01*
X70032857Y-145403333D01*
X69937619Y-145355714D01*
X69890000Y-145308095D01*
X69842380Y-145212857D01*
X69842380Y-144974761D01*
X69890000Y-144831904D01*
X69842380Y-144498571D02*
X70842380Y-144260476D01*
X70128095Y-144070000D01*
X70842380Y-143879523D01*
X69842380Y-143641428D01*
X69842380Y-143355714D02*
X69842380Y-142736666D01*
X70223333Y-143070000D01*
X70223333Y-142927142D01*
X70270952Y-142831904D01*
X70318571Y-142784285D01*
X70413809Y-142736666D01*
X70651904Y-142736666D01*
X70747142Y-142784285D01*
X70794761Y-142831904D01*
X70842380Y-142927142D01*
X70842380Y-143212857D01*
X70794761Y-143308095D01*
X70747142Y-143355714D01*
%TO.C,SW2*%
X80954761Y-139053333D02*
X81002380Y-138910476D01*
X81002380Y-138672380D01*
X80954761Y-138577142D01*
X80907142Y-138529523D01*
X80811904Y-138481904D01*
X80716666Y-138481904D01*
X80621428Y-138529523D01*
X80573809Y-138577142D01*
X80526190Y-138672380D01*
X80478571Y-138862857D01*
X80430952Y-138958095D01*
X80383333Y-139005714D01*
X80288095Y-139053333D01*
X80192857Y-139053333D01*
X80097619Y-139005714D01*
X80050000Y-138958095D01*
X80002380Y-138862857D01*
X80002380Y-138624761D01*
X80050000Y-138481904D01*
X80002380Y-138148571D02*
X81002380Y-137910476D01*
X80288095Y-137720000D01*
X81002380Y-137529523D01*
X80002380Y-137291428D01*
X80097619Y-136958095D02*
X80050000Y-136910476D01*
X80002380Y-136815238D01*
X80002380Y-136577142D01*
X80050000Y-136481904D01*
X80097619Y-136434285D01*
X80192857Y-136386666D01*
X80288095Y-136386666D01*
X80430952Y-136434285D01*
X81002380Y-137005714D01*
X81002380Y-136386666D01*
%TO.C,SW1*%
X112256666Y-115434761D02*
X112399523Y-115482380D01*
X112637619Y-115482380D01*
X112732857Y-115434761D01*
X112780476Y-115387142D01*
X112828095Y-115291904D01*
X112828095Y-115196666D01*
X112780476Y-115101428D01*
X112732857Y-115053809D01*
X112637619Y-115006190D01*
X112447142Y-114958571D01*
X112351904Y-114910952D01*
X112304285Y-114863333D01*
X112256666Y-114768095D01*
X112256666Y-114672857D01*
X112304285Y-114577619D01*
X112351904Y-114530000D01*
X112447142Y-114482380D01*
X112685238Y-114482380D01*
X112828095Y-114530000D01*
X113161428Y-114482380D02*
X113399523Y-115482380D01*
X113590000Y-114768095D01*
X113780476Y-115482380D01*
X114018571Y-114482380D01*
X114923333Y-115482380D02*
X114351904Y-115482380D01*
X114637619Y-115482380D02*
X114637619Y-114482380D01*
X114542380Y-114625238D01*
X114447142Y-114720476D01*
X114351904Y-114768095D01*
%TO.C,D1*%
X72921904Y-173322380D02*
X72921904Y-172322380D01*
X73160000Y-172322380D01*
X73302857Y-172370000D01*
X73398095Y-172465238D01*
X73445714Y-172560476D01*
X73493333Y-172750952D01*
X73493333Y-172893809D01*
X73445714Y-173084285D01*
X73398095Y-173179523D01*
X73302857Y-173274761D01*
X73160000Y-173322380D01*
X72921904Y-173322380D01*
X74445714Y-173322380D02*
X73874285Y-173322380D01*
X74160000Y-173322380D02*
X74160000Y-172322380D01*
X74064761Y-172465238D01*
X73969523Y-172560476D01*
X73874285Y-172608095D01*
%TO.C,C1 22pF*%
X82669047Y-160377142D02*
X82621428Y-160424761D01*
X82478571Y-160472380D01*
X82383333Y-160472380D01*
X82240476Y-160424761D01*
X82145238Y-160329523D01*
X82097619Y-160234285D01*
X82050000Y-160043809D01*
X82050000Y-159900952D01*
X82097619Y-159710476D01*
X82145238Y-159615238D01*
X82240476Y-159520000D01*
X82383333Y-159472380D01*
X82478571Y-159472380D01*
X82621428Y-159520000D01*
X82669047Y-159567619D01*
X83621428Y-160472380D02*
X83050000Y-160472380D01*
X83335714Y-160472380D02*
X83335714Y-159472380D01*
X83240476Y-159615238D01*
X83145238Y-159710476D01*
X83050000Y-159758095D01*
X84764285Y-159567619D02*
X84811904Y-159520000D01*
X84907142Y-159472380D01*
X85145238Y-159472380D01*
X85240476Y-159520000D01*
X85288095Y-159567619D01*
X85335714Y-159662857D01*
X85335714Y-159758095D01*
X85288095Y-159900952D01*
X84716666Y-160472380D01*
X85335714Y-160472380D01*
X85716666Y-159567619D02*
X85764285Y-159520000D01*
X85859523Y-159472380D01*
X86097619Y-159472380D01*
X86192857Y-159520000D01*
X86240476Y-159567619D01*
X86288095Y-159662857D01*
X86288095Y-159758095D01*
X86240476Y-159900952D01*
X85669047Y-160472380D01*
X86288095Y-160472380D01*
X86716666Y-159805714D02*
X86716666Y-160805714D01*
X86716666Y-159853333D02*
X86811904Y-159805714D01*
X87002380Y-159805714D01*
X87097619Y-159853333D01*
X87145238Y-159900952D01*
X87192857Y-159996190D01*
X87192857Y-160281904D01*
X87145238Y-160377142D01*
X87097619Y-160424761D01*
X87002380Y-160472380D01*
X86811904Y-160472380D01*
X86716666Y-160424761D01*
X87954761Y-159948571D02*
X87621428Y-159948571D01*
X87621428Y-160472380D02*
X87621428Y-159472380D01*
X88097619Y-159472380D01*
%TO.C,C2 22pF*%
X82669047Y-165457142D02*
X82621428Y-165504761D01*
X82478571Y-165552380D01*
X82383333Y-165552380D01*
X82240476Y-165504761D01*
X82145238Y-165409523D01*
X82097619Y-165314285D01*
X82050000Y-165123809D01*
X82050000Y-164980952D01*
X82097619Y-164790476D01*
X82145238Y-164695238D01*
X82240476Y-164600000D01*
X82383333Y-164552380D01*
X82478571Y-164552380D01*
X82621428Y-164600000D01*
X82669047Y-164647619D01*
X83050000Y-164647619D02*
X83097619Y-164600000D01*
X83192857Y-164552380D01*
X83430952Y-164552380D01*
X83526190Y-164600000D01*
X83573809Y-164647619D01*
X83621428Y-164742857D01*
X83621428Y-164838095D01*
X83573809Y-164980952D01*
X83002380Y-165552380D01*
X83621428Y-165552380D01*
X84764285Y-164647619D02*
X84811904Y-164600000D01*
X84907142Y-164552380D01*
X85145238Y-164552380D01*
X85240476Y-164600000D01*
X85288095Y-164647619D01*
X85335714Y-164742857D01*
X85335714Y-164838095D01*
X85288095Y-164980952D01*
X84716666Y-165552380D01*
X85335714Y-165552380D01*
X85716666Y-164647619D02*
X85764285Y-164600000D01*
X85859523Y-164552380D01*
X86097619Y-164552380D01*
X86192857Y-164600000D01*
X86240476Y-164647619D01*
X86288095Y-164742857D01*
X86288095Y-164838095D01*
X86240476Y-164980952D01*
X85669047Y-165552380D01*
X86288095Y-165552380D01*
X86716666Y-164885714D02*
X86716666Y-165885714D01*
X86716666Y-164933333D02*
X86811904Y-164885714D01*
X87002380Y-164885714D01*
X87097619Y-164933333D01*
X87145238Y-164980952D01*
X87192857Y-165076190D01*
X87192857Y-165361904D01*
X87145238Y-165457142D01*
X87097619Y-165504761D01*
X87002380Y-165552380D01*
X86811904Y-165552380D01*
X86716666Y-165504761D01*
X87954761Y-165028571D02*
X87621428Y-165028571D01*
X87621428Y-165552380D02*
X87621428Y-164552380D01*
X88097619Y-164552380D01*
%TO.C,C3 100nF*%
X53022857Y-118467142D02*
X52975238Y-118514761D01*
X52832380Y-118562380D01*
X52737142Y-118562380D01*
X52594285Y-118514761D01*
X52499047Y-118419523D01*
X52451428Y-118324285D01*
X52403809Y-118133809D01*
X52403809Y-117990952D01*
X52451428Y-117800476D01*
X52499047Y-117705238D01*
X52594285Y-117610000D01*
X52737142Y-117562380D01*
X52832380Y-117562380D01*
X52975238Y-117610000D01*
X53022857Y-117657619D01*
X53356190Y-117562380D02*
X53975238Y-117562380D01*
X53641904Y-117943333D01*
X53784761Y-117943333D01*
X53880000Y-117990952D01*
X53927619Y-118038571D01*
X53975238Y-118133809D01*
X53975238Y-118371904D01*
X53927619Y-118467142D01*
X53880000Y-118514761D01*
X53784761Y-118562380D01*
X53499047Y-118562380D01*
X53403809Y-118514761D01*
X53356190Y-118467142D01*
X55689523Y-118562380D02*
X55118095Y-118562380D01*
X55403809Y-118562380D02*
X55403809Y-117562380D01*
X55308571Y-117705238D01*
X55213333Y-117800476D01*
X55118095Y-117848095D01*
X56308571Y-117562380D02*
X56403809Y-117562380D01*
X56499047Y-117610000D01*
X56546666Y-117657619D01*
X56594285Y-117752857D01*
X56641904Y-117943333D01*
X56641904Y-118181428D01*
X56594285Y-118371904D01*
X56546666Y-118467142D01*
X56499047Y-118514761D01*
X56403809Y-118562380D01*
X56308571Y-118562380D01*
X56213333Y-118514761D01*
X56165714Y-118467142D01*
X56118095Y-118371904D01*
X56070476Y-118181428D01*
X56070476Y-117943333D01*
X56118095Y-117752857D01*
X56165714Y-117657619D01*
X56213333Y-117610000D01*
X56308571Y-117562380D01*
X57260952Y-117562380D02*
X57356190Y-117562380D01*
X57451428Y-117610000D01*
X57499047Y-117657619D01*
X57546666Y-117752857D01*
X57594285Y-117943333D01*
X57594285Y-118181428D01*
X57546666Y-118371904D01*
X57499047Y-118467142D01*
X57451428Y-118514761D01*
X57356190Y-118562380D01*
X57260952Y-118562380D01*
X57165714Y-118514761D01*
X57118095Y-118467142D01*
X57070476Y-118371904D01*
X57022857Y-118181428D01*
X57022857Y-117943333D01*
X57070476Y-117752857D01*
X57118095Y-117657619D01*
X57165714Y-117610000D01*
X57260952Y-117562380D01*
X58022857Y-117895714D02*
X58022857Y-118562380D01*
X58022857Y-117990952D02*
X58070476Y-117943333D01*
X58165714Y-117895714D01*
X58308571Y-117895714D01*
X58403809Y-117943333D01*
X58451428Y-118038571D01*
X58451428Y-118562380D01*
X59260952Y-118038571D02*
X58927619Y-118038571D01*
X58927619Y-118562380D02*
X58927619Y-117562380D01*
X59403809Y-117562380D01*
%TO.C,C4 1uF*%
X58837142Y-138064761D02*
X58884761Y-138112380D01*
X58932380Y-138255238D01*
X58932380Y-138350476D01*
X58884761Y-138493333D01*
X58789523Y-138588571D01*
X58694285Y-138636190D01*
X58503809Y-138683809D01*
X58360952Y-138683809D01*
X58170476Y-138636190D01*
X58075238Y-138588571D01*
X57980000Y-138493333D01*
X57932380Y-138350476D01*
X57932380Y-138255238D01*
X57980000Y-138112380D01*
X58027619Y-138064761D01*
X58265714Y-137207619D02*
X58932380Y-137207619D01*
X57884761Y-137445714D02*
X58599047Y-137683809D01*
X58599047Y-137064761D01*
X58932380Y-135398095D02*
X58932380Y-135969523D01*
X58932380Y-135683809D02*
X57932380Y-135683809D01*
X58075238Y-135779047D01*
X58170476Y-135874285D01*
X58218095Y-135969523D01*
X58265714Y-134540952D02*
X58932380Y-134540952D01*
X58265714Y-134969523D02*
X58789523Y-134969523D01*
X58884761Y-134921904D01*
X58932380Y-134826666D01*
X58932380Y-134683809D01*
X58884761Y-134588571D01*
X58837142Y-134540952D01*
X58408571Y-133731428D02*
X58408571Y-134064761D01*
X58932380Y-134064761D02*
X57932380Y-134064761D01*
X57932380Y-133588571D01*
%TO.C,C6 100nF*%
X113387142Y-156567142D02*
X113434761Y-156614761D01*
X113482380Y-156757619D01*
X113482380Y-156852857D01*
X113434761Y-156995714D01*
X113339523Y-157090952D01*
X113244285Y-157138571D01*
X113053809Y-157186190D01*
X112910952Y-157186190D01*
X112720476Y-157138571D01*
X112625238Y-157090952D01*
X112530000Y-156995714D01*
X112482380Y-156852857D01*
X112482380Y-156757619D01*
X112530000Y-156614761D01*
X112577619Y-156567142D01*
X112482380Y-155710000D02*
X112482380Y-155900476D01*
X112530000Y-155995714D01*
X112577619Y-156043333D01*
X112720476Y-156138571D01*
X112910952Y-156186190D01*
X113291904Y-156186190D01*
X113387142Y-156138571D01*
X113434761Y-156090952D01*
X113482380Y-155995714D01*
X113482380Y-155805238D01*
X113434761Y-155710000D01*
X113387142Y-155662380D01*
X113291904Y-155614761D01*
X113053809Y-155614761D01*
X112958571Y-155662380D01*
X112910952Y-155710000D01*
X112863333Y-155805238D01*
X112863333Y-155995714D01*
X112910952Y-156090952D01*
X112958571Y-156138571D01*
X113053809Y-156186190D01*
X113482380Y-153900476D02*
X113482380Y-154471904D01*
X113482380Y-154186190D02*
X112482380Y-154186190D01*
X112625238Y-154281428D01*
X112720476Y-154376666D01*
X112768095Y-154471904D01*
X112482380Y-153281428D02*
X112482380Y-153186190D01*
X112530000Y-153090952D01*
X112577619Y-153043333D01*
X112672857Y-152995714D01*
X112863333Y-152948095D01*
X113101428Y-152948095D01*
X113291904Y-152995714D01*
X113387142Y-153043333D01*
X113434761Y-153090952D01*
X113482380Y-153186190D01*
X113482380Y-153281428D01*
X113434761Y-153376666D01*
X113387142Y-153424285D01*
X113291904Y-153471904D01*
X113101428Y-153519523D01*
X112863333Y-153519523D01*
X112672857Y-153471904D01*
X112577619Y-153424285D01*
X112530000Y-153376666D01*
X112482380Y-153281428D01*
X112482380Y-152329047D02*
X112482380Y-152233809D01*
X112530000Y-152138571D01*
X112577619Y-152090952D01*
X112672857Y-152043333D01*
X112863333Y-151995714D01*
X113101428Y-151995714D01*
X113291904Y-152043333D01*
X113387142Y-152090952D01*
X113434761Y-152138571D01*
X113482380Y-152233809D01*
X113482380Y-152329047D01*
X113434761Y-152424285D01*
X113387142Y-152471904D01*
X113291904Y-152519523D01*
X113101428Y-152567142D01*
X112863333Y-152567142D01*
X112672857Y-152519523D01*
X112577619Y-152471904D01*
X112530000Y-152424285D01*
X112482380Y-152329047D01*
X112815714Y-151567142D02*
X113482380Y-151567142D01*
X112910952Y-151567142D02*
X112863333Y-151519523D01*
X112815714Y-151424285D01*
X112815714Y-151281428D01*
X112863333Y-151186190D01*
X112958571Y-151138571D01*
X113482380Y-151138571D01*
X112958571Y-150329047D02*
X112958571Y-150662380D01*
X113482380Y-150662380D02*
X112482380Y-150662380D01*
X112482380Y-150186190D01*
%TO.C,C7 100nF*%
X82232857Y-150217142D02*
X82185238Y-150264761D01*
X82042380Y-150312380D01*
X81947142Y-150312380D01*
X81804285Y-150264761D01*
X81709047Y-150169523D01*
X81661428Y-150074285D01*
X81613809Y-149883809D01*
X81613809Y-149740952D01*
X81661428Y-149550476D01*
X81709047Y-149455238D01*
X81804285Y-149360000D01*
X81947142Y-149312380D01*
X82042380Y-149312380D01*
X82185238Y-149360000D01*
X82232857Y-149407619D01*
X82566190Y-149312380D02*
X83232857Y-149312380D01*
X82804285Y-150312380D01*
X84899523Y-150312380D02*
X84328095Y-150312380D01*
X84613809Y-150312380D02*
X84613809Y-149312380D01*
X84518571Y-149455238D01*
X84423333Y-149550476D01*
X84328095Y-149598095D01*
X85518571Y-149312380D02*
X85613809Y-149312380D01*
X85709047Y-149360000D01*
X85756666Y-149407619D01*
X85804285Y-149502857D01*
X85851904Y-149693333D01*
X85851904Y-149931428D01*
X85804285Y-150121904D01*
X85756666Y-150217142D01*
X85709047Y-150264761D01*
X85613809Y-150312380D01*
X85518571Y-150312380D01*
X85423333Y-150264761D01*
X85375714Y-150217142D01*
X85328095Y-150121904D01*
X85280476Y-149931428D01*
X85280476Y-149693333D01*
X85328095Y-149502857D01*
X85375714Y-149407619D01*
X85423333Y-149360000D01*
X85518571Y-149312380D01*
X86470952Y-149312380D02*
X86566190Y-149312380D01*
X86661428Y-149360000D01*
X86709047Y-149407619D01*
X86756666Y-149502857D01*
X86804285Y-149693333D01*
X86804285Y-149931428D01*
X86756666Y-150121904D01*
X86709047Y-150217142D01*
X86661428Y-150264761D01*
X86566190Y-150312380D01*
X86470952Y-150312380D01*
X86375714Y-150264761D01*
X86328095Y-150217142D01*
X86280476Y-150121904D01*
X86232857Y-149931428D01*
X86232857Y-149693333D01*
X86280476Y-149502857D01*
X86328095Y-149407619D01*
X86375714Y-149360000D01*
X86470952Y-149312380D01*
X87232857Y-149645714D02*
X87232857Y-150312380D01*
X87232857Y-149740952D02*
X87280476Y-149693333D01*
X87375714Y-149645714D01*
X87518571Y-149645714D01*
X87613809Y-149693333D01*
X87661428Y-149788571D01*
X87661428Y-150312380D01*
X88470952Y-149788571D02*
X88137619Y-149788571D01*
X88137619Y-150312380D02*
X88137619Y-149312380D01*
X88613809Y-149312380D01*
%TO.C,U2*%
X100838095Y-134282380D02*
X100838095Y-135091904D01*
X100885714Y-135187142D01*
X100933333Y-135234761D01*
X101028571Y-135282380D01*
X101219047Y-135282380D01*
X101314285Y-135234761D01*
X101361904Y-135187142D01*
X101409523Y-135091904D01*
X101409523Y-134282380D01*
X101838095Y-134377619D02*
X101885714Y-134330000D01*
X101980952Y-134282380D01*
X102219047Y-134282380D01*
X102314285Y-134330000D01*
X102361904Y-134377619D01*
X102409523Y-134472857D01*
X102409523Y-134568095D01*
X102361904Y-134710952D01*
X101790476Y-135282380D01*
X102409523Y-135282380D01*
%TO.C,D2*%
X57681904Y-107252380D02*
X57681904Y-106252380D01*
X57920000Y-106252380D01*
X58062857Y-106300000D01*
X58158095Y-106395238D01*
X58205714Y-106490476D01*
X58253333Y-106680952D01*
X58253333Y-106823809D01*
X58205714Y-107014285D01*
X58158095Y-107109523D01*
X58062857Y-107204761D01*
X57920000Y-107252380D01*
X57681904Y-107252380D01*
X58634285Y-106347619D02*
X58681904Y-106300000D01*
X58777142Y-106252380D01*
X59015238Y-106252380D01*
X59110476Y-106300000D01*
X59158095Y-106347619D01*
X59205714Y-106442857D01*
X59205714Y-106538095D01*
X59158095Y-106680952D01*
X58586666Y-107252380D01*
X59205714Y-107252380D01*
X53078095Y-107672380D02*
X53078095Y-106672380D01*
X53649523Y-107672380D02*
X53220952Y-107100952D01*
X53649523Y-106672380D02*
X53078095Y-107243809D01*
%TO.C,H1*%
X39878095Y-104652380D02*
X39878095Y-103652380D01*
X39878095Y-104128571D02*
X40449523Y-104128571D01*
X40449523Y-104652380D02*
X40449523Y-103652380D01*
X41449523Y-104652380D02*
X40878095Y-104652380D01*
X41163809Y-104652380D02*
X41163809Y-103652380D01*
X41068571Y-103795238D01*
X40973333Y-103890476D01*
X40878095Y-103938095D01*
%TO.C,H2*%
X128778095Y-166882380D02*
X128778095Y-165882380D01*
X128778095Y-166358571D02*
X129349523Y-166358571D01*
X129349523Y-166882380D02*
X129349523Y-165882380D01*
X129778095Y-165977619D02*
X129825714Y-165930000D01*
X129920952Y-165882380D01*
X130159047Y-165882380D01*
X130254285Y-165930000D01*
X130301904Y-165977619D01*
X130349523Y-166072857D01*
X130349523Y-166168095D01*
X130301904Y-166310952D01*
X129730476Y-166882380D01*
X130349523Y-166882380D01*
%TO.C,H3*%
X39878095Y-166882380D02*
X39878095Y-165882380D01*
X39878095Y-166358571D02*
X40449523Y-166358571D01*
X40449523Y-166882380D02*
X40449523Y-165882380D01*
X40830476Y-165882380D02*
X41449523Y-165882380D01*
X41116190Y-166263333D01*
X41259047Y-166263333D01*
X41354285Y-166310952D01*
X41401904Y-166358571D01*
X41449523Y-166453809D01*
X41449523Y-166691904D01*
X41401904Y-166787142D01*
X41354285Y-166834761D01*
X41259047Y-166882380D01*
X40973333Y-166882380D01*
X40878095Y-166834761D01*
X40830476Y-166787142D01*
%TO.C,H4*%
X128778095Y-104652380D02*
X128778095Y-103652380D01*
X128778095Y-104128571D02*
X129349523Y-104128571D01*
X129349523Y-104652380D02*
X129349523Y-103652380D01*
X130254285Y-103985714D02*
X130254285Y-104652380D01*
X130016190Y-103604761D02*
X129778095Y-104319047D01*
X130397142Y-104319047D01*
%TO.C,R1 240*%
X57713809Y-154122380D02*
X57380476Y-153646190D01*
X57142380Y-154122380D02*
X57142380Y-153122380D01*
X57523333Y-153122380D01*
X57618571Y-153170000D01*
X57666190Y-153217619D01*
X57713809Y-153312857D01*
X57713809Y-153455714D01*
X57666190Y-153550952D01*
X57618571Y-153598571D01*
X57523333Y-153646190D01*
X57142380Y-153646190D01*
X58666190Y-154122380D02*
X58094761Y-154122380D01*
X58380476Y-154122380D02*
X58380476Y-153122380D01*
X58285238Y-153265238D01*
X58190000Y-153360476D01*
X58094761Y-153408095D01*
X59809047Y-153217619D02*
X59856666Y-153170000D01*
X59951904Y-153122380D01*
X60190000Y-153122380D01*
X60285238Y-153170000D01*
X60332857Y-153217619D01*
X60380476Y-153312857D01*
X60380476Y-153408095D01*
X60332857Y-153550952D01*
X59761428Y-154122380D01*
X60380476Y-154122380D01*
X61237619Y-153455714D02*
X61237619Y-154122380D01*
X60999523Y-153074761D02*
X60761428Y-153789047D01*
X61380476Y-153789047D01*
X61951904Y-153122380D02*
X62047142Y-153122380D01*
X62142380Y-153170000D01*
X62190000Y-153217619D01*
X62237619Y-153312857D01*
X62285238Y-153503333D01*
X62285238Y-153741428D01*
X62237619Y-153931904D01*
X62190000Y-154027142D01*
X62142380Y-154074761D01*
X62047142Y-154122380D01*
X61951904Y-154122380D01*
X61856666Y-154074761D01*
X61809047Y-154027142D01*
X61761428Y-153931904D01*
X61713809Y-153741428D01*
X61713809Y-153503333D01*
X61761428Y-153312857D01*
X61809047Y-153217619D01*
X61856666Y-153170000D01*
X61951904Y-153122380D01*
%TO.C,R2 720*%
X57713809Y-160292380D02*
X57380476Y-159816190D01*
X57142380Y-160292380D02*
X57142380Y-159292380D01*
X57523333Y-159292380D01*
X57618571Y-159340000D01*
X57666190Y-159387619D01*
X57713809Y-159482857D01*
X57713809Y-159625714D01*
X57666190Y-159720952D01*
X57618571Y-159768571D01*
X57523333Y-159816190D01*
X57142380Y-159816190D01*
X58094761Y-159387619D02*
X58142380Y-159340000D01*
X58237619Y-159292380D01*
X58475714Y-159292380D01*
X58570952Y-159340000D01*
X58618571Y-159387619D01*
X58666190Y-159482857D01*
X58666190Y-159578095D01*
X58618571Y-159720952D01*
X58047142Y-160292380D01*
X58666190Y-160292380D01*
X59761428Y-159292380D02*
X60428095Y-159292380D01*
X59999523Y-160292380D01*
X60761428Y-159387619D02*
X60809047Y-159340000D01*
X60904285Y-159292380D01*
X61142380Y-159292380D01*
X61237619Y-159340000D01*
X61285238Y-159387619D01*
X61332857Y-159482857D01*
X61332857Y-159578095D01*
X61285238Y-159720952D01*
X60713809Y-160292380D01*
X61332857Y-160292380D01*
X61951904Y-159292380D02*
X62047142Y-159292380D01*
X62142380Y-159340000D01*
X62190000Y-159387619D01*
X62237619Y-159482857D01*
X62285238Y-159673333D01*
X62285238Y-159911428D01*
X62237619Y-160101904D01*
X62190000Y-160197142D01*
X62142380Y-160244761D01*
X62047142Y-160292380D01*
X61951904Y-160292380D01*
X61856666Y-160244761D01*
X61809047Y-160197142D01*
X61761428Y-160101904D01*
X61713809Y-159911428D01*
X61713809Y-159673333D01*
X61761428Y-159482857D01*
X61809047Y-159387619D01*
X61856666Y-159340000D01*
X61951904Y-159292380D01*
%TO.C,R3 1k*%
X58261428Y-166642380D02*
X57928095Y-166166190D01*
X57690000Y-166642380D02*
X57690000Y-165642380D01*
X58070952Y-165642380D01*
X58166190Y-165690000D01*
X58213809Y-165737619D01*
X58261428Y-165832857D01*
X58261428Y-165975714D01*
X58213809Y-166070952D01*
X58166190Y-166118571D01*
X58070952Y-166166190D01*
X57690000Y-166166190D01*
X58594761Y-165642380D02*
X59213809Y-165642380D01*
X58880476Y-166023333D01*
X59023333Y-166023333D01*
X59118571Y-166070952D01*
X59166190Y-166118571D01*
X59213809Y-166213809D01*
X59213809Y-166451904D01*
X59166190Y-166547142D01*
X59118571Y-166594761D01*
X59023333Y-166642380D01*
X58737619Y-166642380D01*
X58642380Y-166594761D01*
X58594761Y-166547142D01*
X60928095Y-166642380D02*
X60356666Y-166642380D01*
X60642380Y-166642380D02*
X60642380Y-165642380D01*
X60547142Y-165785238D01*
X60451904Y-165880476D01*
X60356666Y-165928095D01*
X61356666Y-166642380D02*
X61356666Y-165642380D01*
X61451904Y-166261428D02*
X61737619Y-166642380D01*
X61737619Y-165975714D02*
X61356666Y-166356666D01*
%TO.C,R4 10k*%
X84452380Y-117474761D02*
X83976190Y-117808095D01*
X84452380Y-118046190D02*
X83452380Y-118046190D01*
X83452380Y-117665238D01*
X83500000Y-117570000D01*
X83547619Y-117522380D01*
X83642857Y-117474761D01*
X83785714Y-117474761D01*
X83880952Y-117522380D01*
X83928571Y-117570000D01*
X83976190Y-117665238D01*
X83976190Y-118046190D01*
X83785714Y-116617619D02*
X84452380Y-116617619D01*
X83404761Y-116855714D02*
X84119047Y-117093809D01*
X84119047Y-116474761D01*
X84452380Y-114808095D02*
X84452380Y-115379523D01*
X84452380Y-115093809D02*
X83452380Y-115093809D01*
X83595238Y-115189047D01*
X83690476Y-115284285D01*
X83738095Y-115379523D01*
X83452380Y-114189047D02*
X83452380Y-114093809D01*
X83500000Y-113998571D01*
X83547619Y-113950952D01*
X83642857Y-113903333D01*
X83833333Y-113855714D01*
X84071428Y-113855714D01*
X84261904Y-113903333D01*
X84357142Y-113950952D01*
X84404761Y-113998571D01*
X84452380Y-114093809D01*
X84452380Y-114189047D01*
X84404761Y-114284285D01*
X84357142Y-114331904D01*
X84261904Y-114379523D01*
X84071428Y-114427142D01*
X83833333Y-114427142D01*
X83642857Y-114379523D01*
X83547619Y-114331904D01*
X83500000Y-114284285D01*
X83452380Y-114189047D01*
X84452380Y-113427142D02*
X83452380Y-113427142D01*
X84071428Y-113331904D02*
X84452380Y-113046190D01*
X83785714Y-113046190D02*
X84166666Y-113427142D01*
%TO.C,R5 10k*%
X79372380Y-117474761D02*
X78896190Y-117808095D01*
X79372380Y-118046190D02*
X78372380Y-118046190D01*
X78372380Y-117665238D01*
X78420000Y-117570000D01*
X78467619Y-117522380D01*
X78562857Y-117474761D01*
X78705714Y-117474761D01*
X78800952Y-117522380D01*
X78848571Y-117570000D01*
X78896190Y-117665238D01*
X78896190Y-118046190D01*
X78372380Y-116570000D02*
X78372380Y-117046190D01*
X78848571Y-117093809D01*
X78800952Y-117046190D01*
X78753333Y-116950952D01*
X78753333Y-116712857D01*
X78800952Y-116617619D01*
X78848571Y-116570000D01*
X78943809Y-116522380D01*
X79181904Y-116522380D01*
X79277142Y-116570000D01*
X79324761Y-116617619D01*
X79372380Y-116712857D01*
X79372380Y-116950952D01*
X79324761Y-117046190D01*
X79277142Y-117093809D01*
X79372380Y-114808095D02*
X79372380Y-115379523D01*
X79372380Y-115093809D02*
X78372380Y-115093809D01*
X78515238Y-115189047D01*
X78610476Y-115284285D01*
X78658095Y-115379523D01*
X78372380Y-114189047D02*
X78372380Y-114093809D01*
X78420000Y-113998571D01*
X78467619Y-113950952D01*
X78562857Y-113903333D01*
X78753333Y-113855714D01*
X78991428Y-113855714D01*
X79181904Y-113903333D01*
X79277142Y-113950952D01*
X79324761Y-113998571D01*
X79372380Y-114093809D01*
X79372380Y-114189047D01*
X79324761Y-114284285D01*
X79277142Y-114331904D01*
X79181904Y-114379523D01*
X78991428Y-114427142D01*
X78753333Y-114427142D01*
X78562857Y-114379523D01*
X78467619Y-114331904D01*
X78420000Y-114284285D01*
X78372380Y-114189047D01*
X79372380Y-113427142D02*
X78372380Y-113427142D01*
X78991428Y-113331904D02*
X79372380Y-113046190D01*
X78705714Y-113046190D02*
X79086666Y-113427142D01*
%TO.C,R6 10k*%
X71752380Y-117474761D02*
X71276190Y-117808095D01*
X71752380Y-118046190D02*
X70752380Y-118046190D01*
X70752380Y-117665238D01*
X70800000Y-117570000D01*
X70847619Y-117522380D01*
X70942857Y-117474761D01*
X71085714Y-117474761D01*
X71180952Y-117522380D01*
X71228571Y-117570000D01*
X71276190Y-117665238D01*
X71276190Y-118046190D01*
X70752380Y-116617619D02*
X70752380Y-116808095D01*
X70800000Y-116903333D01*
X70847619Y-116950952D01*
X70990476Y-117046190D01*
X71180952Y-117093809D01*
X71561904Y-117093809D01*
X71657142Y-117046190D01*
X71704761Y-116998571D01*
X71752380Y-116903333D01*
X71752380Y-116712857D01*
X71704761Y-116617619D01*
X71657142Y-116570000D01*
X71561904Y-116522380D01*
X71323809Y-116522380D01*
X71228571Y-116570000D01*
X71180952Y-116617619D01*
X71133333Y-116712857D01*
X71133333Y-116903333D01*
X71180952Y-116998571D01*
X71228571Y-117046190D01*
X71323809Y-117093809D01*
X71752380Y-114808095D02*
X71752380Y-115379523D01*
X71752380Y-115093809D02*
X70752380Y-115093809D01*
X70895238Y-115189047D01*
X70990476Y-115284285D01*
X71038095Y-115379523D01*
X70752380Y-114189047D02*
X70752380Y-114093809D01*
X70800000Y-113998571D01*
X70847619Y-113950952D01*
X70942857Y-113903333D01*
X71133333Y-113855714D01*
X71371428Y-113855714D01*
X71561904Y-113903333D01*
X71657142Y-113950952D01*
X71704761Y-113998571D01*
X71752380Y-114093809D01*
X71752380Y-114189047D01*
X71704761Y-114284285D01*
X71657142Y-114331904D01*
X71561904Y-114379523D01*
X71371428Y-114427142D01*
X71133333Y-114427142D01*
X70942857Y-114379523D01*
X70847619Y-114331904D01*
X70800000Y-114284285D01*
X70752380Y-114189047D01*
X71752380Y-113427142D02*
X70752380Y-113427142D01*
X71371428Y-113331904D02*
X71752380Y-113046190D01*
X71085714Y-113046190D02*
X71466666Y-113427142D01*
%TO.C,J4*%
X35902380Y-118443333D02*
X36616666Y-118443333D01*
X36759523Y-118490952D01*
X36854761Y-118586190D01*
X36902380Y-118729047D01*
X36902380Y-118824285D01*
X36235714Y-117538571D02*
X36902380Y-117538571D01*
X35854761Y-117776666D02*
X36569047Y-118014761D01*
X36569047Y-117395714D01*
%TO.C,R7 10k*%
X97155238Y-106952380D02*
X96821904Y-106476190D01*
X96583809Y-106952380D02*
X96583809Y-105952380D01*
X96964761Y-105952380D01*
X97060000Y-106000000D01*
X97107619Y-106047619D01*
X97155238Y-106142857D01*
X97155238Y-106285714D01*
X97107619Y-106380952D01*
X97060000Y-106428571D01*
X96964761Y-106476190D01*
X96583809Y-106476190D01*
X97488571Y-105952380D02*
X98155238Y-105952380D01*
X97726666Y-106952380D01*
X99821904Y-106952380D02*
X99250476Y-106952380D01*
X99536190Y-106952380D02*
X99536190Y-105952380D01*
X99440952Y-106095238D01*
X99345714Y-106190476D01*
X99250476Y-106238095D01*
X100440952Y-105952380D02*
X100536190Y-105952380D01*
X100631428Y-106000000D01*
X100679047Y-106047619D01*
X100726666Y-106142857D01*
X100774285Y-106333333D01*
X100774285Y-106571428D01*
X100726666Y-106761904D01*
X100679047Y-106857142D01*
X100631428Y-106904761D01*
X100536190Y-106952380D01*
X100440952Y-106952380D01*
X100345714Y-106904761D01*
X100298095Y-106857142D01*
X100250476Y-106761904D01*
X100202857Y-106571428D01*
X100202857Y-106333333D01*
X100250476Y-106142857D01*
X100298095Y-106047619D01*
X100345714Y-106000000D01*
X100440952Y-105952380D01*
X101202857Y-106952380D02*
X101202857Y-105952380D01*
X101298095Y-106571428D02*
X101583809Y-106952380D01*
X101583809Y-106285714D02*
X101202857Y-106666666D01*
%TD*%
M02*
