M48
; DRILL file {KiCad (5.1.6)-1} date 09/30/20 16:13:58
; FORMAT={-:-/ absolute / inch / decimal}
; #@! TF.CreationDate,2020-09-30T16:13:58+02:00
; #@! TF.GenerationSoftware,Kicad,Pcbnew,(5.1.6)-1
FMAT,2
INCH
T1C0.0157
T2C0.0315
T3C0.0354
T4C0.0394
T5C0.0433
T6C0.1260
%
G90
G05
T1
X3.45Y-4.9
X3.85Y-6.0
X4.15Y-6.2
X4.15Y-6.6
X4.15Y-6.7
T2
X1.55Y-4.4531
X1.55Y-4.65
X3.2Y-4.3
X3.2Y-4.8
X2.6Y-4.3
X2.6Y-4.8
X4.35Y-5.9531
X4.35Y-6.15
X1.7Y-5.35
X2.2Y-5.35
X2.95Y-6.55
X3.1469Y-6.55
X1.7Y-5.65
X2.2Y-5.65
X2.95Y-6.35
X3.1469Y-6.35
X3.65Y-6.05
X3.65Y-6.2469
X3.85Y-5.4
X3.85Y-5.5
X3.85Y-5.6
X3.85Y-5.7
X3.85Y-5.8
X3.85Y-5.9
X3.85Y-6.0
X3.85Y-6.1
X3.85Y-6.2
X3.85Y-6.3
X3.85Y-6.4
X3.85Y-6.5
X3.85Y-6.6
X3.85Y-6.7
X4.15Y-5.4
X4.15Y-5.5
X4.15Y-5.6
X4.15Y-5.7
X4.15Y-5.8
X4.15Y-5.9
X4.15Y-6.0
X4.15Y-6.1
X4.15Y-6.2
X4.15Y-6.3
X4.15Y-6.4
X4.15Y-6.5
X4.15Y-6.6
X4.15Y-6.7
X1.7Y-6.35
X2.2Y-6.35
X2.9Y-4.3
X2.9Y-4.8
X2.35Y-4.5031
X2.35Y-4.7
X3.4Y-6.35
X3.4Y-6.5421
X3.35Y-4.3
X3.85Y-4.3
X2.05Y-4.8213
X2.05Y-4.9
T3
X2.15Y-6.6
X2.25Y-6.6
T4
X4.6Y-5.85
X4.6Y-5.95
X4.6Y-6.05
X4.6Y-6.15
X5.1Y-4.7
X5.1Y-4.8
X5.1Y-4.9
X5.1Y-5.0
X3.45Y-4.7
X3.45Y-4.8
X3.45Y-4.9
X3.45Y-5.0
X1.55Y-4.85
X1.55Y-5.25
T5
X4.3441Y-4.2728
X4.3441Y-4.45
X4.6Y-4.2728
X4.6Y-4.45
X3.25Y-5.2941
X3.25Y-5.55
X3.4272Y-5.2941
X3.4272Y-5.55
X2.85Y-5.4941
X2.85Y-5.75
X3.0272Y-5.4941
X3.0272Y-5.75
X1.9Y-4.3
X2.1Y-4.3
X1.8Y-4.8
X1.8Y-4.9
X1.8Y-5.0
X2.45Y-5.6941
X2.45Y-5.95
X2.6272Y-5.6941
X2.6272Y-5.95
T6
X1.6Y-4.25
X5.1Y-6.7
X1.6Y-6.7
X5.1Y-4.25
T0
M30
